<?xml version="1.0" encoding="UTF-8" standalone="no"?>
<!DOCTYPE svg PUBLIC "-//W3C//DTD SVG 1.1//EN" "http://www.w3.org/Graphics/SVG/1.1/DTD/svg11.dtd">
<svg width="100%" height="100%" viewBox="0 0 512 512" version="1.1" xmlns="http://www.w3.org/2000/svg" xmlns:xlink="http://www.w3.org/1999/xlink" xml:space="preserve" style="fill-rule:evenodd;clip-rule:evenodd;stroke-linejoin:round;stroke-miterlimit:1.41421;">
    <path d="M509.818,312.314C509.736,312.224 501.529,303.183 493.372,287.551C485.571,272.601 466.412,257.355 458.66,251.579C457.741,237.955 454.868,202.398 449.289,190.543C442.766,176.681 407.968,160.261 393.31,153.845C381.978,148.885 343.053,132.7 317.93,132.7C286,132.7 253.63,146.568 245.434,150.33C240.316,150.035 228.644,148.729 216.375,147.354C193.265,144.766 164.504,141.546 149.842,141.546C134.764,141.546 112.467,152.675 96.628,163.091C85.914,170.137 69.208,182.642 63.738,195.126C42.444,198.45 31.492,217.966 22.54,233.931C16.722,244.307 11.227,254.107 4.586,257.428C0.49,259.477 -1.171,264.458 0.878,268.556C2.33,271.461 5.259,273.142 8.302,273.142C9.548,273.142 10.813,272.859 12.005,272.264C23.204,266.665 30.223,254.148 37.009,242.044C45.583,226.754 52.481,215.795 62.876,212.359C66.296,233.4 77.951,269.702 80.727,278.199C67.595,298.253 48.309,310.78 48.076,310.93C45.683,312.452 44.234,315.091 44.234,317.927L44.234,371.007C44.234,375.588 47.946,379.301 52.528,379.301L70.221,379.301C72.887,379.301 75.391,378.019 76.949,375.857C78.508,373.694 78.933,370.913 78.089,368.384L70.974,347.039C77.632,341.366 92.097,329.963 108.547,322.668L118.348,329.826L115.245,342.493C114.556,345.31 115.387,348.28 117.436,350.331L135.129,368.024C136.717,369.611 138.838,370.452 140.997,370.452C142.065,370.452 143.142,370.246 144.169,369.821C147.269,368.538 149.289,365.513 149.289,362.159L149.289,326.772C149.289,324.119 148.019,321.625 145.873,320.065L137.235,313.783C147.217,310.252 155.904,305.145 163.175,298.526C183.25,315.341 212.959,323.948 249.625,323.948C254.007,323.948 258.497,323.814 263.073,323.568L256.982,341.842C256.7,342.688 256.556,343.574 256.556,344.465L256.556,371.005C256.556,375.587 260.268,379.299 264.85,379.299L282.543,379.299C285.418,379.299 288.088,377.811 289.598,375.366C291.109,372.92 291.247,369.867 289.961,367.296L283.788,354.949L297.255,341.483C297.884,340.853 298.41,340.124 298.808,339.328L307.655,321.635C308.108,320.728 308.369,319.778 308.473,318.827C318.73,330.603 332.574,341.9 350.904,350.224L353.948,372.146C354.518,376.246 358.024,379.3 362.163,379.3L388.703,379.3C392.09,379.3 395.136,377.241 396.399,374.098C397.662,370.955 396.887,367.361 394.442,365.018C388.779,359.592 382.263,353.224 379.242,350.12C378.898,340.978 377.156,331.652 375.27,323.95C394.691,335.096 413.29,335.067 423.158,335.067L424.09,335.066C436.739,335.066 452.048,339.738 458.043,341.746C459.952,342.385 461.93,342.699 463.901,342.699C467.759,342.699 471.588,341.495 474.794,339.179L477.776,337.025C480.324,338.456 483.201,339.249 486.221,339.304C486.33,339.306 486.439,339.306 486.548,339.306C491.324,339.306 495.982,337.381 499.372,333.992L509.577,323.787C512.715,320.653 512.815,315.587 509.818,312.314ZM284.576,330.708L274.983,340.299L281.079,322.011C283.847,321.687 286.646,321.32 289.472,320.914L284.576,330.708ZM487.644,322.266C487.257,322.653 486.826,322.732 486.527,322.722C486.137,322.715 485.808,322.571 485.551,322.292C478.154,314.331 466.779,304.098 454.603,300.563C450.21,299.284 445.604,301.815 444.326,306.215C443.049,310.613 445.579,315.215 449.978,316.492C454.453,317.791 459.677,320.966 465.184,325.661L465.081,325.735C464.548,326.121 463.921,326.223 463.314,326.02C454.908,323.203 438.636,318.48 424.09,318.48L423.138,318.481C411.69,318.483 392.623,318.506 373.834,302.777C376.45,295.464 379.491,284.532 380.743,270.757C381.158,266.195 377.796,262.161 373.234,261.747C368.685,261.312 364.638,264.693 364.225,269.256C362.218,291.327 354.955,304.974 354.896,305.082C353.73,307.199 353.549,309.723 354.395,311.987C354.455,312.144 358.595,323.333 361.011,336.538C314.385,317.024 299.682,275.042 299.682,264.845C299.682,260.263 295.97,256.551 291.388,256.551C286.807,256.551 283.094,260.263 283.094,264.845C283.094,272.111 286.94,286.954 296.802,302.978C224.297,315.708 189.224,298.565 174.098,286.072C177.726,280.899 180.969,275.016 183.973,268.185C185.818,263.992 183.913,259.097 179.721,257.253C175.529,255.412 170.634,257.313 168.789,261.505C161.702,277.615 150.553,294.901 121.602,300.961C95.61,306.401 71.176,325.095 60.821,333.874L60.821,322.275C70.249,315.435 94.307,295.86 104.556,267.681C106.121,263.376 103.9,258.618 99.596,257.052C96.867,256.061 93.961,256.592 91.798,258.208C85.304,237.005 78.516,211.927 78.516,202.938C78.662,200.275 85.826,189.968 106.159,176.68C122.866,165.761 140.83,158.135 149.843,158.135C163.58,158.135 191.831,161.298 214.53,163.84C232.447,165.846 242.798,166.982 247.157,166.982C248.422,166.982 249.671,166.692 250.805,166.136C251.15,165.968 285.577,149.289 317.931,149.289C332.269,149.289 359.246,157.043 386.659,169.042C416.025,181.895 432.435,193.686 434.281,197.607C438.08,205.679 441.248,238.012 442.354,256.497C442.505,259.036 443.813,261.364 445.902,262.815C452.818,267.618 472.185,282.802 478.667,295.226C483.788,305.04 488.927,312.54 492.561,317.353L487.644,322.266Z" style="fill-rule:nonzero;"/>
    <path d="M424.38,206.456C421.505,203.004 406.395,185.779 391.469,185.779C388.677,185.779 383.401,186.814 379.458,193.75C372.544,205.912 372.446,231.409 384.343,251.395C385.893,254.001 388.65,255.448 391.477,255.448C392.92,255.448 394.382,255.071 395.711,254.279C399.648,251.937 400.939,246.847 398.595,242.911C388.975,226.749 390.794,208.336 393.435,202.697C398.825,204.324 407.07,211.624 411.637,217.076C414.569,220.594 419.798,221.069 423.318,218.138C426.837,215.207 427.311,209.976 424.38,206.456Z" style="fill-rule:nonzero;"/>
</svg>
