<svg height="512pt" viewBox="0 -35 512.00019 512" width="512pt" xmlns="http://www.w3.org/2000/svg"><path d="m464.027344 6.875c-5.578125-4.886719-12.730469-7.296875-20.121094-6.8125-7.394531.488281-14.160156 3.832031-19.042969 9.40625-8.941406 10.214844-9.226562 25.257812-.660156 35.792969l.46875.570312c9.90625 12.207031 16.042969 27.285157 17.28125 42.488281 1.816406 20.96875-6.179687 42.296876-21.394531 57.054688-14.320313 13.890625-32.796875 20.292969-52.050782 18.035156-1.625-.191406-3.257812-.296875-4.886718-.328125-24.371094-31.121093-62.273438-51.152343-104.773438-51.152343h-5.691406c-42.5 0-80.410156 20.035156-104.777344 51.160156-1.628906.035156-3.265625.132812-4.882812.320312-19.242188 2.265625-37.730469-4.140625-52.050782-18.03125-15.214843-14.757812-23.210937-36.085937-21.390624-57.09375 1.234374-15.167968 7.371093-30.242187 17.261718-42.429687l.5-.609375c8.550782-10.515625 8.265625-25.5625-.675781-35.773438-4.882813-5.578125-11.644531-8.917968-19.042969-9.410156-7.386718-.480469-14.539062 1.929688-20.117187 6.8125-42.71875 37.410156-58.945313 98.996094-40.390625 153.222656 1.410156 4.1875 3.042968 8.375 4.84375 12.445313 1.6875 3.808593 6.140625 5.527343 9.949218 3.84375 3.808594-1.6875 5.527344-6.144531 3.839844-9.949219-1.617187-3.652344-3.078125-7.40625-4.355468-11.1875-16.605469-48.539062-2.121094-103.605469 36.046874-137.027344 2.546876-2.230468 5.820313-3.335937 9.1875-3.113281 3.375.222656 6.464844 1.75 8.695313 4.296875 4.082031 4.664062 4.214844 11.53125.328125 16.308594l-.5.613281c-11.808594 14.546875-19.125 32.5625-20.601562 50.691406-2.203126 25.4375 7.488281 51.300781 25.921874 69.183594 15.140626 14.6875 34.882813 22.714844 55.25 22.714844.507813 0 1.019532-.011719 1.53125-.019531-11.03125 19.199218-17.398437 41.398437-17.574218 65.042968-19.164063-4.65625-37.074219-13.109375-52.242188-24.726562-10.457031-7.984375-19.707031-17.460938-27.484375-28.164063-2.449219-3.371093-7.164062-4.113281-10.53125-1.667969-3.371093 2.449219-4.117187 7.164063-1.667969 10.53125 8.636719 11.886719 18.910157 22.414063 30.523438 31.28125 17.75 13.597657 38.863281 23.273438 61.386719 28.210938v48.765625c0 41.621094 33.863281 75.484375 75.484375 75.484375h1.234375l1.359375 27.886719c.808594 16.636719 14.488281 29.664062 31.144531 29.664062h53.957031c16.652344 0 30.332032-13.027343 31.144532-29.664062l1.359374-27.886719h.5625c41.621094 0 75.484376-33.863281 75.484376-75.484375v-48.765625c22.523437-4.9375 43.636718-14.613281 61.378906-28.203125 23.617187-18.039063 41.789062-43.289063 51.15625-71.070313 18.566406-54.261718 2.339844-115.847656-40.375-153.257812zm-87.242188 301.296875c0 33.304687-27.09375 60.402344-60.402344 60.402344h-31.054687c-.429687-17.898438-10.363281-49.371094-28.988281-49.371094-19.050782 0-29.011719 32.925781-29.011719 50.574219 0 2.671875.199219 5.222656.597656 7.582031.628907 3.78125 3.796875 6.023437 7.4375 6.292969h65.359375l-1.324218 27.15625c-.417969 8.589844-7.484376 15.316406-16.082032 15.316406h-53.957031c-8.597656 0-15.664063-6.726562-16.082031-15.316406l-1.707032-35.066406c-.199218-3.949219-3.578124-7.171876-7.535156-7.171876h-8.414062c-33.304688 0-60.402344-27.09375-60.402344-60.398437v-63.226563c0-37.460937 17.558594-70.894531 44.875-92.515624v27.992187l-9.722656 9.726563c-2.945313 2.945312-2.945313 7.71875 0 10.664062 1.472656 1.472656 3.402344 2.207031 5.332031 2.207031s3.859375-.734375 5.332031-2.207031l6.597656-6.601562 13.300782 13.300781c1.472656 1.472656 3.402344 2.207031 5.332031 2.207031s3.859375-.734375 5.332031-2.207031c2.945313-2.945313 2.945313-7.71875 0-10.664063l-16.421875-16.425781v-38.144531c17.132813-9.714844 36.917969-15.273438 57.980469-15.273438h5.691406c65.03125 0 117.9375 52.910156 117.9375 117.941406zm-106.535156 60.402344h-27.824219c.214844-7.46875 2.363281-16.660157 5.597657-23.789063 3.597656-7.929687 7.15625-10.5 8.316406-10.5 1.15625 0 4.714844 2.570313 8.3125 10.5 3.234375 7.128906 5.382812 16.320313 5.597656 23.789063zm219.875-213.292969c-8.429688 24.996094-24.777344 47.703125-46.042969 63.941406-15.15625 11.609375-33.0625 20.0625-52.230469 24.71875-.175781-23.644531-6.542968-45.84375-17.574218-65.042968 20.910156.414062 41.261718-7.640626 56.78125-22.695313 18.433594-17.882813 28.125-43.746094 25.921875-69.144531-1.480469-18.167969-8.796875-36.183594-20.617188-50.75l-.472656-.574219c-3.898437-4.796875-3.765625-11.664063.316406-16.328125 2.230469-2.546875 5.320313-4.070312 8.695313-4.296875 3.367187-.222656 6.640625.882813 9.1875 3.113281 38.167968 33.421875 52.652344 88.488282 36.035156 137.058594zm0 0"/><path d="m203.636719 242.738281c-12.511719-2.851562-24.9375-.417969-34.992188 6.859375-9.484375 6.859375-16.289062 17.585938-19.164062 30.195313-2.875 12.613281-1.390625 25.226562 4.179687 35.519531 5.910156 10.914062 16.054688 18.496094 28.566406 21.347656 3.113282.710938 6.117188 1.0625 8.996094 1.0625 8.917969 0 16.628906-3.386718 22.609375-10.019531 5.976563-6.617187 10.238281-16.207031 13.425781-30.175781 3.183594-13.972656 3.496094-24.460938.984376-33.015625-3.332032-11.332031-11.839844-18.859375-24.605469-21.773438zm8.914062 51.4375c-2.550781 11.199219-5.796875 18.859375-9.914062 23.425781-2.871094 3.183594-7.402344 6.554688-17.0625 4.355469-16.921875-3.859375-25.722657-19.820312-21.390625-38.8125 2.058594-9.039062 6.785156-16.613281 13.300781-21.328125 6.578125-4.761718 14.464844-6.273437 22.800781-4.371094 9.652344 2.199219 12.277344 7.203126 13.484375 11.320313 1.734375 5.894531 1.335938 14.210937-1.21875 25.410156zm0 0"/><path d="m325.910156 321.957031c-9.652344 2.199219-14.1875-1.171875-17.058594-4.355469-4.121093-4.566406-7.363281-12.226562-9.917968-23.425781-2.550782-11.199219-2.949219-19.511719-1.21875-25.410156 1.210937-4.117187 3.835937-9.121094 13.488281-11.320313 6.519531-1.488281 12.671875-.910156 18.285156 1.710938 3.777344 1.757812 8.261719.128906 10.023438-3.640625 1.761719-3.777344.132812-8.261719-3.640625-10.027344-8.605469-4.015625-18.296875-4.96875-28.019532-2.75-12.765624 2.910157-21.273437 10.441407-24.605468 21.773438-2.511719 8.554687-2.199219 19.042969.984375 33.015625 3.1875 13.96875 7.453125 23.558594 13.425781 30.175781 5.980469 6.632813 13.691406 10.019531 22.613281 10.019531 2.875 0 5.878907-.351562 8.996094-1.0625 12.511719-2.851562 22.652344-10.433594 28.5625-21.347656 5.570313-10.292969 7.054687-22.90625 4.179687-35.519531-.546874-2.398438-1.246093-4.765625-2.078124-7.035157-1.433594-3.90625-5.765626-5.910156-9.675782-4.484374-3.910156 1.433593-5.917968 5.765624-4.484375 9.675781.613281 1.671875 1.128907 3.417969 1.535157 5.199219 2.0625 9.039062 1.089843 17.914062-2.738282 24.984374-3.871094 7.144532-10.320312 11.921876-18.65625 13.824219zm0 0"/></svg>