<?xml version="1.0" encoding="UTF-8" standalone="yes"?>
<svg id="map2svg" xml:space="preserve" x="0" y="0" width="100%" viewBox="0 0 71000 59000" onload="setup(evt);" xmlns="http://www.w3.org/2000/svg" xmlns:xlink="http://www.w3.org/1999/xlink">
  
  <g id="map-matrix" transform="matrix(1 0 0 1 0 0)">
    <g id="datapoints" style="pointer-events:all" >
      <use id="32VKM4" x="34997.83" y="26844.6" xlink:href="#post70_1"/>
      <use id="32VLK1" x="35349.42" y="28400.12" xlink:href="#post70_1"/>
      <use id="32VLK3" x="35850.16" y="28451.07" xlink:href="#post70_1"/>
      <use id="32VLK4" x="35798.85" y="28951.47" xlink:href="#post70_1"/>
      <use id="32VLL1" x="35450.45" y="27397.21" xlink:href="#post70_1"/>
      <use id="32VLL2" x="35399.96" y="27899.05" xlink:href="#post70_1"/>
      <use id="32VLL4" x="35901.45" y="27949.94" xlink:href="#post70_1"/>
      <use id="32VLM4" x="36003.95" y="26945.37" xlink:href="#post70_1"/>
      <use id="32VLN4" x="36106.38" y="25937.4" xlink:href="#post70_1"/>
      <use id="32VLP3" x="36259.91" y="24418.32" xlink:href="#post70_1"/>
      <use id="32VLP4" x="36208.74" y="24925.69" xlink:href="#post70_1"/>
      <use id="32VLQ3" x="36362.2" y="23400.28" xlink:href="#post70_1"/>
      <use id="32VLQ4" x="36311.06" y="23909.87" xlink:href="#post70_1"/>
      <use id="32VMK1" x="36350.92" y="28502.72" xlink:href="#post70_1"/>
      <use id="32VMK2" x="36298.91" y="29003.13" xlink:href="#post70_1"/>
      <use id="32VMK3" x="36851.67" y="28555.1" xlink:href="#post70_1"/>
      <use id="32VML1" x="36455" y="27499.71" xlink:href="#post70_1"/>
      <use id="32VML2" x="36402.96" y="28001.6" xlink:href="#post70_1"/>
      <use id="32VML3" x="36957.26" y="27552.16" xlink:href="#post70_1"/>
      <use id="32VML4" x="36904.44" y="28054.02" xlink:href="#post70_1"/>
      <use id="32VMM1" x="36559.16" y="26493.49" xlink:href="#post70_1"/>
      <use id="32VMM2" x="36507.06" y="26997.03" xlink:href="#post70_1"/>
      <use id="32VMM3" x="37063.1" y="26546.04" xlink:href="#post70_1"/>
      <use id="32VMM4" x="37010.15" y="27049.52" xlink:href="#post70_1"/>
      <use id="32VMN1" x="36663.42" y="25483.71" xlink:href="#post70_1"/>
      <use id="32VMN2" x="36611.27" y="25989.07" xlink:href="#post70_1"/>
      <use id="32VMN3" x="37169.23" y="25536.36" xlink:href="#post70_1"/>
      <use id="32VMN4" x="37116.13" y="26041.67" xlink:href="#post70_1"/>
      <use id="32VMP1" x="36767.81" y="24470.02" xlink:href="#post70_1"/>
      <use id="32VMP2" x="36715.6" y="24977.39" xlink:href="#post70_1"/>
      <use id="32VMP3" x="37275.68" y="24522.8" xlink:href="#post70_1"/>
      <use id="32VMP4" x="37222.42" y="25030.09" xlink:href="#post70_1"/>
      <use id="32VMQ1" x="36872.37" y="23452.02" xlink:href="#post70_1"/>
      <use id="32VMQ2" x="36820.07" y="23961.58" xlink:href="#post70_1"/>
      <use id="32VMQ3" x="37382.48" y="23504.92" xlink:href="#post70_1"/>
      <use id="32VMQ4" x="37329.03" y="24014.42" xlink:href="#post70_1"/>
      <use id="32VMR4" x="37436.03" y="22994.26" xlink:href="#post70_1"/>
      <use id="32VNL1" x="37459.47" y="27605.42" xlink:href="#post70_1"/>
      <use id="32VNL2" x="37405.87" y="28107.19" xlink:href="#post70_1"/>
      <use id="32VNL3" x="37961.57" y="27659.47" xlink:href="#post70_1"/>
      <use id="32VNL4" x="37907.19" y="28161.11" xlink:href="#post70_1"/>
      <use id="32VNM1" x="37566.99" y="26599.47" xlink:href="#post70_1"/>
      <use id="32VNM2" x="37513.17" y="27102.86" xlink:href="#post70_1"/>
      <use id="32VNM3" x="38070.75" y="26653.78" xlink:href="#post70_1"/>
      <use id="32VNM4" x="38016.08" y="27157.04" xlink:href="#post70_1"/>
      <use id="32VNN1" x="37674.97" y="25589.99" xlink:href="#post70_1"/>
      <use id="32VNN2" x="37620.92" y="26095.19" xlink:href="#post70_1"/>
      <use id="32VNN3" x="38180.58" y="25644.59" xlink:href="#post70_1"/>
      <use id="32VNN4" x="38125.58" y="26149.65" xlink:href="#post70_1"/>
      <use id="32VNP1" x="37783.46" y="24576.64" xlink:href="#post70_1"/>
      <use id="32VNP2" x="37729.15" y="25083.82" xlink:href="#post70_1"/>
      <use id="32VNP3" x="38291.1" y="24631.55" xlink:href="#post70_1"/>
      <use id="32VNP4" x="38235.75" y="25138.58" xlink:href="#post70_1"/>
      <use id="32VNQ1" x="37892.5" y="23559.01" xlink:href="#post70_1"/>
      <use id="32VNQ2" x="37837.91" y="24068.38" xlink:href="#post70_1"/>
      <use id="32VNQ4" x="38346.64" y="24123.46" xlink:href="#post70_1"/>
      <use id="32VNR1" x="38002.14" y="22536.71" xlink:href="#post70_1"/>
      <use id="32VNR2" x="37947.24" y="23048.47" xlink:href="#post70_1"/>
      <use id="32VNR3" x="38514.45" y="22592.32" xlink:href="#post70_1"/>
      <use id="32VNR4" x="38458.3" y="23103.89" xlink:href="#post70_1"/>
      <use id="32VPJ3" x="38791.4" y="29776.09" xlink:href="#post70_1"/>
      <use id="32VPJ4" x="38758.27" y="30277.07" xlink:href="#post70_1"/>
      <use id="32VPK1" x="38353.43" y="28716.52" xlink:href="#post70_1"/>
      <use id="32VPK3" x="38857.78" y="28772.17" xlink:href="#post70_1"/>
      <use id="32VPK4" x="38824.57" y="29274.47" xlink:href="#post70_1"/>
      <use id="32VPL1" x="38463.52" y="27714.3" xlink:href="#post70_1"/>
      <use id="32VPL2" x="38408.38" y="28215.77" xlink:href="#post70_1"/>
      <use id="32VPL3" x="38924.36" y="27765.35" xlink:href="#post70_1"/>
      <use id="32VPL4" x="38891.04" y="28269.14" xlink:href="#post70_1"/>
      <use id="32VPM1" x="38574.36" y="26708.97" xlink:href="#post70_1"/>
      <use id="32VPM2" x="38518.84" y="27212.05" xlink:href="#post70_1"/>
      <use id="32VPN1" x="38745.79" y="25706.8" xlink:href="#post70_1"/>
      <use id="32VPN2" x="38701.28" y="26212.91" xlink:href="#post70_1"/>
      <use id="32VPP1" x="38835.19" y="24691.6" xlink:href="#post70_1"/>
      <use id="32VPP2" x="38790.42" y="25199.7" xlink:href="#post70_1"/>
      <use id="32VPQ1" x="38925.16" y="23672.13" xlink:href="#post70_1"/>
      <use id="32VPQ2" x="38880.1" y="24182.42" xlink:href="#post70_1"/>
      <use id="32VPR1" x="39015.73" y="22647.99" xlink:href="#post70_1"/>
      <use id="32VPR2" x="38970.38" y="23160.67" xlink:href="#post70_1"/>
      <use id="32WNS4" x="38570.8" y="22079.48" xlink:href="#post70_1"/>
      <use id="32WPS1" x="39106.98" y="21618.74" xlink:href="#post70_1"/>
      <use id="32WPS2" x="39061.27" y="22134.04" xlink:href="#post70_1"/>
      <use id="32WPT1" x="39198.94" y="20583.95" xlink:href="#post70_1"/>
      <use id="33UUB3" x="39294.56" y="31791.41" xlink:href="#post70_1"/>
      <use id="33UVB1" x="39794.26" y="31803.64" xlink:href="#post70_1"/>
      <use id="33UVP1" x="39589.13" y="39760.67" xlink:href="#post70_1"/>
      <use id="33UVP3" x="40085.47" y="39773.83" xlink:href="#post70_1"/>
      <use id="33UVQ2" x="39602.28" y="39264.37" xlink:href="#post70_1"/>
      <use id="33UVQ4" x="40098.6" y="39277.5" xlink:href="#post70_1"/>
      <use id="33UVU3" x="40216.11" y="34807.37" xlink:href="#post70_1"/>
      <use id="33UVV4" x="40229.11" y="34309.75" xlink:href="#post70_1"/>
      <use id="33UWP1" x="40581.82" y="39786.94" xlink:href="#post70_1"/>
      <use id="33UWQ2" x="40594.92" y="39290.61" xlink:href="#post70_1"/>
      <use id="33UWQ4" x="41091.23" y="39303.7" xlink:href="#post70_1"/>
      <use id="33UWS1" x="40660.65" y="36808.54" xlink:href="#post70_1"/>
      <use id="33UWT3" x="41184.05" y="35828.28" xlink:href="#post70_1"/>
      <use id="33UWU2" x="40700.32" y="35317.85" xlink:href="#post70_1"/>
      <use id="33UWU3" x="41211.04" y="34833.93" xlink:href="#post70_1"/>
      <use id="33UWU4" x="41197.51" y="35331.22" xlink:href="#post70_1"/>
      <use id="33UXA1" x="41764.48" y="32855.68" xlink:href="#post70_1"/>
      <use id="33UXA3" x="42227.73" y="32869.05" xlink:href="#post70_1"/>
      <use id="33UXU1" x="41708.44" y="34847.61" xlink:href="#post70_1"/>
      <use id="33UXU2" x="41694.66" y="35344.83" xlink:href="#post70_1"/>
      <use id="33UXV2" x="41722.3" y="34350.13" xlink:href="#post70_1"/>
      <use id="33UXV3" x="42220.03" y="33866.09" xlink:href="#post70_1"/>
      <use id="33VUC2" x="38874.28" y="31281.4" xlink:href="#post70_1"/>
      <use id="33VUC3" x="39318.38" y="30791.08" xlink:href="#post70_1"/>
      <use id="33VUC4" x="39306.52" y="31291.51" xlink:href="#post70_1"/>
      <use id="33VUD3" x="39341.89" y="29788.52" xlink:href="#post70_1"/>
      <use id="33VUD4" x="39330.18" y="30290.1" xlink:href="#post70_1"/>
      <use id="33VUE3" x="39365.06" y="28783.41" xlink:href="#post70_1"/>
      <use id="33VUE4" x="39353.52" y="29286.3" xlink:href="#post70_1"/>
      <use id="33VUF3" x="39387.91" y="27775.42" xlink:href="#post70_1"/>
      <use id="33VUF4" x="39376.53" y="28279.79" xlink:href="#post70_1"/>
      <use id="33VUG3" x="39410.41" y="26764.25" xlink:href="#post70_1"/>
      <use id="33VUG4" x="39399.2" y="27270.26" xlink:href="#post70_1"/>
      <use id="33VUH3" x="39372.43" y="25748.24" xlink:href="#post70_1"/>
      <use id="33VUH4" x="39349.9" y="26255.8" xlink:href="#post70_1"/>
      <use id="33VUJ3" x="39417.47" y="24730.11" xlink:href="#post70_1"/>
      <use id="33VUJ4" x="39394.95" y="25239.68" xlink:href="#post70_1"/>
      <use id="33VUK3" x="39462.53" y="23707.66" xlink:href="#post70_1"/>
      <use id="33VUK4" x="39440" y="24219.45" xlink:href="#post70_1"/>
      <use id="33VUL3" x="39507.59" y="22680.51" xlink:href="#post70_1"/>
      <use id="33VUL4" x="39485.05" y="23194.7" xlink:href="#post70_1"/>
      <use id="33VVC1" x="39819.12" y="30803.2" xlink:href="#post70_1"/>
      <use id="33VVC2" x="39806.71" y="31303.67" xlink:href="#post70_1"/>
      <use id="33VVC3" x="40319.9" y="30815.86" xlink:href="#post70_1"/>
      <use id="33VVC4" x="40306.95" y="31316.37" xlink:href="#post70_1"/>
      <use id="33VVD1" x="39843.82" y="29800.5" xlink:href="#post70_1"/>
      <use id="33VVD2" x="39831.49" y="30302.14" xlink:href="#post70_1"/>
      <use id="33VVD3" x="40345.79" y="29813.13" xlink:href="#post70_1"/>
      <use id="33VVD4" x="40332.85" y="30314.79" xlink:href="#post70_1"/>
      <use id="33VVE1" x="39868.35" y="28795.26" xlink:href="#post70_1"/>
      <use id="33VVE2" x="39856.11" y="29298.22" xlink:href="#post70_1"/>
      <use id="33VVE3" x="40371.67" y="28807.85" xlink:href="#post70_1"/>
      <use id="33VVE4" x="40358.73" y="29310.83" xlink:href="#post70_1"/>
      <use id="33VVF1" x="39892.7" y="27787.16" xlink:href="#post70_1"/>
      <use id="33VVF2" x="39880.55" y="28291.59" xlink:href="#post70_1"/>
      <use id="33VVF3" x="40397.55" y="27799.7" xlink:href="#post70_1"/>
      <use id="33VVF4" x="40384.61" y="28304.16" xlink:href="#post70_1"/>
      <use id="33VVG1" x="39916.89" y="26775.85" xlink:href="#post70_1"/>
      <use id="33VVG2" x="39904.82" y="27281.94" xlink:href="#post70_1"/>
      <use id="33VVG3" x="40423.42" y="26788.35" xlink:href="#post70_1"/>
      <use id="33VVG4" x="40410.48" y="27294.45" xlink:href="#post70_1"/>
      <use id="33VVH1" x="39940.9" y="25760.99" xlink:href="#post70_1"/>
      <use id="33VVH2" x="39928.92" y="26268.9" xlink:href="#post70_1"/>
      <use id="33VVH3" x="40449.3" y="25773.44" xlink:href="#post70_1"/>
      <use id="33VVH4" x="40436.36" y="26281.36" xlink:href="#post70_1"/>
      <use id="33VVJ1" x="39964.74" y="24742.22" xlink:href="#post70_1"/>
      <use id="33VVJ2" x="39952.84" y="25252.12" xlink:href="#post70_1"/>
      <use id="33VVJ3" x="40475.19" y="24754.63" xlink:href="#post70_1"/>
      <use id="33VVJ4" x="40462.24" y="25264.55" xlink:href="#post70_1"/>
      <use id="33VVK1" x="39988.38" y="23719.13" xlink:href="#post70_1"/>
      <use id="33VVK2" x="39976.58" y="24231.24" xlink:href="#post70_1"/>
      <use id="33VVK3" x="40501.09" y="23731.5" xlink:href="#post70_1"/>
      <use id="33VVK4" x="40488.13" y="24243.63" xlink:href="#post70_1"/>
      <use id="33VVL1" x="40011.85" y="22691.34" xlink:href="#post70_1"/>
      <use id="33VVL2" x="40000.14" y="23205.85" xlink:href="#post70_1"/>
      <use id="33VVL3" x="40527.01" y="22703.66" xlink:href="#post70_1"/>
      <use id="33VVL4" x="40514.05" y="23218.19" xlink:href="#post70_1"/>
      <use id="33VWC1" x="40820.68" y="30829.09" xlink:href="#post70_1"/>
      <use id="33VWC2" x="40807.19" y="31329.59" xlink:href="#post70_1"/>
      <use id="33VWC3" x="41321.43" y="30842.88" xlink:href="#post70_1"/>
      <use id="33VWC4" x="41307.4" y="31343.32" xlink:href="#post70_1"/>
      <use id="33VWD1" x="40847.77" y="29826.39" xlink:href="#post70_1"/>
      <use id="33VWD2" x="40834.21" y="30328.04" xlink:href="#post70_1"/>
      <use id="33VWD3" x="41349.71" y="29840.28" xlink:href="#post70_1"/>
      <use id="33VWD4" x="41335.53" y="30341.87" xlink:href="#post70_1"/>
      <use id="33VWE1" x="40875" y="28821.14" xlink:href="#post70_1"/>
      <use id="33VWE2" x="40861.37" y="29324.11" xlink:href="#post70_1"/>
      <use id="33VWE3" x="41378.29" y="28835.15" xlink:href="#post70_1"/>
      <use id="33VWE4" x="41363.96" y="29338.05" xlink:href="#post70_1"/>
      <use id="33VWF1" x="40902.39" y="27813.03" xlink:href="#post70_1"/>
      <use id="33VWF2" x="40888.68" y="28317.47" xlink:href="#post70_1"/>
      <use id="33VWF3" x="41407.19" y="27827.17" xlink:href="#post70_1"/>
      <use id="33VWF4" x="41392.7" y="28331.54" xlink:href="#post70_1"/>
      <use id="33VWG1" x="40929.95" y="26801.73" xlink:href="#post70_1"/>
      <use id="33VWG2" x="40916.15" y="27307.8" xlink:href="#post70_1"/>
      <use id="33VWG3" x="41436.43" y="26815.99" xlink:href="#post70_1"/>
      <use id="33VWG4" x="41421.77" y="27322.01" xlink:href="#post70_1"/>
      <use id="33VWH1" x="40957.69" y="25786.88" xlink:href="#post70_1"/>
      <use id="33VWH2" x="40943.8" y="26294.77" xlink:href="#post70_1"/>
      <use id="33VWH3" x="41466.04" y="25801.28" xlink:href="#post70_1"/>
      <use id="33VWH4" x="41451.19" y="26309.11" xlink:href="#post70_1"/>
      <use id="33VWJ1" x="40985.63" y="24768.11" xlink:href="#post70_1"/>
      <use id="33VWJ2" x="40971.64" y="25278" xlink:href="#post70_1"/>
      <use id="33VWJ3" x="41496.03" y="24782.67" xlink:href="#post70_1"/>
      <use id="33VWJ4" x="41480.98" y="25292.49" xlink:href="#post70_1"/>
      <use id="33VWK1" x="41013.79" y="23745.04" xlink:href="#post70_1"/>
      <use id="33VWK2" x="40999.69" y="24257.14" xlink:href="#post70_1"/>
      <use id="33VWK3" x="41526.43" y="23759.76" xlink:href="#post70_1"/>
      <use id="33VWK4" x="41511.17" y="24271.78" xlink:href="#post70_1"/>
      <use id="33VWL1" x="41042.17" y="22717.27" xlink:href="#post70_1"/>
      <use id="33VWL2" x="41027.95" y="23231.77" xlink:href="#post70_1"/>
      <use id="33VWL3" x="41557.27" y="22732.16" xlink:href="#post70_1"/>
      <use id="33VWL4" x="41541.79" y="23246.57" xlink:href="#post70_1"/>
      <use id="33VXC1" x="41822.11" y="30857.22" xlink:href="#post70_1"/>
      <use id="33VXD1" x="41851.57" y="29854.82" xlink:href="#post70_1"/>
      <use id="33VXD2" x="41836.78" y="30356.31" xlink:href="#post70_1"/>
      <use id="33VXF1" x="41911.91" y="27842.1" xlink:href="#post70_1"/>
      <use id="33VXF2" x="41896.64" y="28346.36" xlink:href="#post70_1"/>
      <use id="33VXF3" x="42375.34" y="27856.52" xlink:href="#post70_1"/>
      <use id="33VXF4" x="42382.01" y="28361.37" xlink:href="#post70_1"/>
      <use id="33VXG1" x="41942.82" y="26831.15" xlink:href="#post70_1"/>
      <use id="33VXG2" x="41927.3" y="27337.05" xlink:href="#post70_1"/>
      <use id="33VXH1" x="42034.4" y="25818.56" xlink:href="#post70_1"/>
      <use id="33VXH2" x="42030.09" y="26326.6" xlink:href="#post70_1"/>
      <use id="33VXJ1" x="42043.17" y="24799.47" xlink:href="#post70_1"/>
      <use id="33VXJ2" x="42038.75" y="25309.52" xlink:href="#post70_1"/>
      <use id="33VXK1" x="42052.16" y="23776.07" xlink:href="#post70_1"/>
      <use id="33VXK2" x="42047.63" y="24288.34" xlink:href="#post70_1"/>
      <use id="33VXL1" x="42061.39" y="22747.98" xlink:href="#post70_1"/>
      <use id="33VXL2" x="42056.75" y="23262.64" xlink:href="#post70_1"/>
      <use id="33WUM3" x="39552.66" y="21648.21" xlink:href="#post70_1"/>
      <use id="33WUM4" x="39530.12" y="22165.04" xlink:href="#post70_1"/>
      <use id="33WUN3" x="39597.77" y="20610.32" xlink:href="#post70_1"/>
      <use id="33WUN4" x="39575.21" y="21129.99" xlink:href="#post70_1"/>
      <use id="33WUP4" x="39620.33" y="20089.13" xlink:href="#post70_1"/>
      <use id="33WVM1" x="40035.11" y="21658.41" xlink:href="#post70_1"/>
      <use id="33WVM2" x="40023.51" y="22175.54" xlink:href="#post70_1"/>
      <use id="33WVM3" x="40552.96" y="21670.69" xlink:href="#post70_1"/>
      <use id="33WVM4" x="40539.98" y="22187.85" xlink:href="#post70_1"/>
      <use id="33WVN1" x="40058.18" y="20619.87" xlink:href="#post70_1"/>
      <use id="33WVN2" x="40046.67" y="21139.87" xlink:href="#post70_1"/>
      <use id="33WVN3" x="40578.94" y="20632.11" xlink:href="#post70_1"/>
      <use id="33WVN4" x="40565.95" y="21152.13" xlink:href="#post70_1"/>
      <use id="33WVP1" x="40081.03" y="19575.27" xlink:href="#post70_1"/>
      <use id="33WVP2" x="40069.63" y="20098.37" xlink:href="#post70_1"/>
      <use id="33WVP3" x="40604.95" y="19587.47" xlink:href="#post70_1"/>
      <use id="33WVP4" x="40591.94" y="20110.58" xlink:href="#post70_1"/>
      <use id="33WVQ2" x="40092.37" y="19050.53" xlink:href="#post70_1"/>
      <use id="33WVQ3" x="40631.01" y="18536.22" xlink:href="#post70_1"/>
      <use id="33WVQ4" x="40617.97" y="19062.7" xlink:href="#post70_1"/>
      <use id="33WWM1" x="41070.8" y="21684.37" xlink:href="#post70_1"/>
      <use id="33WWM2" x="41056.45" y="22201.49" xlink:href="#post70_1"/>
      <use id="33WWM3" x="41588.57" y="21699.45" xlink:href="#post70_1"/>
      <use id="33WWM4" x="41572.85" y="22216.47" xlink:href="#post70_1"/>
      <use id="33WWN1" x="41099.69" y="20645.87" xlink:href="#post70_1"/>
      <use id="33WWN2" x="41085.21" y="21165.85" xlink:href="#post70_1"/>
      <use id="33WWN3" x="41620.37" y="20661.14" xlink:href="#post70_1"/>
      <use id="33WWN4" x="41604.4" y="21181.02" xlink:href="#post70_1"/>
      <use id="33WWP1" x="41128.87" y="19601.31" xlink:href="#post70_1"/>
      <use id="33WWP2" x="41114.24" y="20124.38" xlink:href="#post70_1"/>
      <use id="33WWP3" x="41652.71" y="19616.79" xlink:href="#post70_1"/>
      <use id="33WWP4" x="41636.47" y="20139.76" xlink:href="#post70_1"/>
      <use id="33WWQ1" x="41158.35" y="18550.15" xlink:href="#post70_1"/>
      <use id="33WWQ2" x="41143.57" y="19076.58" xlink:href="#post70_1"/>
      <use id="33WWQ3" x="41685.62" y="18565.86" xlink:href="#post70_1"/>
      <use id="33WWQ4" x="41669.09" y="19092.18" xlink:href="#post70_1"/>
      <use id="33WWR1" x="41188.17" y="17491.85" xlink:href="#post70_1"/>
      <use id="33WWR2" x="41173.22" y="18021.93" xlink:href="#post70_1"/>
      <use id="33WWR3" x="41719.15" y="17507.81" xlink:href="#post70_1"/>
      <use id="33WWR4" x="41702.31" y="18037.77" xlink:href="#post70_1"/>
      <use id="33WWS1" x="41218.35" y="16425.81" xlink:href="#post70_1"/>
      <use id="33WWS2" x="41203.22" y="16959.84" xlink:href="#post70_1"/>
      <use id="33WWS3" x="41753.35" y="16442.04" xlink:href="#post70_1"/>
      <use id="33WWS4" x="41736.16" y="16975.94" xlink:href="#post70_1"/>
      <use id="33WWT4" x="41770.72" y="15906.06" xlink:href="#post70_1"/>
      <use id="33WXM1" x="42070.88" y="21714.74" xlink:href="#post70_1"/>
      <use id="33WXM2" x="42066.1" y="22232.03" xlink:href="#post70_1"/>
      <use id="33WXN1" x="42080.64" y="20675.91" xlink:href="#post70_1"/>
      <use id="33WXN2" x="42075.73" y="21196.05" xlink:href="#post70_1"/>
      <use id="33WXP1" x="42090.7" y="19631.01" xlink:href="#post70_1"/>
      <use id="33WXP2" x="42085.63" y="20154.25" xlink:href="#post70_1"/>
      <use id="33WXQ1" x="42252.89" y="18584.77" xlink:href="#post70_1"/>
      <use id="33WXQ2" x="42259.85" y="19111.77" xlink:href="#post70_1"/>
      <use id="33WXR1" x="42238.9" y="17525.31" xlink:href="#post70_1"/>
      <use id="33WXR2" x="42245.91" y="18055.97" xlink:href="#post70_1"/>
      <use id="33WXS2" x="42231.87" y="16992.72" xlink:href="#post70_1"/>
      <use id="34UCA3" x="43386.68" y="37804.81" xlink:href="#post70_1"/>
      <use id="34UCC1" x="42756.62" y="35849.05" xlink:href="#post70_1"/>
      <use id="34UCD1" x="42723.08" y="34855.01" xlink:href="#post70_1"/>
      <use id="34UCD3" x="43226.64" y="34827.56" xlink:href="#post70_1"/>
      <use id="34UCD4" x="43253.54" y="35324.25" xlink:href="#post70_1"/>
      <use id="34UCE1" x="42689.3" y="33859.9" xlink:href="#post70_1"/>
      <use id="34UCE3" x="43172.54" y="33833.35" xlink:href="#post70_1"/>
      <use id="34UCF4" x="43145.33" y="33335.77" xlink:href="#post70_1"/>
      <use id="34UCV3" x="43439.34" y="38796.28" xlink:href="#post70_1"/>
      <use id="34UDA1" x="43882.51" y="37778.44" xlink:href="#post70_1"/>
      <use id="34UDA4" x="44404.65" y="38247.99" xlink:href="#post70_1"/>
      <use id="34UDB1" x="43829.74" y="36786.51" xlink:href="#post70_1"/>
      <use id="34UDB3" x="44325.84" y="36760.14" xlink:href="#post70_1"/>
      <use id="34UDB4" x="44352.13" y="37256.19" xlink:href="#post70_1"/>
      <use id="34UDC2" x="43803.27" y="36290.36" xlink:href="#post70_1"/>
      <use id="34UDC3" x="44273.19" y="35767.59" xlink:href="#post70_1"/>
      <use id="34UDC4" x="44299.53" y="36263.94" xlink:href="#post70_1"/>
      <use id="34UDD1" x="43723.5" y="34800.75" xlink:href="#post70_1"/>
      <use id="34UDD2" x="43750.15" y="35297.51" xlink:href="#post70_1"/>
      <use id="34UDD3" x="44220.42" y="34774.2" xlink:href="#post70_1"/>
      <use id="34UDD4" x="44246.82" y="35271.01" xlink:href="#post70_1"/>
      <use id="34UDE1" x="43670" y="33806.37" xlink:href="#post70_1"/>
      <use id="34UDE2" x="43696.78" y="34303.71" xlink:href="#post70_1"/>
      <use id="34UDE3" x="44167.54" y="33779.73" xlink:href="#post70_1"/>
      <use id="34UDE4" x="44194" y="34277.11" xlink:href="#post70_1"/>
      <use id="34UDF1" x="43616.22" y="32810.64" xlink:href="#post70_1"/>
      <use id="34UDF2" x="43643.15" y="33308.7" xlink:href="#post70_1"/>
      <use id="34UDF3" x="44114.51" y="32783.88" xlink:href="#post70_1"/>
      <use id="34UDF4" x="44141.04" y="33281.99" xlink:href="#post70_1"/>
      <use id="34UDG4" x="44087.94" y="32285.36" xlink:href="#post70_1"/>
      <use id="34UDV1" x="43935.09" y="38770.04" xlink:href="#post70_1"/>
      <use id="34UEB2" x="44848.14" y="37229.96" xlink:href="#post70_1"/>
      <use id="34UEB3" x="45318.09" y="36707.82" xlink:href="#post70_1"/>
      <use id="34UEB4" x="45344.12" y="37203.85" xlink:href="#post70_1"/>
      <use id="34UEC1" x="44769.66" y="35741.34" xlink:href="#post70_1"/>
      <use id="34UEC2" x="44795.81" y="36237.7" xlink:href="#post70_1"/>
      <use id="34UEC3" x="45266.14" y="35715.29" xlink:href="#post70_1"/>
      <use id="34UEC4" x="45292.09" y="36211.64" xlink:href="#post70_1"/>
      <use id="34UED1" x="44717.38" y="34747.93" xlink:href="#post70_1"/>
      <use id="34UED2" x="44743.52" y="35244.75" xlink:href="#post70_1"/>
      <use id="34UED3" x="45214.34" y="34721.92" xlink:href="#post70_1"/>
      <use id="34UED4" x="45240.22" y="35218.73" xlink:href="#post70_1"/>
      <use id="34UEE1" x="44665.11" y="33753.42" xlink:href="#post70_1"/>
      <use id="34UEE2" x="44691.24" y="34250.82" xlink:href="#post70_1"/>
      <use id="34UEE3" x="45162.68" y="33727.45" xlink:href="#post70_1"/>
      <use id="34UEE4" x="45188.5" y="34224.84" xlink:href="#post70_1"/>
      <use id="34UEF1" x="44612.83" y="32757.54" xlink:href="#post70_1"/>
      <use id="34UEF2" x="44638.97" y="33255.66" xlink:href="#post70_1"/>
      <use id="34UEF3" x="45111.16" y="32731.61" xlink:href="#post70_1"/>
      <use id="34UEF4" x="45136.9" y="33229.72" xlink:href="#post70_1"/>
      <use id="34UEG1" x="44560.54" y="31760.01" xlink:href="#post70_1"/>
      <use id="34UEG2" x="44586.69" y="32259" xlink:href="#post70_1"/>
      <use id="34UEG3" x="45059.76" y="31734.11" xlink:href="#post70_1"/>
      <use id="34UEG4" x="45085.44" y="32233.07" xlink:href="#post70_1"/>
      <use id="34UEV1" x="44926.69" y="38717.59" xlink:href="#post70_1"/>
      <use id="34UFA2" x="45892.11" y="38169.49" xlink:href="#post70_1"/>
      <use id="34UFA3" x="46429.73" y="37644.19" xlink:href="#post70_1"/>
      <use id="34UFB1" x="45814.17" y="36681.87" xlink:href="#post70_1"/>
      <use id="34UFB2" x="45840.07" y="37177.85" xlink:href="#post70_1"/>
      <use id="34UFB3" x="46357.97" y="36653.6" xlink:href="#post70_1"/>
      <use id="34UFB4" x="46393.82" y="37148.95" xlink:href="#post70_1"/>
      <use id="34UFC1" x="45762.57" y="35689.46" xlink:href="#post70_1"/>
      <use id="34UFC2" x="45788.34" y="36185.75" xlink:href="#post70_1"/>
      <use id="34UFC3" x="46286.37" y="35662.42" xlink:href="#post70_1"/>
      <use id="34UFC4" x="46322.15" y="36158.11" xlink:href="#post70_1"/>
      <use id="34UFD1" x="45711.26" y="34696.2" xlink:href="#post70_1"/>
      <use id="34UFD2" x="45736.88" y="35192.95" xlink:href="#post70_1"/>
      <use id="34UFD3" x="46214.91" y="34670.39" xlink:href="#post70_1"/>
      <use id="34UFD4" x="46250.62" y="35166.54" xlink:href="#post70_1"/>
      <use id="34UFE1" x="45660.22" y="33701.83" xlink:href="#post70_1"/>
      <use id="34UFE2" x="45685.7" y="34199.17" xlink:href="#post70_1"/>
      <use id="34UFE3" x="46143.56" y="33677.26" xlink:href="#post70_1"/>
      <use id="34UFE4" x="46179.21" y="34173.99" xlink:href="#post70_1"/>
      <use id="34UFF1" x="45609.46" y="32706.08" xlink:href="#post70_1"/>
      <use id="34UFF2" x="45634.81" y="33204.15" xlink:href="#post70_1"/>
      <use id="34UFF3" x="46072.32" y="32682.74" xlink:href="#post70_1"/>
      <use id="34UFF4" x="46107.93" y="33180.2" xlink:href="#post70_1"/>
      <use id="34UFG1" x="45558.96" y="31708.68" xlink:href="#post70_1"/>
      <use id="34UFG2" x="45584.17" y="32207.6" xlink:href="#post70_1"/>
      <use id="34UFG3" x="46001.18" y="31686.56" xlink:href="#post70_1"/>
      <use id="34UFG4" x="46036.74" y="32184.87" xlink:href="#post70_1"/>
      <use id="34VCL3" x="42838.23" y="27829.87" xlink:href="#post70_1"/>
      <use id="34VCM3" x="42780.63" y="26820.09" xlink:href="#post70_1"/>
      <use id="34VCM4" x="42809.51" y="27325.4" xlink:href="#post70_1"/>
      <use id="34VCQ3" x="42590.65" y="23768.96" xlink:href="#post70_1"/>
      <use id="34VCR3" x="42554.28" y="22741.47" xlink:href="#post70_1"/>
      <use id="34VCR4" x="42572.5" y="23255.83" xlink:href="#post70_1"/>
      <use id="34VDM1" x="43286.45" y="26791.56" xlink:href="#post70_1"/>
      <use id="34VDM3" x="43792.37" y="26763.93" xlink:href="#post70_1"/>
      <use id="34VDR1" x="43057.81" y="22712.34" xlink:href="#post70_1"/>
      <use id="34VDR2" x="43086.86" y="23226.17" xlink:href="#post70_1"/>
      <use id="34VDR3" x="43572.33" y="22683.86" xlink:href="#post70_1"/>
      <use id="34VEH1" x="44508.22" y="30760.55" xlink:href="#post70_1"/>
      <use id="34VEH2" x="44534.38" y="31260.54" xlink:href="#post70_1"/>
      <use id="34VEH3" x="45008.49" y="30734.66" xlink:href="#post70_1"/>
      <use id="34VEH4" x="45034.11" y="31234.64" xlink:href="#post70_1"/>
      <use id="34VEJ1" x="44455.85" y="29758.85" xlink:href="#post70_1"/>
      <use id="34VEJ2" x="44482.04" y="30260" xlink:href="#post70_1"/>
      <use id="34VEJ3" x="44957.32" y="29732.97" xlink:href="#post70_1"/>
      <use id="34VEJ4" x="44982.89" y="30234.11" xlink:href="#post70_1"/>
      <use id="34VEK3" x="44906.25" y="28728.73" xlink:href="#post70_1"/>
      <use id="34VEK4" x="44931.77" y="29231.19" xlink:href="#post70_1"/>
      <use id="34VEL4" x="44880.75" y="28225.56" xlink:href="#post70_1"/>
      <use id="34VEM1" x="44298.37" y="26737.18" xlink:href="#post70_1"/>
      <use id="34VEM3" x="44804.39" y="26711.3" xlink:href="#post70_1"/>
      <use id="34VEN1" x="44245.7" y="25723.31" xlink:href="#post70_1"/>
      <use id="34VEN2" x="44272.05" y="26230.71" xlink:href="#post70_1"/>
      <use id="34VEN3" x="44753.59" y="25697.43" xlink:href="#post70_1"/>
      <use id="34VEN4" x="44778.98" y="26204.84" xlink:href="#post70_1"/>
      <use id="34VEP1" x="44192.92" y="24705.53" xlink:href="#post70_1"/>
      <use id="34VEP2" x="44219.32" y="25214.93" xlink:href="#post70_1"/>
      <use id="34VEP3" x="44702.86" y="24679.64" xlink:href="#post70_1"/>
      <use id="34VEP4" x="44728.22" y="25189.06" xlink:href="#post70_1"/>
      <use id="34VEQ1" x="44140.01" y="23683.44" xlink:href="#post70_1"/>
      <use id="34VEQ2" x="44166.48" y="24195.05" xlink:href="#post70_1"/>
      <use id="34VEQ3" x="44652.21" y="23657.54" xlink:href="#post70_1"/>
      <use id="34VEQ4" x="44677.52" y="24169.16" xlink:href="#post70_1"/>
      <use id="34VER2" x="44113.5" y="23170.66" xlink:href="#post70_1"/>
      <use id="34VER3" x="44601.61" y="22630.72" xlink:href="#post70_1"/>
      <use id="34VER4" x="44626.9" y="23144.74" xlink:href="#post70_1"/>
      <use id="34VFH1" x="45508.73" y="30709.33" xlink:href="#post70_1"/>
      <use id="34VFH2" x="45533.81" y="31209.27" xlink:href="#post70_1"/>
      <use id="34VFH3" x="45930.1" y="30688.42" xlink:href="#post70_1"/>
      <use id="34VFH4" x="45965.62" y="31187.75" xlink:href="#post70_1"/>
      <use id="34VFJ1" x="45458.76" y="29707.73" xlink:href="#post70_1"/>
      <use id="34VFJ2" x="45483.71" y="30208.83" xlink:href="#post70_1"/>
      <use id="34VFJ3" x="46008.73" y="29680.78" xlink:href="#post70_1"/>
      <use id="34VFJ4" x="46055.07" y="30180.7" xlink:href="#post70_1"/>
      <use id="34VFK1" x="45409.05" y="28703.59" xlink:href="#post70_1"/>
      <use id="34VFK3" x="45915.86" y="28678.96" xlink:href="#post70_1"/>
      <use id="34VFK4" x="45962.32" y="29180.2" xlink:href="#post70_1"/>
      <use id="34VFL1" x="45359.59" y="27696.56" xlink:href="#post70_1"/>
      <use id="34VFL2" x="45384.29" y="28200.45" xlink:href="#post70_1"/>
      <use id="34VFL3" x="45822.72" y="27674.25" xlink:href="#post70_1"/>
      <use id="34VFL4" x="45869.32" y="28176.99" xlink:href="#post70_1"/>
      <use id="34VFM1" x="45310.4" y="26686.34" xlink:href="#post70_1"/>
      <use id="34VFM2" x="45334.97" y="27191.87" xlink:href="#post70_1"/>
      <use id="34VFN1" x="45321.53" y="25669.67" xlink:href="#post70_1"/>
      <use id="34VFN2" x="45357.45" y="26176.46" xlink:href="#post70_1"/>
      <use id="34VFP1" x="45249.62" y="24653.08" xlink:href="#post70_1"/>
      <use id="34VFP2" x="45285.59" y="25161.88" xlink:href="#post70_1"/>
      <use id="34VFQ1" x="45177.58" y="23632.19" xlink:href="#post70_1"/>
      <use id="34VFQ2" x="45213.61" y="24143.2" xlink:href="#post70_1"/>
      <use id="34VFR1" x="45105.4" y="22606.58" xlink:href="#post70_1"/>
      <use id="34VFR2" x="45141.52" y="23120" xlink:href="#post70_1"/>
      <use id="34WCS3" x="42517.5" y="21708.84" xlink:href="#post70_1"/>
      <use id="34WCS4" x="42535.94" y="22225.83" xlink:href="#post70_1"/>
      <use id="34WCT3" x="42480.31" y="20670.63" xlink:href="#post70_1"/>
      <use id="34WCT4" x="42498.95" y="21190.46" xlink:href="#post70_1"/>
      <use id="34WCU3" x="42442.67" y="19626.36" xlink:href="#post70_1"/>
      <use id="34WCU4" x="42461.55" y="20149.29" xlink:href="#post70_1"/>
      <use id="34WDA1" x="42758.01" y="17494.09" xlink:href="#post70_1"/>
      <use id="34WDA2" x="42788.85" y="18023.42" xlink:href="#post70_1"/>
      <use id="34WDA3" x="43288.38" y="17464.11" xlink:href="#post70_1"/>
      <use id="34WDA4" x="43317.33" y="17993.62" xlink:href="#post70_1"/>
      <use id="34WDB1" x="42695.68" y="16429.6" xlink:href="#post70_1"/>
      <use id="34WDB2" x="42726.96" y="16962.85" xlink:href="#post70_1"/>
      <use id="34WDB3" x="43230.06" y="16399.24" xlink:href="#post70_1"/>
      <use id="34WDB4" x="43259.3" y="16932.69" xlink:href="#post70_1"/>
      <use id="34WDS1" x="42999.24" y="21680.82" xlink:href="#post70_1"/>
      <use id="34WDS2" x="43028.61" y="22197.24" xlink:href="#post70_1"/>
      <use id="34WDS3" x="43516.44" y="21652.07" xlink:href="#post70_1"/>
      <use id="34WDS4" x="43544.43" y="22168.63" xlink:href="#post70_1"/>
      <use id="34WDT1" x="42940.03" y="20643.71" xlink:href="#post70_1"/>
      <use id="34WDT2" x="42969.72" y="21162.99" xlink:href="#post70_1"/>
      <use id="34WDT3" x="43460.13" y="20614.7" xlink:href="#post70_1"/>
      <use id="34WDT4" x="43488.34" y="21134.11" xlink:href="#post70_1"/>
      <use id="34WDU1" x="42880.13" y="19600.58" xlink:href="#post70_1"/>
      <use id="34WDU2" x="42910.17" y="20122.94" xlink:href="#post70_1"/>
      <use id="34WDU3" x="43403.37" y="19571.27" xlink:href="#post70_1"/>
      <use id="34WDU4" x="43431.81" y="20093.77" xlink:href="#post70_1"/>
      <use id="34WDV1" x="42819.48" y="18550.89" xlink:href="#post70_1"/>
      <use id="34WDV2" x="42849.9" y="19076.59" xlink:href="#post70_1"/>
      <use id="34WDV3" x="43346.14" y="18521.25" xlink:href="#post70_1"/>
      <use id="34WDV4" x="43374.82" y="19047.12" xlink:href="#post70_1"/>
      <use id="34WEA1" x="43818.9" y="17436.06" xlink:href="#post70_1"/>
      <use id="34WEA2" x="43845.95" y="17965.67" xlink:href="#post70_1"/>
      <use id="34WEA3" x="44349.47" y="17409.95" xlink:href="#post70_1"/>
      <use id="34WEA4" x="44374.63" y="17939.58" xlink:href="#post70_1"/>
      <use id="34WEB1" x="43764.6" y="16370.98" xlink:href="#post70_1"/>
      <use id="34WEB2" x="43791.78" y="16904.53" xlink:href="#post70_1"/>
      <use id="34WEB4" x="44324.33" y="16878.4" xlink:href="#post70_1"/>
      <use id="34WEC1" x="43710.03" y="15297.51" xlink:href="#post70_1"/>
      <use id="34WEC3" x="44325.35" y="15267.75" xlink:href="#post70_1"/>
      <use id="34WEC4" x="44274.1" y="15809.14" xlink:href="#post70_1"/>
      <use id="34WES1" x="44033.73" y="21624.72" xlink:href="#post70_1"/>
      <use id="34WES2" x="44060.36" y="22141.35" xlink:href="#post70_1"/>
      <use id="34WET1" x="43980.34" y="20587.19" xlink:href="#post70_1"/>
      <use id="34WET2" x="44007.05" y="21106.69" xlink:href="#post70_1"/>
      <use id="34WET3" x="44500.59" y="20561.2" xlink:href="#post70_1"/>
      <use id="34WEU1" x="43926.74" y="19543.6" xlink:href="#post70_1"/>
      <use id="34WEU2" x="43953.56" y="20066.18" xlink:href="#post70_1"/>
      <use id="34WEU3" x="44450.16" y="19517.57" xlink:href="#post70_1"/>
      <use id="34WEU4" x="44475.37" y="20040.19" xlink:href="#post70_1"/>
      <use id="34WEV1" x="43872.93" y="18493.4" xlink:href="#post70_1"/>
      <use id="34WEV2" x="43899.87" y="19019.36" xlink:href="#post70_1"/>
      <use id="34WEV3" x="44399.79" y="18467.34" xlink:href="#post70_1"/>
      <use id="34WEV4" x="44424.97" y="18993.31" xlink:href="#post70_1"/>
      <use id="34WFA1" x="44868.98" y="17386.25" xlink:href="#post70_1"/>
      <use id="34WFA2" x="44917.96" y="17914.7" xlink:href="#post70_1"/>
      <use id="34WFB2" x="44819.81" y="16855.89" xlink:href="#post70_1"/>
      <use id="34WFS2" x="45069.27" y="22091.89" xlink:href="#post70_1"/>
      <use id="34WFU1" x="44887.91" y="19497.07" xlink:href="#post70_1"/>
      <use id="34WFU2" x="44924.27" y="20019.08" xlink:href="#post70_1"/>
      <use id="34WFV1" x="44966.78" y="18441.28" xlink:href="#post70_1"/>
      <use id="34WFV2" x="45015.43" y="18966.07" xlink:href="#post70_1"/>
      <use id="35TMN1" x="48502.64" y="40398.85" xlink:href="#post70_1"/>
      <use id="35ULA1" x="46498.07" y="32643.27" xlink:href="#post70_1"/>
      <use id="35ULA2" x="46554.51" y="33138.8" xlink:href="#post70_1"/>
      <use id="35ULA3" x="46957.33" y="32581.13" xlink:href="#post70_1"/>
      <use id="35ULA4" x="47023.97" y="33075.37" xlink:href="#post70_1"/>
      <use id="35ULB1" x="46384.87" y="31650.99" xlink:href="#post70_1"/>
      <use id="35ULB2" x="46441.52" y="32147.34" xlink:href="#post70_1"/>
      <use id="35ULB3" x="46823.62" y="31591.44" xlink:href="#post70_1"/>
      <use id="35ULB4" x="46890.55" y="32086.49" xlink:href="#post70_1"/>
      <use id="35ULV1" x="46610.87" y="33633.94" xlink:href="#post70_1"/>
      <use id="35ULV3" x="47090.48" y="33569.23" xlink:href="#post70_1"/>
      <use id="35UMA1" x="47451.83" y="32514.62" xlink:href="#post70_1"/>
      <use id="35UMB1" x="47318.98" y="31524.67" xlink:href="#post70_1"/>
      <use id="35UMB2" x="47385.47" y="32019.85" xlink:href="#post70_1"/>
      <use id="35UMB3" x="47814.46" y="31458.36" xlink:href="#post70_1"/>
      <use id="35UMB4" x="47880.49" y="31953.65" xlink:href="#post70_1"/>
      <use id="35UNB1" x="48310.03" y="31392.54" xlink:href="#post70_1"/>
      <use id="35VLC1" x="46271.25" y="30656.79" xlink:href="#post70_1"/>
      <use id="35VLC2" x="46328.13" y="31154.14" xlink:href="#post70_1"/>
      <use id="35VLC3" x="46689.29" y="30599.89" xlink:href="#post70_1"/>
      <use id="35VLC4" x="46756.54" y="31095.91" xlink:href="#post70_1"/>
      <use id="35VLD3" x="46554.28" y="29606.17" xlink:href="#post70_1"/>
      <use id="35VLD4" x="46621.87" y="30103.32" xlink:href="#post70_1"/>
      <use id="35VLE3" x="46418.56" y="28610" xlink:href="#post70_1"/>
      <use id="35VLE4" x="46486.52" y="29108.42" xlink:href="#post70_1"/>
      <use id="35VLF3" x="46282.05" y="27611.04" xlink:href="#post70_1"/>
      <use id="35VLF4" x="46350.41" y="28110.89" xlink:href="#post70_1"/>
      <use id="35VLG3" x="46144.7" y="26608.99" xlink:href="#post70_1"/>
      <use id="35VLG4" x="46213.48" y="27110.43" xlink:href="#post70_1"/>
      <use id="35VLH3" x="45946.86" y="25611.7" xlink:href="#post70_1"/>
      <use id="35VLH4" x="46004.72" y="26116.46" xlink:href="#post70_1"/>
      <use id="35VLJ3" x="45830.67" y="24599.22" xlink:href="#post70_1"/>
      <use id="35VLJ4" x="45888.85" y="25105.96" xlink:href="#post70_1"/>
      <use id="35VLK3" x="45713.82" y="23582.48" xlink:href="#post70_1"/>
      <use id="35VLK4" x="45772.33" y="24091.4" xlink:href="#post70_1"/>
      <use id="35VLL3" x="45596.23" y="22561.08" xlink:href="#post70_1"/>
      <use id="35VLL4" x="45655.11" y="23072.39" xlink:href="#post70_1"/>
      <use id="35VMC1" x="47185.66" y="30532.83" xlink:href="#post70_1"/>
      <use id="35VMC2" x="47252.38" y="31028.99" xlink:href="#post70_1"/>
      <use id="35VMC3" x="47682.16" y="30466.31" xlink:href="#post70_1"/>
      <use id="35VMC4" x="47748.36" y="30962.59" xlink:href="#post70_1"/>
      <use id="35VMD1" x="47051.82" y="29538.8" xlink:href="#post70_1"/>
      <use id="35VMD2" x="47118.81" y="30036.1" xlink:href="#post70_1"/>
      <use id="35VMD3" x="47549.5" y="29472.06" xlink:href="#post70_1"/>
      <use id="35VMD4" x="47615.88" y="29969.48" xlink:href="#post70_1"/>
      <use id="35VME1" x="46917.4" y="28542.29" xlink:href="#post70_1"/>
      <use id="35VME2" x="46984.69" y="29040.88" xlink:href="#post70_1"/>
      <use id="35VME3" x="47416.41" y="28475.29" xlink:href="#post70_1"/>
      <use id="35VME4" x="47483.01" y="28974.01" xlink:href="#post70_1"/>
      <use id="35VMF1" x="46782.37" y="27542.98" xlink:href="#post70_1"/>
      <use id="35VMF2" x="46849.97" y="28043" xlink:href="#post70_1"/>
      <use id="35VMF3" x="47282.87" y="27475.69" xlink:href="#post70_1"/>
      <use id="35VMF4" x="47349.7" y="27975.87" xlink:href="#post70_1"/>
      <use id="35VMG1" x="46646.67" y="26540.52" xlink:href="#post70_1"/>
      <use id="35VMG2" x="46714.61" y="27042.17" xlink:href="#post70_1"/>
      <use id="35VMG3" x="47148.82" y="26472.93" xlink:href="#post70_1"/>
      <use id="35VMG4" x="47215.91" y="26974.72" xlink:href="#post70_1"/>
      <use id="35VMH1" x="46510.23" y="25534.58" xlink:href="#post70_1"/>
      <use id="35VMH2" x="46578.55" y="26038.02" xlink:href="#post70_1"/>
      <use id="35VMH3" x="47014.22" y="25466.65" xlink:href="#post70_1"/>
      <use id="35VMH4" x="47081.59" y="25970.25" xlink:href="#post70_1"/>
      <use id="35VMJ1" x="46372.99" y="24524.81" xlink:href="#post70_1"/>
      <use id="35VMJ2" x="46441.72" y="25030.21" xlink:href="#post70_1"/>
      <use id="35VMJ3" x="46879.01" y="24456.52" xlink:href="#post70_1"/>
      <use id="35VMJ4" x="46946.69" y="24962.09" xlink:href="#post70_1"/>
      <use id="35VMK1" x="46234.9" y="23510.82" xlink:href="#post70_1"/>
      <use id="35VMK2" x="46304.06" y="24018.37" xlink:href="#post70_1"/>
      <use id="35VMK3" x="46743.13" y="23442.12" xlink:href="#post70_1"/>
      <use id="35VMK4" x="46811.15" y="23949.88" xlink:href="#post70_1"/>
      <use id="35VML1" x="46095.87" y="22492.2" xlink:href="#post70_1"/>
      <use id="35VML2" x="46165.51" y="23002.11" xlink:href="#post70_1"/>
      <use id="35VML3" x="46606.53" y="22423.07" xlink:href="#post70_1"/>
      <use id="35VML4" x="46674.92" y="22933.21" xlink:href="#post70_1"/>
      <use id="35VNC1" x="48178.76" y="30400.35" xlink:href="#post70_1"/>
      <use id="35VNC2" x="48244.42" y="30896.7" xlink:href="#post70_1"/>
      <use id="35VNC3" x="48675.41" y="30334.95" xlink:href="#post70_1"/>
      <use id="35VNC4" x="48740.53" y="30831.32" xlink:href="#post70_1"/>
      <use id="35VND1" x="48047.27" y="29405.94" xlink:href="#post70_1"/>
      <use id="35VND2" x="48113.05" y="29903.44" xlink:href="#post70_1"/>
      <use id="35VNE1" x="47915.53" y="28408.99" xlink:href="#post70_1"/>
      <use id="35VNE2" x="47981.44" y="28907.8" xlink:href="#post70_1"/>
      <use id="35VNF1" x="47783.49" y="27409.19" xlink:href="#post70_1"/>
      <use id="35VNF2" x="47849.55" y="27909.47" xlink:href="#post70_1"/>
      <use id="35VNF3" x="48284.2" y="27343.49" xlink:href="#post70_1"/>
      <use id="35VNH1" x="47518.36" y="25399.69" xlink:href="#post70_1"/>
      <use id="35VNH2" x="47584.79" y="25903.41" xlink:href="#post70_1"/>
      <use id="35VNH3" x="48022.61" y="25333.7" xlink:href="#post70_1"/>
      <use id="35VNH4" x="48088.08" y="25837.5" xlink:href="#post70_1"/>
      <use id="35VNJ1" x="47385.19" y="24389.28" xlink:href="#post70_1"/>
      <use id="35VNJ2" x="47451.83" y="24894.99" xlink:href="#post70_1"/>
      <use id="35VNJ3" x="47891.48" y="24323.11" xlink:href="#post70_1"/>
      <use id="35VNJ4" x="47957.08" y="24828.93" xlink:href="#post70_1"/>
      <use id="35VNK1" x="47251.54" y="23374.59" xlink:href="#post70_1"/>
      <use id="35VNK2" x="47318.43" y="23882.5" xlink:href="#post70_1"/>
      <use id="35VNK3" x="47760.08" y="23308.23" xlink:href="#post70_1"/>
      <use id="35VNK4" x="47825.82" y="23816.24" xlink:href="#post70_1"/>
      <use id="35VNL1" x="47117.38" y="22355.22" xlink:href="#post70_1"/>
      <use id="35VNL2" x="47184.53" y="22865.51" xlink:href="#post70_1"/>
      <use id="35VNL3" x="47628.37" y="22288.64" xlink:href="#post70_1"/>
      <use id="35VNL4" x="47694.26" y="22799.04" xlink:href="#post70_1"/>
      <use id="35VPH1" x="48586.57" y="25261.07" xlink:href="#post70_1"/>
      <use id="35VPJ1" x="48434.42" y="24253.36" xlink:href="#post70_1"/>
      <use id="35VPJ2" x="48510.55" y="24757.72" xlink:href="#post70_1"/>
      <use id="35VPK1" x="48281.8" y="23241.37" xlink:href="#post70_1"/>
      <use id="35VPK2" x="48358.17" y="23747.93" xlink:href="#post70_1"/>
      <use id="35VPL1" x="48128.67" y="22224.7" xlink:href="#post70_1"/>
      <use id="35VPL2" x="48205.31" y="22733.64" xlink:href="#post70_1"/>
      <use id="35WLM3" x="45477.83" y="21534.61" xlink:href="#post70_1"/>
      <use id="35WLM4" x="45537.13" y="22048.51" xlink:href="#post70_1"/>
      <use id="35WLN4" x="45418.31" y="21019.32" xlink:href="#post70_1"/>
      <use id="35WLP3" x="45238.4" y="19464.58" xlink:href="#post70_1"/>
      <use id="35WLP4" x="45298.62" y="19984.38" xlink:href="#post70_1"/>
      <use id="35WMM1" x="45955.85" y="21468.54" xlink:href="#post70_1"/>
      <use id="35WMM2" x="46025.99" y="21981.02" xlink:href="#post70_1"/>
      <use id="35WMM3" x="46469.14" y="21398.95" xlink:href="#post70_1"/>
      <use id="35WMM4" x="46537.94" y="21911.67" xlink:href="#post70_1"/>
      <use id="35WMN1" x="45814.73" y="20439.38" xlink:href="#post70_1"/>
      <use id="35WMN2" x="45885.43" y="20954.67" xlink:href="#post70_1"/>
      <use id="35WMN3" x="46330.9" y="20369.29" xlink:href="#post70_1"/>
      <use id="35WMN4" x="46400.13" y="20884.84" xlink:href="#post70_1"/>
      <use id="35WMP1" x="45672.45" y="19404.26" xlink:href="#post70_1"/>
      <use id="35WMP2" x="45743.75" y="19922.6" xlink:href="#post70_1"/>
      <use id="35WMP3" x="46191.74" y="19333.62" xlink:href="#post70_1"/>
      <use id="35WMP4" x="46261.44" y="19852.24" xlink:href="#post70_1"/>
      <use id="35WMQ1" x="45528.91" y="18362.66" xlink:href="#post70_1"/>
      <use id="35WMQ2" x="45600.84" y="18884.3" xlink:href="#post70_1"/>
      <use id="35WMQ3" x="46051.57" y="18291.43" xlink:href="#post70_1"/>
      <use id="35WMQ4" x="46121.79" y="18813.37" xlink:href="#post70_1"/>
      <use id="35WMR1" x="45383.99" y="17314.04" xlink:href="#post70_1"/>
      <use id="35WMR2" x="45456.62" y="17839.27" xlink:href="#post70_1"/>
      <use id="35WMR3" x="45910.32" y="17242.18" xlink:href="#post70_1"/>
      <use id="35WMR4" x="45981.09" y="17767.73" xlink:href="#post70_1"/>
      <use id="35WMS1" x="45237.59" y="16257.82" xlink:href="#post70_1"/>
      <use id="35WMS2" x="45310.99" y="16786.93" xlink:href="#post70_1"/>
      <use id="35WMS3" x="45767.9" y="16185.27" xlink:href="#post70_1"/>
      <use id="35WMS4" x="45839.26" y="16714.72" xlink:href="#post70_1"/>
      <use id="35WMT1" x="45013.9" y="15203.92" xlink:href="#post70_1"/>
      <use id="35WMT2" x="45163.8" y="15726.66" xlink:href="#post70_1"/>
      <use id="35WMT3" x="45624.21" y="15120.06" xlink:href="#post70_1"/>
      <use id="35WMT4" x="45696.22" y="15653.74" xlink:href="#post70_1"/>
      <use id="35WMU2" x="44952.19" y="14666.59" xlink:href="#post70_1"/>
      <use id="35WNM1" x="46982.65" y="21330.74" xlink:href="#post70_1"/>
      <use id="35WNM2" x="47050.09" y="21843.65" xlink:href="#post70_1"/>
      <use id="35WNM3" x="47496.31" y="21263.92" xlink:href="#post70_1"/>
      <use id="35WNM4" x="47562.39" y="21776.94" xlink:href="#post70_1"/>
      <use id="35WNN1" x="46847.3" y="20300.69" xlink:href="#post70_1"/>
      <use id="35WNN2" x="46915.05" y="20816.44" xlink:href="#post70_1"/>
      <use id="35WNN3" x="47363.87" y="20233.61" xlink:href="#post70_1"/>
      <use id="35WNN4" x="47430.14" y="20749.49" xlink:href="#post70_1"/>
      <use id="35WNP1" x="46711.27" y="19264.61" xlink:href="#post70_1"/>
      <use id="35WNP2" x="46779.37" y="19783.44" xlink:href="#post70_1"/>
      <use id="35WNP3" x="47230.99" y="19197.24" xlink:href="#post70_1"/>
      <use id="35WNP4" x="47297.48" y="19716.22" xlink:href="#post70_1"/>
      <use id="35WNQ1" x="46574.51" y="18221.97" xlink:href="#post70_1"/>
      <use id="35WNQ2" x="46642.99" y="18744.14" xlink:href="#post70_1"/>
      <use id="35WNQ3" x="47097.65" y="18154.29" xlink:href="#post70_1"/>
      <use id="35WNQ4" x="47164.38" y="18676.62" xlink:href="#post70_1"/>
      <use id="35WNR1" x="46436.95" y="17172.23" xlink:href="#post70_1"/>
      <use id="35WNR2" x="46505.83" y="17698.03" xlink:href="#post70_1"/>
      <use id="35WNR3" x="46963.8" y="17104.2" xlink:href="#post70_1"/>
      <use id="35WNR4" x="47030.79" y="17630.18" xlink:href="#post70_1"/>
      <use id="35WNS1" x="46298.52" y="16114.78" xlink:href="#post70_1"/>
      <use id="35WNS2" x="46367.85" y="16644.51" xlink:href="#post70_1"/>
      <use id="35WNS3" x="46829.38" y="16046.39" xlink:href="#post70_1"/>
      <use id="35WNS4" x="46896.66" y="16576.31" xlink:href="#post70_1"/>
      <use id="35WNT1" x="46159.16" y="15049" xlink:href="#post70_1"/>
      <use id="35WNT2" x="46228.96" y="15582.98" xlink:href="#post70_1"/>
      <use id="35WNT3" x="46770.19" y="14970.63" xlink:href="#post70_1"/>
      <use id="35WNU4" x="46689.5" y="14435.82" xlink:href="#post70_1"/>
      <use id="35WPM1" x="47975" y="21202.91" xlink:href="#post70_1"/>
      <use id="35WPM2" x="48051.91" y="21714.48" xlink:href="#post70_1"/>
      <use id="35WPN1" x="47820.7" y="20175.56" xlink:href="#post70_1"/>
      <use id="35WPN2" x="47897.94" y="20689.95" xlink:href="#post70_1"/>
      <use id="35WPP1" x="47665.74" y="19142.16" xlink:href="#post70_1"/>
      <use id="35WPP2" x="47743.31" y="19659.65" xlink:href="#post70_1"/>
      <use id="35WPQ1" x="47660.8" y="18083.44" xlink:href="#post70_1"/>
      <use id="35WPR2" x="47570.45" y="17562.37" xlink:href="#post70_1"/>
      <use id="36VUP3" x="49009.39" y="24153.67" xlink:href="#post70_1"/>
      <use id="36VUQ3" x="48812.42" y="23149.37" xlink:href="#post70_1"/>
      <use id="36VUQ4" x="48911.04" y="23652.07" xlink:href="#post70_1"/>
      <use id="36VUR3" x="48614.36" y="22140.49" xlink:href="#post70_1"/>
      <use id="36VUR4" x="48713.53" y="22645.53" xlink:href="#post70_1"/>
      <use id="36VVQ1" x="49326.2" y="23036.69" xlink:href="#post70_1"/>
      <use id="36VVQ2" x="49435.31" y="23537.18" xlink:href="#post70_1"/>
      <use id="36VVR2" x="49216.76" y="22535.07" xlink:href="#post70_1"/>
      <use id="36WUS3" x="48415.09" y="21126.61" xlink:href="#post70_1"/>
      <use id="36WUS4" x="48514.88" y="21634.21" xlink:href="#post70_1"/>
      <use id="36WVC1" x="47451.53" y="14852.5" xlink:href="#post70_1"/>
      <use id="36WVC2" x="47642.34" y="15361.74" xlink:href="#post70_1"/>
      <use id="36WVD2" x="47347.48" y="14321.74" xlink:href="#post70_1"/>
    </g>
    <defs>
      <circle id="post70_1" r="250" fill="#dc5107"/>
      <circle id="pre70_1" r="250" fill="darkgrey"/>
      <circle id="post70_2" r="250" stroke-width="40" fill="white" fill-opacity="0.1" stroke="red"/>
      <circle id="pre70_2" r="250" stroke-width="40" fill="white" fill-opacity="0.1" stroke="pink"/>
    </defs>
  </g>
</svg>