<?xml version="1.0" encoding="UTF-8" standalone="yes"?>
<svg id="map2svg" xml:space="preserve" x="0" y="0" width="100%" viewBox="0 0 71000 59000" onload="setup(evt);" xmlns="http://www.w3.org/2000/svg" xmlns:xlink="http://www.w3.org/1999/xlink">
  
  <g id="map-matrix" transform="matrix(1 0 0 1 0 0)">
    <g id="datapoints" style="pointer-events:all" >
      <use id="30TXT3" x="28724.83" y="39286.41" xlink:href="#post70_1"/>
      <use id="30TXT4" x="28595.6" y="39765.85" xlink:href="#post70_1"/>
      <use id="30TYT1" x="29209.41" y="39417.02" xlink:href="#post70_1"/>
      <use id="30TYT2" x="29098.82" y="39901.35" xlink:href="#post70_1"/>
      <use id="30UVU1" x="26587.12" y="37680.07" xlink:href="#post70_1"/>
      <use id="31TCN1" x="29702.66" y="39509.7" xlink:href="#post70_1"/>
      <use id="31TCN2" x="29610.97" y="39997.7" xlink:href="#post70_1"/>
      <use id="31TCN3" x="30190.68" y="39601.28" xlink:href="#post70_1"/>
      <use id="31TCN4" x="30099.1" y="40089.4" xlink:href="#post70_1"/>
      <use id="31TDJ3" x="30434.63" y="43695.31" xlink:href="#post70_1"/>
      <use id="31TDN1" x="30678.79" y="39692.77" xlink:href="#post70_1"/>
      <use id="31TDN3" x="31166.96" y="39784.18" xlink:href="#post70_1"/>
      <use id="31TDN4" x="31075.6" y="40272.42" xlink:href="#post70_1"/>
      <use id="31TEJ1" x="30924.57" y="43786.93" xlink:href="#post70_1"/>
      <use id="31TEJ3" x="31414.55" y="43878.23" xlink:href="#post70_1"/>
      <use id="31TEJ4" x="31323.41" y="44368.39" xlink:href="#post70_1"/>
      <use id="31TEK2" x="31016.01" y="43297.14" xlink:href="#post70_1"/>
      <use id="31TEK3" x="31596.77" y="42898.88" xlink:href="#post70_1"/>
      <use id="31TEK4" x="31505.67" y="43388.4" xlink:href="#post70_1"/>
      <use id="31TEL3" x="31778.95" y="41920.66" xlink:href="#post70_1"/>
      <use id="31TEM1" x="31472.66" y="40852.14" xlink:href="#post70_1"/>
      <use id="31TEM2" x="31381.38" y="41340.7" xlink:href="#post70_1"/>
      <use id="31TEN2" x="31563.92" y="40363.75" xlink:href="#post70_1"/>
      <use id="31TFJ1" x="31904.56" y="43969.18" xlink:href="#post70_1"/>
      <use id="31TFJ2" x="31813.77" y="44459.36" xlink:href="#post70_1"/>
      <use id="31TFJ3" x="32394.55" y="44059.8" xlink:href="#post70_1"/>
      <use id="31TFJ4" x="32304.13" y="44549.95" xlink:href="#post70_1"/>
      <use id="31TFK1" x="32086.15" y="42989.84" xlink:href="#post70_1"/>
      <use id="31TFK2" x="31995.34" y="43479.35" xlink:href="#post70_1"/>
      <use id="31TFK3" x="32575.51" y="43080.51" xlink:href="#post70_1"/>
      <use id="31TFK4" x="32485.01" y="43570" xlink:href="#post70_1"/>
      <use id="31TFL1" x="32267.82" y="42011.64" xlink:href="#post70_1"/>
      <use id="31TFL2" x="32176.97" y="42500.61" xlink:href="#post70_1"/>
      <use id="31TFL3" x="32756.66" y="42102.39" xlink:href="#post70_1"/>
      <use id="31TFL4" x="32666.06" y="42591.31" xlink:href="#post70_1"/>
      <use id="31TGJ1" x="32838.32" y="44141.58" xlink:href="#post70_1"/>
      <use id="31TGJ2" x="32757.11" y="44633.31" xlink:href="#post70_1"/>
      <use id="31TGK1" x="33000.74" y="43159.06" xlink:href="#post70_1"/>
      <use id="31TGK2" x="32919.52" y="43650.16" xlink:href="#post70_1"/>
      <use id="31TGL1" x="33163.21" y="42177.69" xlink:href="#post70_1"/>
      <use id="31TGL2" x="33081.97" y="42668.25" xlink:href="#post70_1"/>
      <use id="31TGM1" x="33469.28" y="41223.83" xlink:href="#post70_1"/>
      <use id="31TGM2" x="33397.33" y="41715.66" xlink:href="#post70_1"/>
      <use id="31UDP2" x="30770.21" y="39204.68" xlink:href="#post70_1"/>
      <use id="31UFP1" x="32813.76" y="39081.64" xlink:href="#post70_1"/>
      <use id="31UFT2" x="33453.79" y="35665.4" xlink:href="#post70_1"/>
      <use id="31UFT4" x="33979.11" y="35764.23" xlink:href="#post70_1"/>
      <use id="31UGP1" x="33756.9" y="39257.72" xlink:href="#post70_1"/>
      <use id="32TKR3" x="33489.28" y="42225.39" xlink:href="#post70_1"/>
      <use id="32TKR4" x="33426.6" y="42718.67" xlink:href="#post70_1"/>
      <use id="32TLR1" x="33900.36" y="42269.7" xlink:href="#post70_1"/>
      <use id="32TLS1" x="34006.5" y="41281.51" xlink:href="#post70_1"/>
      <use id="32TLS2" x="33953.49" y="41775.51" xlink:href="#post70_1"/>
      <use id="32TLS3" x="34500.48" y="41334.39" xlink:href="#post70_1"/>
      <use id="32TLS4" x="34447.65" y="41828.49" xlink:href="#post70_1"/>
      <use id="32TLT3" x="34605.89" y="40346.6" xlink:href="#post70_1"/>
      <use id="32TLT4" x="34553.24" y="40840.43" xlink:href="#post70_1"/>
      <use id="32TMS2" x="34941.89" y="41881.29" xlink:href="#post70_1"/>
      <use id="32TMT1" x="35099.72" y="40399.17" xlink:href="#post70_1"/>
      <use id="32TMT2" x="35047.16" y="40893.07" xlink:href="#post70_1"/>
      <use id="32TMT3" x="35593.59" y="40451.64" xlink:href="#post70_1"/>
      <use id="32TMT4" x="35541.16" y="40945.59" xlink:href="#post70_1"/>
      <use id="32TPT4" x="37517.12" y="41154.32" xlink:href="#post70_1"/>
      <use id="32TQT1" x="38068.2" y="40713" xlink:href="#post70_1"/>
      <use id="32ULA1" x="34358.85" y="37325.31" xlink:href="#post70_1"/>
      <use id="32ULB2" x="34420.85" y="36832.66" xlink:href="#post70_1"/>
      <use id="32ULC1" x="34606.64" y="35353.88" xlink:href="#post70_1"/>
      <use id="32ULC2" x="34544.75" y="35846.98" xlink:href="#post70_1"/>
      <use id="32ULD4" x="35180.16" y="34914.07" xlink:href="#post70_1"/>
      <use id="32ULU1" x="34217.36" y="39306.71" xlink:href="#post70_1"/>
      <use id="32ULU2" x="34164.81" y="39800.28" xlink:href="#post70_1"/>
      <use id="32ULU4" x="34658.47" y="39852.86" xlink:href="#post70_1"/>
      <use id="32ULV3" x="34815.72" y="38371.92" xlink:href="#post70_1"/>
      <use id="32UMU1" x="35204.66" y="39411.62" xlink:href="#post70_1"/>
      <use id="32UMU2" x="35152.21" y="39905.36" xlink:href="#post70_1"/>
      <use id="32UMV4" x="35750.77" y="38970.3" xlink:href="#post70_1"/>
      <use id="32UNA1" x="36401.62" y="37541.4" xlink:href="#post70_1"/>
      <use id="32UNA2" x="36349.23" y="38035.19" xlink:href="#post70_1"/>
      <use id="32UNA4" x="36842.97" y="38087.59" xlink:href="#post70_1"/>
      <use id="32UNU2" x="36139.83" y="40010.17" xlink:href="#post70_1"/>
      <use id="32UNU3" x="36685.9" y="39568.69" xlink:href="#post70_1"/>
      <use id="32UNV3" x="36790.57" y="38581.3" xlink:href="#post70_1"/>
      <use id="32UPA4" x="37830.28" y="38192.53" xlink:href="#post70_1"/>
      <use id="32UPC3" x="38121.62" y="35726.6" xlink:href="#post70_1"/>
      <use id="32UPC4" x="38078.73" y="36221.72" xlink:href="#post70_1"/>
      <use id="32UPD3" x="38207.6" y="34735.73" xlink:href="#post70_1"/>
      <use id="32UPD4" x="38164.57" y="35231.29" xlink:href="#post70_1"/>
      <use id="32UPE2" x="37759.39" y="34186.9" xlink:href="#post70_1"/>
      <use id="32UPE4" x="38250.68" y="34239.91" xlink:href="#post70_1"/>
      <use id="32UPU1" x="37179.61" y="39620.96" xlink:href="#post70_1"/>
      <use id="32UPU3" x="37673.25" y="39673.18" xlink:href="#post70_1"/>
      <use id="32UPV1" x="37284.24" y="38633.68" xlink:href="#post70_1"/>
      <use id="32UPV2" x="37231.89" y="39127.31" xlink:href="#post70_1"/>
      <use id="32UPV3" x="37777.83" y="38686.07" xlink:href="#post70_1"/>
      <use id="32UPV4" x="37725.49" y="39179.61" xlink:href="#post70_1"/>
      <use id="32UQU1" x="38133.74" y="39721.84" xlink:href="#post70_1"/>
      <use id="32UQU2" x="38100.97" y="40217.39" xlink:href="#post70_1"/>
      <use id="32VLK1" x="35349.42" y="28400.12" xlink:href="#post70_1"/>
      <use id="32VLK3" x="35850.16" y="28451.07" xlink:href="#post70_1"/>
      <use id="32VLK4" x="35798.85" y="28951.47" xlink:href="#post70_1"/>
      <use id="32VLL1" x="35450.45" y="27397.21" xlink:href="#post70_1"/>
      <use id="32VLL2" x="35399.96" y="27899.05" xlink:href="#post70_1"/>
      <use id="32VLL4" x="35901.45" y="27949.94" xlink:href="#post70_1"/>
      <use id="32VMK1" x="36350.92" y="28502.72" xlink:href="#post70_1"/>
      <use id="32VMK2" x="36298.91" y="29003.13" xlink:href="#post70_1"/>
      <use id="32VMK3" x="36851.67" y="28555.1" xlink:href="#post70_1"/>
      <use id="32VML1" x="36455" y="27499.71" xlink:href="#post70_1"/>
      <use id="32VML2" x="36402.96" y="28001.6" xlink:href="#post70_1"/>
      <use id="32VML3" x="36957.26" y="27552.16" xlink:href="#post70_1"/>
      <use id="32VML4" x="36904.44" y="28054.02" xlink:href="#post70_1"/>
      <use id="32VMM2" x="36507.06" y="26997.03" xlink:href="#post70_1"/>
      <use id="32VMM3" x="37063.1" y="26546.04" xlink:href="#post70_1"/>
      <use id="32VMM4" x="37010.15" y="27049.52" xlink:href="#post70_1"/>
      <use id="32VMN2" x="36611.27" y="25989.07" xlink:href="#post70_1"/>
      <use id="32VMN4" x="37116.13" y="26041.67" xlink:href="#post70_1"/>
      <use id="32VMP3" x="37275.68" y="24522.8" xlink:href="#post70_1"/>
      <use id="32VMQ3" x="37382.48" y="23504.92" xlink:href="#post70_1"/>
      <use id="32VMQ4" x="37329.03" y="24014.42" xlink:href="#post70_1"/>
      <use id="32VMR4" x="37436.03" y="22994.26" xlink:href="#post70_1"/>
      <use id="32VNL1" x="37459.47" y="27605.42" xlink:href="#post70_1"/>
      <use id="32VNL2" x="37405.87" y="28107.19" xlink:href="#post70_1"/>
      <use id="32VNL3" x="37961.57" y="27659.47" xlink:href="#post70_1"/>
      <use id="32VNL4" x="37907.19" y="28161.11" xlink:href="#post70_1"/>
      <use id="32VNM1" x="37566.99" y="26599.47" xlink:href="#post70_1"/>
      <use id="32VNM2" x="37513.17" y="27102.86" xlink:href="#post70_1"/>
      <use id="32VNM3" x="38070.75" y="26653.78" xlink:href="#post70_1"/>
      <use id="32VNM4" x="38016.08" y="27157.04" xlink:href="#post70_1"/>
      <use id="32VNN3" x="38180.58" y="25644.59" xlink:href="#post70_1"/>
      <use id="32VNN4" x="38125.58" y="26149.65" xlink:href="#post70_1"/>
      <use id="32VNP1" x="37783.46" y="24576.64" xlink:href="#post70_1"/>
      <use id="32VNP3" x="38291.1" y="24631.55" xlink:href="#post70_1"/>
      <use id="32VNP4" x="38235.75" y="25138.58" xlink:href="#post70_1"/>
      <use id="32VNQ2" x="37837.91" y="24068.38" xlink:href="#post70_1"/>
      <use id="32VNQ4" x="38346.64" y="24123.46" xlink:href="#post70_1"/>
      <use id="32VNR2" x="37947.24" y="23048.47" xlink:href="#post70_1"/>
      <use id="32VNR4" x="38458.3" y="23103.89" xlink:href="#post70_1"/>
      <use id="32VPK3" x="38857.78" y="28772.17" xlink:href="#post70_1"/>
      <use id="32VPL1" x="38463.52" y="27714.3" xlink:href="#post70_1"/>
      <use id="32VPL2" x="38408.38" y="28215.77" xlink:href="#post70_1"/>
      <use id="32VPL3" x="38924.36" y="27765.35" xlink:href="#post70_1"/>
      <use id="32VPL4" x="38891.04" y="28269.14" xlink:href="#post70_1"/>
      <use id="32VPM1" x="38574.36" y="26708.97" xlink:href="#post70_1"/>
      <use id="32VPM2" x="38518.84" y="27212.05" xlink:href="#post70_1"/>
      <use id="32VPN1" x="38745.79" y="25706.8" xlink:href="#post70_1"/>
      <use id="32VPN2" x="38701.28" y="26212.91" xlink:href="#post70_1"/>
      <use id="32VPP1" x="38835.19" y="24691.6" xlink:href="#post70_1"/>
      <use id="32VPP2" x="38790.42" y="25199.7" xlink:href="#post70_1"/>
      <use id="32VPQ1" x="38925.16" y="23672.13" xlink:href="#post70_1"/>
      <use id="32VPQ2" x="38880.1" y="24182.42" xlink:href="#post70_1"/>
      <use id="32VPR2" x="38970.38" y="23160.67" xlink:href="#post70_1"/>
      <use id="32WPS2" x="39061.27" y="22134.04" xlink:href="#post70_1"/>
      <use id="33TWL3" x="41000.63" y="42779.78" xlink:href="#post70_1"/>
      <use id="33TXL1" x="41497.74" y="42792.47" xlink:href="#post70_1"/>
      <use id="33TXL2" x="41485.19" y="43289.65" xlink:href="#post70_1"/>
      <use id="33TXM2" x="41510.35" y="42295.51" xlink:href="#post70_1"/>
      <use id="33TXM4" x="42007.18" y="42308.06" xlink:href="#post70_1"/>
      <use id="33UUP1" x="38596.63" y="39734.24" xlink:href="#post70_1"/>
      <use id="33UUP2" x="38583.31" y="40230.42" xlink:href="#post70_1"/>
      <use id="33UUP3" x="39092.84" y="39747.48" xlink:href="#post70_1"/>
      <use id="33UUP4" x="39079.58" y="40243.75" xlink:href="#post70_1"/>
      <use id="33UUQ1" x="38622.93" y="38741.95" xlink:href="#post70_1"/>
      <use id="33UUQ2" x="38609.83" y="39238.08" xlink:href="#post70_1"/>
      <use id="33UUQ3" x="39119.12" y="38755.01" xlink:href="#post70_1"/>
      <use id="33UUQ4" x="39106.02" y="39251.23" xlink:href="#post70_1"/>
      <use id="33UUR2" x="38635.92" y="38245.8" xlink:href="#post70_1"/>
      <use id="33UUS3" x="39170.77" y="36769.61" xlink:href="#post70_1"/>
      <use id="33UUT1" x="38671.82" y="35762.99" xlink:href="#post70_1"/>
      <use id="33UUT2" x="38649.14" y="36259.44" xlink:href="#post70_1"/>
      <use id="33UUT4" x="39183.5" y="36272.98" xlink:href="#post70_1"/>
      <use id="33UUU1" x="38717.06" y="34769.41" xlink:href="#post70_1"/>
      <use id="33UUU2" x="38694.46" y="35266.33" xlink:href="#post70_1"/>
      <use id="33UUU3" x="39221.21" y="34781.91" xlink:href="#post70_1"/>
      <use id="33UUU4" x="39208.72" y="35279.16" xlink:href="#post70_1"/>
      <use id="33UUV1" x="38762.16" y="33774.75" xlink:href="#post70_1"/>
      <use id="33UUV3" x="39245.97" y="33786.54" xlink:href="#post70_1"/>
      <use id="33UVP2" x="39575.93" y="40257.01" xlink:href="#post70_1"/>
      <use id="33UVS1" x="39667.37" y="36782.44" xlink:href="#post70_1"/>
      <use id="33UVS2" x="39654.44" y="37278.99" xlink:href="#post70_1"/>
      <use id="33UVT3" x="40190.08" y="35801.82" xlink:href="#post70_1"/>
      <use id="33UVU1" x="39718.64" y="34794.5" xlink:href="#post70_1"/>
      <use id="33UVU3" x="40216.11" y="34807.37" xlink:href="#post70_1"/>
      <use id="33UVU4" x="40203.1" y="35304.72" xlink:href="#post70_1"/>
      <use id="33UVV1" x="39744.02" y="33799.01" xlink:href="#post70_1"/>
      <use id="33UVV4" x="40229.11" y="34309.75" xlink:href="#post70_1"/>
      <use id="33UWT4" x="41170.64" y="36325.12" xlink:href="#post70_1"/>
      <use id="33UWU2" x="40700.32" y="35317.85" xlink:href="#post70_1"/>
      <use id="33UWU3" x="41211.04" y="34833.93" xlink:href="#post70_1"/>
      <use id="33UWU4" x="41197.51" y="35331.22" xlink:href="#post70_1"/>
      <use id="33UWV4" x="41224.62" y="34336.36" xlink:href="#post70_1"/>
      <use id="33UXP1" x="41574.46" y="39813.03" xlink:href="#post70_1"/>
      <use id="33UXP2" x="41561.49" y="40309.32" xlink:href="#post70_1"/>
      <use id="33UXP3" x="42070.68" y="39826.01" xlink:href="#post70_1"/>
      <use id="33UXP4" x="42057.78" y="40322.2" xlink:href="#post70_1"/>
      <use id="33UXQ2" x="41587.5" y="39316.79" xlink:href="#post70_1"/>
      <use id="33UXQ4" x="42083.69" y="39329.85" xlink:href="#post70_1"/>
      <use id="33UXR4" x="42110.02" y="38337.58" xlink:href="#post70_1"/>
      <use id="33UXS1" x="41653.86" y="36835.21" xlink:href="#post70_1"/>
      <use id="33UXT1" x="41680.98" y="35841.82" xlink:href="#post70_1"/>
      <use id="33UXT2" x="41667.37" y="36338.6" xlink:href="#post70_1"/>
      <use id="33UXU1" x="41708.44" y="34847.61" xlink:href="#post70_1"/>
      <use id="33UXU2" x="41694.66" y="35344.83" xlink:href="#post70_1"/>
      <use id="33UXU4" x="42208.88" y="35359.17" xlink:href="#post70_1"/>
      <use id="33UXV1" x="41736.26" y="33852.32" xlink:href="#post70_1"/>
      <use id="33UXV2" x="41722.3" y="34350.13" xlink:href="#post70_1"/>
      <use id="33UXV3" x="42220.03" y="33866.09" xlink:href="#post70_1"/>
      <use id="33UXV4" x="42216.25" y="34364.09" xlink:href="#post70_1"/>
      <use id="33VUF3" x="39387.91" y="27775.42" xlink:href="#post70_1"/>
      <use id="33VUG3" x="39410.41" y="26764.25" xlink:href="#post70_1"/>
      <use id="33VUG4" x="39399.2" y="27270.26" xlink:href="#post70_1"/>
      <use id="33VUH3" x="39372.43" y="25748.24" xlink:href="#post70_1"/>
      <use id="33VUH4" x="39349.9" y="26255.8" xlink:href="#post70_1"/>
      <use id="33VUJ3" x="39417.47" y="24730.11" xlink:href="#post70_1"/>
      <use id="33VUJ4" x="39394.95" y="25239.68" xlink:href="#post70_1"/>
      <use id="33VUK4" x="39440" y="24219.45" xlink:href="#post70_1"/>
      <use id="33VVE3" x="40371.67" y="28807.85" xlink:href="#post70_1"/>
      <use id="33VVE4" x="40358.73" y="29310.83" xlink:href="#post70_1"/>
      <use id="33VVF1" x="39892.7" y="27787.16" xlink:href="#post70_1"/>
      <use id="33VVF2" x="39880.55" y="28291.59" xlink:href="#post70_1"/>
      <use id="33VVF3" x="40397.55" y="27799.7" xlink:href="#post70_1"/>
      <use id="33VVF4" x="40384.61" y="28304.16" xlink:href="#post70_1"/>
      <use id="33VVG1" x="39916.89" y="26775.85" xlink:href="#post70_1"/>
      <use id="33VVG2" x="39904.82" y="27281.94" xlink:href="#post70_1"/>
      <use id="33VVG3" x="40423.42" y="26788.35" xlink:href="#post70_1"/>
      <use id="33VVG4" x="40410.48" y="27294.45" xlink:href="#post70_1"/>
      <use id="33VVH1" x="39940.9" y="25760.99" xlink:href="#post70_1"/>
      <use id="33VVH2" x="39928.92" y="26268.9" xlink:href="#post70_1"/>
      <use id="33VVH3" x="40449.3" y="25773.44" xlink:href="#post70_1"/>
      <use id="33VVH4" x="40436.36" y="26281.36" xlink:href="#post70_1"/>
      <use id="33VVJ1" x="39964.74" y="24742.22" xlink:href="#post70_1"/>
      <use id="33VVJ2" x="39952.84" y="25252.12" xlink:href="#post70_1"/>
      <use id="33VVJ3" x="40475.19" y="24754.63" xlink:href="#post70_1"/>
      <use id="33VVJ4" x="40462.24" y="25264.55" xlink:href="#post70_1"/>
      <use id="33VVK3" x="40501.09" y="23731.5" xlink:href="#post70_1"/>
      <use id="33VVL1" x="40011.85" y="22691.34" xlink:href="#post70_1"/>
      <use id="33VVL3" x="40527.01" y="22703.66" xlink:href="#post70_1"/>
      <use id="33VVL4" x="40514.05" y="23218.19" xlink:href="#post70_1"/>
      <use id="33VWF1" x="40902.39" y="27813.03" xlink:href="#post70_1"/>
      <use id="33VWF3" x="41407.19" y="27827.17" xlink:href="#post70_1"/>
      <use id="33VWG1" x="40929.95" y="26801.73" xlink:href="#post70_1"/>
      <use id="33VWG2" x="40916.15" y="27307.8" xlink:href="#post70_1"/>
      <use id="33VWG3" x="41436.43" y="26815.99" xlink:href="#post70_1"/>
      <use id="33VWG4" x="41421.77" y="27322.01" xlink:href="#post70_1"/>
      <use id="33VWH1" x="40957.69" y="25786.88" xlink:href="#post70_1"/>
      <use id="33VWH2" x="40943.8" y="26294.77" xlink:href="#post70_1"/>
      <use id="33VWH3" x="41466.04" y="25801.28" xlink:href="#post70_1"/>
      <use id="33VWH4" x="41451.19" y="26309.11" xlink:href="#post70_1"/>
      <use id="33VWJ1" x="40985.63" y="24768.11" xlink:href="#post70_1"/>
      <use id="33VWJ2" x="40971.64" y="25278" xlink:href="#post70_1"/>
      <use id="33VWJ3" x="41496.03" y="24782.67" xlink:href="#post70_1"/>
      <use id="33VWJ4" x="41480.98" y="25292.49" xlink:href="#post70_1"/>
      <use id="33VWK1" x="41013.79" y="23745.04" xlink:href="#post70_1"/>
      <use id="33VWK2" x="40999.69" y="24257.14" xlink:href="#post70_1"/>
      <use id="33VWK3" x="41526.43" y="23759.76" xlink:href="#post70_1"/>
      <use id="33VWK4" x="41511.17" y="24271.78" xlink:href="#post70_1"/>
      <use id="33VWL1" x="41042.17" y="22717.27" xlink:href="#post70_1"/>
      <use id="33VWL2" x="41027.95" y="23231.77" xlink:href="#post70_1"/>
      <use id="33VWL3" x="41557.27" y="22732.16" xlink:href="#post70_1"/>
      <use id="33VWL4" x="41541.79" y="23246.57" xlink:href="#post70_1"/>
      <use id="33VXF1" x="41911.91" y="27842.1" xlink:href="#post70_1"/>
      <use id="33VXF2" x="41896.64" y="28346.36" xlink:href="#post70_1"/>
      <use id="33VXF3" x="42375.34" y="27856.52" xlink:href="#post70_1"/>
      <use id="33VXH1" x="42034.4" y="25818.56" xlink:href="#post70_1"/>
      <use id="33VXH2" x="42030.09" y="26326.6" xlink:href="#post70_1"/>
      <use id="33VXJ1" x="42043.17" y="24799.47" xlink:href="#post70_1"/>
      <use id="33VXJ2" x="42038.75" y="25309.52" xlink:href="#post70_1"/>
      <use id="33VXK1" x="42052.16" y="23776.07" xlink:href="#post70_1"/>
      <use id="33VXK2" x="42047.63" y="24288.34" xlink:href="#post70_1"/>
      <use id="33VXL1" x="42061.39" y="22747.98" xlink:href="#post70_1"/>
      <use id="33VXL2" x="42056.75" y="23262.64" xlink:href="#post70_1"/>
      <use id="33WUM3" x="39552.66" y="21648.21" xlink:href="#post70_1"/>
      <use id="33WVM2" x="40023.51" y="22175.54" xlink:href="#post70_1"/>
      <use id="33WVM3" x="40552.96" y="21670.69" xlink:href="#post70_1"/>
      <use id="33WVM4" x="40539.98" y="22187.85" xlink:href="#post70_1"/>
      <use id="33WVN1" x="40058.18" y="20619.87" xlink:href="#post70_1"/>
      <use id="33WVN3" x="40578.94" y="20632.11" xlink:href="#post70_1"/>
      <use id="33WVP2" x="40069.63" y="20098.37" xlink:href="#post70_1"/>
      <use id="33WWM1" x="41070.8" y="21684.37" xlink:href="#post70_1"/>
      <use id="33WWM2" x="41056.45" y="22201.49" xlink:href="#post70_1"/>
      <use id="33WWM3" x="41588.57" y="21699.45" xlink:href="#post70_1"/>
      <use id="33WWM4" x="41572.85" y="22216.47" xlink:href="#post70_1"/>
      <use id="33WXM1" x="42070.88" y="21714.74" xlink:href="#post70_1"/>
      <use id="33WXM2" x="42066.1" y="22232.03" xlink:href="#post70_1"/>
      <use id="33WXN2" x="42075.73" y="21196.05" xlink:href="#post70_1"/>
      <use id="34TCS2" x="43125.02" y="42293.3" xlink:href="#post70_1"/>
      <use id="34TDT3" x="44535.66" y="40727.19" xlink:href="#post70_1"/>
      <use id="34UCA3" x="43386.68" y="37804.81" xlink:href="#post70_1"/>
      <use id="34UCA4" x="43413.05" y="38300.56" xlink:href="#post70_1"/>
      <use id="34UCD3" x="43226.64" y="34827.56" xlink:href="#post70_1"/>
      <use id="34UCD4" x="43253.54" y="35324.25" xlink:href="#post70_1"/>
      <use id="34UCE1" x="42689.3" y="33859.9" xlink:href="#post70_1"/>
      <use id="34UCE2" x="42706.23" y="34357.62" xlink:href="#post70_1"/>
      <use id="34UCE4" x="43199.64" y="34330.61" xlink:href="#post70_1"/>
      <use id="34UCV3" x="43439.34" y="38796.28" xlink:href="#post70_1"/>
      <use id="34UDA1" x="43882.51" y="37778.44" xlink:href="#post70_1"/>
      <use id="34UDB1" x="43829.74" y="36786.51" xlink:href="#post70_1"/>
      <use id="34UDB2" x="43856.16" y="37282.52" xlink:href="#post70_1"/>
      <use id="34UDB4" x="44352.13" y="37256.19" xlink:href="#post70_1"/>
      <use id="34UDC1" x="43776.74" y="35794.04" xlink:href="#post70_1"/>
      <use id="34UDC2" x="43803.27" y="36290.36" xlink:href="#post70_1"/>
      <use id="34UDC3" x="44273.19" y="35767.59" xlink:href="#post70_1"/>
      <use id="34UDD1" x="43723.5" y="34800.75" xlink:href="#post70_1"/>
      <use id="34UDD3" x="44220.42" y="34774.2" xlink:href="#post70_1"/>
      <use id="34UDD4" x="44246.82" y="35271.01" xlink:href="#post70_1"/>
      <use id="34UDE1" x="43670" y="33806.37" xlink:href="#post70_1"/>
      <use id="34UDE2" x="43696.78" y="34303.71" xlink:href="#post70_1"/>
      <use id="34UDE3" x="44167.54" y="33779.73" xlink:href="#post70_1"/>
      <use id="34UDE4" x="44194" y="34277.11" xlink:href="#post70_1"/>
      <use id="34UDF1" x="43616.22" y="32810.64" xlink:href="#post70_1"/>
      <use id="34UDF2" x="43643.15" y="33308.7" xlink:href="#post70_1"/>
      <use id="34UDF3" x="44114.51" y="32783.88" xlink:href="#post70_1"/>
      <use id="34UDF4" x="44141.04" y="33281.99" xlink:href="#post70_1"/>
      <use id="34UDG4" x="44087.94" y="32285.36" xlink:href="#post70_1"/>
      <use id="34UDV3" x="44430.88" y="38743.81" xlink:href="#post70_1"/>
      <use id="34UEA1" x="44874.31" y="37725.91" xlink:href="#post70_1"/>
      <use id="34UEA2" x="44900.49" y="38221.78" xlink:href="#post70_1"/>
      <use id="34UEA3" x="45370.2" y="37699.78" xlink:href="#post70_1"/>
      <use id="34UEA4" x="45396.32" y="38195.6" xlink:href="#post70_1"/>
      <use id="34UEB1" x="44821.97" y="36733.9" xlink:href="#post70_1"/>
      <use id="34UEB4" x="45344.12" y="37203.85" xlink:href="#post70_1"/>
      <use id="34UEC1" x="44769.66" y="35741.34" xlink:href="#post70_1"/>
      <use id="34UEC2" x="44795.81" y="36237.7" xlink:href="#post70_1"/>
      <use id="34UED1" x="44717.38" y="34747.93" xlink:href="#post70_1"/>
      <use id="34UED2" x="44743.52" y="35244.75" xlink:href="#post70_1"/>
      <use id="34UED3" x="45214.34" y="34721.92" xlink:href="#post70_1"/>
      <use id="34UED4" x="45240.22" y="35218.73" xlink:href="#post70_1"/>
      <use id="34UEE1" x="44665.11" y="33753.42" xlink:href="#post70_1"/>
      <use id="34UEE2" x="44691.24" y="34250.82" xlink:href="#post70_1"/>
      <use id="34UEE3" x="45162.68" y="33727.45" xlink:href="#post70_1"/>
      <use id="34UEE4" x="45188.5" y="34224.84" xlink:href="#post70_1"/>
      <use id="34UEF1" x="44612.83" y="32757.54" xlink:href="#post70_1"/>
      <use id="34UEF2" x="44638.97" y="33255.66" xlink:href="#post70_1"/>
      <use id="34UEF3" x="45111.16" y="32731.61" xlink:href="#post70_1"/>
      <use id="34UEF4" x="45136.9" y="33229.72" xlink:href="#post70_1"/>
      <use id="34UEG1" x="44560.54" y="31760.01" xlink:href="#post70_1"/>
      <use id="34UEG2" x="44586.69" y="32259" xlink:href="#post70_1"/>
      <use id="34UEG3" x="45059.76" y="31734.11" xlink:href="#post70_1"/>
      <use id="34UEG4" x="45085.44" y="32233.07" xlink:href="#post70_1"/>
      <use id="34UEV1" x="44926.69" y="38717.59" xlink:href="#post70_1"/>
      <use id="34UEV3" x="45422.48" y="38691.39" xlink:href="#post70_1"/>
      <use id="34UFA1" x="45866.05" y="37673.72" xlink:href="#post70_1"/>
      <use id="34UFA2" x="45892.11" y="38169.49" xlink:href="#post70_1"/>
      <use id="34UFA3" x="46429.73" y="37644.19" xlink:href="#post70_1"/>
      <use id="34UFB1" x="45814.17" y="36681.87" xlink:href="#post70_1"/>
      <use id="34UFB2" x="45840.07" y="37177.85" xlink:href="#post70_1"/>
      <use id="34UFB3" x="46357.97" y="36653.6" xlink:href="#post70_1"/>
      <use id="34UFC1" x="45762.57" y="35689.46" xlink:href="#post70_1"/>
      <use id="34UFC2" x="45788.34" y="36185.75" xlink:href="#post70_1"/>
      <use id="34UFC3" x="46286.37" y="35662.42" xlink:href="#post70_1"/>
      <use id="34UFC4" x="46322.15" y="36158.11" xlink:href="#post70_1"/>
      <use id="34UFD1" x="45711.26" y="34696.2" xlink:href="#post70_1"/>
      <use id="34UFD2" x="45736.88" y="35192.95" xlink:href="#post70_1"/>
      <use id="34UFD3" x="46214.91" y="34670.39" xlink:href="#post70_1"/>
      <use id="34UFD4" x="46250.62" y="35166.54" xlink:href="#post70_1"/>
      <use id="34UFE1" x="45660.22" y="33701.83" xlink:href="#post70_1"/>
      <use id="34UFE2" x="45685.7" y="34199.17" xlink:href="#post70_1"/>
      <use id="34UFE3" x="46143.56" y="33677.26" xlink:href="#post70_1"/>
      <use id="34UFE4" x="46179.21" y="34173.99" xlink:href="#post70_1"/>
      <use id="34UFF1" x="45609.46" y="32706.08" xlink:href="#post70_1"/>
      <use id="34UFF2" x="45634.81" y="33204.15" xlink:href="#post70_1"/>
      <use id="34UFF3" x="46072.32" y="32682.74" xlink:href="#post70_1"/>
      <use id="34UFF4" x="46107.93" y="33180.2" xlink:href="#post70_1"/>
      <use id="34UFG1" x="45558.96" y="31708.68" xlink:href="#post70_1"/>
      <use id="34UFG2" x="45584.17" y="32207.6" xlink:href="#post70_1"/>
      <use id="34UFG3" x="46001.18" y="31686.56" xlink:href="#post70_1"/>
      <use id="34UFG4" x="46036.74" y="32184.87" xlink:href="#post70_1"/>
      <use id="34UFV1" x="45918.24" y="38665.22" xlink:href="#post70_1"/>
      <use id="34VCR3" x="42554.28" y="22741.47" xlink:href="#post70_1"/>
      <use id="34VCR4" x="42572.5" y="23255.83" xlink:href="#post70_1"/>
      <use id="34VDR1" x="43057.81" y="22712.34" xlink:href="#post70_1"/>
      <use id="34VDR2" x="43086.86" y="23226.17" xlink:href="#post70_1"/>
      <use id="34VDR3" x="43572.33" y="22683.86" xlink:href="#post70_1"/>
      <use id="34VDR4" x="43600.13" y="23197.8" xlink:href="#post70_1"/>
      <use id="34VEH1" x="44508.22" y="30760.55" xlink:href="#post70_1"/>
      <use id="34VEH2" x="44534.38" y="31260.54" xlink:href="#post70_1"/>
      <use id="34VEH3" x="45008.49" y="30734.66" xlink:href="#post70_1"/>
      <use id="34VEH4" x="45034.11" y="31234.64" xlink:href="#post70_1"/>
      <use id="34VEJ1" x="44455.85" y="29758.85" xlink:href="#post70_1"/>
      <use id="34VEJ2" x="44482.04" y="30260" xlink:href="#post70_1"/>
      <use id="34VEJ3" x="44957.32" y="29732.97" xlink:href="#post70_1"/>
      <use id="34VEJ4" x="44982.89" y="30234.11" xlink:href="#post70_1"/>
      <use id="34VEK2" x="44429.65" y="29257.07" xlink:href="#post70_1"/>
      <use id="34VEN1" x="44245.7" y="25723.31" xlink:href="#post70_1"/>
      <use id="34VEN3" x="44753.59" y="25697.43" xlink:href="#post70_1"/>
      <use id="34VEP1" x="44192.92" y="24705.53" xlink:href="#post70_1"/>
      <use id="34VEP2" x="44219.32" y="25214.93" xlink:href="#post70_1"/>
      <use id="34VEP3" x="44702.86" y="24679.64" xlink:href="#post70_1"/>
      <use id="34VEP4" x="44728.22" y="25189.06" xlink:href="#post70_1"/>
      <use id="34VEQ2" x="44166.48" y="24195.05" xlink:href="#post70_1"/>
      <use id="34VEQ4" x="44677.52" y="24169.16" xlink:href="#post70_1"/>
      <use id="34VFH1" x="45508.73" y="30709.33" xlink:href="#post70_1"/>
      <use id="34VFH2" x="45533.81" y="31209.27" xlink:href="#post70_1"/>
      <use id="34VFH3" x="45930.1" y="30688.42" xlink:href="#post70_1"/>
      <use id="34VFH4" x="45965.62" y="31187.75" xlink:href="#post70_1"/>
      <use id="34VFJ1" x="45458.76" y="29707.73" xlink:href="#post70_1"/>
      <use id="34VFJ2" x="45483.71" y="30208.83" xlink:href="#post70_1"/>
      <use id="34VFJ3" x="46008.73" y="29680.78" xlink:href="#post70_1"/>
      <use id="34VFJ4" x="46055.07" y="30180.7" xlink:href="#post70_1"/>
      <use id="34VFK1" x="45409.05" y="28703.59" xlink:href="#post70_1"/>
      <use id="34VFK3" x="45915.86" y="28678.96" xlink:href="#post70_1"/>
      <use id="34VFK4" x="45962.32" y="29180.2" xlink:href="#post70_1"/>
      <use id="34VFL4" x="45869.32" y="28176.99" xlink:href="#post70_1"/>
      <use id="34VFP2" x="45285.59" y="25161.88" xlink:href="#post70_1"/>
      <use id="34WCS3" x="42517.5" y="21708.84" xlink:href="#post70_1"/>
      <use id="34WCS4" x="42535.94" y="22225.83" xlink:href="#post70_1"/>
      <use id="34WCT4" x="42498.95" y="21190.46" xlink:href="#post70_1"/>
      <use id="34WCU4" x="42461.55" y="20149.29" xlink:href="#post70_1"/>
      <use id="34WDA4" x="43317.33" y="17993.62" xlink:href="#post70_1"/>
      <use id="34WDS1" x="42999.24" y="21680.82" xlink:href="#post70_1"/>
      <use id="34WDS2" x="43028.61" y="22197.24" xlink:href="#post70_1"/>
      <use id="34WDS3" x="43516.44" y="21652.07" xlink:href="#post70_1"/>
      <use id="34WDS4" x="43544.43" y="22168.63" xlink:href="#post70_1"/>
      <use id="34WDT1" x="42940.03" y="20643.71" xlink:href="#post70_1"/>
      <use id="34WDT2" x="42969.72" y="21162.99" xlink:href="#post70_1"/>
      <use id="34WDT3" x="43460.13" y="20614.7" xlink:href="#post70_1"/>
      <use id="34WDT4" x="43488.34" y="21134.11" xlink:href="#post70_1"/>
      <use id="34WDU1" x="42880.13" y="19600.58" xlink:href="#post70_1"/>
      <use id="34WDU2" x="42910.17" y="20122.94" xlink:href="#post70_1"/>
      <use id="34WDU3" x="43403.37" y="19571.27" xlink:href="#post70_1"/>
      <use id="34WDU4" x="43431.81" y="20093.77" xlink:href="#post70_1"/>
      <use id="34WDV3" x="43346.14" y="18521.25" xlink:href="#post70_1"/>
      <use id="34WDV4" x="43374.82" y="19047.12" xlink:href="#post70_1"/>
      <use id="34WES1" x="44033.73" y="21624.72" xlink:href="#post70_1"/>
      <use id="34WES2" x="44060.36" y="22141.35" xlink:href="#post70_1"/>
      <use id="34WET1" x="43980.34" y="20587.19" xlink:href="#post70_1"/>
      <use id="34WET2" x="44007.05" y="21106.69" xlink:href="#post70_1"/>
      <use id="34WEU1" x="43926.74" y="19543.6" xlink:href="#post70_1"/>
      <use id="34WEU2" x="43953.56" y="20066.18" xlink:href="#post70_1"/>
      <use id="34WEU3" x="44450.16" y="19517.57" xlink:href="#post70_1"/>
      <use id="34WEU4" x="44475.37" y="20040.19" xlink:href="#post70_1"/>
      <use id="34WEV1" x="43872.93" y="18493.4" xlink:href="#post70_1"/>
      <use id="34WEV2" x="43899.87" y="19019.36" xlink:href="#post70_1"/>
      <use id="34WFU2" x="44924.27" y="20019.08" xlink:href="#post70_1"/>
      <use id="35ULA1" x="46498.07" y="32643.27" xlink:href="#post70_1"/>
      <use id="35ULA2" x="46554.51" y="33138.8" xlink:href="#post70_1"/>
      <use id="35ULA3" x="46957.33" y="32581.13" xlink:href="#post70_1"/>
      <use id="35ULA4" x="47023.97" y="33075.37" xlink:href="#post70_1"/>
      <use id="35ULB1" x="46384.87" y="31650.99" xlink:href="#post70_1"/>
      <use id="35ULB2" x="46441.52" y="32147.34" xlink:href="#post70_1"/>
      <use id="35ULB3" x="46823.62" y="31591.44" xlink:href="#post70_1"/>
      <use id="35ULB4" x="46890.55" y="32086.49" xlink:href="#post70_1"/>
      <use id="35ULV1" x="46610.87" y="33633.94" xlink:href="#post70_1"/>
      <use id="35ULV3" x="47090.48" y="33569.23" xlink:href="#post70_1"/>
      <use id="35UMA1" x="47451.83" y="32514.62" xlink:href="#post70_1"/>
      <use id="35UMB1" x="47318.98" y="31524.67" xlink:href="#post70_1"/>
      <use id="35UMB2" x="47385.47" y="32019.85" xlink:href="#post70_1"/>
      <use id="35UMB3" x="47814.46" y="31458.36" xlink:href="#post70_1"/>
      <use id="35UMB4" x="47880.49" y="31953.65" xlink:href="#post70_1"/>
      <use id="35UNB1" x="48310.03" y="31392.54" xlink:href="#post70_1"/>
      <use id="35VLC1" x="46271.25" y="30656.79" xlink:href="#post70_1"/>
      <use id="35VLC2" x="46328.13" y="31154.14" xlink:href="#post70_1"/>
      <use id="35VLC3" x="46689.29" y="30599.89" xlink:href="#post70_1"/>
      <use id="35VLC4" x="46756.54" y="31095.91" xlink:href="#post70_1"/>
      <use id="35VLD3" x="46554.28" y="29606.17" xlink:href="#post70_1"/>
      <use id="35VLD4" x="46621.87" y="30103.32" xlink:href="#post70_1"/>
      <use id="35VLE3" x="46418.56" y="28610" xlink:href="#post70_1"/>
      <use id="35VLE4" x="46486.52" y="29108.42" xlink:href="#post70_1"/>
      <use id="35VLF3" x="46282.05" y="27611.04" xlink:href="#post70_1"/>
      <use id="35VLF4" x="46350.41" y="28110.89" xlink:href="#post70_1"/>
      <use id="35VMC1" x="47185.66" y="30532.83" xlink:href="#post70_1"/>
      <use id="35VMC2" x="47252.38" y="31028.99" xlink:href="#post70_1"/>
      <use id="35VMC3" x="47682.16" y="30466.31" xlink:href="#post70_1"/>
      <use id="35VMC4" x="47748.36" y="30962.59" xlink:href="#post70_1"/>
      <use id="35VMD1" x="47051.82" y="29538.8" xlink:href="#post70_1"/>
      <use id="35VMD2" x="47118.81" y="30036.1" xlink:href="#post70_1"/>
      <use id="35VMD3" x="47549.5" y="29472.06" xlink:href="#post70_1"/>
      <use id="35VMD4" x="47615.88" y="29969.48" xlink:href="#post70_1"/>
      <use id="35VME1" x="46917.4" y="28542.29" xlink:href="#post70_1"/>
      <use id="35VME2" x="46984.69" y="29040.88" xlink:href="#post70_1"/>
      <use id="35VME3" x="47416.41" y="28475.29" xlink:href="#post70_1"/>
      <use id="35VME4" x="47483.01" y="28974.01" xlink:href="#post70_1"/>
      <use id="35VMF1" x="46782.37" y="27542.98" xlink:href="#post70_1"/>
      <use id="35VMF2" x="46849.97" y="28043" xlink:href="#post70_1"/>
      <use id="35VMF3" x="47282.87" y="27475.69" xlink:href="#post70_1"/>
      <use id="35VMF4" x="47349.7" y="27975.87" xlink:href="#post70_1"/>
      <use id="35VMG2" x="46714.61" y="27042.17" xlink:href="#post70_1"/>
      <use id="35VNC1" x="48178.76" y="30400.35" xlink:href="#post70_1"/>
      <use id="35VNC2" x="48244.42" y="30896.7" xlink:href="#post70_1"/>
      <use id="35VNC3" x="48675.41" y="30334.95" xlink:href="#post70_1"/>
      <use id="35VNC4" x="48740.53" y="30831.32" xlink:href="#post70_1"/>
      <use id="35VND1" x="48047.27" y="29405.94" xlink:href="#post70_1"/>
      <use id="35VND2" x="48113.05" y="29903.44" xlink:href="#post70_1"/>
      <use id="35VNE1" x="47915.53" y="28408.99" xlink:href="#post70_1"/>
      <use id="35VNE2" x="47981.44" y="28907.8" xlink:href="#post70_1"/>
      <use id="35VNF1" x="47783.49" y="27409.19" xlink:href="#post70_1"/>
      <use id="35VNF2" x="47849.55" y="27909.47" xlink:href="#post70_1"/>
      <use id="35VNF3" x="48284.2" y="27343.49" xlink:href="#post70_1"/>
      <use id="35WMT2" x="45163.8" y="15726.66" xlink:href="#post70_1"/>
      <use id="35WMT3" x="45624.21" y="15120.06" xlink:href="#post70_1"/>
      <use id="35WMT4" x="45696.22" y="15653.74" xlink:href="#post70_1"/>
      <use id="35WNS3" x="46829.38" y="16046.39" xlink:href="#post70_1"/>
    </g>
    <defs>
      <circle id="post70_1" r="250" fill="#dc5107"/>
      <circle id="pre70_1" r="250" fill="darkgrey"/>
      <circle id="post70_2" r="250" stroke-width="40" fill="white" fill-opacity="0.1" stroke="red"/>
      <circle id="pre70_2" r="250" stroke-width="40" fill="white" fill-opacity="0.1" stroke="pink"/>
    </defs>
  </g>
</svg>