<?xml version="1.0" encoding="UTF-8" standalone="yes"?>
<svg id="map2svg" xml:space="preserve" x="0" y="0" width="100%" viewBox="0 0 71000 59000" onload="setup(evt);" xmlns="http://www.w3.org/2000/svg" xmlns:xlink="http://www.w3.org/1999/xlink">
  
  <g id="map-matrix" transform="matrix(1 0 0 1 0 0)">
    <g id="datapoints" style="pointer-events:all" >
      <use id="30TWS3" x="27507" y="39986.82" xlink:href="#post70_1"/>
      <use id="30TWT1" x="27286.51" y="38898.09" xlink:href="#post70_1"/>
      <use id="30TWT2" x="27156.89" y="39377.6" xlink:href="#post70_1"/>
      <use id="30TWT3" x="27765.98" y="39027.65" xlink:href="#post70_1"/>
      <use id="30TWT4" x="27636.48" y="39507.16" xlink:href="#post70_1"/>
      <use id="30TXN1" x="26952.46" y="43961.96" xlink:href="#post70_1"/>
      <use id="30TXN3" x="27434.5" y="44091.1" xlink:href="#post70_1"/>
      <use id="30TXP1" x="27211.08" y="42998.69" xlink:href="#post70_1"/>
      <use id="30TXP2" x="27081.79" y="43480.14" xlink:href="#post70_1"/>
      <use id="30TXP3" x="27692.37" y="43127.8" xlink:href="#post70_1"/>
      <use id="30TXP4" x="27563.43" y="43609.26" xlink:href="#post70_1"/>
      <use id="30TXQ1" x="27469.62" y="42036.79" xlink:href="#post70_1"/>
      <use id="30TXQ2" x="27340.36" y="42517.58" xlink:href="#post70_1"/>
      <use id="30TXQ3" x="27950.27" y="42165.91" xlink:href="#post70_1"/>
      <use id="30TXQ4" x="27821.31" y="42646.7" xlink:href="#post70_1"/>
      <use id="30TXR1" x="27728.15" y="41076.04" xlink:href="#post70_1"/>
      <use id="30TXR2" x="27598.89" y="41556.29" xlink:href="#post70_1"/>
      <use id="30TXR3" x="28208.27" y="41205.2" xlink:href="#post70_1"/>
      <use id="30TXR4" x="28079.26" y="41685.42" xlink:href="#post70_1"/>
      <use id="30TXS1" x="27986.73" y="40116.22" xlink:href="#post70_1"/>
      <use id="30TXS2" x="27857.43" y="40596.02" xlink:href="#post70_1"/>
      <use id="30TXS3" x="28466.44" y="40245.44" xlink:href="#post70_1"/>
      <use id="30TXS4" x="28337.33" y="40725.21" xlink:href="#post70_1"/>
      <use id="30TXT1" x="28245.42" y="39157.09" xlink:href="#post70_1"/>
      <use id="30TXT2" x="28116.05" y="39636.58" xlink:href="#post70_1"/>
      <use id="30TXT3" x="28724.83" y="39286.41" xlink:href="#post70_1"/>
      <use id="30TXT4" x="28595.6" y="39765.85" xlink:href="#post70_1"/>
      <use id="30TYP1" x="28128.27" y="43244.45" xlink:href="#post70_1"/>
      <use id="30TYP2" x="28008.39" y="43728.21" xlink:href="#post70_1"/>
      <use id="30TYQ1" x="28367.95" y="42277.87" xlink:href="#post70_1"/>
      <use id="30TYQ2" x="28248.12" y="42761" xlink:href="#post70_1"/>
      <use id="30TYR1" x="28607.59" y="41312.44" xlink:href="#post70_1"/>
      <use id="30TYR2" x="28487.77" y="41795.03" xlink:href="#post70_1"/>
      <use id="30TYS1" x="28988.19" y="40385.8" xlink:href="#post70_1"/>
      <use id="30TYS2" x="28877.54" y="40870.39" xlink:href="#post70_1"/>
      <use id="30TYT1" x="29209.41" y="39417.02" xlink:href="#post70_1"/>
      <use id="30TYT2" x="29098.82" y="39901.35" xlink:href="#post70_1"/>
      <use id="30UWU1" x="27545.71" y="37939.35" xlink:href="#post70_1"/>
      <use id="30UWU2" x="27416.11" y="38418.69" xlink:href="#post70_1"/>
      <use id="30UWU3" x="28025.01" y="38068.92" xlink:href="#post70_1"/>
      <use id="30UWU4" x="27895.48" y="38548.25" xlink:href="#post70_1"/>
      <use id="30UXU1" x="28504.29" y="38198.45" xlink:href="#post70_1"/>
      <use id="30UXU2" x="28374.83" y="38677.72" xlink:href="#post70_1"/>
      <use id="30UXU3" x="28983.5" y="38327.9" xlink:href="#post70_1"/>
      <use id="30UXU4" x="28854.12" y="38807.11" xlink:href="#post70_1"/>
      <use id="30UXV1" x="28763.4" y="37240.04" xlink:href="#post70_1"/>
      <use id="30UYU1" x="29430.54" y="38448.63" xlink:href="#post70_1"/>
      <use id="30UYU2" x="29319.98" y="38932.8" xlink:href="#post70_1"/>
      <use id="31TBH3" x="28317.95" y="44310.42" xlink:href="#post70_1"/>
      <use id="31TBJ3" x="28522.07" y="43334.37" xlink:href="#post70_1"/>
      <use id="31TBJ4" x="28420.08" y="43822.22" xlink:href="#post70_1"/>
      <use id="31TBK3" x="28725.69" y="42359.56" xlink:href="#post70_1"/>
      <use id="31TBK4" x="28623.94" y="42846.82" xlink:href="#post70_1"/>
      <use id="31TBL3" x="28928.86" y="41385.8" xlink:href="#post70_1"/>
      <use id="31TBL4" x="28827.33" y="41872.57" xlink:href="#post70_1"/>
      <use id="31TCH3" x="29269.89" y="44491.13" xlink:href="#post70_1"/>
      <use id="31TCJ1" x="28965.39" y="43418.49" xlink:href="#post70_1"/>
      <use id="31TCJ2" x="28872.57" y="43908.2" xlink:href="#post70_1"/>
      <use id="31TCJ3" x="29455.02" y="43511.08" xlink:href="#post70_1"/>
      <use id="31TCJ4" x="29362.52" y="44000.94" xlink:href="#post70_1"/>
      <use id="31TCK1" x="29150.57" y="42439.99" xlink:href="#post70_1"/>
      <use id="31TCK2" x="29058.05" y="42929.11" xlink:href="#post70_1"/>
      <use id="31TCK3" x="29639.63" y="42532.3" xlink:href="#post70_1"/>
      <use id="31TCL1" x="29335.14" y="41462.51" xlink:href="#post70_1"/>
      <use id="31TCL2" x="29242.93" y="41951.13" xlink:href="#post70_1"/>
      <use id="31TCL3" x="29823.74" y="41554.56" xlink:href="#post70_1"/>
      <use id="31TCL4" x="29731.74" y="42043.31" xlink:href="#post70_1"/>
      <use id="31TCM1" x="29519.16" y="40485.82" xlink:href="#post70_1"/>
      <use id="31TCM2" x="29427.22" y="40974.08" xlink:href="#post70_1"/>
      <use id="31TCM3" x="30007.41" y="40577.63" xlink:href="#post70_1"/>
      <use id="31TCM4" x="29915.63" y="41066" xlink:href="#post70_1"/>
      <use id="31TCN1" x="29702.66" y="39509.7" xlink:href="#post70_1"/>
      <use id="31TCN2" x="29610.97" y="39997.7" xlink:href="#post70_1"/>
      <use id="31TCN3" x="30190.68" y="39601.28" xlink:href="#post70_1"/>
      <use id="31TCN4" x="30099.1" y="40089.4" xlink:href="#post70_1"/>
      <use id="31TDH1" x="29760.33" y="44583.65" xlink:href="#post70_1"/>
      <use id="31TDJ1" x="29944.78" y="43603.36" xlink:href="#post70_1"/>
      <use id="31TDJ2" x="29852.62" y="44093.33" xlink:href="#post70_1"/>
      <use id="31TDL1" x="30312.45" y="41646.41" xlink:href="#post70_1"/>
      <use id="31TDL2" x="30220.67" y="42135.26" xlink:href="#post70_1"/>
      <use id="31TDL3" x="30801.24" y="41738.04" xlink:href="#post70_1"/>
      <use id="31TDL4" x="30709.69" y="42226.96" xlink:href="#post70_1"/>
      <use id="31TDM1" x="30495.76" y="40669.29" xlink:href="#post70_1"/>
      <use id="31TDM2" x="30404.15" y="41157.76" xlink:href="#post70_1"/>
      <use id="31TDM3" x="30984.19" y="40760.79" xlink:href="#post70_1"/>
      <use id="31TDM4" x="30892.74" y="41249.32" xlink:href="#post70_1"/>
      <use id="31TDN1" x="30678.79" y="39692.77" xlink:href="#post70_1"/>
      <use id="31TDN2" x="30587.31" y="40180.97" xlink:href="#post70_1"/>
      <use id="31TDN3" x="31166.96" y="39784.18" xlink:href="#post70_1"/>
      <use id="31TDN4" x="31075.6" y="40272.42" xlink:href="#post70_1"/>
      <use id="31TEH1" x="30741.55" y="44767.55" xlink:href="#post70_1"/>
      <use id="31TEJ3" x="31414.55" y="43878.23" xlink:href="#post70_1"/>
      <use id="31TEJ4" x="31323.41" y="44368.39" xlink:href="#post70_1"/>
      <use id="31TEL1" x="31290.09" y="41829.46" xlink:href="#post70_1"/>
      <use id="31TEM1" x="31472.66" y="40852.14" xlink:href="#post70_1"/>
      <use id="31TEM2" x="31381.38" y="41340.7" xlink:href="#post70_1"/>
      <use id="31TEM3" x="31961.15" y="40943.34" xlink:href="#post70_1"/>
      <use id="31TEM4" x="31870.04" y="41431.9" xlink:href="#post70_1"/>
      <use id="31TEN1" x="31655.18" y="39875.48" xlink:href="#post70_1"/>
      <use id="31TEN2" x="31563.92" y="40363.75" xlink:href="#post70_1"/>
      <use id="31TEN3" x="32143.39" y="39966.68" xlink:href="#post70_1"/>
      <use id="31TEN4" x="32052.26" y="40454.94" xlink:href="#post70_1"/>
      <use id="31TFJ1" x="31904.56" y="43969.18" xlink:href="#post70_1"/>
      <use id="31TFJ2" x="31813.77" y="44459.36" xlink:href="#post70_1"/>
      <use id="31TFJ3" x="32394.55" y="44059.8" xlink:href="#post70_1"/>
      <use id="31TFJ4" x="32304.13" y="44549.95" xlink:href="#post70_1"/>
      <use id="31TFK1" x="32086.15" y="42989.84" xlink:href="#post70_1"/>
      <use id="31TFK2" x="31995.34" y="43479.35" xlink:href="#post70_1"/>
      <use id="31TFK3" x="32575.51" y="43080.51" xlink:href="#post70_1"/>
      <use id="31TFK4" x="32485.01" y="43570" xlink:href="#post70_1"/>
      <use id="31TFL1" x="32267.82" y="42011.64" xlink:href="#post70_1"/>
      <use id="31TFL2" x="32176.97" y="42500.61" xlink:href="#post70_1"/>
      <use id="31TFL3" x="32756.66" y="42102.39" xlink:href="#post70_1"/>
      <use id="31TFL4" x="32666.06" y="42591.31" xlink:href="#post70_1"/>
      <use id="31TFM1" x="32449.62" y="41034.36" xlink:href="#post70_1"/>
      <use id="31TFM3" x="32938.05" y="41125.2" xlink:href="#post70_1"/>
      <use id="31TFN1" x="32631.58" y="40057.77" xlink:href="#post70_1"/>
      <use id="31TFN2" x="32540.57" y="40545.99" xlink:href="#post70_1"/>
      <use id="31TFN3" x="33119.72" y="40148.74" xlink:href="#post70_1"/>
      <use id="31TFN4" x="33028.84" y="40636.9" xlink:href="#post70_1"/>
      <use id="31TGJ1" x="32838.32" y="44141.58" xlink:href="#post70_1"/>
      <use id="31TGJ2" x="32757.11" y="44633.31" xlink:href="#post70_1"/>
      <use id="31TGK1" x="33000.74" y="43159.06" xlink:href="#post70_1"/>
      <use id="31TGK2" x="32919.52" y="43650.16" xlink:href="#post70_1"/>
      <use id="31TGL1" x="33163.21" y="42177.69" xlink:href="#post70_1"/>
      <use id="31TGL2" x="33081.97" y="42668.25" xlink:href="#post70_1"/>
      <use id="31TGN1" x="33613.12" y="40240.58" xlink:href="#post70_1"/>
      <use id="31TGN2" x="33541.21" y="40732.14" xlink:href="#post70_1"/>
      <use id="31UCP1" x="29885.67" y="38533.91" xlink:href="#post70_1"/>
      <use id="31UCP2" x="29794.22" y="39021.77" xlink:href="#post70_1"/>
      <use id="31UCP3" x="30373.58" y="38625.29" xlink:href="#post70_1"/>
      <use id="31UCP4" x="30282.17" y="39113.26" xlink:href="#post70_1"/>
      <use id="31UCQ3" x="30556.15" y="37649.41" xlink:href="#post70_1"/>
      <use id="31UCR2" x="30159.36" y="37070.32" xlink:href="#post70_1"/>
      <use id="31UDP2" x="30770.21" y="39204.68" xlink:href="#post70_1"/>
      <use id="31UDP3" x="31349.61" y="38807.95" xlink:href="#post70_1"/>
      <use id="31UDP4" x="31258.3" y="39296.03" xlink:href="#post70_1"/>
      <use id="31UDQ2" x="30952.87" y="38228.63" xlink:href="#post70_1"/>
      <use id="31UDQ3" x="31532.16" y="37831.89" xlink:href="#post70_1"/>
      <use id="31UDR2" x="31135.36" y="37252.61" xlink:href="#post70_1"/>
      <use id="31UDR4" x="31623.42" y="37343.84" xlink:href="#post70_1"/>
      <use id="31UEP1" x="31837.68" y="38899.23" xlink:href="#post70_1"/>
      <use id="31UEP2" x="31746.43" y="39387.32" xlink:href="#post70_1"/>
      <use id="31UEP3" x="32325.74" y="38990.46" xlink:href="#post70_1"/>
      <use id="31UEP4" x="32234.55" y="39478.53" xlink:href="#post70_1"/>
      <use id="31UEQ1" x="32020.21" y="37923.16" xlink:href="#post70_1"/>
      <use id="31UER3" x="32690.91" y="37038.4" xlink:href="#post70_1"/>
      <use id="31UET4" x="32965.41" y="35573.71" xlink:href="#post70_1"/>
      <use id="31UFP1" x="32813.76" y="39081.64" xlink:href="#post70_1"/>
      <use id="31UFP2" x="32722.64" y="39569.66" xlink:href="#post70_1"/>
      <use id="31UFP3" x="33301.71" y="39172.76" xlink:href="#post70_1"/>
      <use id="31UFQ1" x="32996.2" y="38105.74" xlink:href="#post70_1"/>
      <use id="31UFQ2" x="32904.94" y="38593.67" xlink:href="#post70_1"/>
      <use id="31UFQ3" x="33484.09" y="38197.03" xlink:href="#post70_1"/>
      <use id="31UFQ4" x="33392.85" y="38684.87" xlink:href="#post70_1"/>
      <use id="31UFR1" x="33178.96" y="37129.83" xlink:href="#post70_1"/>
      <use id="31UFR2" x="33087.54" y="37617.79" xlink:href="#post70_1"/>
      <use id="31UFR4" x="33575.45" y="37709.18" xlink:href="#post70_1"/>
      <use id="31UFS2" x="33270.47" y="36641.79" xlink:href="#post70_1"/>
      <use id="31UFS3" x="33897.24" y="36254.23" xlink:href="#post70_1"/>
      <use id="31UFS4" x="33815.45" y="36744.09" xlink:href="#post70_1"/>
      <use id="31UFT2" x="33453.79" y="35665.4" xlink:href="#post70_1"/>
      <use id="31UFT4" x="33979.11" y="35764.23" xlink:href="#post70_1"/>
      <use id="31UGP1" x="33756.9" y="39257.72" xlink:href="#post70_1"/>
      <use id="31UGP2" x="33685.02" y="39749.12" xlink:href="#post70_1"/>
      <use id="32SNJ3" x="35643.73" y="49491.42" xlink:href="#post70_1"/>
      <use id="32TKP3" x="33237.99" y="44200.04" xlink:href="#post70_1"/>
      <use id="32TKP4" x="33174.94" y="44694.44" xlink:href="#post70_1"/>
      <use id="32TKR3" x="33489.28" y="42225.39" xlink:href="#post70_1"/>
      <use id="32TKR4" x="33426.6" y="42718.67" xlink:href="#post70_1"/>
      <use id="32TLP2" x="33632.82" y="44744.33" xlink:href="#post70_1"/>
      <use id="32TLT1" x="34112.15" y="40293.92" xlink:href="#post70_1"/>
      <use id="32TLT3" x="34605.89" y="40346.6" xlink:href="#post70_1"/>
      <use id="32TLT4" x="34553.24" y="40840.43" xlink:href="#post70_1"/>
      <use id="32TMQ3" x="35278.49" y="43417.85" xlink:href="#post70_1"/>
      <use id="32TMR3" x="35383.66" y="42428.32" xlink:href="#post70_1"/>
      <use id="32TMR4" x="35331.1" y="42922.96" xlink:href="#post70_1"/>
      <use id="32TMS2" x="34941.89" y="41881.29" xlink:href="#post70_1"/>
      <use id="32TMS4" x="35436.2" y="41933.89" xlink:href="#post70_1"/>
      <use id="32TMT1" x="35099.72" y="40399.17" xlink:href="#post70_1"/>
      <use id="32TMT2" x="35047.16" y="40893.07" xlink:href="#post70_1"/>
      <use id="32TMT3" x="35593.59" y="40451.64" xlink:href="#post70_1"/>
      <use id="32TNP3" x="36164.45" y="44513.25" xlink:href="#post70_1"/>
      <use id="32TNQ1" x="35773.53" y="43470.34" xlink:href="#post70_1"/>
      <use id="32TNQ3" x="36268.58" y="43522.55" xlink:href="#post70_1"/>
      <use id="32TNQ4" x="36216.51" y="44017.75" xlink:href="#post70_1"/>
      <use id="32TNR1" x="35878.21" y="42480.76" xlink:href="#post70_1"/>
      <use id="32TNR2" x="35825.87" y="42975.42" xlink:href="#post70_1"/>
      <use id="32TNR4" x="36320.67" y="43027.64" xlink:href="#post70_1"/>
      <use id="32TNS2" x="35930.54" y="41986.31" xlink:href="#post70_1"/>
      <use id="32TNT1" x="36087.5" y="40504.02" xlink:href="#post70_1"/>
      <use id="32TPM3" x="36950.71" y="46602.12" xlink:href="#post70_1"/>
      <use id="32TPN3" x="37053.12" y="45608.6" xlink:href="#post70_1"/>
      <use id="32TPN4" x="37001.89" y="46105.15" xlink:href="#post70_1"/>
      <use id="32TPP2" x="36608.42" y="45060.96" xlink:href="#post70_1"/>
      <use id="32TPP3" x="37155.75" y="44616.68" xlink:href="#post70_1"/>
      <use id="32TPP4" x="37104.4" y="45112.46" xlink:href="#post70_1"/>
      <use id="32TPQ1" x="36763.63" y="43574.49" xlink:href="#post70_1"/>
      <use id="32TPQ2" x="36711.85" y="44069.66" xlink:href="#post70_1"/>
      <use id="32TPQ3" x="37258.63" y="43626.15" xlink:href="#post70_1"/>
      <use id="32TPQ4" x="37207.16" y="44121.26" xlink:href="#post70_1"/>
      <use id="32TPR2" x="36815.44" y="43079.61" xlink:href="#post70_1"/>
      <use id="32TPR3" x="37361.79" y="42636.75" xlink:href="#post70_1"/>
      <use id="32TPR4" x="37310.17" y="43131.31" xlink:href="#post70_1"/>
      <use id="32TQM1" x="37436.61" y="46651.89" xlink:href="#post70_1"/>
      <use id="32TQN1" x="37520.56" y="45656.69" xlink:href="#post70_1"/>
      <use id="32TQN2" x="37478.57" y="46154.08" xlink:href="#post70_1"/>
      <use id="32TQP2" x="37562.56" y="45159.7" xlink:href="#post70_1"/>
      <use id="32TQQ1" x="37688.74" y="43670.79" xlink:href="#post70_1"/>
      <use id="32TQR1" x="37773.03" y="42679.64" xlink:href="#post70_1"/>
      <use id="32TQR2" x="37730.86" y="43175.09" xlink:href="#post70_1"/>
      <use id="32ULA4" x="34867.99" y="37878.26" xlink:href="#post70_1"/>
      <use id="32ULB1" x="34482.82" y="36339.89" xlink:href="#post70_1"/>
      <use id="32ULB2" x="34420.85" y="36832.66" xlink:href="#post70_1"/>
      <use id="32ULB3" x="35024.36" y="36396.83" xlink:href="#post70_1"/>
      <use id="32ULB4" x="34972.31" y="36890.75" xlink:href="#post70_1"/>
      <use id="32ULC1" x="34606.64" y="35353.88" xlink:href="#post70_1"/>
      <use id="32ULC2" x="34544.75" y="35846.98" xlink:href="#post70_1"/>
      <use id="32ULC3" x="35128.28" y="35408.52" xlink:href="#post70_1"/>
      <use id="32ULC4" x="35076.35" y="35902.77" xlink:href="#post70_1"/>
      <use id="32ULU1" x="34217.36" y="39306.71" xlink:href="#post70_1"/>
      <use id="32ULU2" x="34164.81" y="39800.28" xlink:href="#post70_1"/>
      <use id="32ULU3" x="34710.97" y="39359.19" xlink:href="#post70_1"/>
      <use id="32ULU4" x="34658.47" y="39852.86" xlink:href="#post70_1"/>
      <use id="32ULV1" x="34322.13" y="38319.63" xlink:href="#post70_1"/>
      <use id="32ULV2" x="34269.8" y="38813.16" xlink:href="#post70_1"/>
      <use id="32ULV3" x="34815.72" y="38371.92" xlink:href="#post70_1"/>
      <use id="32ULV4" x="34763.39" y="38865.55" xlink:href="#post70_1"/>
      <use id="32UMA2" x="35361.71" y="37930.51" xlink:href="#post70_1"/>
      <use id="32UMA4" x="35855.46" y="37982.83" xlink:href="#post70_1"/>
      <use id="32UMB1" x="35518.38" y="36448.93" xlink:href="#post70_1"/>
      <use id="32UMB3" x="36012.43" y="36501.18" xlink:href="#post70_1"/>
      <use id="32UMC1" x="35622.66" y="35460.53" xlink:href="#post70_1"/>
      <use id="32UMC2" x="35570.54" y="35954.82" xlink:href="#post70_1"/>
      <use id="32UMC3" x="36117.07" y="35512.76" xlink:href="#post70_1"/>
      <use id="32UMC4" x="36064.75" y="36007.05" xlink:href="#post70_1"/>
      <use id="32UMD2" x="35674.77" y="34966.03" xlink:href="#post70_1"/>
      <use id="32UMU1" x="35204.66" y="39411.62" xlink:href="#post70_1"/>
      <use id="32UMU2" x="35152.21" y="39905.36" xlink:href="#post70_1"/>
      <use id="32UMU3" x="35698.4" y="39464.02" xlink:href="#post70_1"/>
      <use id="32UMU4" x="35646.01" y="39957.8" xlink:href="#post70_1"/>
      <use id="32UMV1" x="35309.4" y="38424.23" xlink:href="#post70_1"/>
      <use id="32UMV2" x="35257.05" y="38917.92" xlink:href="#post70_1"/>
      <use id="32UMV3" x="35803.12" y="38476.57" xlink:href="#post70_1"/>
      <use id="32UMV4" x="35750.77" y="38970.3" xlink:href="#post70_1"/>
      <use id="32UNC1" x="36611.47" y="35565.18" xlink:href="#post70_1"/>
      <use id="32UNC2" x="36558.95" y="36059.46" xlink:href="#post70_1"/>
      <use id="32UNE1" x="36821.93" y="33585.67" xlink:href="#post70_1"/>
      <use id="32UNF3" x="37423.64" y="32647.05" xlink:href="#post70_1"/>
      <use id="32UNF4" x="37370.45" y="33142.99" xlink:href="#post70_1"/>
      <use id="32UNU1" x="36192.16" y="39516.38" xlink:href="#post70_1"/>
      <use id="32UNU2" x="36139.83" y="40010.17" xlink:href="#post70_1"/>
      <use id="32UNU4" x="36633.64" y="40062.45" xlink:href="#post70_1"/>
      <use id="32UNV1" x="36296.86" y="38528.93" xlink:href="#post70_1"/>
      <use id="32UNV2" x="36244.49" y="39022.65" xlink:href="#post70_1"/>
      <use id="32UNV3" x="36790.57" y="38581.3" xlink:href="#post70_1"/>
      <use id="32UNV4" x="36738.22" y="39074.98" xlink:href="#post70_1"/>
      <use id="32UPB2" x="37441.77" y="37152.62" xlink:href="#post70_1"/>
      <use id="32UPB4" x="37993.15" y="37211.46" xlink:href="#post70_1"/>
      <use id="32UPC3" x="38121.62" y="35726.6" xlink:href="#post70_1"/>
      <use id="32UPC4" x="38078.73" y="36221.72" xlink:href="#post70_1"/>
      <use id="32UPD4" x="38164.57" y="35231.29" xlink:href="#post70_1"/>
      <use id="32UPE2" x="37759.39" y="34186.9" xlink:href="#post70_1"/>
      <use id="32UPE4" x="38250.68" y="34239.91" xlink:href="#post70_1"/>
      <use id="32UPF2" x="37866.15" y="33196.31" xlink:href="#post70_1"/>
      <use id="33SVA3" x="39736.51" y="52778.06" xlink:href="#post70_1"/>
      <use id="33SWC3" x="40799.97" y="50781.33" xlink:href="#post70_1"/>
      <use id="33SWD3" x="40824.65" y="49774.09" xlink:href="#post70_1"/>
      <use id="33SWD4" x="40812.3" y="50277.38" xlink:href="#post70_1"/>
      <use id="33SWE2" x="40334.63" y="49258.71" xlink:href="#post70_1"/>
      <use id="33SWE4" x="40837.03" y="49271.4" xlink:href="#post70_1"/>
      <use id="33SXC1" x="41304.24" y="50793.31" xlink:href="#post70_1"/>
      <use id="33SXD1" x="41327.63" y="49786.15" xlink:href="#post70_1"/>
      <use id="33SXD2" x="41315.91" y="50289.4" xlink:href="#post70_1"/>
      <use id="33SXD3" x="41830.56" y="49797.58" xlink:href="#post70_1"/>
      <use id="33SXD4" x="41819.46" y="50300.78" xlink:href="#post70_1"/>
      <use id="33SXE2" x="41339.41" y="49283.49" xlink:href="#post70_1"/>
      <use id="33TTG3" x="37912.29" y="46683.34" xlink:href="#post70_1"/>
      <use id="33TTG4" x="37888.27" y="47182.78" xlink:href="#post70_1"/>
      <use id="33TTH3" x="37960.12" y="45685.76" xlink:href="#post70_1"/>
      <use id="33TTH4" x="37936.24" y="46184.35" xlink:href="#post70_1"/>
      <use id="33TTJ3" x="38007.65" y="44689.73" xlink:href="#post70_1"/>
      <use id="33TTJ4" x="37983.92" y="45187.56" xlink:href="#post70_1"/>
      <use id="33TTK3" x="38054.89" y="43695.01" xlink:href="#post70_1"/>
      <use id="33TTL3" x="38101.84" y="42701.39" xlink:href="#post70_1"/>
      <use id="33TTL4" x="38078.4" y="43198.08" xlink:href="#post70_1"/>
      <use id="33TUF1" x="38370.77" y="47698.1" xlink:href="#post70_1"/>
      <use id="33TUF3" x="38871.37" y="47712.83" xlink:href="#post70_1"/>
      <use id="33TUG1" x="38400.51" y="46697.98" xlink:href="#post70_1"/>
      <use id="33TUG2" x="38385.69" y="47197.8" xlink:href="#post70_1"/>
      <use id="33TUH1" x="38429.82" y="45699.63" xlink:href="#post70_1"/>
      <use id="33TUH2" x="38415.22" y="46198.6" xlink:href="#post70_1"/>
      <use id="33TUH4" x="38914.44" y="46213.04" xlink:href="#post70_1"/>
      <use id="33TUJ1" x="38458.69" y="44702.84" xlink:href="#post70_1"/>
      <use id="33TUJ4" x="38942.76" y="45215.32" xlink:href="#post70_1"/>
      <use id="33TUK1" x="38487.14" y="43707.38" xlink:href="#post70_1"/>
      <use id="33TUL1" x="38515.15" y="42713.02" xlink:href="#post70_1"/>
      <use id="33TUL2" x="38501.2" y="43210.07" xlink:href="#post70_1"/>
      <use id="33TUL3" x="39012.15" y="42726.81" xlink:href="#post70_1"/>
      <use id="33TUL4" x="38998.43" y="43223.96" xlink:href="#post70_1"/>
      <use id="33TUM3" x="39039.35" y="41733.14" xlink:href="#post70_1"/>
      <use id="33TUN3" x="39066.25" y="40740.1" xlink:href="#pre70_1"/>
      <use id="33TVE3" x="39845.78" y="48743.34" xlink:href="#post70_1"/>
      <use id="33TVF1" x="39372.06" y="47727.07" xlink:href="#post70_1"/>
      <use id="33TVF3" x="39872.79" y="47740.8" xlink:href="#post70_1"/>
      <use id="33TVF4" x="39859.3" y="48241.81" xlink:href="#post70_1"/>
      <use id="33TVG4" x="39886.26" y="47240.3" xlink:href="#post70_1"/>
      <use id="33TVH2" x="39413.75" y="46227.07" xlink:href="#post70_1"/>
      <use id="33TVL2" x="39495.74" y="43237.59" xlink:href="#post70_1"/>
      <use id="33TVL3" x="40006.35" y="42753.73" xlink:href="#post70_1"/>
      <use id="33TVM1" x="39536.05" y="41746.59" xlink:href="#post70_1"/>
      <use id="33TVM3" x="40032.8" y="41759.86" xlink:href="#post70_1"/>
      <use id="33TWE1" x="40347.6" y="48756.6" xlink:href="#post70_1"/>
      <use id="33TWG2" x="40386.54" y="47253.52" xlink:href="#post70_1"/>
      <use id="33TWL4" x="40987.85" y="43277.01" xlink:href="#post70_1"/>
      <use id="33TXL3" x="41994.77" y="42804.94" xlink:href="#post70_1"/>
      <use id="33UUQ2" x="38609.83" y="39238.08" xlink:href="#post70_1"/>
      <use id="33UUS1" x="38626.42" y="36755.71" xlink:href="#post70_1"/>
      <use id="33UUS2" x="38603.66" y="37251.83" xlink:href="#post70_1"/>
      <use id="33UUS4" x="39157.98" y="37266.1" xlink:href="#post70_1"/>
      <use id="33UUT1" x="38671.82" y="35762.99" xlink:href="#post70_1"/>
      <use id="33UUT2" x="38649.14" y="36259.44" xlink:href="#post70_1"/>
      <use id="33UUT3" x="39196.15" y="35776.17" xlink:href="#post70_1"/>
      <use id="33UUT4" x="39183.5" y="36272.98" xlink:href="#post70_1"/>
      <use id="33UUU1" x="38717.06" y="34769.41" xlink:href="#post70_1"/>
      <use id="33UUU2" x="38694.46" y="35266.33" xlink:href="#post70_1"/>
      <use id="33UUU4" x="39208.72" y="35279.16" xlink:href="#post70_1"/>
      <use id="33UUV1" x="38762.16" y="33774.75" xlink:href="#post70_1"/>
      <use id="33UVP1" x="39589.13" y="39760.67" xlink:href="#post70_1"/>
      <use id="33UVP2" x="39575.93" y="40257.01" xlink:href="#post70_1"/>
      <use id="33UVS1" x="39667.37" y="36782.44" xlink:href="#post70_1"/>
      <use id="33UVS2" x="39654.44" y="37278.99" xlink:href="#post70_1"/>
      <use id="33UVS3" x="40164" y="36795.42" xlink:href="#post70_1"/>
      <use id="33UVT1" x="39693.09" y="35788.89" xlink:href="#post70_1"/>
      <use id="33UVT2" x="39680.25" y="36285.75" xlink:href="#post70_1"/>
      <use id="33UVT3" x="40190.08" y="35801.82" xlink:href="#post70_1"/>
      <use id="33UVT4" x="40177.05" y="36298.7" xlink:href="#post70_1"/>
      <use id="33UVU1" x="39718.64" y="34794.5" xlink:href="#post70_1"/>
      <use id="33UVU2" x="39705.89" y="35291.81" xlink:href="#post70_1"/>
      <use id="33UVU3" x="40216.11" y="34807.37" xlink:href="#post70_1"/>
      <use id="33UVU4" x="40203.1" y="35304.72" xlink:href="#post70_1"/>
      <use id="33UWP2" x="40568.74" y="40283.31" xlink:href="#post70_1"/>
      <use id="33UXP2" x="41561.49" y="40309.32" xlink:href="#pre70_1"/>
      <use id="33UXT1" x="41680.98" y="35841.82" xlink:href="#post70_1"/>
      <use id="33UXT3" x="42205.27" y="35856.33" xlink:href="#post70_1"/>
      <use id="34SDJ1" x="44504.29" y="49725.49" xlink:href="#post70_1"/>
      <use id="34TCR1" x="43150.54" y="42789.68" xlink:href="#pre70_1"/>
      <use id="34TDL4" x="44928.09" y="48194.73" xlink:href="#post70_1"/>
      <use id="34TDM4" x="44875.69" y="47194.23" xlink:href="#post70_1"/>
      <use id="34TDS2" x="44117.73" y="42241.77" xlink:href="#post70_1"/>
      <use id="34TEL2" x="45428.85" y="48168.26" xlink:href="#post70_1"/>
      <use id="34TFK1" x="46458.06" y="48614.59" xlink:href="#post70_1"/>
      <use id="34TFL1" x="46402.47" y="47613.37" xlink:href="#post70_1"/>
      <use id="34TFP3" x="46735.51" y="44593.53" xlink:href="#post70_1"/>
      <use id="34UCA2" x="42917.35" y="38326.91" xlink:href="#post70_1"/>
      <use id="34UCU2" x="43021.99" y="40309.47" xlink:href="#post70_1"/>
      <use id="34UCV4" x="43465.56" y="39291.98" xlink:href="#pre70_1"/>
      <use id="34UFD3" x="46214.91" y="34670.39" xlink:href="#post70_1"/>
      <use id="34UFD4" x="46250.62" y="35166.54" xlink:href="#post70_1"/>
      <use id="35TLJ4" x="48594.59" y="44902.67" xlink:href="#post70_1"/>
      <use id="35TMF2" x="49480.1" y="47812.1" xlink:href="#post70_1"/>
      <use id="35TMF3" x="49911.51" y="47249.74" xlink:href="#post70_1"/>
      <use id="35TMG4" x="49845.82" y="46753.39" xlink:href="#post70_1"/>
      <use id="35TMJ3" x="49518.06" y="44278.13" xlink:href="#post70_1"/>
      <use id="35TNG1" x="50275.83" y="46191.66" xlink:href="#post70_1"/>
      <use id="35TNK4" x="50440.1" y="43652.71" xlink:href="#post70_1"/>
      <use id="35TNL4" x="50308.18" y="42665.92" xlink:href="#post70_1"/>
      <use id="35TPK3" x="51360.7" y="43026.73" xlink:href="#post70_1"/>
      <use id="35TPL4" x="51294.28" y="42533.68" xlink:href="#post70_1"/>
      <use id="35TQL2" x="51713.45" y="42477.17" xlink:href="#post70_1"/>
    </g>
    <defs>
      <circle id="post70_1" r="250" fill="#dc5107"/>
      <circle id="pre70_1" r="250" fill="darkgrey"/>
      <circle id="post70_2" r="250" stroke-width="40" fill="white" fill-opacity="0.1" stroke="red"/>
      <circle id="pre70_2" r="250" stroke-width="40" fill="white" fill-opacity="0.1" stroke="pink"/>
    </defs>
  </g>
</svg>