<?xml version="1.0" encoding="UTF-8" standalone="yes"?>
<svg id="map2svg" xml:space="preserve" x="0" y="0" width="100%" viewBox="0 0 71000 59000" onload="setup(evt);" xmlns="http://www.w3.org/2000/svg" xmlns:xlink="http://www.w3.org/1999/xlink">
  
  <g id="map-matrix" transform="matrix(1 0 0 1 0 0)">
    <g id="datapoints" style="pointer-events:all" >
      <use id="32TMT1" x="35099.72" y="40399.17" xlink:href="#post70_1"/>
      <use id="32TNT3" x="36581.4" y="40556.29" xlink:href="#pre70_1"/>
      <use id="32TPT1" x="37075.27" y="40608.45" xlink:href="#post70_1"/>
      <use id="32TPT3" x="37569.08" y="40660.5" xlink:href="#post70_1"/>
      <use id="32ULA1" x="34358.85" y="37325.31" xlink:href="#post70_1"/>
      <use id="32ULB1" x="34482.82" y="36339.89" xlink:href="#post70_1"/>
      <use id="32ULB2" x="34420.85" y="36832.66" xlink:href="#post70_1"/>
      <use id="32ULC3" x="35128.28" y="35408.52" xlink:href="#post70_1"/>
      <use id="32ULC4" x="35076.35" y="35902.77" xlink:href="#post70_1"/>
      <use id="32ULD3" x="35231.97" y="34419.36" xlink:href="#post70_1"/>
      <use id="32ULD4" x="35180.16" y="34914.07" xlink:href="#post70_1"/>
      <use id="32UMA1" x="35413.96" y="37436.76" xlink:href="#post70_1"/>
      <use id="32UMA2" x="35361.71" y="37930.51" xlink:href="#post70_1"/>
      <use id="32UMA4" x="35855.46" y="37982.83" xlink:href="#post70_1"/>
      <use id="32UMB1" x="35518.38" y="36448.93" xlink:href="#pre70_1"/>
      <use id="32UMC3" x="36117.07" y="35512.76" xlink:href="#post70_1"/>
      <use id="32UMD1" x="35726.84" y="34471.29" xlink:href="#post70_1"/>
      <use id="32UMD2" x="35674.77" y="34966.03" xlink:href="#post70_1"/>
      <use id="32UME2" x="35778.89" y="33976.26" xlink:href="#post70_1"/>
      <use id="32UME4" x="36274.08" y="34028.46" xlink:href="#post70_1"/>
      <use id="32UMF4" x="36378.82" y="33037.45" xlink:href="#pre70_1"/>
      <use id="32UMU1" x="35204.66" y="39411.62" xlink:href="#post70_1"/>
      <use id="32UMU3" x="35698.4" y="39464.02" xlink:href="#post70_1"/>
      <use id="32UMU4" x="35646.01" y="39957.8" xlink:href="#post70_1"/>
      <use id="32UMV1" x="35309.4" y="38424.23" xlink:href="#post70_1"/>
      <use id="32UMV2" x="35257.05" y="38917.92" xlink:href="#post70_1"/>
      <use id="32UMV3" x="35803.12" y="38476.57" xlink:href="#post70_1"/>
      <use id="32UMV4" x="35750.77" y="38970.3" xlink:href="#post70_1"/>
      <use id="32UNA4" x="36842.97" y="38087.59" xlink:href="#pre70_1"/>
      <use id="32UNB2" x="36454.04" y="37047.54" xlink:href="#post70_1"/>
      <use id="32UNC3" x="37105.83" y="35617.81" xlink:href="#post70_1"/>
      <use id="32UND2" x="36664.01" y="35070.7" xlink:href="#post70_1"/>
      <use id="32UND3" x="37211.44" y="34628.71" xlink:href="#post70_1"/>
      <use id="32UND4" x="37158.59" y="35123.38" xlink:href="#post70_1"/>
      <use id="32UNE1" x="36821.93" y="33585.67" xlink:href="#post70_1"/>
      <use id="32UNE3" x="37317.36" y="33638.55" xlink:href="#post70_1"/>
      <use id="32UNE4" x="37264.36" y="34133.78" xlink:href="#post70_1"/>
      <use id="32UNF1" x="36927.46" y="32594.02" xlink:href="#post70_1"/>
      <use id="32UNF2" x="36874.66" y="33090.03" xlink:href="#post70_1"/>
      <use id="32UNU1" x="36192.16" y="39516.38" xlink:href="#post70_1"/>
      <use id="32UNU2" x="36139.83" y="40010.17" xlink:href="#post70_1"/>
      <use id="32UNU3" x="36685.9" y="39568.69" xlink:href="#post70_1"/>
      <use id="32UNU4" x="36633.64" y="40062.45" xlink:href="#post70_1"/>
      <use id="32UNV1" x="36296.86" y="38528.93" xlink:href="#post70_1"/>
      <use id="32UNV2" x="36244.49" y="39022.65" xlink:href="#post70_1"/>
      <use id="32UNV3" x="36790.57" y="38581.3" xlink:href="#post70_1"/>
      <use id="32UNV4" x="36738.22" y="39074.98" xlink:href="#post70_1"/>
      <use id="32UPA2" x="37336.67" y="38140.04" xlink:href="#pre70_1"/>
      <use id="32UPB3" x="38035.91" y="36716.66" xlink:href="#post70_1"/>
      <use id="32UPB4" x="37993.15" y="37211.46" xlink:href="#post70_1"/>
      <use id="32UPC2" x="37547.24" y="36164.78" xlink:href="#post70_1"/>
      <use id="32UPC4" x="38078.73" y="36221.72" xlink:href="#post70_1"/>
      <use id="32UPD1" x="37706.19" y="34681.73" xlink:href="#post70_1"/>
      <use id="32UPD2" x="37653.1" y="35176.3" xlink:href="#post70_1"/>
      <use id="32UPD3" x="38207.6" y="34735.73" xlink:href="#post70_1"/>
      <use id="32UPD4" x="38164.57" y="35231.29" xlink:href="#post70_1"/>
      <use id="32UPE1" x="37812.71" y="33691.76" xlink:href="#post70_1"/>
      <use id="32UPE2" x="37759.39" y="34186.9" xlink:href="#post70_1"/>
      <use id="32UPE3" x="38293.86" y="33743.78" xlink:href="#post70_1"/>
      <use id="32UPF2" x="37866.15" y="33196.31" xlink:href="#post70_1"/>
      <use id="32UPU2" x="37127.41" y="40114.67" xlink:href="#post70_1"/>
      <use id="32UPU4" x="37621.11" y="40166.79" xlink:href="#post70_1"/>
      <use id="32UPV2" x="37231.89" y="39127.31" xlink:href="#post70_1"/>
      <use id="33TXN2" x="41535.78" y="41302.15" xlink:href="#post70_1"/>
      <use id="33TYN1" x="42546.69" y="40831.31" xlink:href="#post70_1"/>
      <use id="33UUA4" x="39258.23" y="33288.36" xlink:href="#post70_1"/>
      <use id="33UUP3" x="39092.84" y="39747.48" xlink:href="#post70_1"/>
      <use id="33UUQ1" x="38622.93" y="38741.95" xlink:href="#post70_1"/>
      <use id="33UUQ3" x="39119.12" y="38755.01" xlink:href="#post70_1"/>
      <use id="33UUQ4" x="39106.02" y="39251.23" xlink:href="#post70_1"/>
      <use id="33UUR1" x="38580.84" y="37747.85" xlink:href="#post70_1"/>
      <use id="33UUR2" x="38635.92" y="38245.8" xlink:href="#post70_1"/>
      <use id="33UUR3" x="39145.1" y="37762.48" xlink:href="#post70_1"/>
      <use id="33UUR4" x="39132.15" y="38258.76" xlink:href="#post70_1"/>
      <use id="33UUS1" x="38626.42" y="36755.71" xlink:href="#post70_1"/>
      <use id="33UUS2" x="38603.66" y="37251.83" xlink:href="#post70_1"/>
      <use id="33UUS3" x="39170.77" y="36769.61" xlink:href="#post70_1"/>
      <use id="33UUT1" x="38671.82" y="35762.99" xlink:href="#post70_1"/>
      <use id="33UUT2" x="38649.14" y="36259.44" xlink:href="#post70_1"/>
      <use id="33UUT3" x="39196.15" y="35776.17" xlink:href="#post70_1"/>
      <use id="33UUT4" x="39183.5" y="36272.98" xlink:href="#post70_1"/>
      <use id="33UUU1" x="38717.06" y="34769.41" xlink:href="#post70_1"/>
      <use id="33UUU2" x="38694.46" y="35266.33" xlink:href="#post70_1"/>
      <use id="33UUU3" x="39221.21" y="34781.91" xlink:href="#post70_1"/>
      <use id="33UUU4" x="39208.72" y="35279.16" xlink:href="#post70_1"/>
      <use id="33UUV2" x="38739.64" y="34272.24" xlink:href="#post70_1"/>
      <use id="33UUV3" x="39245.97" y="33786.54" xlink:href="#post70_1"/>
      <use id="33UUV4" x="39233.63" y="34284.38" xlink:href="#post70_1"/>
      <use id="33UVA2" x="39756.64" y="33300.77" xlink:href="#post70_1"/>
      <use id="33UVP1" x="39589.13" y="39760.67" xlink:href="#pre70_1"/>
      <use id="33UVP3" x="40085.47" y="39773.83" xlink:href="#post70_1"/>
      <use id="33UVP4" x="40072.32" y="40270.2" xlink:href="#post70_1"/>
      <use id="33UVQ1" x="39615.39" y="38768.09" xlink:href="#post70_1"/>
      <use id="33UVQ2" x="39602.28" y="39264.37" xlink:href="#post70_1"/>
      <use id="33UVQ3" x="40111.7" y="38781.18" xlink:href="#pre70_1"/>
      <use id="33UVQ4" x="40098.6" y="39277.5" xlink:href="#post70_1"/>
      <use id="33UVR1" x="39641.47" y="37775.43" xlink:href="#post70_1"/>
      <use id="33UVR2" x="39628.45" y="38271.78" xlink:href="#post70_1"/>
      <use id="33UVR3" x="40137.88" y="37788.46" xlink:href="#post70_1"/>
      <use id="33UVR4" x="40124.8" y="38284.85" xlink:href="#post70_1"/>
      <use id="33UVS1" x="39667.37" y="36782.44" xlink:href="#post70_1"/>
      <use id="33UVS2" x="39654.44" y="37278.99" xlink:href="#post70_1"/>
      <use id="33UVS3" x="40164" y="36795.42" xlink:href="#post70_1"/>
      <use id="33UVS4" x="40150.95" y="37292" xlink:href="#post70_1"/>
      <use id="33UVT1" x="39693.09" y="35788.89" xlink:href="#post70_1"/>
      <use id="33UVT2" x="39680.25" y="36285.75" xlink:href="#post70_1"/>
      <use id="33UVT3" x="40190.08" y="35801.82" xlink:href="#post70_1"/>
      <use id="33UVT4" x="40177.05" y="36298.7" xlink:href="#post70_1"/>
      <use id="33UVU1" x="39718.64" y="34794.5" xlink:href="#post70_1"/>
      <use id="33UVU2" x="39705.89" y="35291.81" xlink:href="#post70_1"/>
      <use id="33UVU3" x="40216.11" y="34807.37" xlink:href="#post70_1"/>
      <use id="33UVU4" x="40203.1" y="35304.72" xlink:href="#post70_1"/>
      <use id="33UVV1" x="39744.02" y="33799.01" xlink:href="#post70_1"/>
      <use id="33UVV2" x="39731.34" y="34296.91" xlink:href="#post70_1"/>
      <use id="33UVV3" x="40242.1" y="33811.83" xlink:href="#post70_1"/>
      <use id="33UVV4" x="40229.11" y="34309.75" xlink:href="#post70_1"/>
      <use id="33UWA4" x="41251.96" y="33340.28" xlink:href="#post70_1"/>
      <use id="33UWP1" x="40581.82" y="39786.94" xlink:href="#post70_1"/>
      <use id="33UWP3" x="41078.16" y="39800" xlink:href="#post70_1"/>
      <use id="33UWP4" x="41065.14" y="40296.35" xlink:href="#post70_1"/>
      <use id="33UWQ1" x="40608.04" y="38794.29" xlink:href="#post70_1"/>
      <use id="33UWQ2" x="40594.92" y="39290.61" xlink:href="#pre70_1"/>
      <use id="33UWQ3" x="41104.35" y="38807.42" xlink:href="#post70_1"/>
      <use id="33UWQ4" x="41091.23" y="39303.7" xlink:href="#post70_1"/>
      <use id="33UWR1" x="40634.31" y="37801.58" xlink:href="#post70_1"/>
      <use id="33UWR2" x="40621.16" y="38297.96" xlink:href="#post70_1"/>
      <use id="33UWR3" x="41130.72" y="37814.78" xlink:href="#post70_1"/>
      <use id="33UWR4" x="41117.5" y="38311.11" xlink:href="#post70_1"/>
      <use id="33UWS1" x="40660.65" y="36808.54" xlink:href="#post70_1"/>
      <use id="33UWS2" x="40647.47" y="37305.12" xlink:href="#post70_1"/>
      <use id="33UWS3" x="41157.28" y="36821.8" xlink:href="#pre70_1"/>
      <use id="33UWS4" x="41143.97" y="37318.34" xlink:href="#post70_1"/>
      <use id="33UWT1" x="40687.07" y="35814.95" xlink:href="#post70_1"/>
      <use id="33UWT3" x="41184.05" y="35828.28" xlink:href="#post70_1"/>
      <use id="33UWT4" x="41170.64" y="36325.12" xlink:href="#post70_1"/>
      <use id="33UWU1" x="40713.59" y="34820.51" xlink:href="#post70_1"/>
      <use id="33UWU2" x="40700.32" y="35317.85" xlink:href="#post70_1"/>
      <use id="33UWU3" x="41211.04" y="34833.93" xlink:href="#post70_1"/>
      <use id="33UWU4" x="41197.51" y="35331.22" xlink:href="#post70_1"/>
      <use id="33UWV1" x="40740.19" y="33824.99" xlink:href="#post70_1"/>
      <use id="33UWV2" x="40726.87" y="34322.9" xlink:href="#post70_1"/>
      <use id="33UWV3" x="41238.26" y="33838.48" xlink:href="#post70_1"/>
      <use id="33UWV4" x="41224.62" y="34336.36" xlink:href="#post70_1"/>
      <use id="33UXA1" x="41764.48" y="32855.68" xlink:href="#post70_1"/>
      <use id="33UXA2" x="41750.32" y="33354.19" xlink:href="#post70_1"/>
      <use id="33UXA3" x="42227.73" y="32869.05" xlink:href="#post70_1"/>
      <use id="33UXA4" x="42223.86" y="33367.77" xlink:href="#post70_1"/>
      <use id="33UXP1" x="41574.46" y="39813.03" xlink:href="#post70_1"/>
      <use id="33UXP2" x="41561.49" y="40309.32" xlink:href="#post70_1"/>
      <use id="33UXQ1" x="41600.61" y="38820.57" xlink:href="#post70_1"/>
      <use id="33UXQ2" x="41587.5" y="39316.79" xlink:href="#post70_1"/>
      <use id="33UXQ3" x="42096.8" y="38833.72" xlink:href="#post70_1"/>
      <use id="33UXQ4" x="42083.69" y="39329.85" xlink:href="#post70_1"/>
      <use id="33UXR1" x="41627.07" y="37828.04" xlink:href="#post70_1"/>
      <use id="33UXR2" x="41613.8" y="38324.32" xlink:href="#post70_1"/>
      <use id="33UXR3" x="42191.32" y="37843.23" xlink:href="#post70_1"/>
      <use id="33UXR4" x="42110.02" y="38337.58" xlink:href="#post70_1"/>
      <use id="33UXS3" x="42198.19" y="36850.07" xlink:href="#post70_1"/>
      <use id="33UXS4" x="42194.72" y="37346.7" xlink:href="#post70_1"/>
      <use id="33UXT1" x="41680.98" y="35841.82" xlink:href="#post70_1"/>
      <use id="33UXT3" x="42205.27" y="35856.33" xlink:href="#post70_1"/>
      <use id="33UXU1" x="41708.44" y="34847.61" xlink:href="#post70_1"/>
      <use id="33UXU2" x="41694.66" y="35344.83" xlink:href="#post70_1"/>
      <use id="33UXU3" x="42212.55" y="34861.76" xlink:href="#post70_1"/>
      <use id="33UXU4" x="42208.88" y="35359.17" xlink:href="#post70_1"/>
      <use id="33UXV1" x="41736.26" y="33852.32" xlink:href="#post70_1"/>
      <use id="33UXV2" x="41722.3" y="34350.13" xlink:href="#post70_1"/>
      <use id="33UXV3" x="42220.03" y="33866.09" xlink:href="#post70_1"/>
      <use id="33UXV4" x="42216.25" y="34364.09" xlink:href="#post70_1"/>
      <use id="33UYP1" x="42533.58" y="39838.07" xlink:href="#post70_1"/>
      <use id="33UYP2" x="42540.13" y="40334.66" xlink:href="#post70_1"/>
      <use id="33VVD1" x="39843.82" y="29800.5" xlink:href="#post70_1"/>
      <use id="33VVE1" x="39868.35" y="28795.26" xlink:href="#post70_1"/>
      <use id="33VVF4" x="40384.61" y="28304.16" xlink:href="#post70_1"/>
      <use id="33VVG3" x="40423.42" y="26788.35" xlink:href="#post70_1"/>
      <use id="33VWC2" x="40807.19" y="31329.59" xlink:href="#post70_1"/>
      <use id="33VWE4" x="41363.96" y="29338.05" xlink:href="#post70_1"/>
      <use id="33VWF1" x="40902.39" y="27813.03" xlink:href="#post70_1"/>
      <use id="33VWF4" x="41392.7" y="28331.54" xlink:href="#post70_1"/>
      <use id="34TCR1" x="43150.54" y="42789.68" xlink:href="#post70_1"/>
      <use id="34TCT3" x="43543.76" y="40779.33" xlink:href="#post70_1"/>
      <use id="34TDS3" x="44587.99" y="41719.39" xlink:href="#post70_1"/>
      <use id="34TEQ2" x="45216.14" y="44176.92" xlink:href="#post70_1"/>
      <use id="34TET4" x="45554.01" y="41170.63" xlink:href="#post70_1"/>
      <use id="34TFL3" x="46902.5" y="47585.43" xlink:href="#post70_1"/>
      <use id="34TFM1" x="46347.25" y="46614.17" xlink:href="#post70_1"/>
      <use id="34TFM3" x="46846.36" y="46586.44" xlink:href="#post70_1"/>
      <use id="34TFM4" x="46874.37" y="47085.7" xlink:href="#post70_1"/>
      <use id="34TFN1" x="46292.42" y="45616.74" xlink:href="#post70_1"/>
      <use id="34TFN2" x="46319.8" y="46115.24" xlink:href="#post70_1"/>
      <use id="34TFN3" x="46790.69" y="45589.22" xlink:href="#post70_1"/>
      <use id="34TFN4" x="46818.47" y="46087.62" xlink:href="#post70_1"/>
      <use id="34TFP1" x="46237.95" y="44620.85" xlink:href="#post70_1"/>
      <use id="34TFP2" x="46265.15" y="45118.62" xlink:href="#post70_1"/>
      <use id="34TFP3" x="46735.51" y="44593.53" xlink:href="#post70_1"/>
      <use id="34TFP4" x="46763.04" y="45091.2" xlink:href="#post70_1"/>
      <use id="34TFQ2" x="46210.85" y="44123.41" xlink:href="#post70_1"/>
      <use id="34TGL1" x="47408.52" y="47556.63" xlink:href="#post70_1"/>
      <use id="34TGM1" x="47334.02" y="46558.91" xlink:href="#post70_1"/>
      <use id="34TGM2" x="47371.23" y="47057.54" xlink:href="#post70_1"/>
      <use id="34TGN1" x="47259.87" y="45562.94" xlink:href="#post70_1"/>
      <use id="34TGN2" x="47296.9" y="46060.72" xlink:href="#post70_1"/>
      <use id="34TGP1" x="47186.05" y="44568.52" xlink:href="#post70_1"/>
      <use id="34TGP2" x="47222.91" y="45065.55" xlink:href="#post70_1"/>
      <use id="34UCA1" x="42823.03" y="37834.88" xlink:href="#pre70_1"/>
      <use id="34UCB2" x="42806.52" y="37338.62" xlink:href="#pre70_1"/>
      <use id="34UCB3" x="43333.68" y="36813.02" xlink:href="#post70_1"/>
      <use id="34UCB4" x="43360.23" y="37308.97" xlink:href="#post70_1"/>
      <use id="34UCC1" x="42756.62" y="35849.05" xlink:href="#post70_1"/>
      <use id="34UCC2" x="42773.31" y="36345.74" xlink:href="#post70_1"/>
      <use id="34UCC3" x="43280.34" y="35820.7" xlink:href="#post70_1"/>
      <use id="34UCD1" x="42723.08" y="34855.01" xlink:href="#post70_1"/>
      <use id="34UCD2" x="42739.88" y="35352.16" xlink:href="#post70_1"/>
      <use id="34UCD3" x="43226.64" y="34827.56" xlink:href="#post70_1"/>
      <use id="34UCD4" x="43253.54" y="35324.25" xlink:href="#post70_1"/>
      <use id="34UCE1" x="42689.3" y="33859.9" xlink:href="#post70_1"/>
      <use id="34UCE2" x="42706.23" y="34357.62" xlink:href="#post70_1"/>
      <use id="34UCE3" x="43172.54" y="33833.35" xlink:href="#post70_1"/>
      <use id="34UCE4" x="43199.64" y="34330.61" xlink:href="#post70_1"/>
      <use id="34UCF1" x="42655.27" y="32863.4" xlink:href="#post70_1"/>
      <use id="34UCF2" x="42672.32" y="33361.84" xlink:href="#post70_1"/>
      <use id="34UCF3" x="43118.01" y="32837.81" xlink:href="#post70_1"/>
      <use id="34UCF4" x="43145.33" y="33335.77" xlink:href="#post70_1"/>
      <use id="34UCU1" x="42995.99" y="39813.79" xlink:href="#post70_1"/>
      <use id="34UCU3" x="43491.7" y="39787.71" xlink:href="#post70_1"/>
      <use id="34UCU4" x="43517.76" y="40283.48" xlink:href="#post70_1"/>
      <use id="34UCV1" x="42943.68" y="38822.54" xlink:href="#post70_1"/>
      <use id="34UCV2" x="42969.89" y="39318.15" xlink:href="#post70_1"/>
      <use id="34UCV3" x="43439.34" y="38796.28" xlink:href="#post70_1"/>
      <use id="34UDA1" x="43882.51" y="37778.44" xlink:href="#post70_1"/>
      <use id="34UDA2" x="43908.83" y="38274.25" xlink:href="#pre70_1"/>
      <use id="34UDA4" x="44404.65" y="38247.99" xlink:href="#pre70_1"/>
      <use id="34UDB1" x="43829.74" y="36786.51" xlink:href="#pre70_1"/>
      <use id="34UDB2" x="43856.16" y="37282.52" xlink:href="#post70_1"/>
      <use id="34UDB3" x="44325.84" y="36760.14" xlink:href="#pre70_1"/>
      <use id="34UDB4" x="44352.13" y="37256.19" xlink:href="#post70_1"/>
      <use id="34UDC2" x="43803.27" y="36290.36" xlink:href="#post70_1"/>
      <use id="34UDC3" x="44273.19" y="35767.59" xlink:href="#post70_1"/>
      <use id="34UDC4" x="44299.53" y="36263.94" xlink:href="#post70_1"/>
      <use id="34UDD1" x="43723.5" y="34800.75" xlink:href="#post70_1"/>
      <use id="34UDD2" x="43750.15" y="35297.51" xlink:href="#post70_1"/>
      <use id="34UDD3" x="44220.42" y="34774.2" xlink:href="#post70_1"/>
      <use id="34UDD4" x="44246.82" y="35271.01" xlink:href="#post70_1"/>
      <use id="34UDE1" x="43670" y="33806.37" xlink:href="#post70_1"/>
      <use id="34UDE2" x="43696.78" y="34303.71" xlink:href="#post70_1"/>
      <use id="34UDE3" x="44167.54" y="33779.73" xlink:href="#post70_1"/>
      <use id="34UDE4" x="44194" y="34277.11" xlink:href="#post70_1"/>
      <use id="34UDF1" x="43616.22" y="32810.64" xlink:href="#post70_1"/>
      <use id="34UDF2" x="43643.15" y="33308.7" xlink:href="#post70_1"/>
      <use id="34UDF3" x="44114.51" y="32783.88" xlink:href="#post70_1"/>
      <use id="34UDF4" x="44141.04" y="33281.99" xlink:href="#post70_1"/>
      <use id="34UDG4" x="44087.94" y="32285.36" xlink:href="#post70_1"/>
      <use id="34UDU1" x="43987.47" y="39761.58" xlink:href="#post70_1"/>
      <use id="34UDV1" x="43935.09" y="38770.04" xlink:href="#post70_1"/>
      <use id="34UDV2" x="43961.3" y="39265.8" xlink:href="#post70_1"/>
      <use id="34UDV3" x="44430.88" y="38743.81" xlink:href="#post70_1"/>
      <use id="34UDV4" x="44457.1" y="39239.61" xlink:href="#post70_1"/>
      <use id="34UEA1" x="44874.31" y="37725.91" xlink:href="#post70_1"/>
      <use id="34UEA3" x="45370.2" y="37699.78" xlink:href="#post70_1"/>
      <use id="34UEA4" x="45396.32" y="38195.6" xlink:href="#pre70_1"/>
      <use id="34UEB1" x="44821.97" y="36733.9" xlink:href="#post70_1"/>
      <use id="34UEB2" x="44848.14" y="37229.96" xlink:href="#post70_1"/>
      <use id="34UEB3" x="45318.09" y="36707.82" xlink:href="#post70_1"/>
      <use id="34UEB4" x="45344.12" y="37203.85" xlink:href="#post70_1"/>
      <use id="34UEC1" x="44769.66" y="35741.34" xlink:href="#post70_1"/>
      <use id="34UEC2" x="44795.81" y="36237.7" xlink:href="#post70_1"/>
      <use id="34UEC3" x="45266.14" y="35715.29" xlink:href="#post70_1"/>
      <use id="34UEC4" x="45292.09" y="36211.64" xlink:href="#post70_1"/>
      <use id="34UED1" x="44717.38" y="34747.93" xlink:href="#post70_1"/>
      <use id="34UED2" x="44743.52" y="35244.75" xlink:href="#post70_1"/>
      <use id="34UED3" x="45214.34" y="34721.92" xlink:href="#post70_1"/>
      <use id="34UED4" x="45240.22" y="35218.73" xlink:href="#post70_1"/>
      <use id="34UEE1" x="44665.11" y="33753.42" xlink:href="#post70_1"/>
      <use id="34UEE2" x="44691.24" y="34250.82" xlink:href="#post70_1"/>
      <use id="34UEE3" x="45162.68" y="33727.45" xlink:href="#post70_1"/>
      <use id="34UEE4" x="45188.5" y="34224.84" xlink:href="#post70_1"/>
      <use id="34UEF1" x="44612.83" y="32757.54" xlink:href="#post70_1"/>
      <use id="34UEF2" x="44638.97" y="33255.66" xlink:href="#post70_1"/>
      <use id="34UEF3" x="45111.16" y="32731.61" xlink:href="#post70_1"/>
      <use id="34UEF4" x="45136.9" y="33229.72" xlink:href="#post70_1"/>
      <use id="34UEG1" x="44560.54" y="31760.01" xlink:href="#post70_1"/>
      <use id="34UEG2" x="44586.69" y="32259" xlink:href="#post70_1"/>
      <use id="34UEG3" x="45059.76" y="31734.11" xlink:href="#post70_1"/>
      <use id="34UEG4" x="45085.44" y="32233.07" xlink:href="#post70_1"/>
      <use id="34UEU3" x="45474.95" y="39682.94" xlink:href="#pre70_1"/>
      <use id="34UEU4" x="45501.25" y="40178.76" xlink:href="#pre70_1"/>
      <use id="34UEV2" x="44952.9" y="39213.39" xlink:href="#post70_1"/>
      <use id="34UEV3" x="45422.48" y="38691.39" xlink:href="#pre70_1"/>
      <use id="34UFA1" x="45866.05" y="37673.72" xlink:href="#post70_1"/>
      <use id="34UFA2" x="45892.11" y="38169.49" xlink:href="#post70_1"/>
      <use id="34UFA3" x="46429.73" y="37644.19" xlink:href="#post70_1"/>
      <use id="34UFA4" x="46387.82" y="38143.42" xlink:href="#post70_1"/>
      <use id="34UFB1" x="45814.17" y="36681.87" xlink:href="#post70_1"/>
      <use id="34UFB2" x="45840.07" y="37177.85" xlink:href="#post70_1"/>
      <use id="34UFB3" x="46357.97" y="36653.6" xlink:href="#post70_1"/>
      <use id="34UFB4" x="46393.82" y="37148.95" xlink:href="#post70_1"/>
      <use id="34UFC1" x="45762.57" y="35689.46" xlink:href="#post70_1"/>
      <use id="34UFC2" x="45788.34" y="36185.75" xlink:href="#post70_1"/>
      <use id="34UFC3" x="46286.37" y="35662.42" xlink:href="#post70_1"/>
      <use id="34UFC4" x="46322.15" y="36158.11" xlink:href="#post70_1"/>
      <use id="34UFD1" x="45711.26" y="34696.2" xlink:href="#post70_1"/>
      <use id="34UFD2" x="45736.88" y="35192.95" xlink:href="#post70_1"/>
      <use id="34UFD3" x="46214.91" y="34670.39" xlink:href="#post70_1"/>
      <use id="34UFD4" x="46250.62" y="35166.54" xlink:href="#post70_1"/>
      <use id="34UFE1" x="45660.22" y="33701.83" xlink:href="#post70_1"/>
      <use id="34UFE2" x="45685.7" y="34199.17" xlink:href="#post70_1"/>
      <use id="34UFE3" x="46143.56" y="33677.26" xlink:href="#post70_1"/>
      <use id="34UFE4" x="46179.21" y="34173.99" xlink:href="#post70_1"/>
      <use id="34UFF1" x="45609.46" y="32706.08" xlink:href="#post70_1"/>
      <use id="34UFF2" x="45634.81" y="33204.15" xlink:href="#post70_1"/>
      <use id="34UFF3" x="46072.32" y="32682.74" xlink:href="#post70_1"/>
      <use id="34UFF4" x="46107.93" y="33180.2" xlink:href="#post70_1"/>
      <use id="34UFG1" x="45558.96" y="31708.68" xlink:href="#post70_1"/>
      <use id="34UFG2" x="45584.17" y="32207.6" xlink:href="#post70_1"/>
      <use id="34UFG3" x="46001.18" y="31686.56" xlink:href="#post70_1"/>
      <use id="34UFG4" x="46036.74" y="32184.87" xlink:href="#post70_1"/>
      <use id="34UFV1" x="45918.24" y="38665.22" xlink:href="#pre70_1"/>
      <use id="34UFV2" x="45944.44" y="39160.92" xlink:href="#post70_1"/>
      <use id="34UGU2" x="46974.65" y="40100.2" xlink:href="#post70_1"/>
      <use id="34VDM1" x="43286.45" y="26791.56" xlink:href="#post70_1"/>
      <use id="34VDM3" x="43792.37" y="26763.93" xlink:href="#post70_1"/>
      <use id="34VEH1" x="44508.22" y="30760.55" xlink:href="#post70_1"/>
      <use id="34VEH2" x="44534.38" y="31260.54" xlink:href="#post70_1"/>
      <use id="34VEH3" x="45008.49" y="30734.66" xlink:href="#post70_1"/>
      <use id="34VEH4" x="45034.11" y="31234.64" xlink:href="#post70_1"/>
      <use id="34VEJ1" x="44455.85" y="29758.85" xlink:href="#post70_1"/>
      <use id="34VEJ2" x="44482.04" y="30260" xlink:href="#post70_1"/>
      <use id="34VEJ3" x="44957.32" y="29732.97" xlink:href="#post70_1"/>
      <use id="34VEJ4" x="44982.89" y="30234.11" xlink:href="#post70_1"/>
      <use id="34VEK3" x="44906.25" y="28728.73" xlink:href="#post70_1"/>
      <use id="34VEK4" x="44931.77" y="29231.19" xlink:href="#post70_1"/>
      <use id="34VEL4" x="44880.75" y="28225.56" xlink:href="#post70_1"/>
      <use id="34VEM3" x="44804.39" y="26711.3" xlink:href="#post70_1"/>
      <use id="34VEN1" x="44245.7" y="25723.31" xlink:href="#post70_1"/>
      <use id="34VEN2" x="44272.05" y="26230.71" xlink:href="#post70_1"/>
      <use id="34VEN3" x="44753.59" y="25697.43" xlink:href="#post70_1"/>
      <use id="34VEN4" x="44778.98" y="26204.84" xlink:href="#post70_1"/>
      <use id="34VEP1" x="44192.92" y="24705.53" xlink:href="#post70_1"/>
      <use id="34VEP2" x="44219.32" y="25214.93" xlink:href="#post70_1"/>
      <use id="34VEP3" x="44702.86" y="24679.64" xlink:href="#post70_1"/>
      <use id="34VEP4" x="44728.22" y="25189.06" xlink:href="#post70_1"/>
      <use id="34VEQ1" x="44140.01" y="23683.44" xlink:href="#post70_1"/>
      <use id="34VEQ2" x="44166.48" y="24195.05" xlink:href="#post70_1"/>
      <use id="34VEQ3" x="44652.21" y="23657.54" xlink:href="#post70_1"/>
      <use id="34VEQ4" x="44677.52" y="24169.16" xlink:href="#post70_1"/>
      <use id="34VER2" x="44113.5" y="23170.66" xlink:href="#post70_1"/>
      <use id="34VER3" x="44601.61" y="22630.72" xlink:href="#post70_1"/>
      <use id="34VER4" x="44626.9" y="23144.74" xlink:href="#post70_1"/>
      <use id="34VFH1" x="45508.73" y="30709.33" xlink:href="#post70_1"/>
      <use id="34VFH2" x="45533.81" y="31209.27" xlink:href="#post70_1"/>
      <use id="34VFH3" x="45930.1" y="30688.42" xlink:href="#post70_1"/>
      <use id="34VFH4" x="45965.62" y="31187.75" xlink:href="#post70_1"/>
      <use id="34VFJ1" x="45458.76" y="29707.73" xlink:href="#post70_1"/>
      <use id="34VFJ2" x="45483.71" y="30208.83" xlink:href="#post70_1"/>
      <use id="34VFJ3" x="46008.73" y="29680.78" xlink:href="#post70_1"/>
      <use id="34VFJ4" x="46055.07" y="30180.7" xlink:href="#post70_1"/>
      <use id="34VFK1" x="45409.05" y="28703.59" xlink:href="#post70_1"/>
      <use id="34VFK3" x="45915.86" y="28678.96" xlink:href="#post70_1"/>
      <use id="34VFK4" x="45962.32" y="29180.2" xlink:href="#post70_1"/>
      <use id="34VFL1" x="45359.59" y="27696.56" xlink:href="#post70_1"/>
      <use id="34VFL2" x="45384.29" y="28200.45" xlink:href="#post70_1"/>
      <use id="34VFL3" x="45822.72" y="27674.25" xlink:href="#post70_1"/>
      <use id="34VFL4" x="45869.32" y="28176.99" xlink:href="#post70_1"/>
      <use id="34VFM1" x="45310.4" y="26686.34" xlink:href="#post70_1"/>
      <use id="34VFN1" x="45321.53" y="25669.67" xlink:href="#post70_1"/>
      <use id="34VFN2" x="45357.45" y="26176.46" xlink:href="#post70_1"/>
      <use id="34VFP1" x="45249.62" y="24653.08" xlink:href="#post70_1"/>
      <use id="34VFP2" x="45285.59" y="25161.88" xlink:href="#post70_1"/>
      <use id="34VFQ1" x="45177.58" y="23632.19" xlink:href="#post70_1"/>
      <use id="34VFQ2" x="45213.61" y="24143.2" xlink:href="#post70_1"/>
      <use id="34VFR1" x="45105.4" y="22606.58" xlink:href="#post70_1"/>
      <use id="34VFR2" x="45141.52" y="23120" xlink:href="#post70_1"/>
      <use id="34WDA4" x="43317.33" y="17993.62" xlink:href="#post70_1"/>
      <use id="34WDV3" x="43346.14" y="18521.25" xlink:href="#post70_1"/>
      <use id="34WEB2" x="43791.78" y="16904.53" xlink:href="#post70_1"/>
      <use id="34WET1" x="43980.34" y="20587.19" xlink:href="#post70_1"/>
      <use id="34WEU1" x="43926.74" y="19543.6" xlink:href="#post70_1"/>
      <use id="34WEU3" x="44450.16" y="19517.57" xlink:href="#post70_1"/>
      <use id="34WEV3" x="44399.79" y="18467.34" xlink:href="#post70_1"/>
      <use id="34WFA1" x="44868.98" y="17386.25" xlink:href="#post70_1"/>
      <use id="34WFA2" x="44917.96" y="17914.7" xlink:href="#post70_1"/>
      <use id="34WFB2" x="44819.81" y="16855.89" xlink:href="#post70_1"/>
      <use id="34WFS2" x="45069.27" y="22091.89" xlink:href="#post70_1"/>
      <use id="34WFT1" x="44960.59" y="20539.49" xlink:href="#post70_1"/>
      <use id="34WFU1" x="44887.91" y="19497.07" xlink:href="#post70_1"/>
      <use id="34WFV1" x="44966.78" y="18441.28" xlink:href="#post70_1"/>
      <use id="34WFV2" x="45015.43" y="18966.07" xlink:href="#post70_1"/>
      <use id="35TKF3" x="47918.88" y="47509.32" xlink:href="#post70_1"/>
      <use id="35TKG3" x="47808.7" y="46514.91" xlink:href="#post70_1"/>
      <use id="35TKG4" x="47863.79" y="47011.88" xlink:href="#post70_1"/>
      <use id="35TKH3" x="47698.5" y="45522.28" xlink:href="#post70_1"/>
      <use id="35TKH4" x="47753.61" y="46018.39" xlink:href="#post70_1"/>
      <use id="35TKJ4" x="47643.39" y="45026.57" xlink:href="#post70_1"/>
      <use id="35TLF1" x="48421.57" y="47444.61" xlink:href="#post70_1"/>
      <use id="35TLF3" x="48918.22" y="47380.15" xlink:href="#post70_1"/>
      <use id="35TLG1" x="48293.12" y="46452.33" xlink:href="#post70_1"/>
      <use id="35TLG2" x="48357.36" y="46948.22" xlink:href="#post70_1"/>
      <use id="35TLG3" x="48788.81" y="46387.83" xlink:href="#post70_1"/>
      <use id="35TLG4" x="48853.51" y="46883.76" xlink:href="#post70_1"/>
      <use id="35TLH1" x="48164.51" y="45461.86" xlink:href="#post70_1"/>
      <use id="35TLH2" x="48228.83" y="45956.88" xlink:href="#post70_1"/>
      <use id="35TLH3" x="48659.35" y="45397.31" xlink:href="#post70_1"/>
      <use id="35TLH4" x="48724.08" y="45892.36" xlink:href="#post70_1"/>
      <use id="35TLJ2" x="48100.14" y="44967.24" xlink:href="#post70_1"/>
      <use id="35TLJ4" x="48594.59" y="44902.67" xlink:href="#post70_1"/>
      <use id="35TLN1" x="47518.06" y="40529.11" xlink:href="#pre70_1"/>
      <use id="35TMF1" x="49414.88" y="47315.2" xlink:href="#post70_1"/>
      <use id="35TMG1" x="49284.51" y="46322.89" xlink:href="#post70_1"/>
      <use id="35TMG2" x="49349.68" y="46818.81" xlink:href="#post70_1"/>
      <use id="35TMG3" x="49780.19" y="46257.5" xlink:href="#post70_1"/>
      <use id="35TMG4" x="49845.82" y="46753.39" xlink:href="#post70_1"/>
      <use id="35TMH1" x="49154.2" y="45332.37" xlink:href="#post70_1"/>
      <use id="35TMH2" x="49219.35" y="45827.42" xlink:href="#post70_1"/>
      <use id="35TMH3" x="49649.05" y="45267.04" xlink:href="#post70_1"/>
      <use id="35TMH4" x="49714.6" y="45762.06" xlink:href="#post70_1"/>
      <use id="35TMJ1" x="49023.94" y="44343.42" xlink:href="#post70_1"/>
      <use id="35TMJ2" x="49089.07" y="44837.71" xlink:href="#post70_1"/>
      <use id="35TMJ3" x="49518.06" y="44278.13" xlink:href="#post70_1"/>
      <use id="35TMJ4" x="49583.54" y="44772.4" xlink:href="#post70_1"/>
      <use id="35TMK2" x="48958.81" y="43849.47" xlink:href="#pre70_1"/>
      <use id="35TMN1" x="48502.64" y="40398.85" xlink:href="#pre70_1"/>
      <use id="35TMN3" x="48994.98" y="40333.55" xlink:href="#pre70_1"/>
      <use id="35TNG2" x="50341.93" y="46687.49" xlink:href="#post70_1"/>
      <use id="35TNG3" x="50771.4" y="46125.38" xlink:href="#post70_1"/>
      <use id="35TNG4" x="50837.94" y="46621.12" xlink:href="#post70_1"/>
      <use id="35TNH1" x="50143.86" y="45201.31" xlink:href="#post70_1"/>
      <use id="35TNH2" x="50209.81" y="45696.28" xlink:href="#post70_1"/>
      <use id="35TNH3" x="50638.61" y="45135.2" xlink:href="#post70_1"/>
      <use id="35TNH4" x="50704.95" y="45630.09" xlink:href="#post70_1"/>
      <use id="35TNJ1" x="50012.15" y="44212.5" xlink:href="#post70_1"/>
      <use id="35TNJ2" x="50077.97" y="44706.73" xlink:href="#post70_1"/>
      <use id="35TNJ3" x="50506.18" y="44146.54" xlink:href="#post70_1"/>
      <use id="35TNJ4" x="50572.34" y="44640.69" xlink:href="#post70_1"/>
      <use id="35TNK2" x="49946.39" y="43718.6" xlink:href="#post70_1"/>
      <use id="35TNM3" x="50110.87" y="41187.47" xlink:href="#pre70_1"/>
      <use id="35TNN2" x="49552.8" y="40760.54" xlink:href="#pre70_1"/>
      <use id="35TPJ2" x="51066.63" y="44574.31" xlink:href="#post70_1"/>
      <use id="35TPK1" x="50867.45" y="43093.09" xlink:href="#pre70_1"/>
      <use id="35TPK3" x="51360.7" y="43026.73" xlink:href="#post70_1"/>
      <use id="35TPL2" x="50801.28" y="42599.92" xlink:href="#pre70_1"/>
      <use id="35TPL4" x="51294.28" y="42533.68" xlink:href="#post70_1"/>
      <use id="35TQL2" x="51713.45" y="42477.17" xlink:href="#post70_1"/>
      <use id="35ULA1" x="46498.07" y="32643.27" xlink:href="#post70_1"/>
      <use id="35ULA2" x="46554.51" y="33138.8" xlink:href="#post70_1"/>
      <use id="35ULA3" x="46957.33" y="32581.13" xlink:href="#post70_1"/>
      <use id="35ULA4" x="47023.97" y="33075.37" xlink:href="#post70_1"/>
      <use id="35ULB1" x="46384.87" y="31650.99" xlink:href="#post70_1"/>
      <use id="35ULB2" x="46441.52" y="32147.34" xlink:href="#post70_1"/>
      <use id="35ULB3" x="46823.62" y="31591.44" xlink:href="#post70_1"/>
      <use id="35ULB4" x="46890.55" y="32086.49" xlink:href="#post70_1"/>
      <use id="35ULV1" x="46610.87" y="33633.94" xlink:href="#post70_1"/>
      <use id="35ULV3" x="47090.48" y="33569.23" xlink:href="#post70_1"/>
      <use id="35UMA1" x="47451.83" y="32514.62" xlink:href="#post70_1"/>
      <use id="35UMB1" x="47318.98" y="31524.67" xlink:href="#post70_1"/>
      <use id="35UMB2" x="47385.47" y="32019.85" xlink:href="#post70_1"/>
      <use id="35UMB3" x="47814.46" y="31458.36" xlink:href="#post70_1"/>
      <use id="35UMB4" x="47880.49" y="31953.65" xlink:href="#post70_1"/>
      <use id="35UNB1" x="48310.03" y="31392.54" xlink:href="#post70_1"/>
      <use id="35VLC1" x="46271.25" y="30656.79" xlink:href="#post70_1"/>
      <use id="35VLC2" x="46328.13" y="31154.14" xlink:href="#post70_1"/>
      <use id="35VLC3" x="46689.29" y="30599.89" xlink:href="#post70_1"/>
      <use id="35VLC4" x="46756.54" y="31095.91" xlink:href="#post70_1"/>
      <use id="35VLD3" x="46554.28" y="29606.17" xlink:href="#post70_1"/>
      <use id="35VLD4" x="46621.87" y="30103.32" xlink:href="#post70_1"/>
      <use id="35VLE3" x="46418.56" y="28610" xlink:href="#post70_1"/>
      <use id="35VLE4" x="46486.52" y="29108.42" xlink:href="#post70_1"/>
      <use id="35VLF3" x="46282.05" y="27611.04" xlink:href="#post70_1"/>
      <use id="35VLF4" x="46350.41" y="28110.89" xlink:href="#post70_1"/>
      <use id="35VLG3" x="46144.7" y="26608.99" xlink:href="#post70_1"/>
      <use id="35VLG4" x="46213.48" y="27110.43" xlink:href="#post70_1"/>
      <use id="35VLH3" x="45946.86" y="25611.7" xlink:href="#post70_1"/>
      <use id="35VLH4" x="46004.72" y="26116.46" xlink:href="#post70_1"/>
      <use id="35VLJ3" x="45830.67" y="24599.22" xlink:href="#post70_1"/>
      <use id="35VLJ4" x="45888.85" y="25105.96" xlink:href="#post70_1"/>
      <use id="35VLK3" x="45713.82" y="23582.48" xlink:href="#post70_1"/>
      <use id="35VLK4" x="45772.33" y="24091.4" xlink:href="#post70_1"/>
      <use id="35VLL3" x="45596.23" y="22561.08" xlink:href="#post70_1"/>
      <use id="35VLL4" x="45655.11" y="23072.39" xlink:href="#post70_1"/>
      <use id="35VMC1" x="47185.66" y="30532.83" xlink:href="#post70_1"/>
      <use id="35VMC2" x="47252.38" y="31028.99" xlink:href="#post70_1"/>
      <use id="35VMC3" x="47682.16" y="30466.31" xlink:href="#post70_1"/>
      <use id="35VMC4" x="47748.36" y="30962.59" xlink:href="#post70_1"/>
      <use id="35VMD1" x="47051.82" y="29538.8" xlink:href="#post70_1"/>
      <use id="35VMD2" x="47118.81" y="30036.1" xlink:href="#post70_1"/>
      <use id="35VMD3" x="47549.5" y="29472.06" xlink:href="#post70_1"/>
      <use id="35VMD4" x="47615.88" y="29969.48" xlink:href="#post70_1"/>
      <use id="35VME1" x="46917.4" y="28542.29" xlink:href="#post70_1"/>
      <use id="35VME2" x="46984.69" y="29040.88" xlink:href="#post70_1"/>
      <use id="35VME3" x="47416.41" y="28475.29" xlink:href="#post70_1"/>
      <use id="35VME4" x="47483.01" y="28974.01" xlink:href="#post70_1"/>
      <use id="35VMF1" x="46782.37" y="27542.98" xlink:href="#post70_1"/>
      <use id="35VMF2" x="46849.97" y="28043" xlink:href="#post70_1"/>
      <use id="35VMF3" x="47282.87" y="27475.69" xlink:href="#post70_1"/>
      <use id="35VMF4" x="47349.7" y="27975.87" xlink:href="#post70_1"/>
      <use id="35VMG1" x="46646.67" y="26540.52" xlink:href="#post70_1"/>
      <use id="35VMG2" x="46714.61" y="27042.17" xlink:href="#post70_1"/>
      <use id="35VMG3" x="47148.82" y="26472.93" xlink:href="#post70_1"/>
      <use id="35VMG4" x="47215.91" y="26974.72" xlink:href="#post70_1"/>
      <use id="35VMH1" x="46510.23" y="25534.58" xlink:href="#post70_1"/>
      <use id="35VMH2" x="46578.55" y="26038.02" xlink:href="#post70_1"/>
      <use id="35VMH3" x="47014.22" y="25466.65" xlink:href="#post70_1"/>
      <use id="35VMH4" x="47081.59" y="25970.25" xlink:href="#post70_1"/>
      <use id="35VMJ1" x="46372.99" y="24524.81" xlink:href="#post70_1"/>
      <use id="35VMJ2" x="46441.72" y="25030.21" xlink:href="#post70_1"/>
      <use id="35VMJ3" x="46879.01" y="24456.52" xlink:href="#post70_1"/>
      <use id="35VMJ4" x="46946.69" y="24962.09" xlink:href="#post70_1"/>
      <use id="35VMK1" x="46234.9" y="23510.82" xlink:href="#post70_1"/>
      <use id="35VMK2" x="46304.06" y="24018.37" xlink:href="#post70_1"/>
      <use id="35VMK3" x="46743.13" y="23442.12" xlink:href="#post70_1"/>
      <use id="35VMK4" x="46811.15" y="23949.88" xlink:href="#post70_1"/>
      <use id="35VML1" x="46095.87" y="22492.2" xlink:href="#post70_1"/>
      <use id="35VML2" x="46165.51" y="23002.11" xlink:href="#post70_1"/>
      <use id="35VML3" x="46606.53" y="22423.07" xlink:href="#post70_1"/>
      <use id="35VML4" x="46674.92" y="22933.21" xlink:href="#post70_1"/>
      <use id="35VNC1" x="48178.76" y="30400.35" xlink:href="#post70_1"/>
      <use id="35VNC2" x="48244.42" y="30896.7" xlink:href="#post70_1"/>
      <use id="35VNC3" x="48675.41" y="30334.95" xlink:href="#post70_1"/>
      <use id="35VNC4" x="48740.53" y="30831.32" xlink:href="#post70_1"/>
      <use id="35VND1" x="48047.27" y="29405.94" xlink:href="#post70_1"/>
      <use id="35VND2" x="48113.05" y="29903.44" xlink:href="#post70_1"/>
      <use id="35VNE1" x="47915.53" y="28408.99" xlink:href="#post70_1"/>
      <use id="35VNE2" x="47981.44" y="28907.8" xlink:href="#post70_1"/>
      <use id="35VNF1" x="47783.49" y="27409.19" xlink:href="#post70_1"/>
      <use id="35VNF2" x="47849.55" y="27909.47" xlink:href="#post70_1"/>
      <use id="35VNF3" x="48284.2" y="27343.49" xlink:href="#post70_1"/>
      <use id="35VNH1" x="47518.36" y="25399.69" xlink:href="#post70_1"/>
      <use id="35VNH2" x="47584.79" y="25903.41" xlink:href="#post70_1"/>
      <use id="35VNH3" x="48022.61" y="25333.7" xlink:href="#post70_1"/>
      <use id="35VNH4" x="48088.08" y="25837.5" xlink:href="#post70_1"/>
      <use id="35VNJ1" x="47385.19" y="24389.28" xlink:href="#post70_1"/>
      <use id="35VNJ2" x="47451.83" y="24894.99" xlink:href="#post70_1"/>
      <use id="35VNJ3" x="47891.48" y="24323.11" xlink:href="#post70_1"/>
      <use id="35VNJ4" x="47957.08" y="24828.93" xlink:href="#post70_1"/>
      <use id="35VNK1" x="47251.54" y="23374.59" xlink:href="#post70_1"/>
      <use id="35VNK2" x="47318.43" y="23882.5" xlink:href="#post70_1"/>
      <use id="35VNK3" x="47760.08" y="23308.23" xlink:href="#post70_1"/>
      <use id="35VNK4" x="47825.82" y="23816.24" xlink:href="#post70_1"/>
      <use id="35VNL1" x="47117.38" y="22355.22" xlink:href="#post70_1"/>
      <use id="35VNL2" x="47184.53" y="22865.51" xlink:href="#post70_1"/>
      <use id="35VNL3" x="47628.37" y="22288.64" xlink:href="#post70_1"/>
      <use id="35VNL4" x="47694.26" y="22799.04" xlink:href="#post70_1"/>
      <use id="35VPJ1" x="48434.42" y="24253.36" xlink:href="#post70_1"/>
      <use id="35VPJ2" x="48510.55" y="24757.72" xlink:href="#post70_1"/>
      <use id="35VPK1" x="48281.8" y="23241.37" xlink:href="#post70_1"/>
      <use id="35VPK2" x="48358.17" y="23747.93" xlink:href="#post70_1"/>
      <use id="35VPL1" x="48128.67" y="22224.7" xlink:href="#post70_1"/>
      <use id="35VPL2" x="48205.31" y="22733.64" xlink:href="#post70_1"/>
      <use id="35WLM3" x="45477.83" y="21534.61" xlink:href="#post70_1"/>
      <use id="35WLM4" x="45537.13" y="22048.51" xlink:href="#post70_1"/>
      <use id="35WLN4" x="45418.31" y="21019.32" xlink:href="#post70_1"/>
      <use id="35WLP3" x="45238.4" y="19464.58" xlink:href="#post70_1"/>
      <use id="35WLP4" x="45298.62" y="19984.38" xlink:href="#post70_1"/>
      <use id="35WMM1" x="45955.85" y="21468.54" xlink:href="#post70_1"/>
      <use id="35WMM2" x="46025.99" y="21981.02" xlink:href="#post70_1"/>
      <use id="35WMM3" x="46469.14" y="21398.95" xlink:href="#post70_1"/>
      <use id="35WMM4" x="46537.94" y="21911.67" xlink:href="#post70_1"/>
      <use id="35WMN1" x="45814.73" y="20439.38" xlink:href="#post70_1"/>
      <use id="35WMN2" x="45885.43" y="20954.67" xlink:href="#post70_1"/>
      <use id="35WMN3" x="46330.9" y="20369.29" xlink:href="#post70_1"/>
      <use id="35WMN4" x="46400.13" y="20884.84" xlink:href="#post70_1"/>
      <use id="35WMP1" x="45672.45" y="19404.26" xlink:href="#post70_1"/>
      <use id="35WMP2" x="45743.75" y="19922.6" xlink:href="#post70_1"/>
      <use id="35WMP3" x="46191.74" y="19333.62" xlink:href="#post70_1"/>
      <use id="35WMP4" x="46261.44" y="19852.24" xlink:href="#post70_1"/>
      <use id="35WMQ2" x="45600.84" y="18884.3" xlink:href="#post70_1"/>
      <use id="35WMQ3" x="46051.57" y="18291.43" xlink:href="#post70_1"/>
      <use id="35WMQ4" x="46121.79" y="18813.37" xlink:href="#post70_1"/>
      <use id="35WMR2" x="45456.62" y="17839.27" xlink:href="#post70_1"/>
      <use id="35WMR4" x="45981.09" y="17767.73" xlink:href="#post70_1"/>
      <use id="35WMT4" x="45696.22" y="15653.74" xlink:href="#post70_1"/>
      <use id="35WNM1" x="46982.65" y="21330.74" xlink:href="#post70_1"/>
      <use id="35WNM2" x="47050.09" y="21843.65" xlink:href="#post70_1"/>
      <use id="35WNM3" x="47496.31" y="21263.92" xlink:href="#post70_1"/>
      <use id="35WNM4" x="47562.39" y="21776.94" xlink:href="#post70_1"/>
      <use id="35WNN1" x="46847.3" y="20300.69" xlink:href="#post70_1"/>
      <use id="35WNN2" x="46915.05" y="20816.44" xlink:href="#post70_1"/>
      <use id="35WNN3" x="47363.87" y="20233.61" xlink:href="#post70_1"/>
      <use id="35WNN4" x="47430.14" y="20749.49" xlink:href="#post70_1"/>
      <use id="35WNP1" x="46711.27" y="19264.61" xlink:href="#post70_1"/>
      <use id="35WNP2" x="46779.37" y="19783.44" xlink:href="#post70_1"/>
      <use id="35WNP3" x="47230.99" y="19197.24" xlink:href="#post70_1"/>
      <use id="35WNP4" x="47297.48" y="19716.22" xlink:href="#post70_1"/>
      <use id="35WNQ1" x="46574.51" y="18221.97" xlink:href="#post70_1"/>
      <use id="35WNQ2" x="46642.99" y="18744.14" xlink:href="#post70_1"/>
      <use id="35WNQ3" x="47097.65" y="18154.29" xlink:href="#post70_1"/>
      <use id="35WNQ4" x="47164.38" y="18676.62" xlink:href="#post70_1"/>
      <use id="35WNR2" x="46505.83" y="17698.03" xlink:href="#post70_1"/>
      <use id="35WNR4" x="47030.79" y="17630.18" xlink:href="#post70_1"/>
      <use id="35WNS3" x="46829.38" y="16046.39" xlink:href="#post70_1"/>
      <use id="35WNS4" x="46896.66" y="16576.31" xlink:href="#post70_1"/>
      <use id="35WNT3" x="46770.19" y="14970.63" xlink:href="#post70_1"/>
      <use id="35WPM1" x="47975" y="21202.91" xlink:href="#post70_1"/>
      <use id="35WPM2" x="48051.91" y="21714.48" xlink:href="#post70_1"/>
      <use id="35WPN1" x="47820.7" y="20175.56" xlink:href="#post70_1"/>
      <use id="35WPN2" x="47897.94" y="20689.95" xlink:href="#post70_1"/>
      <use id="35WPP1" x="47665.74" y="19142.16" xlink:href="#post70_1"/>
      <use id="35WPP2" x="47743.31" y="19659.65" xlink:href="#post70_1"/>
      <use id="35WPQ1" x="47660.8" y="18083.44" xlink:href="#post70_1"/>
      <use id="35WPR2" x="47570.45" y="17562.37" xlink:href="#post70_1"/>
      <use id="36VUP3" x="49009.39" y="24153.67" xlink:href="#post70_1"/>
      <use id="36VUQ3" x="48812.42" y="23149.37" xlink:href="#post70_1"/>
      <use id="36VUQ4" x="48911.04" y="23652.07" xlink:href="#post70_1"/>
      <use id="36VUR3" x="48614.36" y="22140.49" xlink:href="#post70_1"/>
      <use id="36VUR4" x="48713.53" y="22645.53" xlink:href="#post70_1"/>
      <use id="36VVQ1" x="49326.2" y="23036.69" xlink:href="#post70_1"/>
      <use id="36VVQ2" x="49435.31" y="23537.18" xlink:href="#post70_1"/>
      <use id="36WUS3" x="48415.09" y="21126.61" xlink:href="#post70_1"/>
      <use id="36WUS4" x="48514.88" y="21634.21" xlink:href="#post70_1"/>
      <use id="36WVC2" x="47642.34" y="15361.74" xlink:href="#post70_1"/>
    </g>
    <defs>
      <circle id="post70_1" r="250" fill="#dc5107"/>
      <circle id="pre70_1" r="250" fill="darkgrey"/>
      <circle id="post70_2" r="250" stroke-width="40" fill="white" fill-opacity="0.1" stroke="red"/>
      <circle id="pre70_2" r="250" stroke-width="40" fill="white" fill-opacity="0.1" stroke="pink"/>
    </defs>
  </g>
</svg>