<?xml version="1.0" standalone="yes"?>
<svg xmlns="http://www.w3.org/2000/svg" width="1024" height="1024">
<path style="fill:#b8b8b8; stroke:none;" d="M0 0L0 440L0 558C0 569.842 -4.55542 593.813 1.74228 604C9.77416 616.992 27.7119 628.238 40 637C73.0694 660.579 108.48 676.749 148 686.116C177.367 693.076 208.175 693.568 236 706.309C275.854 724.557 306.614 755.922 330.667 792C375.097 858.646 400 944.028 400 1024L1024 1024L1024 820L1024 767C1024 761.791 1026.04 751.044 1022.97 746.637C1019.34 741.423 1008.53 737.776 1003 734.769C988.435 726.849 974.216 718.329 960 709.8C916.363 683.619 877.204 651.194 834 624.424C803.782 605.701 767.669 586.14 756.347 550C749.126 526.948 755.956 499.212 763.333 477C768.646 461.005 774.913 445.181 782.258 430C809.006 374.72 858.114 308.691 818.771 246C786 193.782 718.027 195.721 666 177.656C589.79 151.194 532.062 79.6173 522 0L0 0z"/>
<path style="fill:#999999; stroke:none;" d="M522 0C528.425 81.4076 593.839 154.502 670 179.33C721.641 196.165 786.484 195.554 818.771 247C838.042 277.707 834.762 319.438 822.189 352C800.566 408 760.106 454.921 754.17 517C751.631 543.551 758.739 566.781 778.17 585.714C804.584 611.453 839.977 627.643 870 648.721C906.63 674.436 942.082 700.508 981 722.85C994.427 730.559 1009.09 741.697 1024 746L1024 630C1013.57 637.346 1010.59 640.197 1002 628L1013 621.056L1024 629L1024 0L703 0L712 10L712 11C700.674 18.9785 699.746 20.1555 690 9L701 1L684 0L648 0L522 0z"/>
<path style="fill:#157f57; stroke:none;" d="M700 21L701 21C711.111 12.1663 710.318 10.4305 703 0C690.189 5.42432 691.52 12.1389 700 21z"/>
<path style="fill:#87a799; stroke:none;" d="M703 1L704 2L703 1M698 2L699 3L698 2M704 2L705 3L704 2M691 8L692 9L691 8M690 9L691 10L690 9M710 9L711 10L710 9M711 10L712 11L711 10M693 13L694 14L693 13M694 14L695 15L694 14M703 18L704 19L703 18M702 19L703 20L702 19M701 20L702 21L701 20M721 22L711 33L721 22z"/>
<path style="fill:#157f57; stroke:none;" d="M722 22L712 34L725 43L733 30L722 22z"/>
<path style="fill:#87a799; stroke:none;" d="M726 25L727 26L726 25M731 29L732 30L731 29M732 31L733 32L732 31M730 34L731 35L730 34M714 35L715 36L714 35M727 38L728 39L727 38z"/>
<path style="fill:#157f57; stroke:none;" d="M745 39L738 53L751 60L758 46L745 39z"/>
<path style="fill:#87a799; stroke:none;" d="M746 39L747 40L746 39M720 40L721 41L720 40M725 41L726 42L725 41M749 41L750 42L749 41M754 44L755 45L754 44M741 45L742 46L741 45M739 48L740 49L739 48M757 48L758 49L757 48z"/>
<path style="fill:#157f57; stroke:none;" d="M771 54L765 68L779 74L785 61L771 54z"/>
<path style="fill:#87a799; stroke:none;" d="M753 55L754 56L753 55M774 55L775 56L774 55M744 56L745 57L744 56M776 56L777 57L776 56M778 57L779 58L778 57M780 58L781 59L780 58M782 59L783 60L782 59M784 60L785 61L784 60M765 65L766 66L765 65M782 66L783 67L782 66M781 68L782 69L781 68M798 68L799 69L798 68z"/>
<path style="fill:#157f57; stroke:none;" d="M799 68L792 82L806 88L812 74L799 68z"/>
<path style="fill:#87a799; stroke:none;" d="M780 70L781 71L780 70M797 70L798 71L797 70M806 71L807 72L806 71M779 72L780 73L779 72M796 72L797 73L796 72M808 72L809 73L808 72M810 73L811 74L810 73M778 74L779 75L778 74M812 74L813 75L812 74M826 81L827 82L826 81z"/>
<path style="fill:#157f57; stroke:none;" d="M820 95L834 101L840 88C828.278 81.158 824.854 82.4876 820 95z"/>
<path style="fill:#87a799; stroke:none;" d="M821 91L822 92L821 91M820 93L821 94L820 93M820 95L821 96L820 95M836 95L837 96L836 95z"/>
<path style="fill:#157f57; stroke:none;" d="M854 95C847.601 105.963 847.891 111.224 861 115L868 102L854 95z"/>
<path style="fill:#87a799; stroke:none;" d="M855 95L856 96L855 95M822 96L823 97L822 96M857 96L858 97L857 96M835 97L836 98L835 97M859 97L860 98L859 97M861 98L862 99L861 98M834 99L835 100L834 99M833 101L834 102L833 101M866 104L867 105L866 104M865 106L866 107L865 106M847 108L848 109L847 108M864 108L865 109L864 108M863 110L864 111L863 110z"/>
<path style="fill:#157f57; stroke:none;" d="M881 110L874 123C885.494 129.054 889.029 129.775 895 117L881 110z"/>
<path style="fill:#87a799; stroke:none;" d="M883 110L884 111L883 110M862 112L863 113L862 112M858 114L859 115L858 114M890 114L891 115L890 114M860 115L861 116L860 115M876 118L877 119L876 118M892 121L893 122L892 121M875 123L876 124L875 123M880 126L881 127L880 126z"/>
<path style="fill:#157f57; stroke:none;" d="M908 126L900 139L912 147L921 136L908 126z"/>
<path style="fill:#87a799; stroke:none;" d="M909 126L910 127L909 126M882 127L883 128L882 127M906 128L907 129L906 128M912 128L913 129L912 128M885 129L886 130L885 129M887 129L888 130L887 129M904 131L905 132L904 131M916 131L917 132L916 131M920 134L921 135L920 134M919 137L920 138L919 137M918 138L919 139L918 138M905 142L906 143L905 142M914 143L915 144L914 143M913 144L914 145L913 144M909 145L910 146L909 145z"/>
<path style="fill:#157f57; stroke:none;" d="M933 146C930.316 148.685 925.317 152.175 924.345 156C920.675 170.447 939.497 162.436 944 159L944 158L933 146z"/>
<path style="fill:#87a799; stroke:none;" d="M937 150L938 151L937 150M938 151L939 152L938 151M925 153L926 154L925 153M924 154L925 155L924 154M923 155L924 156L923 155M941 155L942 156L941 155M922 156L923 157L922 156M943 159L944 160L943 159M927 162L928 163L927 162M935 164L936 165L935 164M930 166L931 167L930 166M951 174L952 175L951 174z"/>
<path style="fill:#157f57; stroke:none;" d="M937 180L942 194C955.447 189.625 955.585 188.135 952 175L937 180z"/>
<path style="fill:#87a799; stroke:none;" d="M945 176L946 177L945 176M952 177L953 178L952 177M940 178L941 179L940 178M937 181L938 182L937 181M938 183L939 184L938 183M955 185L956 186L955 185M939 186L940 187L939 186M955 189L956 190L955 189M952 190L953 191L952 190M949 191L950 192L949 191M946 192L947 193L946 192M943 193L944 194L943 193z"/>
<path style="fill:#157f57; stroke:none;" d="M964 220L961 204C957.455 205.134 951.406 205.634 948.618 208.14C945.858 210.621 947.998 219.971 951.303 221.357C954.775 222.813 960.396 220.465 964 220z"/>
<path style="fill:#87a799; stroke:none;" d="M956 205L957 206L956 205M961 205L962 206L961 205M952 206L953 207L952 206M948 207L949 208L948 207M946 208L947 209L946 208M962 209L963 210L962 209M947 212L948 213L947 212M963 213L964 214L963 213M964 217L964 220L965 220L964 217M960.667 220.333L961.333 220.667L960.667 220.333M949 221L950 222L949 221M955 221L956 222L955 221M950 222L951 223L950 222z"/>
<path style="fill:#157f57; stroke:none;" d="M453 255C452.221 251.235 451.358 247.46 449.622 244C448.555 241.874 447.239 239.836 445.671 238.043C444.298 236.473 442.751 235.102 440.996 233.97C425.516 223.984 431.508 256.346 440.213 259.303C444.327 260.701 449.719 257.064 453 255z"/>
<path style="fill:#87a799; stroke:none;" d="M436 231L437 232L436 231M438 232L439 233L438 232M440 233L441 234L440 233M966.667 235.333L967.333 235.667L966.667 235.333z"/>
<path style="fill:#999999; stroke:none;" d="M429 236L430 237L429 236z"/>
<path style="fill:#495151; stroke:none;" d="M430 236C425.922 243.641 428.243 258.747 435.39 264.393C440.875 268.725 449.528 262.932 450 257C433.598 262.333 435.436 247.289 430 236z"/>
<path style="fill:#87a799; stroke:none;" d="M958 236L959 237L958 236z"/>
<path style="fill:#157f57; stroke:none;" d="M952 237C953.862 251.732 954.72 251.118 969 251L968 236L952 237z"/>
<path style="fill:#87a799; stroke:none;" d="M447 240L448 241L447 240M952.333 240.667L952.667 241.333L952.333 240.667M448 241L449 242L448 241M449 243L450 244L449 243M968 244L968 247L969 247L968 244M450 245L451 246L450 245M451.333 247.667L451.667 248.333L451.333 247.667M389 248L390 249L389 248z"/>
<path style="fill:#157f57; stroke:none;" d="M392 248C384.846 250.12 371.295 263.695 381.514 270.972C391.192 277.864 395.699 263.784 394.699 257C394.237 253.869 393.099 250.948 392 248z"/>
<path style="fill:#87a799; stroke:none;" d="M387 249L388 250L387 249M392 249L393 250L392 249z"/>
<path style="fill:#999999; stroke:none;" d="M428 250L429 251L428 250z"/>
<path style="fill:#87a799; stroke:none;" d="M452 250L452 253L453 253L452 250M384 251L385 252L384 251M393 251L394 252L393 251M953 251L954 252L953 251M961 251L961 252L965 252L961 251M383 252L384 253L383 252z"/>
<path style="fill:#999999; stroke:none;" d="M379 253L380 254L379 253z"/>
<path style="fill:#495151; stroke:none;" d="M386 272C376 270.41 379.306 259.612 382 253C373.56 255.695 365.115 266.596 371.179 275.682C374.989 281.391 383.75 276.327 386 272z"/>
<path style="fill:#999999; stroke:none;" d="M429 253L430 254L429 253M377 254L378 255L377 254z"/>
<path style="fill:#87a799; stroke:none;" d="M394.333 254.667L394.667 255.333L394.333 254.667z"/>
<path style="fill:#999999; stroke:none;" d="M376 255L377 256L376 255z"/>
<path style="fill:#87a799; stroke:none;" d="M452 255L453 256L452 255z"/>
<path style="fill:#999999; stroke:none;" d="M430 256L431 257L430 256z"/>
<path style="fill:#87a799; stroke:none;" d="M450 256L451 257L450 256z"/>
<path style="fill:#999999; stroke:none;" d="M431 258L432 259L431 258M432 260L433 261L432 260M370 261L371 262L370 261M433 262L434 263L433 262M448 262L449 263L448 262z"/>
<path style="fill:#87a799; stroke:none;" d="M459 262L460 263L459 262z"/>
<path style="fill:#157f57; stroke:none;" d="M460 262.613C455.325 263.851 451.427 266.713 448.015 270.04C426.074 291.437 443.004 308.957 447.54 333C449.844 345.212 446.954 356.829 448.171 369C450.659 393.887 465.31 418.126 492 417.999C499.036 417.966 506.203 416.909 513 415.116C524.514 412.079 539.972 408.036 548.907 399.787C575.239 375.476 549.827 325.859 530 306C524.43 300.421 518.959 294.743 513 289.576C499.589 277.947 479.918 257.336 460 262.613z"/>
<path style="fill:#87a799; stroke:none;" d="M471.667 262.333L472.333 262.667L471.667 262.333z"/>
<path style="fill:#999999; stroke:none;" d="M369 263L369 273L370 273L369 263M446 263L447 264L446 263z"/>
<path style="fill:#87a799; stroke:none;" d="M457 263L458 264L457 263M476 263L477 264L476 263z"/>
<path style="fill:#999999; stroke:none;" d="M434 264L435 265L434 264M444 264L445 265L444 264M435 265L436 266L435 265M441 265L442 266L441 265z"/>
<path style="fill:#87a799; stroke:none;" d="M453 265L454 266L453 265M482 266L483 267L482 266M450 267L451 268L450 267M953 267L954 268L953 267z"/>
<path style="fill:#157f57; stroke:none;" d="M952 281L968 283L969 267C954.453 267 955.132 267.845 952 281z"/>
<path style="fill:#87a799; stroke:none;" d="M394 268L395 269L394 268M449 268L450 269L449 268M485 268L486 269L485 268M393 269L394 270L393 269M448 269L449 270L448 269M391 270L392 271L391 270M447 270L448 271L447 270M488 270L489 271L488 270M389 271L390 272L389 271M446 271L447 272L446 271M445 272L446 273L445 272M491 272L492 273L491 272M968 272L968 275L969 275L968 272M444 273L445 274L444 273z"/>
<path style="fill:#999999; stroke:none;" d="M385 274L386 275L385 274z"/>
<path style="fill:#87a799; stroke:none;" d="M494 274L495 275L494 274z"/>
<path style="fill:#999999; stroke:none;" d="M370 275L371 276L370 275M384 275L385 276L384 275M382 276L383 277L382 276z"/>
<path style="fill:#87a799; stroke:none;" d="M442 276L443 277L442 276M497 276L498 277L497 276z"/>
<path style="fill:#999999; stroke:none;" d="M380 277L381 278L380 277z"/>
<path style="fill:#87a799; stroke:none;" d="M441 277L442 278L441 277M498 277L499 278L498 277M952 277L952 280L953 280L952 277M440 279L441 280L440 279M502 280L503 281L502 280M503 281L504 282L503 281M954.667 281.333L955.333 281.667L954.667 281.333z"/>
<path style="fill:#999999; stroke:none;" d="M438 282L439 283L438 282z"/>
<path style="fill:#87a799; stroke:none;" d="M960.667 282.333L961.333 282.667L960.667 282.333z"/>
<path style="fill:#999999; stroke:none;" d="M437 284L438 285L437 284z"/>
<path style="fill:#87a799; stroke:none;" d="M389.667 285.333L390.333 285.667L389.667 285.333M383 286L384 287L383 286z"/>
<path style="fill:#157f57; stroke:none;" d="M384 286.465C340.187 294.35 340.149 354.864 340.985 389C341.288 401.361 341.082 412.306 345.801 424C353.089 442.059 370.879 464.409 393 460.536C400.907 459.152 408.616 456.052 416 452.988C422.039 450.483 428.208 447.548 432.91 442.907C448.781 427.24 449.104 404.52 439.88 385C434.728 374.097 426.478 364.874 423.289 353C416.936 329.34 422.326 279.567 384 286.465z"/>
<path style="fill:#87a799; stroke:none;" d="M397 286L398 287L397 286z"/>
<path style="fill:#495151; stroke:none;" d="M436 286C428 306.737 439.039 318.206 443.332 338C445.857 349.641 443.589 360.415 444.04 372C444.648 387.602 451.899 406.776 463.174 417.815C470.684 425.168 480.235 425.001 490 425C512.569 424.999 544.725 416.271 554 394L553 394C545.364 403.993 533.591 408.133 522 412C513.436 414.857 505.006 416.973 496 417.83C467.421 420.552 450.774 394.037 448.171 368C447.027 356.567 449.605 345.526 447.866 334C446.142 322.575 439.808 313.001 436.924 302C435.531 296.683 437.529 290.971 436 286z"/>
<path style="fill:#87a799; stroke:none;" d="M509 286L510 287L509 286M379 287L380 288L379 287M400 287L401 288L400 287z"/>
<path style="fill:#999999; stroke:none;" d="M435 287L436 288L435 287z"/>
<path style="fill:#87a799; stroke:none;" d="M510 287L511 288L510 287M376 288L377 289L376 288M511 288L512 289L511 288M373 289L374 290L373 289M404 289L405 290L404 289z"/>
<path style="fill:#999999; stroke:none;" d="M434 289L435 290L434 289z"/>
<path style="fill:#87a799; stroke:none;" d="M512 289L513 290L512 289M371 290L372 291L371 290M406 290L407 291L406 290M369 291L370 292L369 291M407 291L408 292L407 291z"/>
<path style="fill:#999999; stroke:none;" d="M433.333 291.667L433.667 292.333L433.333 291.667z"/>
<path style="fill:#87a799; stroke:none;" d="M408 292L409 293L408 292M366 293L367 294L366 293M409 293L410 294L409 293M410 294L411 295L410 294z"/>
<path style="fill:#999999; stroke:none;" d="M432.333 294.667L432.667 295.333L432.333 294.667z"/>
<path style="fill:#87a799; stroke:none;" d="M519 295L520 296L519 295M411 296L412 297L411 296M520 296L521 297L520 296z"/>
<path style="fill:#157f57; stroke:none;" d="M949 296L946 310L961 314C963.685 300.99 963.698 297.201 949 296z"/>
<path style="fill:#87a799; stroke:none;" d="M953 296L954 297L953 296M521 297L522 298L521 297M957.667 297.333L958.333 297.667L957.667 297.333M412 298L413 299L412 298M522 298L523 299L522 298M962 298L963 299L962 298M523 299L524 300L523 299M964 299L965 300L964 299M359 300L360 301L359 300M413 300L414 301L413 300M524 300L525 301L524 300M948 300L949 301L948 300M358 301L359 302L358 301M525 301L526 302L525 301M526 302L527 303L526 302M357 303L358 304L357 303M414 303L415 304L414 303M527 303L528 304L527 303M963.333 303.667L963.667 304.333L963.333 303.667M528 304L529 305L528 304M588 306L591 305L588 306z"/>
<path style="fill:#157f57; stroke:none;" d="M591.148 304.917C583.337 307.396 589.954 324.46 598.995 321.102C609.752 317.107 599.19 302.364 591.148 304.917z"/>
<path style="fill:#87a799; stroke:none;" d="M593.667 304.333L594.333 304.667L593.667 304.333z"/>
<path style="fill:#999999; stroke:none;" d="M595 304L596 305L595 304z"/>
<path style="fill:#87a799; stroke:none;" d="M529 305L530 306L529 305M355 306L356 307L355 306M530 306L531 307L530 306z"/>
<path style="fill:#999999; stroke:none;" d="M578 306L579 307L578 306z"/>
<path style="fill:#495151; stroke:none;" d="M593 322C590.563 317.6 589.62 312.647 587.4 308.434C585.838 305.467 580.139 305.185 578.603 308.318C573.853 318.009 584.342 326.619 593 322z"/>
<path style="fill:#999999; stroke:none;" d="M586.667 306.333L587.333 306.667L586.667 306.333z"/>
<path style="fill:#87a799; stroke:none;" d="M598 306L599 307L598 306M415 307L416 308L415 307M531 307L532 308L531 307M599 307L600 308L599 307M946 307L947 308L946 307M962 307L963 308L962 307M354 308L355 309L354 308z"/>
<path style="fill:#999999; stroke:none;" d="M432 308L433 309L432 308z"/>
<path style="fill:#87a799; stroke:none;" d="M532 308L533 309L532 308M600 308L601 309L600 308M533 309L534 310L533 309M534 310L535 311L534 310z"/>
<path style="fill:#999999; stroke:none;" d="M433.333 311.667L433.667 312.333L433.333 311.667z"/>
<path style="fill:#87a799; stroke:none;" d="M602 311L603 312L602 311M961 311L962 312L961 311M416 312L417 313L416 312M603 312L604 313L603 312M351 313L352 314L351 313z"/>
<path style="fill:#999999; stroke:none;" d="M434 314L435 315L434 314z"/>
<path style="fill:#87a799; stroke:none;" d="M604 314L605 315L604 314M960 314L961 315L960 314z"/>
<path style="fill:#999999; stroke:none;" d="M350 315L351 316L350 315z"/>
<path style="fill:#87a799; stroke:none;" d="M538 315L539 316L538 315M417.333 316.667L417.667 317.333L417.333 316.667z"/>
<path style="fill:#999999; stroke:none;" d="M435.333 316.667L435.667 317.333L435.333 316.667M578.333 316.667L578.667 317.333L578.333 316.667M349 317L350 318L349 317z"/>
<path style="fill:#87a799; stroke:none;" d="M604 317L605 318L604 317M540 318L541 319L540 318M603 318L604 319L603 318z"/>
<path style="fill:#999999; stroke:none;" d="M348 319L349 320L348 319M436 319L437 320L436 319M579 319L580 320L579 319z"/>
<path style="fill:#87a799; stroke:none;" d="M602 319L603 320L602 319z"/>
<path style="fill:#495151; stroke:none;" d="M348 320L349 321L348 320z"/>
<path style="fill:#87a799; stroke:none;" d="M541 320L542 321L541 320M601 320L602 321L601 320z"/>
<path style="fill:#999999; stroke:none;" d="M347 321L348 322L347 321z"/>
<path style="fill:#87a799; stroke:none;" d="M418.333 321.667L418.667 322.333L418.333 321.667z"/>
<path style="fill:#999999; stroke:none;" d="M437 321L438 322L437 321M580 321L581 322L580 321z"/>
<path style="fill:#87a799; stroke:none;" d="M598.667 321.333L599.333 321.667L598.667 321.333z"/>
<path style="fill:#495151; stroke:none;" d="M347 322L348 323L347 322z"/>
<path style="fill:#87a799; stroke:none;" d="M542 322L543 323L542 322z"/>
<path style="fill:#999999; stroke:none;" d="M581 322L582 323L581 322M592 322L593 323L592 322z"/>
<path style="fill:#87a799; stroke:none;" d="M594 322L594 323L597 323L594 322z"/>
<path style="fill:#999999; stroke:none;" d="M346 323L347 324L346 323M582 323L583 324L582 323M591 323L592 324L591 323z"/>
<path style="fill:#495151; stroke:none;" d="M346 324C339.851 339.94 339.066 355.14 337.91 372C335.989 400.03 335.113 426.388 352.76 450C375.116 479.913 431.393 468.045 442 432L441 432C430.16 446.623 406.618 462.763 387 460.696C364.63 458.339 347.554 434.511 342.676 414C337.219 391.055 341.979 366.162 343.039 343C343.317 336.935 347.219 329.786 346 324z"/>
<path style="fill:#87a799; stroke:none;" d="M543 324L544 325L543 324z"/>
<path style="fill:#999999; stroke:none;" d="M584 324L584 325L589 325L584 324z"/>
<path style="fill:#157f57; stroke:none;" d="M941 324L935 338L949 344L955 329L941 324z"/>
<path style="fill:#87a799; stroke:none;" d="M942 324L943 325L942 324z"/>
<path style="fill:#999999; stroke:none;" d="M345 325L346 326L345 325z"/>
<path style="fill:#87a799; stroke:none;" d="M419.333 326.667L419.667 327.333L419.333 326.667z"/>
<path style="fill:#999999; stroke:none;" d="M439 326L440 327L439 326z"/>
<path style="fill:#87a799; stroke:none;" d="M544 326L545 327L544 326M947 326L948 327L947 326M939 327L940 328L939 327z"/>
<path style="fill:#999999; stroke:none;" d="M440 328L441 329L440 328z"/>
<path style="fill:#87a799; stroke:none;" d="M545 328L546 329L545 328z"/>
<path style="fill:#999999; stroke:none;" d="M614 328L615 329L614 328z"/>
<path style="fill:#87a799; stroke:none;" d="M615.667 328.333L616.333 328.667L615.667 328.333z"/>
<path style="fill:#157f57; stroke:none;" d="M617 328.454C589.058 332.021 588.669 356.86 591.576 379C592.81 388.399 592.092 397.671 594.478 407C599.883 428.124 615.435 445.411 631 459.911C639.565 467.889 650.127 479.359 663 477.814C680.038 475.77 686.335 459.563 688.421 445C693.523 409.368 670.584 382.063 650.374 355C643.087 345.242 631.492 326.605 617 328.454z"/>
<path style="fill:#87a799; stroke:none;" d="M622 328L623 329L622 328z"/>
<path style="fill:#999999; stroke:none;" d="M610 329L611 330L610 329z"/>
<path style="fill:#87a799; stroke:none;" d="M611 329L612 330L611 329M624 329L625 330L624 329M938 329L939 330L938 329z"/>
<path style="fill:#999999; stroke:none;" d="M343 330L344 331L343 330z"/>
<path style="fill:#87a799; stroke:none;" d="M608 330L609 331L608 330M626 330L627 331L626 330M420.333 331.667L420.667 332.333L420.333 331.667z"/>
<path style="fill:#999999; stroke:none;" d="M441 331L442 332L441 331z"/>
<path style="fill:#87a799; stroke:none;" d="M605 331L606 332L605 331M627 331L628 332L627 331z"/>
<path style="fill:#999999; stroke:none;" d="M342.333 332.667L342.667 333.333L342.333 332.667z"/>
<path style="fill:#87a799; stroke:none;" d="M629 332L630 333L629 332M547 333L548 334L547 333M602 333L603 334L602 333M630 333L631 334L630 333z"/>
<path style="fill:#999999; stroke:none;" d="M442.333 334.667L442.667 335.333L442.333 334.667z"/>
<path style="fill:#87a799; stroke:none;" d="M632 334L633 335L632 334M936 334L937 335L936 334z"/>
<path style="fill:#999999; stroke:none;" d="M341 335L342 336L341 335z"/>
<path style="fill:#87a799; stroke:none;" d="M548 335L549 336L548 335z"/>
<path style="fill:#999999; stroke:none;" d="M599 335L600 336L599 335z"/>
<path style="fill:#87a799; stroke:none;" d="M633 335L634 336L633 335M598 336L599 337L598 336M935 336L936 337L935 336M549 337L550 338L549 337M597 337L598 338L597 337z"/>
<path style="fill:#999999; stroke:none;" d="M636 337L637 338L636 337z"/>
<path style="fill:#87a799; stroke:none;" d="M421.333 338.667L421.667 339.333L421.333 338.667z"/>
<path style="fill:#999999; stroke:none;" d="M443.333 338.667L443.667 339.333L443.333 338.667z"/>
<path style="fill:#87a799; stroke:none;" d="M596 338L597 339L596 338M637 338L638 339L637 338M951 338L952 339L951 338z"/>
<path style="fill:#999999; stroke:none;" d="M340.333 339.667L340.667 340.333L340.333 339.667z"/>
<path style="fill:#87a799; stroke:none;" d="M550 339L551 340L550 339M595 339L596 340L595 339M638 339L639 340L638 339M939 339L940 340L939 339M639 340L640 341L639 340M941 340L942 341L941 340M551 341L552 342L551 341M594 341L595 342L594 341z"/>
<path style="fill:#999999; stroke:none;" d="M640 341L641 342L640 341z"/>
<path style="fill:#87a799; stroke:none;" d="M943 341L944 342L943 341M593 342L594 343L593 342M945 342L946 343L945 342z"/>
<path style="fill:#999999; stroke:none;" d="M339 343L339 349L340 349L339 343z"/>
<path style="fill:#87a799; stroke:none;" d="M552 343L553 344L552 343M947 343L948 344L947 343M592 344L593 345L592 344M642 344L643 345L642 344z"/>
<path style="fill:#999999; stroke:none;" d="M444 345L444 365L445 365L444 345z"/>
<path style="fill:#87a799; stroke:none;" d="M553 345L554 346L553 345M643 345L644 346L643 345M591 346L592 347L591 346M644 346L645 347L644 346M554 347L555 348L554 347M422.333 348.667L422.667 349.333L422.333 348.667z"/>
<path style="fill:#495151; stroke:none;" d="M590 348L591 349L590 348z"/>
<path style="fill:#87a799; stroke:none;" d="M645 348L646 349L645 348M555 349L556 350L555 349z"/>
<path style="fill:#999999; stroke:none;" d="M589 349L590 350L589 349z"/>
<path style="fill:#87a799; stroke:none;" d="M646 349L647 350L646 349z"/>
<path style="fill:#495151; stroke:none;" d="M589 350C584.292 362.225 586.621 374.29 587.83 387C588.687 396.005 588.202 405.146 590.478 414C595.465 433.397 609.087 449.248 623 462.996C638.654 478.465 659.789 496.729 678.38 473.996C681.18 470.573 682.971 467.282 684 463L683 463C668.121 484.122 652.606 477.769 636 463.424C614.429 444.789 596.356 422.879 592.425 394C590.622 380.754 594.134 362.234 589 350z"/>
<path style="fill:#87a799; stroke:none;" d="M556.333 351.667L556.667 352.333L556.333 351.667z"/>
<path style="fill:#999999; stroke:none;" d="M588 351L589 352L588 351z"/>
<path style="fill:#87a799; stroke:none;" d="M647 351L648 352L647 351M928 351L929 352L928 351M648 352L649 353L648 352z"/>
<path style="fill:#157f57; stroke:none;" d="M928 352L922 365L936 372L942 358L928 352z"/>
<path style="fill:#87a799; stroke:none;" d="M423.333 353.667L423.667 354.333L423.333 353.667z"/>
<path style="fill:#999999; stroke:none;" d="M587 353L588 354L587 353z"/>
<path style="fill:#87a799; stroke:none;" d="M927 353L928 354L927 353z"/>
<path style="fill:#999999; stroke:none;" d="M338 354L338 362L339 362L338 354z"/>
<path style="fill:#87a799; stroke:none;" d="M557 354L558 355L557 354z"/>
<path style="fill:#999999; stroke:none;" d="M586.333 355.667L586.667 356.333L586.333 355.667z"/>
<path style="fill:#87a799; stroke:none;" d="M650 355L651 356L650 355M926 355L927 356L926 355M558.333 356.667L558.667 357.333L558.333 356.667M651 356L652 357L651 356M939 356L940 357L939 356M925 357L926 358L925 357M941 357L942 358L941 357M425 359L426 360L425 359M559.333 359.667L559.667 360.333L559.333 359.667M653 359L654 360L653 359M924 359L925 360L924 359M654 360L655 361L654 360M426 361L427 362L426 361M923 361L924 362L923 361M427 363L428 364L427 363M560 363L560 374L561 374L560 363M656 363L657 364L656 363M922 363L923 364L922 363M657 364L658 365L657 364M428 365L429 366L428 365M922 365L923 366L922 365M924 366L925 367L924 366M429 367L430 368L429 367M659 367L660 368L659 367M926 367L927 368L926 367M660 368L661 369L660 368M928 368L929 369L928 368M430 369L431 370L430 369M930 369L931 370L930 369M661 370L662 371L661 370M932 370L933 371L932 370M662 371L663 372L662 371M934 371L935 372L934 371M432 372L433 373L432 372z"/>
<path style="fill:#999999; stroke:none;" d="M337 373L337 376L338 376L337 373M586 373L586 377L587 377L586 373z"/>
<path style="fill:#87a799; stroke:none;" d="M663 373L664 374L663 373M433 374L434 375L433 374M664 374L665 375L664 374M434 375L435 376L434 375z"/>
<path style="fill:#999999; stroke:none;" d="M444 376L444 380L445 380L444 376z"/>
<path style="fill:#87a799; stroke:none;" d="M665 376L666 377L665 376M435 377L436 378L435 377M559.333 377.667L559.667 378.333L559.333 377.667M667 379L668 380L667 379M914 379L915 380L914 379z"/>
<path style="fill:#157f57; stroke:none;" d="M915 379L909 394L923 399L928 385L915 379z"/>
<path style="fill:#87a799; stroke:none;" d="M916 379L917 380L916 379M437 380L438 381L437 380M918 380L919 381L918 380M558.333 381.667L558.667 382.333L558.333 381.667M668 381L669 382L668 381M920 381L921 382L920 381M438 382L439 383L438 382M669 382L670 383L669 382M922 382L923 383L922 382z"/>
<path style="fill:#999999; stroke:none;" d="M445.333 383.667L445.667 384.333L445.333 383.667z"/>
<path style="fill:#87a799; stroke:none;" d="M924 383L925 384L924 383M557.333 384.667L557.667 385.333L557.333 384.667z"/>
<path style="fill:#999999; stroke:none;" d="M587 384L588 385L587 384z"/>
<path style="fill:#87a799; stroke:none;" d="M670 384L671 385L670 384M926 384L927 385L926 384z"/>
<path style="fill:#999999; stroke:none;" d="M671 385L672 386L671 385z"/>
<path style="fill:#87a799; stroke:none;" d="M928 385L929 386L928 385M440 386L441 387L440 386z"/>
<path style="fill:#999999; stroke:none;" d="M446.333 386.667L446.667 387.333L446.333 386.667z"/>
<path style="fill:#87a799; stroke:none;" d="M556.333 387.667L556.667 388.333L556.333 387.667M672 387L673 388L672 387M441 388L442 389L441 388M910 388L911 389L910 388M927 388L928 389L927 388z"/>
<path style="fill:#999999; stroke:none;" d="M447 390L448 391L447 390M555.333 390.667L555.667 391.333L555.333 390.667z"/>
<path style="fill:#87a799; stroke:none;" d="M674 390L675 391L674 390M909 390L910 391L909 390M926 390L927 391L926 390z"/>
<path style="fill:#999999; stroke:none;" d="M554.333 392.667L554.667 393.333L554.333 392.667z"/>
<path style="fill:#87a799; stroke:none;" d="M675 392L676 393L675 392M925 392L926 393L925 392M676 393L677 394L676 393M911 394L912 395L911 394M443 395L444 396L443 395z"/>
<path style="fill:#999999; stroke:none;" d="M449 395L450 396L449 395M553.333 395.667L553.667 396.333L553.333 395.667z"/>
<path style="fill:#87a799; stroke:none;" d="M677 395L678 396L677 395M678 396L679 397L678 396z"/>
<path style="fill:#999999; stroke:none;" d="M450 397L451 398L450 397M552.333 397.667L552.667 398.333L552.333 397.667z"/>
<path style="fill:#87a799; stroke:none;" d="M679 397L680 398L679 397M918 397L919 398L918 397M923 397L924 398L923 397M444.333 399.667L444.667 400.333L444.333 399.667z"/>
<path style="fill:#999999; stroke:none;" d="M451 399L452 400L451 399M551.333 399.667L551.667 400.333L551.333 399.667M588 399L588 404L589 404L588 399z"/>
<path style="fill:#87a799; stroke:none;" d="M680 399L681 400L680 399M681.333 400.667L681.667 401.333L681.333 400.667z"/>
<path style="fill:#999999; stroke:none;" d="M452 401L453 402L452 401M550 401L551 402L550 401z"/>
<path style="fill:#87a799; stroke:none;" d="M682 402L683 403L682 402z"/>
<path style="fill:#999999; stroke:none;" d="M453 403L454 404L453 403M549 403L550 404L549 403z"/>
<path style="fill:#87a799; stroke:none;" d="M445.333 404.667L445.667 405.333L445.333 404.667z"/>
<path style="fill:#999999; stroke:none;" d="M548 404L549 405L548 404z"/>
<path style="fill:#87a799; stroke:none;" d="M683 404L684 405L683 404z"/>
<path style="fill:#999999; stroke:none;" d="M454 405L455 406L454 405z"/>
<path style="fill:#87a799; stroke:none;" d="M684 405L685 406L684 405z"/>
<path style="fill:#999999; stroke:none;" d="M547 406L548 407L547 406M455 407L456 408L455 407M546 407L547 408L546 407z"/>
<path style="fill:#87a799; stroke:none;" d="M685 407L686 408L685 407z"/>
<path style="fill:#999999; stroke:none;" d="M544 408L545 409L544 408z"/>
<path style="fill:#87a799; stroke:none;" d="M903 408L904 409L903 408z"/>
<path style="fill:#999999; stroke:none;" d="M543 409L544 410L543 409M589.333 409.667L589.667 410.333L589.333 409.667z"/>
<path style="fill:#87a799; stroke:none;" d="M686.333 409.667L686.667 410.333L686.333 409.667z"/>
<path style="fill:#157f57; stroke:none;" d="M899 424L914 427C914.732 423.456 917.387 417.815 916.223 414.279C915.095 410.851 905.509 408.095 902.854 410.644C899.933 413.448 899.735 420.21 899 424z"/>
<path style="fill:#87a799; stroke:none;" d="M906 409L907 410L906 409z"/>
<path style="fill:#157f57; stroke:none;" d="M323.109 410.786C313.895 414.106 318.147 432.289 329.852 428.566C337.292 426.199 331.837 407.641 323.109 410.786z"/>
<path style="fill:#87a799; stroke:none;" d="M327 410L328 411L327 410z"/>
<path style="fill:#999999; stroke:none;" d="M457 410L458 411L457 410M541 410L542 411L541 410z"/>
<path style="fill:#87a799; stroke:none;" d="M909 410L910 411L909 410z"/>
<path style="fill:#999999; stroke:none;" d="M316 414L321 412L316 414z"/>
<path style="fill:#87a799; stroke:none;" d="M446 411L446 418L447 418L446 411z"/>
<path style="fill:#999999; stroke:none;" d="M539 411L540 412L539 411z"/>
<path style="fill:#495151; stroke:none;" d="M330 430L330 429C318.393 428.752 318.177 421.792 320 412C315.302 414.465 311.762 425.114 317.318 428.821C320.584 431 326.261 430 330 430z"/>
<path style="fill:#999999; stroke:none;" d="M537 412L538 413L537 412z"/>
<path style="fill:#87a799; stroke:none;" d="M687.333 412.667L687.667 413.333L687.333 412.667z"/>
<path style="fill:#999999; stroke:none;" d="M459 413L460 414L459 413M535 413L536 414L535 413z"/>
<path style="fill:#87a799; stroke:none;" d="M917 413L918 414L917 413z"/>
<path style="fill:#999999; stroke:none;" d="M337.333 414.667L337.667 415.333L337.333 414.667M460 414L461 415L460 414M532.667 414.333L533.333 414.667L532.667 414.333M590 414L591 415L590 414M315 415L316 416L315 415M530 415L531 416L530 415z"/>
<path style="fill:#87a799; stroke:none;" d="M688 416L688 420L689 420L688 416M916 416L917 417L916 416M332 417L333 418L332 417z"/>
<path style="fill:#999999; stroke:none;" d="M462 417L463 418L462 417M525 417L526 418L525 417M591 417L592 418L591 417M463 418L464 419L463 418M522 418L523 419L522 418M519 419L520 420L519 419M338.333 420.667L338.667 421.333L338.333 420.667M466 420L467 421L466 420M516 420L517 421L516 420M592 420L593 421L592 420z"/>
<path style="fill:#87a799; stroke:none;" d="M915 420L916 421L915 420M333 421L333 425L334 425L333 421z"/>
<path style="fill:#999999; stroke:none;" d="M513 421L514 422L513 421z"/>
<path style="fill:#87a799; stroke:none;" d="M899 421L900 422L899 421M445 422L446 423L445 422z"/>
<path style="fill:#999999; stroke:none;" d="M509 422L510 423L509 422M593.333 422.667L593.667 423.333L593.333 422.667M472 423L473 424L472 423M506 423L507 424L506 423M339.333 424.667L339.667 425.333L339.333 424.667M475 424L476 425L475 424M500.667 424.333L501.333 424.667L500.667 424.333z"/>
<path style="fill:#87a799; stroke:none;" d="M900 424L901 425L900 424M914 424L915 425L914 424M444 425L445 426L444 425z"/>
<path style="fill:#999999; stroke:none;" d="M594 425L595 426L594 425z"/>
<path style="fill:#87a799; stroke:none;" d="M906 425L907 426L906 425M912 426L913 427L912 426z"/>
<path style="fill:#999999; stroke:none;" d="M340 427L341 428L340 427M595 427L596 428L595 427z"/>
<path style="fill:#87a799; stroke:none;" d="M689 427L689 435L690 435L689 427z"/>
<path style="fill:#999999; stroke:none;" d="M315 428L316 429L315 428z"/>
<path style="fill:#87a799; stroke:none;" d="M331 428L332 429L331 428M443 428L444 429L443 428z"/>
<path style="fill:#999999; stroke:none;" d="M317 429L318 430L317 429M596 429L597 430L596 429M319 430L319 431L329 431L319 430M341 430L342 431L341 430z"/>
<path style="fill:#495151; stroke:none;" d="M442 430L443 431L442 430z"/>
<path style="fill:#999999; stroke:none;" d="M442 431L443 432L442 431M597 431L598 432L597 431M342 432L343 433L342 432M598.333 432.667L598.667 433.333L598.333 432.667z"/>
<path style="fill:#87a799; stroke:none;" d="M522 433L523 434L522 433z"/>
<path style="fill:#999999; stroke:none;" d="M523 433L524 434L523 433z"/>
<path style="fill:#87a799; stroke:none;" d="M524.667 433.333L525.333 433.667L524.667 433.333z"/>
<path style="fill:#999999; stroke:none;" d="M526 433L526 434L529 434L526 433z"/>
<path style="fill:#87a799; stroke:none;" d="M529 433L530 434L529 433z"/>
<path style="fill:#999999; stroke:none;" d="M441 434L442 435L441 434z"/>
<path style="fill:#87a799; stroke:none;" d="M509.667 434.333L510.333 434.667L509.667 434.333z"/>
<path style="fill:#157f57; stroke:none;" d="M611 786C628.111 740.39 634.763 688.444 645.651 641C653.724 605.823 665.5 571.426 657.113 535C632.26 427.067 479.577 398.365 417.025 489C407.795 502.374 401.281 517.16 397.651 533C393.82 549.716 392.863 567.066 395.59 584C398.701 603.324 406.765 621.94 417.885 638C436.959 665.546 465.13 682.874 492 702C531.102 729.833 569.016 762.626 611 786z"/>
<path style="fill:#87a799; stroke:none;" d="M536.667 434.333L537.333 434.667L536.667 434.333z"/>
<path style="fill:#999999; stroke:none;" d="M538.667 434.333L539.333 434.667L538.667 434.333M599 434L600 435L599 434z"/>
<path style="fill:#87a799; stroke:none;" d="M502 435L503 436L502 435M544.667 435.333L545.333 435.667L544.667 435.333z"/>
<path style="fill:#999999; stroke:none;" d="M546 435L547 436L546 435M440 436L441 437L440 436z"/>
<path style="fill:#87a799; stroke:none;" d="M497 436L498 437L497 436M550 436L551 437L550 436z"/>
<path style="fill:#999999; stroke:none;" d="M551 436L552 437L551 436M600 436L601 437L600 436M344 437L345 438L344 437z"/>
<path style="fill:#87a799; stroke:none;" d="M493 437L494 438L493 437M555 437L556 438L555 437z"/>
<path style="fill:#999999; stroke:none;" d="M345 438L346 439L345 438M439 438L440 439L439 438z"/>
<path style="fill:#87a799; stroke:none;" d="M489 438L490 439L489 438M559.667 438.333L560.333 438.667L559.667 438.333M329.667 439.333L330.333 439.667L329.667 439.333z"/>
<path style="fill:#157f57; stroke:none;" d="M331 439.609C310.491 442.571 307.806 469.072 304.6 485C302.043 497.708 298.136 511.984 299.09 525C300.954 550.423 318.102 571.559 341 580.799C348.941 584.004 357.237 587.275 365.999 585.775C380.954 583.216 379.137 561.96 380.576 551C384.458 521.429 370.559 487.566 356.691 462C351.948 453.255 342.904 437.89 331 439.609z"/>
<path style="fill:#87a799; stroke:none;" d="M334.667 439.333L335.333 439.667L334.667 439.333z"/>
<path style="fill:#999999; stroke:none;" d="M438 439L439 440L438 439z"/>
<path style="fill:#87a799; stroke:none;" d="M485 439L486 440L485 439M563 439L564 440L563 439z"/>
<path style="fill:#999999; stroke:none;" d="M602 439L603 440L602 439z"/>
<path style="fill:#87a799; stroke:none;" d="M327 440L328 441L327 440z"/>
<path style="fill:#999999; stroke:none;" d="M346 440L347 441L346 440z"/>
<path style="fill:#87a799; stroke:none;" d="M482 440L483 441L482 440M566 440L567 441L566 440z"/>
<path style="fill:#999999; stroke:none;" d="M603 440L604 441L603 440z"/>
<path style="fill:#157f57; stroke:none;" d="M897 440L897 457C910.324 455.948 912 454.232 912 441L897 440z"/>
<path style="fill:#87a799; stroke:none;" d="M901 440L901 441L904 441L901 440M479 441L480 442L479 441M569.667 441.333L570.333 441.667L569.667 441.333M323 442L324 443L323 442M341 442L342 443L341 442z"/>
<path style="fill:#999999; stroke:none;" d="M436 442L437 443L436 442z"/>
<path style="fill:#87a799; stroke:none;" d="M477 442L478 443L477 442M572 442L573 443L572 442M322 443L323 444L322 443M342 443L343 444L342 443z"/>
<path style="fill:#999999; stroke:none;" d="M348 443L349 444L348 443z"/>
<path style="fill:#87a799; stroke:none;" d="M474 443L475 444L474 443M575 443L576 444L575 443z"/>
<path style="fill:#999999; stroke:none;" d="M605 443L606 444L605 443z"/>
<path style="fill:#87a799; stroke:none;" d="M343 444L344 445L343 444M471.667 444.333L472.333 444.667L471.667 444.333M577.667 444.333L578.333 444.667L577.667 444.333z"/>
<path style="fill:#999999; stroke:none;" d="M606 444L607 445L606 444z"/>
<path style="fill:#87a799; stroke:none;" d="M688 444L688 448L689 448L688 444M319 445L320 446L319 445z"/>
<path style="fill:#999999; stroke:none;" d="M349 445L350 446L349 445M434 445L435 446L434 445z"/>
<path style="fill:#87a799; stroke:none;" d="M469 445L470 446L469 445M580 445L581 446L580 445M318 446L319 447L318 446z"/>
<path style="fill:#999999; stroke:none;" d="M350 446L351 447L350 446M433 446L434 447L433 446z"/>
<path style="fill:#87a799; stroke:none;" d="M467 446L468 447L467 446M582 446L583 447L582 446M317 447L318 448L317 447M346 447L347 448L346 447z"/>
<path style="fill:#999999; stroke:none;" d="M432 447L433 448L432 447z"/>
<path style="fill:#87a799; stroke:none;" d="M465 447L466 448L465 447M584.667 447.333L585.333 447.667L584.667 447.333M316 448L317 449L316 448M347 448L348 449L347 448z"/>
<path style="fill:#999999; stroke:none;" d="M431 448L432 449L431 448z"/>
<path style="fill:#87a799; stroke:none;" d="M463 448L464 449L463 448M586.667 448.333L587.333 448.667L586.667 448.333z"/>
<path style="fill:#999999; stroke:none;" d="M609 448L610 449L609 448z"/>
<path style="fill:#87a799; stroke:none;" d="M348 449L349 450L348 449z"/>
<path style="fill:#999999; stroke:none;" d="M352 449L353 450L352 449M430 449L431 450L430 449z"/>
<path style="fill:#87a799; stroke:none;" d="M461 449L462 450L461 449M588.667 449.333L589.333 449.667L588.667 449.333z"/>
<path style="fill:#999999; stroke:none;" d="M610 449L611 450L610 449M429 450L430 451L429 450z"/>
<path style="fill:#87a799; stroke:none;" d="M459 450L460 451L459 450M590 450L591 451L590 450z"/>
<path style="fill:#999999; stroke:none;" d="M611 450L612 451L611 450M428 451L429 452L428 451z"/>
<path style="fill:#87a799; stroke:none;" d="M592 451L593 452L592 451z"/>
<path style="fill:#999999; stroke:none;" d="M612 451L613 452L612 451z"/>
<path style="fill:#87a799; stroke:none;" d="M687 451L687 454L688 454L687 451M313 452L314 453L313 452M350 452L351 453L350 452z"/>
<path style="fill:#999999; stroke:none;" d="M427 452L428 453L427 452z"/>
<path style="fill:#87a799; stroke:none;" d="M594 452L595 453L594 452M351 453L352 454L351 453z"/>
<path style="fill:#999999; stroke:none;" d="M426 453L427 454L426 453z"/>
<path style="fill:#87a799; stroke:none;" d="M454 453L455 454L454 453M596 453L597 454L596 453z"/>
<path style="fill:#999999; stroke:none;" d="M613 453L614 454L613 453z"/>
<path style="fill:#87a799; stroke:none;" d="M312 454L313 455L312 454z"/>
<path style="fill:#999999; stroke:none;" d="M356 454L357 455L356 454M425 454L426 455L425 454z"/>
<path style="fill:#87a799; stroke:none;" d="M597 454L598 455L597 454z"/>
<path style="fill:#999999; stroke:none;" d="M614 454L615 455L614 454z"/>
<path style="fill:#87a799; stroke:none;" d="M912 454L913 455L912 454z"/>
<path style="fill:#999999; stroke:none;" d="M311 455L312 456L311 455M423 455L424 456L423 455z"/>
<path style="fill:#87a799; stroke:none;" d="M599 455L600 456L599 455M910.667 455.333L911.333 455.667L910.667 455.333z"/>
<path style="fill:#495151; stroke:none;" d="M311 456L312 457L311 456z"/>
<path style="fill:#999999; stroke:none;" d="M422 456L423 457L422 456M616 456L617 457L616 456z"/>
<path style="fill:#87a799; stroke:none;" d="M686.333 456.667L686.667 457.333L686.333 456.667M901.667 456.333L902.333 456.667L901.667 456.333z"/>
<path style="fill:#999999; stroke:none;" d="M310 457L311 458L310 457M359 457L360 458L359 457M420 457L421 458L420 457z"/>
<path style="fill:#87a799; stroke:none;" d="M448 457L449 458L448 457M602 457L603 458L602 457z"/>
<path style="fill:#999999; stroke:none;" d="M617 457L618 458L617 457z"/>
<path style="fill:#495151; stroke:none;" d="M310 458L311 459L310 458z"/>
<path style="fill:#87a799; stroke:none;" d="M354 458L355 459L354 458z"/>
<path style="fill:#999999; stroke:none;" d="M418 458L419 459L418 458M618 458L619 459L618 458z"/>
<path style="fill:#495151; stroke:none;" d="M309 459C295.222 492.765 288.681 534.897 308.619 567C319.513 584.541 363.99 607.74 375 580L374 580C363.748 591.429 347.603 583.711 336 578.219C302.937 562.57 296.752 528.511 302.614 496C304.359 486.322 312.292 468.204 309 459z"/>
<path style="fill:#999999; stroke:none;" d="M415 459L416 460L415 459z"/>
<path style="fill:#87a799; stroke:none;" d="M445 459L446 460L445 459M605 459L606 460L605 459z"/>
<path style="fill:#999999; stroke:none;" d="M619 459L620 460L619 459M308 460L309 461L308 460M413 460L414 461L413 460z"/>
<path style="fill:#87a799; stroke:none;" d="M606 460L607 461L606 460z"/>
<path style="fill:#999999; stroke:none;" d="M620 460L621 461L620 460z"/>
<path style="fill:#87a799; stroke:none;" d="M685 460L686 461L685 460z"/>
<path style="fill:#999999; stroke:none;" d="M364 461L365 462L364 461M608 461L609 462L608 461M621 461L622 462L621 461M307 462L308 463L307 462M408 462L409 463L408 462z"/>
<path style="fill:#87a799; stroke:none;" d="M441 462L442 463L441 462M609 462L610 463L609 462z"/>
<path style="fill:#999999; stroke:none;" d="M622 462L623 463L622 462M684.333 462.667L684.667 463.333L684.333 462.667z"/>
<path style="fill:#87a799; stroke:none;" d="M357 463L358 464L357 463z"/>
<path style="fill:#999999; stroke:none;" d="M367 463L368 464L367 463M405 463L406 464L405 463z"/>
<path style="fill:#87a799; stroke:none;" d="M440 463L441 464L440 463M610 463L611 464L610 463z"/>
<path style="fill:#999999; stroke:none;" d="M623 463L624 464L623 463M306 464L307 465L306 464M369 464L370 465L369 464M402.667 464.333L403.333 464.667L402.667 464.333z"/>
<path style="fill:#87a799; stroke:none;" d="M439 464L440 465L439 464z"/>
<path style="fill:#999999; stroke:none;" d="M624 464L625 465L624 464z"/>
<path style="fill:#87a799; stroke:none;" d="M358 465L359 466L358 465z"/>
<path style="fill:#999999; stroke:none;" d="M371 465L372 466L371 465M400 465L401 466L400 465z"/>
<path style="fill:#87a799; stroke:none;" d="M613 465L614 466L613 465z"/>
<path style="fill:#999999; stroke:none;" d="M625 465L626 466L625 465M683.333 465.667L683.667 466.333L683.333 465.667M397 466L398 467L397 466z"/>
<path style="fill:#87a799; stroke:none;" d="M614 466L615 467L614 466z"/>
<path style="fill:#999999; stroke:none;" d="M626 466L627 467L626 466z"/>
<path style="fill:#87a799; stroke:none;" d="M359 467L360 468L359 467z"/>
<path style="fill:#999999; stroke:none;" d="M376.667 467.333L377.333 467.667L376.667 467.333M393.667 467.333L394.333 467.667L393.667 467.333z"/>
<path style="fill:#87a799; stroke:none;" d="M435 467L436 468L435 467M615 467L616 468L615 467z"/>
<path style="fill:#999999; stroke:none;" d="M627 467L628 468L627 467M305 468L306 469L305 468z"/>
<path style="fill:#87a799; stroke:none;" d="M434 468L435 469L434 468M616 468L617 469L616 468z"/>
<path style="fill:#999999; stroke:none;" d="M628 468L629 469L628 468M682 468L683 469L682 468z"/>
<path style="fill:#87a799; stroke:none;" d="M360 469L361 470L360 469M433 469L434 470L433 469z"/>
<path style="fill:#999999; stroke:none;" d="M630 469L631 470L630 469z"/>
<path style="fill:#87a799; stroke:none;" d="M914 469L915 470L914 469M432 470L433 471L432 470z"/>
<path style="fill:#999999; stroke:none;" d="M631 470L632 471L631 470M681 470L682 471L681 470z"/>
<path style="fill:#87a799; stroke:none;" d="M910 470L911 471L910 470z"/>
<path style="fill:#157f57; stroke:none;" d="M900 473L904 488L919 484L915 470L900 473z"/>
<path style="fill:#87a799; stroke:none;" d="M361 471L362 472L361 471M431 471L432 472L431 471z"/>
<path style="fill:#999999; stroke:none;" d="M632 471L633 472L632 471M680 471L681 472L680 471z"/>
<path style="fill:#87a799; stroke:none;" d="M906 471L907 472L906 471z"/>
<path style="fill:#999999; stroke:none;" d="M304.333 472.667L304.667 473.333L304.333 472.667z"/>
<path style="fill:#87a799; stroke:none;" d="M430 472L431 473L430 472z"/>
<path style="fill:#999999; stroke:none;" d="M633 472L634 473L633 472M679 472L680 473L679 472z"/>
<path style="fill:#87a799; stroke:none;" d="M902 472L903 473L902 472M915 472L916 473L915 472M362 473L363 474L362 473M429 473L430 474L429 473z"/>
<path style="fill:#999999; stroke:none;" d="M634 473L635 474L634 473M678 473L679 474L678 473z"/>
<path style="fill:#87a799; stroke:none;" d="M428 474L429 475L428 474z"/>
<path style="fill:#999999; stroke:none;" d="M635 474L636 475L635 474M636 475L637 476L636 475M677 475L678 476L677 475z"/>
<path style="fill:#87a799; stroke:none;" d="M900 475L901 476L900 475z"/>
<path style="fill:#999999; stroke:none;" d="M303.333 476.667L303.667 477.333L303.333 476.667z"/>
<path style="fill:#87a799; stroke:none;" d="M363 476L364 477L363 476z"/>
<path style="fill:#999999; stroke:none;" d="M676 476L677 477L676 476M675 477L676 478L675 477z"/>
<path style="fill:#87a799; stroke:none;" d="M364 478L365 479L364 478z"/>
<path style="fill:#999999; stroke:none;" d="M640 478L641 479L640 478M674 478L675 479L674 478z"/>
<path style="fill:#87a799; stroke:none;" d="M917.333 478.667L917.667 479.333L917.333 478.667M627 479L628 480L627 479z"/>
<path style="fill:#999999; stroke:none;" d="M641 479L642 480L641 479z"/>
<path style="fill:#87a799; stroke:none;" d="M365 480L366 481L365 480M423 480L424 481L423 480M628 480L629 481L628 480z"/>
<path style="fill:#999999; stroke:none;" d="M642 480L643 481L642 480M671 480L672 481L671 480z"/>
<path style="fill:#87a799; stroke:none;" d="M422 481L423 482L422 481M629 481L630 482L629 481z"/>
<path style="fill:#999999; stroke:none;" d="M644 481L645 482L644 481M670 481L671 482L670 481z"/>
<path style="fill:#87a799; stroke:none;" d="M918.333 481.667L918.667 482.333L918.333 481.667z"/>
<path style="fill:#999999; stroke:none;" d="M302 482L303 483L302 482z"/>
<path style="fill:#87a799; stroke:none;" d="M630 482L631 483L630 482z"/>
<path style="fill:#999999; stroke:none;" d="M645.667 482.333L646.333 482.667L645.667 482.333M668 482L669 483L668 482z"/>
<path style="fill:#87a799; stroke:none;" d="M902 482L903 483L902 482M366 483L367 484L366 483z"/>
<path style="fill:#999999; stroke:none;" d="M631 483L632 484L631 483M647 483L648 484L647 483M666.667 483.333L667.333 483.667L666.667 483.333z"/>
<path style="fill:#87a799; stroke:none;" d="M420 484L421 485L420 484z"/>
<path style="fill:#999999; stroke:none;" d="M649.667 484.333L650.333 484.667L649.667 484.333M664.667 484.333L665.333 484.667L664.667 484.333z"/>
<path style="fill:#87a799; stroke:none;" d="M367 485L368 486L367 485M419 485L420 486L419 485M632 485L633 486L632 485z"/>
<path style="fill:#999999; stroke:none;" d="M652 485L652 486L663 486L652 485z"/>
<path style="fill:#87a799; stroke:none;" d="M903 485L904 486L903 485z"/>
<path style="fill:#999999; stroke:none;" d="M301.333 486.667L301.667 487.333L301.333 486.667z"/>
<path style="fill:#87a799; stroke:none;" d="M633 486L634 487L633 486M634 487L635 488L634 487M368 488L369 489L368 488M417 488L418 489L417 488M416 489L417 490L416 489M635 489L636 490L635 489z"/>
<path style="fill:#999999; stroke:none;" d="M300.333 490.667L300.667 491.333L300.333 490.667z"/>
<path style="fill:#87a799; stroke:none;" d="M369.333 490.667L369.667 491.333L369.333 490.667M636 490L637 491L636 490M415 491L416 492L415 491z"/>
<path style="fill:#999999; stroke:none;" d="M637 491L638 492L637 491z"/>
<path style="fill:#495151; stroke:none;" d="M451 540L452 540C483.995 487.911 562.243 485.481 591.191 543C600.919 562.33 599.204 580.688 595 601C617.073 574.26 596.741 527.52 574 509.095C534.038 476.717 470.716 492.643 451 540z"/>
<path style="fill:#87a799; stroke:none;" d="M370 493L371 494L370 493M638 493L639 494L638 493M413 494L414 495L413 494z"/>
<path style="fill:#999999; stroke:none;" d="M639 494L640 495L639 494M299.333 495.667L299.667 496.333L299.333 495.667z"/>
<path style="fill:#87a799; stroke:none;" d="M371 496L372 497L371 496M640 496L641 497L640 496z"/>
<path style="fill:#157f57; stroke:none;" d="M911 503L917 517C930.791 513.027 929.823 508.585 925 497L911 503z"/>
<path style="fill:#87a799; stroke:none;" d="M641 498L642 499L641 498M372 499L373 500L372 499M410 499L411 500L410 499z"/>
<path style="fill:#999999; stroke:none;" d="M515 499L515 500L528 500L515 499z"/>
<path style="fill:#87a799; stroke:none;" d="M642 499L643 500L642 499z"/>
<path style="fill:#999999; stroke:none;" d="M508 500L508 501L511 501L508 500z"/>
<path style="fill:#b8b8b8; stroke:none;" d="M511 500.428C500.121 501.986 489.404 505.261 480 511.065C470.949 516.651 462.905 523.238 456.771 532C419.528 585.202 481.776 651.351 538 642.866C547.55 641.424 556.516 637.725 565 633.218C600.703 614.253 608.54 567.746 586.48 535C570.053 510.617 540.429 496.214 511 500.428z"/>
<path style="fill:#999999; stroke:none;" d="M532.667 500.333L533.333 500.667L532.667 500.333M298.333 501.667L298.667 502.333L298.333 501.667z"/>
<path style="fill:#87a799; stroke:none;" d="M409 501L410 502L409 501z"/>
<path style="fill:#999999; stroke:none;" d="M503.667 501.333L504.333 501.667L503.667 501.333M537.667 501.333L538.333 501.667L537.667 501.333z"/>
<path style="fill:#87a799; stroke:none;" d="M643 501L644 502L643 501M914 501L915 502L914 501M373 502L374 503L373 502z"/>
<path style="fill:#999999; stroke:none;" d="M499 502L500 503L499 502M542 502L543 503L542 502z"/>
<path style="fill:#87a799; stroke:none;" d="M912 502L913 503L912 502z"/>
<path style="fill:#999999; stroke:none;" d="M496.667 503.333L497.333 503.667L496.667 503.333M545 503L546 504L545 503z"/>
<path style="fill:#87a799; stroke:none;" d="M644 503L645 504L644 503z"/>
<path style="fill:#999999; stroke:none;" d="M407 504L408 505L407 504M547 504L548 505L547 504z"/>
<path style="fill:#87a799; stroke:none;" d="M374 505L375 506L374 505z"/>
<path style="fill:#999999; stroke:none;" d="M491 505L492 506L491 505M550 505L551 506L550 505z"/>
<path style="fill:#87a799; stroke:none;" d="M645 505L646 506L645 505M911 505L912 506L911 505z"/>
<path style="fill:#999999; stroke:none;" d="M297 506L297 510L298 510L297 506M406 506L407 507L406 506M552 506L553 507L552 506z"/>
<path style="fill:#87a799; stroke:none;" d="M646 506L647 507L646 506z"/>
<path style="fill:#495151; stroke:none;" d="M406 507L407 508L406 507z"/>
<path style="fill:#999999; stroke:none;" d="M486 507L487 508L486 507M554 507L555 508L554 507z"/>
<path style="fill:#87a799; stroke:none;" d="M912 507L913 508L912 507M375 508L376 509L375 508z"/>
<path style="fill:#999999; stroke:none;" d="M405 508L406 509L405 508M484 508L485 509L484 508z"/>
<path style="fill:#87a799; stroke:none;" d="M647 508L648 509L647 508z"/>
<path style="fill:#495151; stroke:none;" d="M405 509L406 510L405 509z"/>
<path style="fill:#999999; stroke:none;" d="M482 509L483 510L482 509M558 509L559 510L558 509z"/>
<path style="fill:#87a799; stroke:none;" d="M913 509L914 510L913 509z"/>
<path style="fill:#999999; stroke:none;" d="M404 510L405 511L404 510M560 510L561 511L560 510z"/>
<path style="fill:#87a799; stroke:none;" d="M648 510L649 511L648 510M930 510L931 511L930 510z"/>
<path style="fill:#495151; stroke:none;" d="M404 511L405 512L404 511z"/>
<path style="fill:#999999; stroke:none;" d="M479 511L480 512L479 511M562 511L563 512L562 511z"/>
<path style="fill:#87a799; stroke:none;" d="M914 511L915 512L914 511M376 512L377 513L376 512z"/>
<path style="fill:#999999; stroke:none;" d="M403 512L404 513L403 512M477 512L478 513L477 512M296.333 513.667L296.667 514.333L296.333 513.667z"/>
<path style="fill:#495151; stroke:none;" d="M403 513L404 514L403 513z"/>
<path style="fill:#999999; stroke:none;" d="M476 513L477 514L476 513M565 513L566 514L565 513z"/>
<path style="fill:#87a799; stroke:none;" d="M649 513L650 514L649 513M915 513L916 514L915 513z"/>
<path style="fill:#999999; stroke:none;" d="M402 514L403 515L402 514M474 514L475 515L474 514M566 514L567 515L566 514z"/>
<path style="fill:#87a799; stroke:none;" d="M923 514L924 515L923 514M377 515L378 516L377 515z"/>
<path style="fill:#495151; stroke:none;" d="M402 515C396.779 528.461 391.679 542.397 391.039 557C390.454 570.377 389.872 584.907 392.887 598C408.379 665.28 472.524 697.617 524 735.151C542.606 748.718 561.266 762.192 580 775.579C588.362 781.554 598.774 791.023 609 793C610.181 783.393 604.427 781.284 597 776.333C586.881 769.587 576.894 762.645 567 755.573C540.562 736.672 514.442 717.324 488 698.421C469.712 685.347 449.769 673.144 434.015 657C409.336 631.712 392.473 595.769 394.039 560C394.464 550.303 396.021 540.415 398.375 531C399.596 526.118 403.039 519.946 402 515z"/>
<path style="fill:#999999; stroke:none;" d="M473 515L474 516L473 515M568 515L569 516L568 515z"/>
<path style="fill:#87a799; stroke:none;" d="M650 515L651 516L650 515M916 515L917 516L916 515M921 515L922 516L921 515z"/>
<path style="fill:#999999; stroke:none;" d="M401 516L402 517L401 516M471 516L472 517L471 516M569 516L570 517L569 516z"/>
<path style="fill:#87a799; stroke:none;" d="M919 516L920 517L919 516z"/>
<path style="fill:#999999; stroke:none;" d="M470 517L471 518L470 517M570 517L571 518L570 517z"/>
<path style="fill:#87a799; stroke:none;" d="M651 517L652 518L651 517z"/>
<path style="fill:#999999; stroke:none;" d="M400 518L401 519L400 518M469 518L470 519L469 518M571 518L572 519L571 518z"/>
<path style="fill:#87a799; stroke:none;" d="M378 519L379 520L378 519z"/>
<path style="fill:#999999; stroke:none;" d="M468 519L469 520L468 519z"/>
<path style="fill:#87a799; stroke:none;" d="M652.333 519.667L652.667 520.333L652.333 519.667z"/>
<path style="fill:#999999; stroke:none;" d="M295.333 520.667L295.667 521.333L295.333 520.667M399 521L400 522L399 521z"/>
<path style="fill:#87a799; stroke:none;" d="M653 522L654 523L653 522M379 523L380 524L379 523z"/>
<path style="fill:#999999; stroke:none;" d="M398 523L399 524L398 523z"/>
<path style="fill:#87a799; stroke:none;" d="M938 523L939 524L938 523z"/>
<path style="fill:#999999; stroke:none;" d="M654 524L655 525L654 524z"/>
<path style="fill:#87a799; stroke:none;" d="M936 524L937 525L936 524z"/>
<path style="fill:#157f57; stroke:none;" d="M933 544L946 537L939 524C925.771 527.891 926.197 533.718 933 544z"/>
<path style="fill:#87a799; stroke:none;" d="M654 525L655 526L654 525z"/>
<path style="fill:#999999; stroke:none;" d="M397 526L398 527L397 526z"/>
<path style="fill:#87a799; stroke:none;" d="M940 526L941 527L940 526M380 527L381 528L380 527z"/>
<path style="fill:#999999; stroke:none;" d="M460 527L461 528L460 527M580 527L581 528L580 527z"/>
<path style="fill:#87a799; stroke:none;" d="M655.333 527.667L655.667 528.333L655.333 527.667M931 527L932 528L931 527z"/>
<path style="fill:#999999; stroke:none;" d="M459 528L460 529L459 528M581 528L582 529L581 528z"/>
<path style="fill:#87a799; stroke:none;" d="M929 528L930 529L929 528z"/>
<path style="fill:#999999; stroke:none;" d="M396 529L397 530L396 529M458 529L459 530L458 529M582 529L583 530L582 529z"/>
<path style="fill:#87a799; stroke:none;" d="M381 530L381 534L382 534L381 530z"/>
<path style="fill:#999999; stroke:none;" d="M583 530L584 531L583 530z"/>
<path style="fill:#87a799; stroke:none;" d="M926 530L927 531L926 530z"/>
<path style="fill:#999999; stroke:none;" d="M656 531L657 532L656 531z"/>
<path style="fill:#87a799; stroke:none;" d="M925 531L926 532L925 531M943 531L944 532L943 531z"/>
<path style="fill:#999999; stroke:none;" d="M395.333 532.667L395.667 533.333L395.333 532.667M456 532L457 533L456 532M584 532L585 533L584 532z"/>
<path style="fill:#87a799; stroke:none;" d="M656 532L657 533L656 532z"/>
<path style="fill:#999999; stroke:none;" d="M585 533L586 534L585 533M295.333 534.667L295.667 535.333L295.333 534.667z"/>
<path style="fill:#87a799; stroke:none;" d="M945 534L946 535L945 534z"/>
<path style="fill:#999999; stroke:none;" d="M454 535L455 536L454 535z"/>
<path style="fill:#87a799; stroke:none;" d="M657.333 535.667L657.667 536.333L657.333 535.667z"/>
<path style="fill:#999999; stroke:none;" d="M394 536L395 537L394 536M587 536L588 537L587 536z"/>
<path style="fill:#87a799; stroke:none;" d="M928 536L929 537L928 536z"/>
<path style="fill:#999999; stroke:none;" d="M453 537L454 538L453 537z"/>
<path style="fill:#87a799; stroke:none;" d="M944 537L945 538L944 537z"/>
<path style="fill:#999999; stroke:none;" d="M588 538L589 539L588 538M296 539L297 540L296 539M589 539L590 540L589 539z"/>
<path style="fill:#87a799; stroke:none;" d="M658 539L658 543L659 543L658 539M941 539L942 540L941 539z"/>
<path style="fill:#999999; stroke:none;" d="M393 540L394 541L393 540M451 540L452 541L451 540M297.333 541.667L297.667 542.333L297.333 541.667M590 541L591 542L590 541z"/>
<path style="fill:#87a799; stroke:none;" d="M931 541L932 542L931 541M938 541L939 542L938 541z"/>
<path style="fill:#999999; stroke:none;" d="M450 542L451 543L450 542M591 543L592 544L591 543M392.333 544.667L392.667 545.333L392.333 544.667z"/>
<path style="fill:#87a799; stroke:none;" d="M449.333 544.667L449.667 545.333L449.333 544.667z"/>
<path style="fill:#999999; stroke:none;" d="M298 545L299 546L298 545M592.333 545.667L592.667 546.333L592.333 545.667z"/>
<path style="fill:#87a799; stroke:none;" d="M659 545L659 551L660 551L659 545M448.333 547.667L448.667 548.333L448.333 547.667z"/>
<path style="fill:#999999; stroke:none;" d="M299 548L300 549L299 548M593 548L594 549L593 548z"/>
<path style="fill:#157f57; stroke:none;" d="M954 549L942 557L951 570C962.17 563.775 964.933 557.9 954 549z"/>
<path style="fill:#999999; stroke:none;" d="M300 550L301 551L300 550M594.333 550.667L594.667 551.333L594.333 550.667z"/>
<path style="fill:#87a799; stroke:none;" d="M952 550L953 551L952 550M380 551L380 556L381 556L380 551z"/>
<path style="fill:#999999; stroke:none;" d="M391.333 551.667L391.667 552.333L391.333 551.667z"/>
<path style="fill:#87a799; stroke:none;" d="M447.333 552.667L447.667 553.333L447.333 552.667M949 552L950 553L949 552M957 552L958 553L957 552z"/>
<path style="fill:#999999; stroke:none;" d="M301 553L302 554L301 553M595.333 553.667L595.667 554.333L595.333 553.667z"/>
<path style="fill:#87a799; stroke:none;" d="M946 554L947 555L946 554z"/>
<path style="fill:#999999; stroke:none;" d="M302 555L303 556L302 555z"/>
<path style="fill:#87a799; stroke:none;" d="M943 556L944 557L943 556M960 556L961 557L960 556z"/>
<path style="fill:#999999; stroke:none;" d="M303 557L304 558L303 557M596.333 557.667L596.667 558.333L596.333 557.667z"/>
<path style="fill:#87a799; stroke:none;" d="M446 558L446 563L447 563L446 558z"/>
<path style="fill:#999999; stroke:none;" d="M304 559L305 560L304 559z"/>
<path style="fill:#87a799; stroke:none;" d="M963 560L964 561L963 560z"/>
<path style="fill:#999999; stroke:none;" d="M305 561L306 562L305 561M597.333 561.667L597.667 562.333L597.333 561.667M306 563L307 564L306 563z"/>
<path style="fill:#87a799; stroke:none;" d="M946 563L947 564L946 563M960 563L961 564L960 563z"/>
<path style="fill:#999999; stroke:none;" d="M307 565L308 566L307 565z"/>
<path style="fill:#87a799; stroke:none;" d="M379.333 565.667L379.667 566.333L379.333 565.667z"/>
<path style="fill:#999999; stroke:none;" d="M308.333 566.667L308.667 567.333L308.333 566.667z"/>
<path style="fill:#87a799; stroke:none;" d="M446 566L446 571L447 571L446 566z"/>
<path style="fill:#999999; stroke:none;" d="M598 567L598 570L599 570L598 567z"/>
<path style="fill:#87a799; stroke:none;" d="M949 567L950 568L949 567z"/>
<path style="fill:#999999; stroke:none;" d="M309 568L310 569L309 568z"/>
<path style="fill:#87a799; stroke:none;" d="M953 568L954 569L953 568z"/>
<path style="fill:#999999; stroke:none;" d="M310 570L311 571L310 570z"/>
<path style="fill:#87a799; stroke:none;" d="M378 570L379 571L378 570z"/>
<path style="fill:#999999; stroke:none;" d="M311 571L312 572L311 571M312 572L313 573L312 572M313 573L314 574L313 573z"/>
<path style="fill:#157f57; stroke:none;" d="M972 573L961 582C962.914 585.328 966.104 591.539 970.089 592.658C973.803 593.701 980.687 587.712 980.655 583.996C980.619 579.823 974.998 575.293 972 573z"/>
<path style="fill:#87a799; stroke:none;" d="M973 573L974 574L973 573z"/>
<path style="fill:#999999; stroke:none;" d="M314 574L315 575L314 574z"/>
<path style="fill:#87a799; stroke:none;" d="M377 574L378 575L377 574z"/>
<path style="fill:#999999; stroke:none;" d="M315 575L316 576L315 575M316 576L317 577L316 576z"/>
<path style="fill:#87a799; stroke:none;" d="M376 576L377 577L376 576M659 576L659 579L660 579L659 576M968 576L969 577L968 576z"/>
<path style="fill:#999999; stroke:none;" d="M318 577L319 578L318 577z"/>
<path style="fill:#87a799; stroke:none;" d="M447 577L448 578L447 577M976 577L977 578L976 577z"/>
<path style="fill:#999999; stroke:none;" d="M319 578L320 579L319 578z"/>
<path style="fill:#87a799; stroke:none;" d="M977 578L978 579L977 578z"/>
<path style="fill:#999999; stroke:none;" d="M320 579L321 580L320 579M322 580L323 581L322 580z"/>
<path style="fill:#87a799; stroke:none;" d="M963 580L964 581L963 580z"/>
<path style="fill:#999999; stroke:none;" d="M324 581L325 582L324 581M374 581L375 582L374 581M598 581L598 585L599 585L598 581M325 582L326 583L325 582z"/>
<path style="fill:#87a799; stroke:none;" d="M448.333 582.667L448.667 583.333L448.333 582.667z"/>
<path style="fill:#999999; stroke:none;" d="M327 583L328 584L327 583M373 583L374 584L373 583z"/>
<path style="fill:#87a799; stroke:none;" d="M981 583L982 584L981 583z"/>
<path style="fill:#999999; stroke:none;" d="M329 584L330 585L329 584z"/>
<path style="fill:#87a799; stroke:none;" d="M962 584L963 585L962 584z"/>
<path style="fill:#999999; stroke:none;" d="M331 585L332 586L331 585z"/>
<path style="fill:#87a799; stroke:none;" d="M658.333 585.667L658.667 586.333L658.333 585.667M981 585L982 586L981 585z"/>
<path style="fill:#999999; stroke:none;" d="M333.667 586.333L334.333 586.667L333.667 586.333M335.667 587.333L336.333 587.667L335.667 587.333M371 587L372 588L371 587z"/>
<path style="fill:#87a799; stroke:none;" d="M449.333 587.667L449.667 588.333L449.333 587.667z"/>
<path style="fill:#999999; stroke:none;" d="M338 588L339 589L338 588M370 588L371 589L370 588M340.667 589.333L341.333 589.667L340.667 589.333M369 589L370 590L369 589z"/>
<path style="fill:#87a799; stroke:none;" d="M966 589L967 590L966 589z"/>
<path style="fill:#999999; stroke:none;" d="M343.667 590.333L344.333 590.667L343.667 590.333M368 590L369 591L368 590M391.333 590.667L391.667 591.333L391.333 590.667z"/>
<path style="fill:#87a799; stroke:none;" d="M450.333 590.667L450.667 591.333L450.333 590.667z"/>
<path style="fill:#999999; stroke:none;" d="M597.333 590.667L597.667 591.333L597.333 590.667z"/>
<path style="fill:#87a799; stroke:none;" d="M975 590L976 591L975 590z"/>
<path style="fill:#999999; stroke:none;" d="M346.667 591.333L347.333 591.667L346.667 591.333M366.667 591.333L367.333 591.667L366.667 591.333z"/>
<path style="fill:#87a799; stroke:none;" d="M657 591L658 592L657 591M974 591L975 592L974 591z"/>
<path style="fill:#999999; stroke:none;" d="M349 592L349 593L352 593L349 592M364.667 592.333L365.333 592.667L364.667 592.333M352 593L352 594L363 594L352 593z"/>
<path style="fill:#87a799; stroke:none;" d="M451 593L452 594L451 593z"/>
<path style="fill:#999999; stroke:none;" d="M596 594L597 595L596 594z"/>
<path style="fill:#87a799; stroke:none;" d="M452 595L453 596L452 595z"/>
<path style="fill:#999999; stroke:none;" d="M392 596L393 597L392 596z"/>
<path style="fill:#157f57; stroke:none;" d="M992 596L981 606L981 607C983.494 609.515 987.37 615.608 991.089 616.079C994.95 616.568 1001.62 609.88 1000.65 606C999.712 602.215 994.771 598.562 992 596z"/>
<path style="fill:#87a799; stroke:none;" d="M453 597L454 598L453 597M656 597L657 598L656 597M993 597L994 598L993 597z"/>
<path style="fill:#999999; stroke:none;" d="M595 598L596 599L595 598z"/>
<path style="fill:#87a799; stroke:none;" d="M994 598L995 599L994 598M454 599L455 600L454 599M988 599L989 600L988 599M995 599L996 600L995 599z"/>
<path style="fill:#999999; stroke:none;" d="M393 600L394 601L393 600z"/>
<path style="fill:#87a799; stroke:none;" d="M987 600L988 601L987 600M455 601L456 602L455 601z"/>
<path style="fill:#999999; stroke:none;" d="M594 601L595 602L594 601z"/>
<path style="fill:#87a799; stroke:none;" d="M655 601L656 602L655 601M986 601L987 602L986 601z"/>
<path style="fill:#999999; stroke:none;" d="M0 602L0 1024L302 1024L296 1012L310 1005L317 1019L308 1023L308 1024L400 1024C400 943.606 375.36 858.04 330.667 791C310.008 760.011 284.127 731.267 251 713.309C211.942 692.135 167.697 692.932 126 679.975C76.9619 664.735 37.3361 636.518 0 602z"/>
<path style="fill:#495151; stroke:none;" d="M594.333 602.667L594.667 603.333L594.333 602.667z"/>
<path style="fill:#999999; stroke:none;" d="M593.333 603.667L593.667 604.333L593.333 603.667M394 604L395 605L394 604z"/>
<path style="fill:#87a799; stroke:none;" d="M457 604L458 605L457 604z"/>
<path style="fill:#999999; stroke:none;" d="M592 606L593 607L592 606z"/>
<path style="fill:#87a799; stroke:none;" d="M654 606L655 607L654 606z"/>
<path style="fill:#999999; stroke:none;" d="M395.333 607.667L395.667 608.333L395.333 607.667z"/>
<path style="fill:#87a799; stroke:none;" d="M459 607L460 608L459 607M1002 607L1003 608L1002 607z"/>
<path style="fill:#999999; stroke:none;" d="M591 608L592 609L591 608z"/>
<path style="fill:#87a799; stroke:none;" d="M1001 608L1002 609L1001 608M1000 609L1001 610L1000 609z"/>
<path style="fill:#999999; stroke:none;" d="M396.333 610.667L396.667 611.333L396.333 610.667z"/>
<path style="fill:#87a799; stroke:none;" d="M590 610L591 611L590 610M653 610L654 611L653 610M462 611L463 612L462 611M589 611L590 612L589 611M986 612L987 613L986 612z"/>
<path style="fill:#999999; stroke:none;" d="M397 613L398 614L397 613z"/>
<path style="fill:#87a799; stroke:none;" d="M987 613L988 614L987 613M587 614L588 615L587 614M652 614L653 615L652 614M586 615L587 616L586 615z"/>
<path style="fill:#999999; stroke:none;" d="M398 616L399 617L398 616z"/>
<path style="fill:#87a799; stroke:none;" d="M467 617L468 618L467 617M651 617L652 618L651 617M991 617L992 618L991 617z"/>
<path style="fill:#999999; stroke:none;" d="M399.333 618.667L399.667 619.333L399.333 618.667z"/>
<path style="fill:#87a799; stroke:none;" d="M468 618L469 619L468 618M469 619L470 620L469 619z"/>
<path style="fill:#157f57; stroke:none;" d="M1013 640C1014.92 638.455 1016.53 636.847 1018.15 634.981C1019.41 633.538 1021.18 631.938 1021.66 630C1024.88 616.814 999.349 619.637 1004.75 631C1006.39 634.449 1010.34 637.337 1013 640z"/>
<path style="fill:#999999; stroke:none;" d="M400.333 620.667L400.667 621.333L400.333 620.667z"/>
<path style="fill:#87a799; stroke:none;" d="M470 620L471 621L470 620M650 621L651 622L650 621z"/>
<path style="fill:#999999; stroke:none;" d="M401 623L402 624L401 623z"/>
<path style="fill:#87a799; stroke:none;" d="M577 624L578 625L577 624z"/>
<path style="fill:#999999; stroke:none;" d="M402 625L403 626L402 625z"/>
<path style="fill:#87a799; stroke:none;" d="M476 625L477 626L476 625M576 625L577 626L576 625M649 625L650 626L649 625M575 626L576 627L575 626z"/>
<path style="fill:#999999; stroke:none;" d="M403 627L404 628L403 627z"/>
<path style="fill:#87a799; stroke:none;" d="M480 628L481 629L480 628M572 628L573 629L572 628M1002.33 628.667L1002.67 629.333L1002.33 628.667z"/>
<path style="fill:#999999; stroke:none;" d="M404 629L405 630L404 629z"/>
<path style="fill:#87a799; stroke:none;" d="M648.333 629.667L648.667 630.333L648.333 629.667M1023 629L1024 630L1023 629M569 630L570 631L569 630M1003 630L1004 631L1003 630M1022 630L1023 631L1022 630z"/>
<path style="fill:#999999; stroke:none;" d="M405 631L406 632L405 631z"/>
<path style="fill:#87a799; stroke:none;" d="M484 631L485 632L484 631M1004 631L1005 632L1004 631M1021 631L1022 632L1021 631M486 632L487 633L486 632M566 632L567 633L566 632M1005 632L1006 633L1005 632M1020 632L1021 633L1020 632z"/>
<path style="fill:#999999; stroke:none;" d="M406 633L407 634L406 633z"/>
<path style="fill:#87a799; stroke:none;" d="M564 633L565 634L564 633M647.333 633.667L647.667 634.333L647.333 633.667M1006 633L1007 634L1006 633M1019 633L1020 634L1019 633z"/>
<path style="fill:#999999; stroke:none;" d="M407.333 634.667L407.667 635.333L407.333 634.667z"/>
<path style="fill:#87a799; stroke:none;" d="M489 634L490 635L489 634M562 634L563 635L562 634M1007 634L1008 635L1007 634M1018 634L1019 635L1018 634M491 635L492 636L491 635M560 635L561 636L560 635M1008 635L1009 636L1008 635M1017 635L1018 636L1017 635z"/>
<path style="fill:#999999; stroke:none;" d="M408 636L409 637L408 636z"/>
<path style="fill:#87a799; stroke:none;" d="M493 636L494 637L493 636M558 636L559 637L558 636M1009 636L1010 637L1009 636M1016 636L1017 637L1016 636M495 637L496 638L495 637M556 637L557 638L556 637M646.333 637.667L646.667 638.333L646.333 637.667M1010 637L1011 638L1010 637z"/>
<path style="fill:#999999; stroke:none;" d="M409 638L410 639L409 638z"/>
<path style="fill:#87a799; stroke:none;" d="M498 638L499 639L498 638M553.667 638.333L554.333 638.667L553.667 638.333M1011 638L1012 639L1011 638M500 639L501 640L500 639M551 639L552 640L551 639M1012 639L1013 640L1012 639z"/>
<path style="fill:#999999; stroke:none;" d="M410 640L411 641L410 640z"/>
<path style="fill:#87a799; stroke:none;" d="M503 640L504 641L503 640M548 640L549 641L548 640z"/>
<path style="fill:#999999; stroke:none;" d="M411 641L412 642L411 641z"/>
<path style="fill:#87a799; stroke:none;" d="M506.667 641.333L507.333 641.667L506.667 641.333M544 641L545 642L544 641M645.333 641.667L645.667 642.333L645.333 641.667M510.667 642.333L511.333 642.667L510.667 642.333M540 642L541 643L540 642z"/>
<path style="fill:#999999; stroke:none;" d="M412 643L413 644L412 643z"/>
<path style="fill:#87a799; stroke:none;" d="M516 643L516 644L519 644L516 643M533.667 643.333L534.333 643.667L533.667 643.333z"/>
<path style="fill:#999999; stroke:none;" d="M413 644L414 645L413 644M414 646L415 647L414 646z"/>
<path style="fill:#87a799; stroke:none;" d="M644.333 646.667L644.667 647.333L644.333 646.667z"/>
<path style="fill:#999999; stroke:none;" d="M415 647L416 648L415 647M416 649L417 650L416 649M417 650L418 651L417 650z"/>
<path style="fill:#87a799; stroke:none;" d="M643.333 650.667L643.667 651.333L643.333 650.667z"/>
<path style="fill:#999999; stroke:none;" d="M418 651L419 652L418 651M419 653L420 654L419 653M420 654L421 655L420 654z"/>
<path style="fill:#87a799; stroke:none;" d="M642.333 654.667L642.667 655.333L642.333 654.667z"/>
<path style="fill:#999999; stroke:none;" d="M421 655L422 656L421 655M422 656L423 657L422 656M424 659L425 660L424 659z"/>
<path style="fill:#87a799; stroke:none;" d="M641.333 659.667L641.667 660.333L641.333 659.667z"/>
<path style="fill:#999999; stroke:none;" d="M425 660L426 661L425 660M426 661L427 662L426 661M427 662L428 663L427 662M428 663L429 664L428 663z"/>
<path style="fill:#87a799; stroke:none;" d="M640.333 663.667L640.667 664.333L640.333 663.667z"/>
<path style="fill:#999999; stroke:none;" d="M429 664L430 665L429 664M430 665L431 666L430 665M431 666L432 667L431 666M432 667L433 668L432 667z"/>
<path style="fill:#87a799; stroke:none;" d="M639.333 667.667L639.667 668.333L639.333 667.667z"/>
<path style="fill:#999999; stroke:none;" d="M433 668L434 669L433 668M434 669L435 670L434 669M435 670L436 671L435 670M436 671L437 672L436 671M437 672L438 673L437 672z"/>
<path style="fill:#87a799; stroke:none;" d="M638 672L639 673L638 672z"/>
<path style="fill:#999999; stroke:none;" d="M438 673L439 674L438 673M441 675L442 676L441 675M442 676L443 677L442 676z"/>
<path style="fill:#87a799; stroke:none;" d="M637 676L638 677L637 676z"/>
<path style="fill:#999999; stroke:none;" d="M443 677L444 678L443 677M445 678L446 679L445 678M446 679L447 680L446 679M447 680L448 681L447 680M448.667 681.333L449.333 681.667L448.667 681.333z"/>
<path style="fill:#87a799; stroke:none;" d="M636 681L637 682L636 681z"/>
<path style="fill:#999999; stroke:none;" d="M450 682L451 683L450 682M451 683L452 684L451 683M453 684L454 685L453 684M454 685L455 686L454 685z"/>
<path style="fill:#87a799; stroke:none;" d="M635 685L636 686L635 685z"/>
<path style="fill:#999999; stroke:none;" d="M457 687L458 688L457 687M458 688L459 689L458 688M460 689L461 690L460 689z"/>
<path style="fill:#87a799; stroke:none;" d="M634.333 689.667L634.667 690.333L634.333 689.667z"/>
<path style="fill:#999999; stroke:none;" d="M461 690L462 691L461 690M463 691L464 692L463 691M464 692L465 693L464 692M465.667 693.333L466.333 693.667L465.667 693.333M467 694L468 695L467 694z"/>
<path style="fill:#87a799; stroke:none;" d="M633 694L634 695L633 694z"/>
<path style="fill:#999999; stroke:none;" d="M470 696L471 697L470 696M471 697L472 698L471 697z"/>
<path style="fill:#87a799; stroke:none;" d="M632 698L633 699L632 698z"/>
<path style="fill:#999999; stroke:none;" d="M474 699L475 700L474 699M477 701L478 702L477 701M478 702L479 703L478 702z"/>
<path style="fill:#87a799; stroke:none;" d="M631 703L632 704L631 703z"/>
<path style="fill:#999999; stroke:none;" d="M481 704L482 705L481 704M482 705L483 706L482 705M484 706L485 707L484 706M485 707L486 708L485 707z"/>
<path style="fill:#87a799; stroke:none;" d="M630 707L631 708L630 707z"/>
<path style="fill:#999999; stroke:none;" d="M488 709L489 710L488 709M491 711L492 712L491 711z"/>
<path style="fill:#87a799; stroke:none;" d="M629 711L630 712L629 711z"/>
<path style="fill:#999999; stroke:none;" d="M492 712L493 713L492 712M495 714L496 715L495 714M496 715L497 716L496 715z"/>
<path style="fill:#87a799; stroke:none;" d="M628 716L629 717L628 716z"/>
<path style="fill:#999999; stroke:none;" d="M499 717L500 718L499 717M502 719L503 720L502 719M503 720L504 721L503 720z"/>
<path style="fill:#87a799; stroke:none;" d="M627 720L628 721L627 720z"/>
<path style="fill:#999999; stroke:none;" d="M505 721L506 722L505 721M506 722L507 723L506 722M509 724L510 725L509 724z"/>
<path style="fill:#87a799; stroke:none;" d="M626.333 724.667L626.667 725.333L626.333 724.667z"/>
<path style="fill:#999999; stroke:none;" d="M512 726L513 727L512 726M513 727L514 728L513 727z"/>
<path style="fill:#87a799; stroke:none;" d="M625.333 728.667L625.667 729.333L625.333 728.667z"/>
<path style="fill:#999999; stroke:none;" d="M516 729L517 730L516 729M517 730L518 731L517 730M520 732L521 733L520 732z"/>
<path style="fill:#87a799; stroke:none;" d="M624 733L625 734L624 733z"/>
<path style="fill:#999999; stroke:none;" d="M523 734L524 735L523 734M524 735L525 736L524 735M527 737L528 738L527 737z"/>
<path style="fill:#87a799; stroke:none;" d="M623.333 737.667L623.667 738.333L623.333 737.667z"/>
<path style="fill:#999999; stroke:none;" d="M528 738L529 739L528 738M531 740L532 741L531 740M532 741L533 742L532 741z"/>
<path style="fill:#87a799; stroke:none;" d="M622.333 741.667L622.667 742.333L622.333 741.667z"/>
<path style="fill:#999999; stroke:none;" d="M534 742L535 743L534 742M535 743L536 744L535 743M538 745L539 746L538 745z"/>
<path style="fill:#87a799; stroke:none;" d="M621.333 745.667L621.667 746.333L621.333 745.667z"/>
<path style="fill:#999999; stroke:none;" d="M539 746L540 747L539 746M542 748L543 749L542 748z"/>
<path style="fill:#87a799; stroke:none;" d="M620.333 749.667L620.667 750.333L620.333 749.667z"/>
<path style="fill:#999999; stroke:none;" d="M545 750L546 751L545 750M546 751L547 752L546 751z"/>
<path style="fill:#157f57; stroke:none;" d="M0.333333 753.667L0.666667 754.333L0.333333 753.667z"/>
<path style="fill:#999999; stroke:none;" d="M549 753L550 754L549 753z"/>
<path style="fill:#87a799; stroke:none;" d="M619.333 753.667L619.667 754.333L619.333 753.667z"/>
<path style="fill:#999999; stroke:none;" d="M550 754L551 755L550 754z"/>
<path style="fill:#87a799; stroke:none;" d="M0.333333 755.667L0.666667 756.333L0.333333 755.667z"/>
<path style="fill:#157f57; stroke:none;" d="M16 756L14 771L29 773L31 758L16 756z"/>
<path style="fill:#87a799; stroke:none;" d="M20 756L21 757L20 756z"/>
<path style="fill:#999999; stroke:none;" d="M553 756L554 757L553 756z"/>
<path style="fill:#87a799; stroke:none;" d="M25 757L26 758L25 757z"/>
<path style="fill:#999999; stroke:none;" d="M554 757L555 758L554 757z"/>
<path style="fill:#87a799; stroke:none;" d="M618.333 757.667L618.667 758.333L618.333 757.667M15.3333 758.667L15.6667 759.333L15.3333 758.667z"/>
<path style="fill:#999999; stroke:none;" d="M556 758L557 759L556 758M557 759L558 760L557 759M558 760L559 761L558 760z"/>
<path style="fill:#87a799; stroke:none;" d="M46 761L47 762L46 761z"/>
<path style="fill:#157f57; stroke:none;" d="M47 761C42.4761 774.364 45.7694 777.291 59 779C60.7718 765.054 60.5583 764.508 47 761z"/>
<path style="fill:#87a799; stroke:none;" d="M48 761L49 762L48 761z"/>
<path style="fill:#999999; stroke:none;" d="M560 761L561 762L560 761z"/>
<path style="fill:#87a799; stroke:none;" d="M617 761L618 762L617 761M53.6667 762.333L54.3333 762.667L53.6667 762.333z"/>
<path style="fill:#999999; stroke:none;" d="M561 762L562 763L561 762z"/>
<path style="fill:#87a799; stroke:none;" d="M30 763L31 764L30 763M59.6667 763.333L60.3333 763.667L59.6667 763.333M14 764L15 765L14 764z"/>
<path style="fill:#999999; stroke:none;" d="M564 764L565 765L564 764z"/>
<path style="fill:#87a799; stroke:none;" d="M616 765L617 766L616 765M45 766L46 767L45 766z"/>
<path style="fill:#999999; stroke:none;" d="M567 766L568 767L567 766z"/>
<path style="fill:#87a799; stroke:none;" d="M76 767L77 768L76 767z"/>
<path style="fill:#157f57; stroke:none;" d="M74 782L89 784L92 769C78.3152 767.919 75.8829 767.178 74 782z"/>
<path style="fill:#87a799; stroke:none;" d="M81.6667 767.333L82.3333 767.667L81.6667 767.333z"/>
<path style="fill:#999999; stroke:none;" d="M568 767L569 768L568 767z"/>
<path style="fill:#87a799; stroke:none;" d="M29.3333 768.667L29.6667 769.333L29.3333 768.667M87 768L88 769L87 768z"/>
<path style="fill:#999999; stroke:none;" d="M570 768L571 769L570 768z"/>
<path style="fill:#87a799; stroke:none;" d="M60 769L61 770L60 769z"/>
<path style="fill:#999999; stroke:none;" d="M571 769L572 770L571 769z"/>
<path style="fill:#87a799; stroke:none;" d="M615 769L616 770L615 769M13 770L14 771L13 770z"/>
<path style="fill:#999999; stroke:none;" d="M572 770L573 771L572 770z"/>
<path style="fill:#87a799; stroke:none;" d="M15.6667 771.333L16.3333 771.667L15.6667 771.333M91 771L92 772L91 771z"/>
<path style="fill:#999999; stroke:none;" d="M574 771L575 772L574 771z"/>
<path style="fill:#87a799; stroke:none;" d="M21.6667 772.333L22.3333 772.667L21.6667 772.333M44 772L45 773L44 772M75 772L76 773L75 772z"/>
<path style="fill:#999999; stroke:none;" d="M575 772L576 773L575 772z"/>
<path style="fill:#87a799; stroke:none;" d="M27.6667 773.333L28.3333 773.667L27.6667 773.333z"/>
<path style="fill:#999999; stroke:none;" d="M577 773L578 774L577 773z"/>
<path style="fill:#87a799; stroke:none;" d="M614 773L615 774L614 773z"/>
<path style="fill:#157f57; stroke:none;" d="M109 774L102 788C112.598 793.641 118.083 794.311 122 781L109 774z"/>
<path style="fill:#999999; stroke:none;" d="M578 774L579 775L578 774z"/>
<path style="fill:#87a799; stroke:none;" d="M59 775L60 776L59 775M111 775L112 776L111 775M44 776L45 777L44 776M90.3333 776.667L90.6667 777.333L90.3333 776.667M107 776L108 777L107 776z"/>
<path style="fill:#999999; stroke:none;" d="M581 776L582 777L581 776z"/>
<path style="fill:#87a799; stroke:none;" d="M613 776L614 777L613 776M49.6667 777.333L50.3333 777.667L49.6667 777.333z"/>
<path style="fill:#999999; stroke:none;" d="M582 777L583 778L582 777z"/>
<path style="fill:#87a799; stroke:none;" d="M55 778L56 779L55 778M74 778L75 779L74 778z"/>
<path style="fill:#999999; stroke:none;" d="M584 778L585 779L584 778z"/>
<path style="fill:#87a799; stroke:none;" d="M118 779L119 780L118 779z"/>
<path style="fill:#999999; stroke:none;" d="M585 779L586 780L585 779z"/>
<path style="fill:#87a799; stroke:none;" d="M89.3333 781.667L89.6667 782.333L89.3333 781.667z"/>
<path style="fill:#999999; stroke:none;" d="M588 781L589 782L588 781z"/>
<path style="fill:#87a799; stroke:none;" d="M612 781L613 782L612 781M78 782L79 783L78 782z"/>
<path style="fill:#999999; stroke:none;" d="M590 782L591 783L590 782z"/>
<path style="fill:#87a799; stroke:none;" d="M103 783L104 784L103 783M121 783L122 784L121 783z"/>
<path style="fill:#999999; stroke:none;" d="M591 783L592 784L591 783z"/>
<path style="fill:#87a799; stroke:none;" d="M102 785L103 786L102 785z"/>
<path style="fill:#999999; stroke:none;" d="M594 785L595 786L594 785z"/>
<path style="fill:#87a799; stroke:none;" d="M611 785L612 786L611 785z"/>
<path style="fill:#999999; stroke:none;" d="M595.667 786.333L596.333 786.667L595.667 786.333M610 786L611 787L610 786M597 787L598 788L597 787z"/>
<path style="fill:#87a799; stroke:none;" d="M103 788L104 789L103 788z"/>
<path style="fill:#999999; stroke:none;" d="M598.667 788.333L599.333 788.667L598.667 788.333M600 789L601 790L600 789M609 789L609 792L610 792L609 789z"/>
<path style="fill:#87a799; stroke:none;" d="M135 790L136 791L135 790z"/>
<path style="fill:#999999; stroke:none;" d="M602 790L603 791L602 790z"/>
<path style="fill:#87a799; stroke:none;" d="M108 791L109 792L108 791M116 791L117 792L116 791z"/>
<path style="fill:#157f57; stroke:none;" d="M135 791C133.25 793.595 131.219 796.191 129.819 798.996C127.357 803.93 133.56 810.587 138.91 809.967C147.308 808.993 147.679 798.553 141.996 794.675C139.741 793.136 137.537 791.962 135 791z"/>
<path style="fill:#999999; stroke:none;" d="M603 791L604 792L603 791z"/>
<path style="fill:#87a799; stroke:none;" d="M138 792L139 793L138 792z"/>
<path style="fill:#999999; stroke:none;" d="M605 792L606 793L605 792z"/>
<path style="fill:#87a799; stroke:none;" d="M111 793L112 794L111 793M133 793L134 794L133 793z"/>
<path style="fill:#999999; stroke:none;" d="M606 793L606 794L609 794L606 793z"/>
<path style="fill:#87a799; stroke:none;" d="M113.667 794.333L114.333 794.667L113.667 794.333M141 794L142 795L141 794M131 796L132 797L131 796M144 796L145 797L144 796M147 798L148 799L147 798M129 799L130 800L129 799M147 800L148 801L147 800M127.333 802.667L127.667 803.333L127.333 802.667M145 803L146 804L145 803M130 805L131 806L130 805M133 807L134 808L133 807M142 807L143 808L142 807z"/>
<path style="fill:#157f57; stroke:none;" d="M160 809C153.351 819.642 151.769 822.964 164 830L173 819L160 809z"/>
<path style="fill:#87a799; stroke:none;" d="M137 810L138 811L137 810M159 810L160 811L159 810M163 810L164 811L163 810M139 811L140 812L139 811M167 813L168 814L167 813M156 814L157 815L156 814M168 814L169 815L168 814M172 817L173 818L172 817M152 819L153 820L152 819M171 820L172 821L171 820M152 821L153 822L152 821M170 821L171 822L170 821M156 824L157 825L156 824M166 826L167 827L166 826M165 827L166 828L165 827M161 828L162 829L161 828M185 828L187 830L185 828z"/>
<path style="fill:#157f57; stroke:none;" d="M175 839C176.514 841.105 178.01 842.882 180.019 844.56C184.921 848.655 196.783 846.523 194.654 838C193.701 834.18 187.316 828.339 183.285 830.712C180.156 832.555 177.552 836.427 175 839z"/>
<path style="fill:#87a799; stroke:none;" d="M181 832L182 833L181 832M180 833L181 834L180 833M194 836L195 837L194 836M195 837L196 838L195 837M196 838L197 839L196 838M191 844L192 845L191 844M181 845L182 846L181 845M190 845L191 846L190 845M182 846L183 847L182 846M189 846L190 847L189 846M183 847L184 848L183 847M188 847L189 848L188 847M187 848L188 849L187 848M186 849L187 850L186 849z"/>
<path style="fill:#157f57; stroke:none;" d="M197 860L197 861L206 871C219.783 864.857 215.868 859.752 209 850L197 860z"/>
<path style="fill:#87a799; stroke:none;" d="M209 851L210 852L209 851M210 852L211 853L210 852M211 853L212 854L211 853M212 854L213 855L212 854M213 855L214 856L213 855M214 856L215 857L214 856M215 857L216 858L215 857M218 861L219 862L218 861M217 862L218 863L217 862M211 867L212 868L211 867M204 868L205 869L204 868M210 868L211 869L210 868M205 869L206 870L205 869M227 874L228 875L227 874z"/>
<path style="fill:#157f57; stroke:none;" d="M217 882L225 894C238.487 889.695 237.191 883.702 230 874L217 882z"/>
<path style="fill:#87a799; stroke:none;" d="M231 876L232 877L231 876M223 877L224 878L223 877M218 881L219 882L218 881M235 881L236 882L235 881M217 883L218 884L217 883M238 885L239 886L238 885M237 886L238 887L237 886M221 888L222 889L221 888M234 888L235 889L234 888M224 892L225 893L224 892M227 893L228 894L227 893z"/>
<path style="fill:#157f57; stroke:none;" d="M248 899C241.187 901.583 228.685 915.286 243.21 918.119C257.755 920.956 251.723 904.626 248 899z"/>
<path style="fill:#87a799; stroke:none;" d="M244 900L245 901L244 900M241 902L242 903L241 902M238 904L239 905L238 904M235 906L236 907L235 906M252 906L253 907L252 906M237 911L238 912L237 911M255 911L256 912L255 911M254 912L255 913L254 912M239 914L240 915L239 914M249 915L250 916L249 915M246 917L247 918L246 917M242.667 919.333L243.333 919.667L242.667 919.333z"/>
<path style="fill:#157f57; stroke:none;" d="M251 932L258 946L271 939L264 925L251 932z"/>
<path style="fill:#87a799; stroke:none;" d="M259 927L260 928L259 927M265 927L266 928L265 927M254 930L255 931L254 930M268 932L269 933L268 932M253 937L254 938L253 937M269 939L270 940L269 939M256 942L257 943L256 942M264 942L265 943L264 942M262 943L263 944L262 943M277 952L278 953L277 952z"/>
<path style="fill:#157f57; stroke:none;" d="M266 959L273 972L287 965L280 952L266 959z"/>
<path style="fill:#87a799; stroke:none;" d="M272 955L273 956L272 955M282 956L283 957L282 956M267 958L268 959L267 958M283 958L284 959L283 958M267 961L268 962L267 961M286 963L287 964L286 963M284 966L285 967L284 966M282 967L283 968L282 967M271 968L272 969L271 968M277 970L278 971L277 970M275 971L276 972L275 971M294 978L296 980L294 978M292 979L293 980L292 979z"/>
<path style="fill:#157f57; stroke:none;" d="M282 985L288 999L302 992L295 979L282 985z"/>
<path style="fill:#87a799; stroke:none;" d="M296 981L297 982L296 981M285 983L286 984L285 983M297 983L298 984L297 983M283 984L284 985L283 984M300 988L301 989L300 988M301 990L302 991L301 990M284 991L285 992L284 991M295 995L296 996L295 995M293 996L294 997L293 996z"/>
<path style="fill:#157f57; stroke:none;" d="M309 1005C305.96 1007 299.832 1009.07 298.133 1012.39C296.133 1016.29 300.965 1023.49 305.093 1023.75C309.236 1024.01 313.584 1020.99 317 1019L309 1005z"/>
<path style="fill:#87a799; stroke:none;" d="M305 1007L306 1008L305 1007M312 1010L313 1011L312 1010M296.333 1012.67L296.667 1013.33L296.333 1012.67M313 1012L314 1013L313 1012M314 1014L315 1015L314 1014M301 1022L302 1023L301 1022z"/>
</svg>
