<?xml version="1.0" encoding="UTF-8" standalone="no"?>
<!DOCTYPE svg PUBLIC "-//W3C//DTD SVG 1.1//EN" "http://www.w3.org/Graphics/SVG/1.1/DTD/svg11.dtd">
<svg width="100%" height="100%" viewBox="0 0 2732 2732" version="1.1" xmlns="http://www.w3.org/2000/svg" xmlns:xlink="http://www.w3.org/1999/xlink" xml:space="preserve" style="fill-rule:evenodd;clip-rule:evenodd;stroke-linecap:round;stroke-linejoin:round;stroke-miterlimit:1.5;">
    <g id="Layer1" transform="matrix(1.23398,-2.71378e-16,-2.70493e-15,1.23179,6.32328,10.6088)">
        <rect x="0.91" y="-2.572" width="2207.94" height="2211.87" style="fill:rgb(59,82,73);"/>
    </g>
    <g transform="matrix(0.375914,0,0,0.383919,852.066,1139.16)">
        <text x="0px" y="0px" style="font-family:'AppleSDGothicNeo-Regular', 'Apple SD Gothic Neo';font-size:586.253px;fill:white;">i</text>
        <text x="133.079px" y="0px" style="font-family:'AppleSDGothicNeo-Heavy', 'Apple SD Gothic Neo';font-weight:900;font-size:586.253px;fill:white;">Mammalia</text>
    </g>
    <g transform="matrix(0.184429,0,0,0.186773,1796.66,1321.18)">
        <text x="0px" y="0px" style="font-family:'AppleSDGothicNeo-UltraLight', 'Apple SD Gothic Neo';font-weight:200;font-size:586.253px;fill:white;">1.0</text>
    </g>
    <g transform="matrix(1,0,0,1,17.2275,173.491)">
        <g transform="matrix(1,0,0,1,30.1027,-26.9483)">
            <rect x="870.655" y="2133.07" width="381.01" height="145.008" style="fill:none;stroke:black;stroke-width:8.5px;"/>
        </g>
        <g transform="matrix(1,0,0,1,24.1027,-42.9483)">
            <text x="924.067px" y="2253.52px" style="font-family:'AppleSDGothicNeo-Regular', 'Apple SD Gothic Neo';font-size:72px;fill:white;">SPONSOR</text>
        </g>
    </g>
    <g transform="matrix(1,0,0,1,532.248,173.592)">
        <g transform="matrix(1,0,0,1,30.1027,-26.9483)">
            <rect x="870.655" y="2133.07" width="381.01" height="145.008" style="fill:none;stroke:black;stroke-width:8.5px;"/>
        </g>
        <g transform="matrix(1,0,0,1,24.1027,-42.9483)">
            <text x="924.067px" y="2253.52px" style="font-family:'AppleSDGothicNeo-Regular', 'Apple SD Gothic Neo';font-size:72px;fill:white;">SPONSOR</text>
        </g>
    </g>
    <g transform="matrix(1,0,0,1,17.2275,378.491)">
        <g transform="matrix(1,0,0,1,30.1027,-26.9483)">
            <rect x="870.655" y="2133.07" width="381.01" height="145.008" style="fill:none;stroke:black;stroke-width:8.5px;"/>
        </g>
        <g transform="matrix(1,0,0,1,24.1027,-42.9483)">
            <text x="924.067px" y="2253.52px" style="font-family:'AppleSDGothicNeo-Regular', 'Apple SD Gothic Neo';font-size:72px;fill:white;">SPONSOR</text>
        </g>
    </g>
    <g transform="matrix(1,0,0,1,532.248,378.592)">
        <g transform="matrix(1,0,0,1,30.1027,-26.9483)">
            <rect x="870.655" y="2133.07" width="381.01" height="145.008" style="fill:none;stroke:black;stroke-width:8.5px;"/>
        </g>
        <g transform="matrix(1,0,0,1,24.1027,-42.9483)">
            <text x="924.067px" y="2253.52px" style="font-family:'AppleSDGothicNeo-Regular', 'Apple SD Gothic Neo';font-size:72px;fill:white;">SPONSOR</text>
        </g>
    </g>
</svg>
