<?xml version="1.0" encoding="iso-8859-1"?>
<!-- Generator: Adobe Illustrator 19.0.0, SVG Export Plug-In . SVG Version: 6.00 Build 0)  -->
<svg version="1.1" id="Layer_1" xmlns="http://www.w3.org/2000/svg" xmlns:xlink="http://www.w3.org/1999/xlink" x="0px" y="0px"
	 viewBox="0 0 512 512" style="enable-background:new 0 0 512 512;" xml:space="preserve">
<g>
	<g>
		<path d="M442.725,401.093c-5.279-5.292-17.826-19.368-27.774-42.203c-0.016-0.035-0.032-0.071-0.047-0.106
			c-8.06-19.12-26.636-31.46-47.398-31.46c-19.519,0-37.114,10.832-45.922,28.268c-2.103,4.162-0.432,9.241,3.73,11.343
			c4.162,2.103,9.24,0.432,11.343-3.73c5.918-11.717,17.739-18.996,30.849-18.996c14.003,0,26.528,8.359,31.905,21.295
			c0.05,0.12,0.101,0.238,0.156,0.353c11.32,25.885,25.868,41.879,31.609,47.566c0.24,0.238,0.494,0.46,0.761,0.669
			c8.504,6.606,13.382,16.552,13.382,27.289c0,19.046-15.495,34.541-34.541,34.541c-3.011,0-6.015-0.394-8.928-1.171
			c-0.388-0.105-0.784-0.18-1.183-0.227c-9.149-1.084-22.328-2.376-33.163-2.376c-10.772,0-23.781,1.281-32.796,2.355
			c-0.403,0.048-0.803,0.125-1.194,0.231c-2.935,0.789-5.961,1.19-8.994,1.19c-19.046,0-34.541-15.495-34.541-34.541
			c0-9.808,4.199-19.191,11.521-25.744c0.06-0.054,0.117-0.108,0.176-0.162c1.516-1.368,9.026-8.388,17.669-20.794
			c2.666-3.825,1.725-9.088-2.101-11.753c-3.826-2.666-9.088-1.727-11.754,2.101c-8.188,11.752-15.118,17.902-15.17,17.948
			c-0.098,0.086-0.195,0.173-0.288,0.262c-10.769,9.744-16.938,23.629-16.938,38.141c0,28.356,23.07,51.427,51.427,51.427
			c4.3,0,8.591-0.54,12.762-1.608c8.531-1.004,20.5-2.168,30.222-2.168c9.793,0,21.939,1.176,30.605,2.192
			c4.141,1.051,8.398,1.583,12.668,1.583c28.358,0,51.427-23.07,51.427-51.427C462.206,425.572,455.114,410.921,442.725,401.093z"/>
	</g>
</g>
<g>
	<g>
		<path d="M363.586,265.89c-1.864-15.74-8.243-30.088-17.959-40.398c-10.364-10.996-23.267-16.196-36.334-14.654
			c-25.977,3.078-43.889,32.781-39.928,66.214c1.864,15.74,8.243,30.088,17.959,40.398c9.166,9.728,20.318,14.921,31.813,14.921
			c1.501,0,3.011-0.089,4.521-0.267C349.635,329.027,367.546,299.323,363.586,265.89z M321.671,315.334
			c-7.624,0.91-15.455-2.459-22.058-9.464c-7.25-7.694-12.038-18.634-13.48-30.804c-2.817-23.775,8.699-45.509,25.145-47.457
			c0.814-0.097,1.629-0.144,2.445-0.144c6.833,0,13.715,3.35,19.613,9.608c7.25,7.693,12.038,18.634,13.48,30.804
			C349.633,291.652,338.118,313.386,321.671,315.334z"/>
	</g>
</g>
<g>
	<g>
		<path d="M295.234,334.121c-5.549-10.74-13.972-19.288-23.717-24.07c-10.593-5.198-21.501-5.439-30.712-0.679
			c-9.212,4.76-15.327,13.794-17.219,25.441c-1.74,10.715,0.357,22.531,5.906,33.271c9.024,17.469,25.266,28.071,40.498,28.071
			c4.832,0,9.566-1.067,13.931-3.323C302.046,383.467,307.121,357.13,295.234,334.121z M276.17,377.829
			c-9.684,5.001-24.192-3.008-31.676-17.495c-3.842-7.436-5.388-15.751-4.241-22.814c1.012-6.234,3.96-10.903,8.301-13.146
			c1.926-0.995,4.082-1.489,6.381-1.489c2.883,0,5.989,0.778,9.143,2.326c6.424,3.152,12.31,9.223,16.151,16.66
			C287.715,356.359,285.856,372.825,276.17,377.829z"/>
	</g>
</g>
<g>
	<g>
		<path d="M425.698,210.838c-13.062-1.54-25.97,3.656-36.334,14.654c-9.716,10.31-16.094,24.657-17.959,40.398
			c0,0.001,0,0.001,0,0.001c-3.96,33.432,13.951,63.134,39.928,66.213c1.511,0.178,3.018,0.267,4.521,0.267
			c11.494,0,22.647-5.194,31.813-14.921c9.716-10.31,16.094-24.657,17.959-40.399C469.586,243.619,451.674,213.916,425.698,210.838z
			 M448.856,275.065c-1.442,12.171-6.229,23.111-13.48,30.804c-6.603,7.007-14.429,10.374-22.058,9.464
			c-16.446-1.948-27.961-23.682-25.145-47.458c1.442-12.171,6.229-23.11,13.48-30.803c6.604-7.007,14.437-10.368,22.058-9.464
			C440.157,229.556,451.672,251.29,448.856,275.065z"/>
	</g>
</g>
<g>
	<g>
		<path d="M511.404,334.813c-1.891-11.647-8.006-20.682-17.219-25.441c-9.213-4.76-20.12-4.518-30.712,0.679
			c-9.746,4.782-18.169,13.33-23.717,24.07c-11.887,23.011-6.812,49.347,11.313,58.71c4.394,2.271,9.173,3.402,14.119,3.402
			c5.425,0,11.053-1.362,16.594-4.081c9.746-4.781,18.169-13.329,23.717-24.069C511.046,357.344,513.144,345.528,511.404,334.813z
			 M490.495,360.333c-3.841,7.436-9.729,13.508-16.151,16.659c-5.669,2.782-11.183,3.079-15.523,0.836
			c-9.686-5.004-11.545-21.469-4.061-35.957c3.841-7.436,9.729-13.508,16.151-16.66c3.154-1.548,6.262-2.326,9.143-2.326
			c2.299,0,4.455,0.495,6.38,1.489c4.341,2.243,7.289,6.911,8.301,13.146C495.882,344.582,494.337,352.897,490.495,360.333z"/>
	</g>
</g>
<g>
	<g>
		<path d="M140.521,74.511c0,0,0,0,0-0.001c-1.864-15.74-8.243-30.088-17.959-40.398c-10.364-10.999-23.267-16.196-36.334-14.654
			C60.25,22.535,42.339,52.239,46.3,85.672c1.864,15.742,8.242,30.088,17.958,40.398c9.167,9.728,20.318,14.921,31.814,14.921
			c1.502,0,3.011-0.089,4.521-0.267C126.569,137.646,144.481,107.943,140.521,74.511z M98.607,123.953
			c-7.621,0.91-15.456-2.459-22.058-9.464c-7.25-7.693-12.038-18.634-13.48-30.803c-2.817-23.776,8.698-45.51,25.145-47.458
			c0.814-0.097,1.629-0.144,2.445-0.144c6.833,0,13.715,3.35,19.613,9.608c7.25,7.693,12.038,18.634,13.48,30.803
			C126.569,100.272,115.054,122.006,98.607,123.953z"/>
	</g>
</g>
<g>
	<g>
		<path d="M72.169,142.74h0.001c-11.888-23.01-36.305-34.118-54.43-24.748c-18.125,9.363-23.2,35.701-11.313,58.711
			c5.549,10.74,13.972,19.288,23.717,24.069c5.541,2.719,11.168,4.081,16.594,4.081c4.945,0,9.726-1.133,14.119-3.402
			c9.211-4.76,15.326-13.795,17.217-25.44C79.815,165.296,77.718,153.48,72.169,142.74z M61.406,173.304
			c-1.012,6.233-3.96,10.902-8.301,13.144c-4.339,2.243-9.854,1.946-15.524-0.836c-6.424-3.151-12.31-9.222-16.151-16.659
			c-7.485-14.487-5.625-30.954,4.061-35.958c1.962-1.013,4.12-1.493,6.38-1.493c8.894,0,19.328,7.437,25.296,18.989
			C61.007,157.927,62.552,166.242,61.406,173.304z"/>
	</g>
</g>
<g>
	<g>
		<path d="M202.633,19.457c-13.07-1.541-25.97,3.655-36.334,14.654c-9.716,10.31-16.094,24.657-17.959,40.398
			c-3.96,33.433,13.951,63.135,39.928,66.214c1.511,0.178,3.018,0.267,4.521,0.267c11.495,0,22.648-5.194,31.813-14.921
			c9.716-10.31,16.094-24.657,17.959-40.398C246.521,52.239,228.61,22.535,202.633,19.457z M225.792,83.685
			c-1.442,12.172-6.229,23.111-13.48,30.804c-6.603,7.007-14.432,10.374-22.058,9.464c-16.447-1.948-27.962-23.682-25.145-47.457
			c1.442-12.171,6.229-23.111,13.48-30.804c5.899-6.259,12.779-9.608,19.613-9.608c0.816,0,1.632,0.047,2.445,0.144
			C217.093,38.177,228.609,59.91,225.792,83.685z"/>
	</g>
</g>
<g>
	<g>
		<path d="M288.34,143.431c-1.891-11.647-8.006-20.682-17.219-25.441c-9.213-4.759-20.12-4.518-30.712,0.679
			c-9.747,4.783-18.17,13.331-23.719,24.071c-11.887,23.01-6.812,49.347,11.313,58.71c4.367,2.256,9.098,3.324,13.932,3.324
			c15.231,0,31.474-10.606,40.498-28.072C287.982,165.963,290.079,154.147,288.34,143.431z M267.428,168.953
			c-7.483,14.487-21.992,22.495-31.676,17.496c-9.686-5.004-11.545-21.469-4.061-35.957c3.841-7.437,9.729-13.508,16.151-16.66
			c3.157-1.548,6.263-2.327,9.145-2.327c2.299,0,4.455,0.494,6.38,1.489c4.341,2.242,7.289,6.911,8.301,13.146
			C272.816,153.201,271.271,161.516,267.428,168.953z"/>
	</g>
</g>
<g>
	<g>
		<path d="M219.66,209.712c-5.28-5.293-17.828-19.371-27.774-42.203c-0.016-0.035-0.03-0.071-0.047-0.106
			c-8.06-19.12-26.637-31.46-47.399-31.46c-20.756,0-39.326,12.332-47.39,31.442c-0.019,0.042-0.037,0.083-0.055,0.125
			c-1.147,2.634-2.38,5.264-3.665,7.815c-2.097,4.164-0.422,9.24,3.742,11.339c4.164,2.097,9.243,0.423,11.34-3.742
			c1.387-2.753,2.719-5.587,3.962-8.429c0.057-0.12,0.111-0.244,0.163-0.368c5.378-12.936,17.902-21.295,31.905-21.295
			s26.528,8.359,31.906,21.295c0.049,0.12,0.101,0.238,0.156,0.352c11.318,25.881,25.867,41.878,31.608,47.565
			c0.24,0.239,0.494,0.462,0.762,0.67c8.504,6.606,13.382,16.552,13.382,27.289c0,19.046-15.495,34.541-34.541,34.541
			c-3.011,0-6.016-0.394-8.928-1.171c-0.388-0.105-0.784-0.18-1.183-0.227c-9.148-1.084-22.327-2.377-33.163-2.377
			c-10.771,0-23.78,1.281-32.796,2.355c-0.403,0.048-0.803,0.125-1.194,0.231c-2.935,0.789-5.961,1.19-8.994,1.19
			c-19.046,0-34.541-15.495-34.541-34.541c0-9.808,4.199-19.191,11.521-25.744c0.065-0.059,0.128-0.117,0.191-0.177
			c1.086-0.981,5.111-4.741,10.348-11.116c2.96-3.604,2.438-8.925-1.165-11.885c-3.604-2.961-8.925-2.437-11.884,1.165
			c-5.043,6.141-8.652,9.335-8.671,9.352c-0.101,0.089-0.202,0.18-0.298,0.272c-10.763,9.744-16.929,23.624-16.929,38.132
			c0,28.357,23.07,51.427,51.427,51.427c4.3,0,8.59-0.54,12.761-1.608c8.531-1.004,20.501-2.168,30.222-2.168
			c9.793,0,21.939,1.176,30.605,2.192c4.141,1.051,8.399,1.583,12.669,1.583c28.358,0,51.427-23.07,51.427-51.427
			C239.141,234.192,232.049,219.539,219.66,209.712z"/>
	</g>
</g>
<g>
</g>
<g>
</g>
<g>
</g>
<g>
</g>
<g>
</g>
<g>
</g>
<g>
</g>
<g>
</g>
<g>
</g>
<g>
</g>
<g>
</g>
<g>
</g>
<g>
</g>
<g>
</g>
<g>
</g>
</svg>
