<?xml version="1.0" encoding="UTF-8" standalone="yes"?>
<svg id="map2svg" xml:space="preserve" x="0" y="0" width="100%" viewBox="0 0 71000 59000" onload="setup(evt);" xmlns="http://www.w3.org/2000/svg" xmlns:xlink="http://www.w3.org/1999/xlink">
  
  <g id="map-matrix" transform="matrix(1 0 0 1 0 0)">
    <g id="datapoints" style="pointer-events:all" onmouseover="currentcoord(evt)" onmouseout="hideutm(evt)">
      <use id="32TQS2" x="37969.84" y="42200.53" xlink:href="#post70_1"/>
      <use id="33TTL3" x="38101.84" y="42701.39" xlink:href="#post70_1"/>
      <use id="33TUK3" x="38984.63" y="43721.35" xlink:href="#post70_1"/>
      <use id="33TUL3" x="39012.15" y="42726.81" xlink:href="#post70_1"/>
      <use id="33TUL4" x="38998.43" y="43223.96" xlink:href="#post70_1"/>
      <use id="33TUM4" x="39025.79" y="42229.87" xlink:href="#post70_1"/>
      <use id="33TUN4" x="39052.84" y="41236.55" xlink:href="#post70_1"/>
      <use id="33TVK3" x="39979.82" y="43748.48" xlink:href="#post70_1"/>
      <use id="33TVK4" x="39966.52" y="44246.25" xlink:href="#post70_1"/>
      <use id="33TVL1" x="39509.22" y="42740.38" xlink:href="#post70_1"/>
      <use id="33TVL2" x="39495.74" y="43237.59" xlink:href="#post70_1"/>
      <use id="33TVL3" x="40006.35" y="42753.73" xlink:href="#post70_1"/>
      <use id="33TVL4" x="39993.1" y="43250.98" xlink:href="#post70_1"/>
      <use id="33TVN2" x="39549.39" y="41249.94" xlink:href="#post70_1"/>
      <use id="33TVN4" x="40046" y="41263.19" xlink:href="#post70_1"/>
      <use id="33TWJ1" x="40451.47" y="44757.49" xlink:href="#post70_1"/>
      <use id="33TWJ3" x="40949.71" y="44770.33" xlink:href="#post70_1"/>
      <use id="33TWJ4" x="40937.07" y="45268.73" xlink:href="#post70_1"/>
      <use id="33TWK2" x="40464.47" y="44259.41" xlink:href="#post70_1"/>
      <use id="33TWM1" x="40529.56" y="41772.98" xlink:href="#post70_1"/>
      <use id="33TWM4" x="41013.45" y="42282.77" xlink:href="#post70_1"/>
      <use id="33TWN3" x="41052.16" y="40792.77" xlink:href="#post70_1"/>
      <use id="33TWN4" x="41039.22" y="41289.29" xlink:href="#post70_1"/>
      <use id="33TXH1" x="41423.4" y="45779.89" xlink:href="#post70_1"/>
      <use id="33TXH3" x="41922.29" y="45791.9" xlink:href="#post70_1"/>
      <use id="33TXJ2" x="41435.64" y="45281.18" xlink:href="#post70_1"/>
      <use id="33TXN1" x="41548.6" y="40805.68" xlink:href="#post70_1"/>
      <use id="33TXN3" x="42044.98" y="40818.48" xlink:href="#post70_1"/>
      <use id="33TYH1" x="42392.07" y="45802.84" xlink:href="#post70_1"/>
      <use id="33TYH2" x="42389.59" y="46301.99" xlink:href="#post70_1"/>
      <use id="33TYL1" x="42408.11" y="42815.15" xlink:href="#post70_1"/>
      <use id="33TYM1" x="42559.82" y="41824.94" xlink:href="#post70_1"/>
      <use id="33UVP2" x="39575.93" y="40257.01" xlink:href="#post70_1"/>
      <use id="33UWP1" x="40581.82" y="39786.94" xlink:href="#post70_1"/>
      <use id="33UWQ2" x="40594.92" y="39290.61" xlink:href="#post70_1"/>
      <use id="33UXP4" x="42057.78" y="40322.2" xlink:href="#post70_1"/>
      <use id="34SDJ4" x="45033.06" y="50202.32" xlink:href="#post70_1"/>
      <use id="34SDK2" x="44478.65" y="49223.31" xlink:href="#post70_1"/>
      <use id="34SEG3" x="46122.24" y="51660.52" xlink:href="#post70_1"/>
      <use id="34SEG4" x="46150.07" y="52165.94" xlink:href="#post70_1"/>
      <use id="34SEH2" x="45590.1" y="51183.2" xlink:href="#post70_1"/>
      <use id="34SEH3" x="46066.81" y="50651.83" xlink:href="#post70_1"/>
      <use id="34SEH4" x="46094.49" y="51155.83" xlink:href="#post70_1"/>
      <use id="34SFF1" x="46684.5" y="52643.77" xlink:href="#post70_1"/>
      <use id="34SFF3" x="47190.91" y="52614.64" xlink:href="#post70_1"/>
      <use id="34SFG2" x="46655.83" y="52137.7" xlink:href="#post70_1"/>
      <use id="34SFG3" x="47132.16" y="51603.5" xlink:href="#post70_1"/>
      <use id="34SFH1" x="46570.45" y="50623.86" xlink:href="#post70_1"/>
      <use id="34SFH2" x="46598.8" y="51127.77" xlink:href="#post70_1"/>
      <use id="34SFH4" x="47103" y="51099.01" xlink:href="#post70_1"/>
      <use id="34SFK2" x="46486.01" y="49116" xlink:href="#post70_1"/>
      <use id="34SGH2" x="47672.28" y="51065.71" xlink:href="#post70_1"/>
      <use id="34SGK2" x="47520.97" y="49057" xlink:href="#post70_1"/>
      <use id="34TBN4" x="42848.22" y="46295.93" xlink:href="#post70_1"/>
      <use id="34TBR4" x="42753.56" y="43307.78" xlink:href="#post70_1"/>
      <use id="34TCK3" x="43951.68" y="48747.1" xlink:href="#pre70_1"/>
      <use id="34TCL3" x="43901.39" y="47745.61" xlink:href="#pre70_1"/>
      <use id="34TCM1" x="43351.68" y="46771.21" xlink:href="#post70_1"/>
      <use id="34TCM3" x="43850.92" y="46746.16" xlink:href="#pre70_1"/>
      <use id="34TCM4" x="43876.17" y="47245.65" xlink:href="#post70_1"/>
      <use id="34TCN2" x="43326.82" y="46272.23" xlink:href="#pre70_1"/>
      <use id="34TCS3" x="43595.54" y="41771.38" xlink:href="#post70_1"/>
      <use id="34TDM1" x="44350.21" y="46720.65" xlink:href="#pre70_1"/>
      <use id="34TDQ1" x="44195.46" y="43731.96" xlink:href="#post70_1"/>
      <use id="34TDQ4" x="44718.72" y="44203.22" xlink:href="#post70_1"/>
      <use id="34TDT3" x="44535.66" y="40727.19" xlink:href="#post70_1"/>
      <use id="34TEM1" x="45348.81" y="46668.3" xlink:href="#post70_1"/>
      <use id="34TEM3" x="45848.07" y="46641.46" xlink:href="#post70_1"/>
      <use id="34TEN3" x="45794.07" y="45643.87" xlink:href="#post70_1"/>
      <use id="34TEP1" x="45242.61" y="44674.48" xlink:href="#post70_1"/>
      <use id="34TEP3" x="45740.31" y="44647.83" xlink:href="#post70_1"/>
      <use id="34TEP4" x="45767.15" y="45145.67" xlink:href="#post70_1"/>
      <use id="34TEQ2" x="45216.14" y="44176.92" xlink:href="#post70_1"/>
      <use id="34TEQ4" x="45713.52" y="44150.32" xlink:href="#post70_1"/>
      <use id="34TFK1" x="46458.06" y="48614.59" xlink:href="#post70_1"/>
      <use id="34TFL3" x="46902.5" y="47585.43" xlink:href="#post70_1"/>
      <use id="34TFN1" x="46292.42" y="45616.74" xlink:href="#post70_1"/>
      <use id="34TFN2" x="46319.8" y="46115.24" xlink:href="#post70_1"/>
      <use id="34TFN4" x="46818.47" y="46087.62" xlink:href="#post70_1"/>
      <use id="34TFP1" x="46237.95" y="44620.85" xlink:href="#post70_1"/>
      <use id="34TFP2" x="46265.15" y="45118.62" xlink:href="#post70_1"/>
      <use id="34TFP3" x="46735.51" y="44593.53" xlink:href="#post70_1"/>
      <use id="34TFP4" x="46763.04" y="45091.2" xlink:href="#post70_1"/>
      <use id="34TFQ2" x="46210.85" y="44123.41" xlink:href="#post70_1"/>
      <use id="34TGK1" x="47483.39" y="48556.33" xlink:href="#post70_1"/>
      <use id="34TGP1" x="47186.05" y="44568.52" xlink:href="#post70_1"/>
      <use id="34TGP2" x="47222.91" y="45065.55" xlink:href="#post70_1"/>
      <use id="34TGQ2" x="47149.26" y="44071.8" xlink:href="#post70_1"/>
      <use id="34UCU1" x="42995.99" y="39813.79" xlink:href="#post70_1"/>
      <use id="35SMB3" x="50439.18" y="51240.93" xlink:href="#post70_1"/>
      <use id="35TKE3" x="48029.06" y="48505.75" xlink:href="#post70_1"/>
      <use id="35TKF3" x="47918.88" y="47509.32" xlink:href="#post70_1"/>
      <use id="35TKG3" x="47808.7" y="46514.91" xlink:href="#post70_1"/>
      <use id="35TKG4" x="47863.79" y="47011.88" xlink:href="#post70_1"/>
      <use id="35TKH3" x="47698.5" y="45522.28" xlink:href="#post70_1"/>
      <use id="35TKJ4" x="47643.39" y="45026.57" xlink:href="#post70_1"/>
      <use id="35TLF1" x="48421.57" y="47444.61" xlink:href="#post70_1"/>
      <use id="35TLF2" x="48485.74" y="47941.51" xlink:href="#post70_1"/>
      <use id="35TLF3" x="48918.22" y="47380.15" xlink:href="#post70_1"/>
      <use id="35TLH1" x="48164.51" y="45461.86" xlink:href="#post70_1"/>
      <use id="35TLH3" x="48659.35" y="45397.31" xlink:href="#post70_1"/>
      <use id="35TLJ2" x="48100.14" y="44967.24" xlink:href="#post70_1"/>
      <use id="35TLJ4" x="48594.59" y="44902.67" xlink:href="#post70_1"/>
      <use id="35TMF1" x="49414.88" y="47315.2" xlink:href="#post70_1"/>
      <use id="35TMF2" x="49480.1" y="47812.1" xlink:href="#post70_1"/>
      <use id="35TMF3" x="49911.51" y="47249.74" xlink:href="#post70_1"/>
      <use id="35TMF4" x="49977.25" y="47746.6" xlink:href="#post70_1"/>
      <use id="35TMG2" x="49349.68" y="46818.81" xlink:href="#post70_1"/>
      <use id="35TMG3" x="49780.19" y="46257.5" xlink:href="#post70_1"/>
      <use id="35TMG4" x="49845.82" y="46753.39" xlink:href="#post70_1"/>
      <use id="35TMH1" x="49154.2" y="45332.37" xlink:href="#post70_1"/>
      <use id="35TMH3" x="49649.05" y="45267.04" xlink:href="#post70_1"/>
      <use id="35TMH4" x="49714.6" y="45762.06" xlink:href="#post70_1"/>
      <use id="35TMJ1" x="49023.94" y="44343.42" xlink:href="#post70_1"/>
      <use id="35TMJ2" x="49089.07" y="44837.71" xlink:href="#post70_1"/>
      <use id="35TMJ3" x="49518.06" y="44278.13" xlink:href="#post70_1"/>
      <use id="35TMJ4" x="49583.54" y="44772.4" xlink:href="#post70_1"/>
      <use id="35TMK2" x="48958.81" y="43849.47" xlink:href="#post70_1"/>
      <use id="35TMK4" x="49452.61" y="43784.18" xlink:href="#post70_1"/>
      <use id="35TML4" x="49321.79" y="42797.19" xlink:href="#post70_1"/>
      <use id="35TNF2" x="50474.34" y="47680.57" xlink:href="#post70_1"/>
      <use id="35TNG1" x="50275.83" y="46191.66" xlink:href="#post70_1"/>
      <use id="35TNG2" x="50341.93" y="46687.49" xlink:href="#post70_1"/>
      <use id="35TNG3" x="50771.4" y="46125.38" xlink:href="#post70_1"/>
      <use id="35TNG4" x="50837.94" y="46621.12" xlink:href="#post70_1"/>
      <use id="35TNH1" x="50143.86" y="45201.31" xlink:href="#post70_1"/>
      <use id="35TNH2" x="50209.81" y="45696.28" xlink:href="#post70_1"/>
      <use id="35TNH3" x="50638.61" y="45135.2" xlink:href="#post70_1"/>
      <use id="35TNH4" x="50704.95" y="45630.09" xlink:href="#post70_1"/>
      <use id="35TNJ1" x="50012.15" y="44212.5" xlink:href="#post70_1"/>
      <use id="35TNJ2" x="50077.97" y="44706.73" xlink:href="#post70_1"/>
      <use id="35TNJ3" x="50506.18" y="44146.54" xlink:href="#post70_1"/>
      <use id="35TNJ4" x="50572.34" y="44640.69" xlink:href="#post70_1"/>
      <use id="35TNK1" x="49880.67" y="43225" xlink:href="#post70_1"/>
      <use id="35TNL2" x="49815.01" y="42731.68" xlink:href="#post70_1"/>
      <use id="35TNM4" x="50176.57" y="41680.1" xlink:href="#post70_1"/>
      <use id="35TPF1" x="51400.99" y="47050.37" xlink:href="#pre70_1"/>
      <use id="35TPF3" x="51897.24" y="46982.93" xlink:href="#pre70_1"/>
      <use id="35TPJ2" x="51066.63" y="44574.31" xlink:href="#post70_1"/>
      <use id="35TPK2" x="50933.73" y="43586.52" xlink:href="#post70_1"/>
      <use id="35TPK3" x="51360.7" y="43026.73" xlink:href="#post70_1"/>
    </g>
    <defs>
      <circle id="post70_1" r="250" fill="#dc5107"/>
      <circle id="pre70_1" r="250" fill="darkgrey"/>
      <circle id="post70_2" r="250" stroke-width="40" fill="white" fill-opacity="0.1" stroke="red"/>
      <circle id="pre70_2" r="250" stroke-width="40" fill="white" fill-opacity="0.1" stroke="pink"/>
    </defs>
  </g>
</svg>