<?xml version="1.0" encoding="UTF-8" standalone="yes"?>
<svg id="map2svg" xml:space="preserve" x="0" y="0" width="100%" viewBox="0 0 71000 59000" onload="setup(evt);" xmlns="http://www.w3.org/2000/svg" xmlns:xlink="http://www.w3.org/1999/xlink">
  
  <g id="map-matrix" transform="matrix(1 0 0 1 0 0)">
    <g id="datapoints" style="pointer-events:all" onmouseover="currentcoord(evt)" onmouseout="hideutm(evt)">
      <use id="29SPB3" x="20739.58" y="48446.63" xlink:href="#post70_1"/>
      <use id="29SPC4" x="20907.35" y="47969.97" xlink:href="#post70_1"/>
      <use id="29SPD3" x="21409.84" y="46544" xlink:href="#post70_1"/>
      <use id="29SQB1" x="21286.1" y="48638.42" xlink:href="#post70_1"/>
      <use id="29SQC1" x="21604.5" y="47680.09" xlink:href="#post70_1"/>
      <use id="29SQD1" x="21922.27" y="46724.36" xlink:href="#post70_1"/>
      <use id="29SQD2" x="21763.47" y="47201.91" xlink:href="#post70_1"/>
      <use id="29TMH3" x="20864.71" y="42096.55" xlink:href="#post70_1"/>
      <use id="29TNF3" x="21134.15" y="44316.3" xlink:href="#post70_1"/>
      <use id="29TNF4" x="20966.17" y="44788.48" xlink:href="#post70_1"/>
      <use id="29TNG1" x="20998.79" y="43205.51" xlink:href="#post70_1"/>
      <use id="29TNG2" x="20830.61" y="43676.61" xlink:href="#post70_1"/>
      <use id="29TNG3" x="21469.74" y="43373.4" xlink:href="#post70_1"/>
      <use id="29TNG4" x="21302" y="43844.63" xlink:href="#post70_1"/>
      <use id="29TNH2" x="21166.82" y="42734.84" xlink:href="#post70_1"/>
      <use id="29TNH3" x="21804.87" y="42432.25" xlink:href="#post70_1"/>
      <use id="29TNH4" x="21637.35" y="42902.62" xlink:href="#post70_1"/>
      <use id="29TNJ4" x="21972.29" y="41962.25" xlink:href="#post70_1"/>
      <use id="29TPF1" x="21606.14" y="44483.98" xlink:href="#post70_1"/>
      <use id="29TPF2" x="21438.67" y="44956.28" xlink:href="#post70_1"/>
      <use id="29TPF3" x="22078.23" y="44651.15" xlink:href="#post70_1"/>
      <use id="29TPG1" x="21940.79" y="43540.86" xlink:href="#post70_1"/>
      <use id="29TPG2" x="21773.52" y="44012.19" xlink:href="#post70_1"/>
      <use id="29TPG3" x="22411.93" y="43707.88" xlink:href="#post70_1"/>
      <use id="29TPG4" x="22245.12" y="44179.27" xlink:href="#post70_1"/>
      <use id="29TPH1" x="22275.1" y="42599.52" xlink:href="#post70_1"/>
      <use id="29TPH2" x="22107.99" y="43069.98" xlink:href="#post70_1"/>
      <use id="29TPH3" x="22745.4" y="42766.41" xlink:href="#post70_1"/>
      <use id="29TPH4" x="22578.69" y="43236.93" xlink:href="#post70_1"/>
      <use id="29TPJ2" x="22442.16" y="42129.46" xlink:href="#post70_1"/>
      <use id="29TPJ4" x="22912.07" y="42296.29" xlink:href="#post70_1"/>
      <use id="29TQE1" x="22239.47" y="45771.01" xlink:href="#post70_1"/>
      <use id="29TQF1" x="22556.17" y="44819.85" xlink:href="#post70_1"/>
      <use id="29TQG1" x="22872.45" y="43870.66" xlink:href="#post70_1"/>
      <use id="29TQG2" x="22714.36" y="44345.03" xlink:href="#post70_1"/>
      <use id="29TQH1" x="23188.37" y="42923.22" xlink:href="#post70_1"/>
      <use id="29TQH2" x="23030.44" y="43396.73" xlink:href="#post70_1"/>
      <use id="29TQJ2" x="23346.22" y="42450.09" xlink:href="#post70_1"/>
      <use id="30STH4" x="22051.43" y="48348.86" xlink:href="#post70_1"/>
      <use id="30SUG1" x="22466.75" y="48987.97" xlink:href="#post70_1"/>
      <use id="30SUH1" x="22735.11" y="48014.32" xlink:href="#post70_1"/>
      <use id="30SUH2" x="22601.06" y="48500.82" xlink:href="#post70_1"/>
      <use id="30SUH3" x="23221.43" y="48147.92" xlink:href="#post70_1"/>
      <use id="30SUH4" x="23088.02" y="48634.68" xlink:href="#post70_1"/>
      <use id="30SVH1" x="23707.99" y="48280.89" xlink:href="#post70_1"/>
      <use id="30SVH2" x="23575.24" y="48767.88" xlink:href="#post70_1"/>
      <use id="30SVH3" x="24194.78" y="48413.23" xlink:href="#post70_1"/>
      <use id="30SVH4" x="24062.66" y="48900.42" xlink:href="#post70_1"/>
      <use id="30TTL3" x="23045.26" y="44973.14" xlink:href="#post70_1"/>
      <use id="30TTM3" x="23327.34" y="44013.24" xlink:href="#post70_1"/>
      <use id="30TTM4" x="23186.39" y="44492.98" xlink:href="#post70_1"/>
      <use id="30TTN3" x="23608.73" y="43054.97" xlink:href="#post70_1"/>
      <use id="30TTN4" x="23468.12" y="43533.92" xlink:href="#post70_1"/>
      <use id="30TUK3" x="23752.7" y="46206.9" xlink:href="#post70_1"/>
      <use id="30TUL1" x="23533.98" y="45107.43" xlink:href="#post70_1"/>
      <use id="30TUM1" x="23798.39" y="44142.43" xlink:href="#post70_1"/>
      <use id="30TUM2" x="23666.29" y="44624.71" xlink:href="#post70_1"/>
      <use id="30TUM3" x="24280.57" y="44274.22" xlink:href="#post70_1"/>
      <use id="30TUM4" x="24148.9" y="44756.7" xlink:href="#post70_1"/>
      <use id="30TUN1" x="24061.95" y="43179.06" xlink:href="#post70_1"/>
      <use id="30TUN2" x="23930.27" y="43660.56" xlink:href="#post70_1"/>
      <use id="30TUN3" x="24543.37" y="43310.46" xlink:href="#post70_1"/>
      <use id="30TUN4" x="24412.06" y="43792.14" xlink:href="#post70_1"/>
      <use id="30TVL2" x="24368.71" y="45854.93" xlink:href="#post70_1"/>
      <use id="30TVL3" x="24983.72" y="45502.61" xlink:href="#post70_1"/>
      <use id="30TVM1" x="24762.94" y="44405.59" xlink:href="#post70_1"/>
      <use id="30TVM2" x="24631.7" y="44888.25" xlink:href="#post70_1"/>
      <use id="30TVM3" x="25245.46" y="44536.54" xlink:href="#post70_1"/>
      <use id="30TVM4" x="25114.66" y="45019.35" xlink:href="#post70_1"/>
      <use id="30TVN1" x="25024.95" y="43441.51" xlink:href="#post70_1"/>
      <use id="30TVN2" x="24894.03" y="43923.35" xlink:href="#post70_1"/>
      <use id="30TVN3" x="25506.69" y="43572.19" xlink:href="#post70_1"/>
      <use id="30TVN4" x="25376.14" y="44054.16" xlink:href="#post70_1"/>
      <use id="30TVP4" x="25637.13" y="43090.59" xlink:href="#post70_1"/>
      <use id="30TWL4" x="25820.9" y="46247.65" xlink:href="#post70_1"/>
      <use id="30TWM1" x="25728.12" y="44667.07" xlink:href="#post70_1"/>
      <use id="30TWM2" x="25597.76" y="45149.99" xlink:href="#post70_1"/>
      <use id="30TWM3" x="26210.88" y="44797.16" xlink:href="#post70_1"/>
      <use id="30TWN1" x="25988.53" y="43702.5" xlink:href="#post70_1"/>
      <use id="30TWN3" x="26470.47" y="43832.42" xlink:href="#post70_1"/>
      <use id="30TXL2" x="26305.19" y="46377.52" xlink:href="#post70_1"/>
      <use id="30TXM1" x="26693.71" y="44926.8" xlink:href="#post70_1"/>
      <use id="30TXM2" x="26564.27" y="45409.89" xlink:href="#post70_1"/>
      <use id="32TLP1" x="33686.59" y="44248.81" xlink:href="#post70_1"/>
      <use id="32TLP3" x="34182.01" y="44302.36" xlink:href="#post70_1"/>
      <use id="32TLQ2" x="33740.22" y="43753.63" xlink:href="#post70_1"/>
      <use id="32TMQ3" x="35278.49" y="43417.85" xlink:href="#post70_1"/>
      <use id="32TMQ4" x="35225.83" y="43913" xlink:href="#post70_1"/>
      <use id="32TNQ1" x="35773.53" y="43470.34" xlink:href="#post70_1"/>
      <use id="32TNQ2" x="35721.17" y="43965.53" xlink:href="#post70_1"/>
      <use id="32TNQ3" x="36268.58" y="43522.55" xlink:href="#post70_1"/>
      <use id="32TNQ4" x="36216.51" y="44017.75" xlink:href="#post70_1"/>
      <use id="32TPN1" x="36556.75" y="45557.15" xlink:href="#post70_1"/>
      <use id="32TPN3" x="37053.12" y="45608.6" xlink:href="#post70_1"/>
      <use id="32TPN4" x="37001.89" y="46105.15" xlink:href="#post70_1"/>
      <use id="32TPP1" x="36660.12" y="44565.14" xlink:href="#post70_1"/>
      <use id="32TPP2" x="36608.42" y="45060.96" xlink:href="#post70_1"/>
      <use id="32TPP3" x="37155.75" y="44616.68" xlink:href="#post70_1"/>
      <use id="32TPP4" x="37104.4" y="45112.46" xlink:href="#post70_1"/>
      <use id="32TPQ2" x="36711.85" y="44069.66" xlink:href="#post70_1"/>
      <use id="32TPQ4" x="37207.16" y="44121.26" xlink:href="#post70_1"/>
      <use id="32TQM1" x="37436.61" y="46651.89" xlink:href="#post70_1"/>
      <use id="32TQN1" x="37520.56" y="45656.69" xlink:href="#post70_1"/>
      <use id="32TQN2" x="37478.57" y="46154.08" xlink:href="#post70_1"/>
      <use id="32TQP1" x="37604.59" y="44663.08" xlink:href="#post70_1"/>
      <use id="32TQP2" x="37562.56" y="45159.7" xlink:href="#post70_1"/>
      <use id="32VNR2" x="37947.24" y="23048.47" xlink:href="#post70_1"/>
      <use id="32VNR4" x="38458.3" y="23103.89" xlink:href="#post70_1"/>
      <use id="32VPK3" x="38857.78" y="28772.17" xlink:href="#post70_1"/>
      <use id="32VPL3" x="38924.36" y="27765.35" xlink:href="#post70_1"/>
      <use id="32VPM1" x="38574.36" y="26708.97" xlink:href="#post70_1"/>
      <use id="32VPM2" x="38518.84" y="27212.05" xlink:href="#post70_1"/>
      <use id="32VPN1" x="38745.79" y="25706.8" xlink:href="#post70_1"/>
      <use id="32VPN2" x="38701.28" y="26212.91" xlink:href="#post70_1"/>
      <use id="32VPP1" x="38835.19" y="24691.6" xlink:href="#post70_1"/>
      <use id="32VPP2" x="38790.42" y="25199.7" xlink:href="#post70_1"/>
      <use id="33SWC4" x="40787.66" y="51285.93" xlink:href="#post70_1"/>
      <use id="33SWD3" x="40824.65" y="49774.09" xlink:href="#post70_1"/>
      <use id="33SWD4" x="40812.3" y="50277.38" xlink:href="#post70_1"/>
      <use id="33SWE4" x="40837.03" y="49271.4" xlink:href="#post70_1"/>
      <use id="33SXC1" x="41304.24" y="50793.31" xlink:href="#post70_1"/>
      <use id="33SXD1" x="41327.63" y="49786.15" xlink:href="#post70_1"/>
      <use id="33SXD2" x="41315.91" y="50289.4" xlink:href="#post70_1"/>
      <use id="33SXD4" x="41819.46" y="50300.78" xlink:href="#post70_1"/>
      <use id="33SXE2" x="41339.41" y="49283.49" xlink:href="#post70_1"/>
      <use id="33TTG3" x="37912.29" y="46683.34" xlink:href="#post70_1"/>
      <use id="33TTH3" x="37960.12" y="45685.76" xlink:href="#post70_1"/>
      <use id="33TTH4" x="37936.24" y="46184.35" xlink:href="#post70_1"/>
      <use id="33TTJ3" x="38007.65" y="44689.73" xlink:href="#post70_1"/>
      <use id="33TTJ4" x="37983.92" y="45187.56" xlink:href="#post70_1"/>
      <use id="33TUG1" x="38400.51" y="46697.98" xlink:href="#post70_1"/>
      <use id="33TUG2" x="38385.69" y="47197.8" xlink:href="#post70_1"/>
      <use id="33TUG3" x="38900.17" y="46712.52" xlink:href="#post70_1"/>
      <use id="33TUG4" x="38885.81" y="47212.44" xlink:href="#post70_1"/>
      <use id="33TUH1" x="38429.82" y="45699.63" xlink:href="#post70_1"/>
      <use id="33TUH2" x="38415.22" y="46198.6" xlink:href="#post70_1"/>
      <use id="33TUH3" x="38928.64" y="45713.99" xlink:href="#post70_1"/>
      <use id="33TUH4" x="38914.44" y="46213.04" xlink:href="#post70_1"/>
      <use id="33TUJ2" x="38444.31" y="45201.06" xlink:href="#post70_1"/>
      <use id="33TVF1" x="39372.06" y="47727.07" xlink:href="#post70_1"/>
      <use id="33TVF3" x="39872.79" y="47740.8" xlink:href="#post70_1"/>
      <use id="33TVF4" x="39859.3" y="48241.81" xlink:href="#post70_1"/>
      <use id="33TVG1" x="39399.91" y="46726.62" xlink:href="#post70_1"/>
      <use id="33TVG2" x="39386.01" y="47226.61" xlink:href="#post70_1"/>
      <use id="33TVG4" x="39886.26" y="47240.3" xlink:href="#post70_1"/>
      <use id="33TVK3" x="39979.82" y="43748.48" xlink:href="#post70_1"/>
      <use id="33TVL1" x="39509.22" y="42740.38" xlink:href="#post70_1"/>
      <use id="33TVL3" x="40006.35" y="42753.73" xlink:href="#post70_1"/>
      <use id="33TVL4" x="39993.1" y="43250.98" xlink:href="#post70_1"/>
      <use id="33TWE1" x="40347.6" y="48756.6" xlink:href="#post70_1"/>
      <use id="33TWE3" x="40849.44" y="48769.3" xlink:href="#post70_1"/>
      <use id="33TWF1" x="40373.56" y="47754.03" xlink:href="#post70_1"/>
      <use id="33TWF2" x="40360.58" y="48255.05" xlink:href="#post70_1"/>
      <use id="33TWF4" x="40861.87" y="48267.76" xlink:href="#post70_1"/>
      <use id="33TWG2" x="40386.54" y="47253.52" xlink:href="#post70_1"/>
      <use id="33TWJ1" x="40451.47" y="44757.49" xlink:href="#post70_1"/>
      <use id="33TWJ3" x="40949.71" y="44770.33" xlink:href="#post70_1"/>
      <use id="33TWK1" x="40477.47" y="43761.63" xlink:href="#post70_1"/>
      <use id="33TWK2" x="40464.47" y="44259.41" xlink:href="#post70_1"/>
      <use id="33TWK3" x="40975.1" y="43774.49" xlink:href="#post70_1"/>
      <use id="33TWK4" x="40962.39" y="44272.25" xlink:href="#post70_1"/>
      <use id="33TWL1" x="40503.5" y="42766.87" xlink:href="#post70_1"/>
      <use id="33TWL2" x="40490.47" y="43264.12" xlink:href="#post70_1"/>
      <use id="33TXE1" x="41351.24" y="48781.44" xlink:href="#post70_1"/>
      <use id="33TXH3" x="41922.29" y="45791.9" xlink:href="#post70_1"/>
      <use id="33TXJ1" x="41447.93" y="44782.81" xlink:href="#post70_1"/>
      <use id="33TXJ2" x="41435.64" y="45281.18" xlink:href="#post70_1"/>
      <use id="33TXJ3" x="41946.09" y="44794.97" xlink:href="#post70_1"/>
      <use id="33TXJ4" x="41934.14" y="45293.25" xlink:href="#post70_1"/>
      <use id="33TXK1" x="41472.7" y="43787.08" xlink:href="#post70_1"/>
      <use id="33TXK2" x="41460.28" y="44284.79" xlink:href="#post70_1"/>
      <use id="33TXK3" x="41970.24" y="43799.39" xlink:href="#post70_1"/>
      <use id="33TXK4" x="41958.12" y="44297.03" xlink:href="#post70_1"/>
      <use id="33TXN4" x="42032.28" y="41314.86" xlink:href="#post70_1"/>
      <use id="33TYH1" x="42392.07" y="45802.84" xlink:href="#post70_1"/>
      <use id="33TYJ1" x="42397.2" y="44805.69" xlink:href="#post70_1"/>
      <use id="33TYJ2" x="42394.6" y="45304.08" xlink:href="#post70_1"/>
      <use id="33UVU3" x="40216.11" y="34807.37" xlink:href="#post70_1"/>
      <use id="33UVV3" x="40242.1" y="33811.83" xlink:href="#post70_1"/>
      <use id="33UVV4" x="40229.11" y="34309.75" xlink:href="#post70_1"/>
      <use id="33UWU2" x="40700.32" y="35317.85" xlink:href="#post70_1"/>
      <use id="33UWU3" x="41211.04" y="34833.93" xlink:href="#post70_1"/>
      <use id="33UWU4" x="41197.51" y="35331.22" xlink:href="#post70_1"/>
      <use id="33UXP3" x="42070.68" y="39826.01" xlink:href="#post70_1"/>
      <use id="33UXU1" x="41708.44" y="34847.61" xlink:href="#post70_1"/>
      <use id="33UXU2" x="41694.66" y="35344.83" xlink:href="#post70_1"/>
      <use id="33VUG3" x="39410.41" y="26764.25" xlink:href="#post70_1"/>
      <use id="33VUG4" x="39399.2" y="27270.26" xlink:href="#post70_1"/>
      <use id="33VUH3" x="39372.43" y="25748.24" xlink:href="#post70_1"/>
      <use id="33VUH4" x="39349.9" y="26255.8" xlink:href="#post70_1"/>
      <use id="33VUJ3" x="39417.47" y="24730.11" xlink:href="#post70_1"/>
      <use id="33VUJ4" x="39394.95" y="25239.68" xlink:href="#post70_1"/>
      <use id="33VVG1" x="39916.89" y="26775.85" xlink:href="#post70_1"/>
      <use id="33VVG2" x="39904.82" y="27281.94" xlink:href="#post70_1"/>
      <use id="33VVG3" x="40423.42" y="26788.35" xlink:href="#post70_1"/>
      <use id="33VVH1" x="39940.9" y="25760.99" xlink:href="#post70_1"/>
      <use id="33VVH2" x="39928.92" y="26268.9" xlink:href="#post70_1"/>
      <use id="33VVH3" x="40449.3" y="25773.44" xlink:href="#post70_1"/>
      <use id="33VVH4" x="40436.36" y="26281.36" xlink:href="#post70_1"/>
      <use id="33VVJ1" x="39964.74" y="24742.22" xlink:href="#post70_1"/>
      <use id="33VVJ2" x="39952.84" y="25252.12" xlink:href="#post70_1"/>
      <use id="33VVJ4" x="40462.24" y="25264.55" xlink:href="#post70_1"/>
      <use id="33VVK2" x="39976.58" y="24231.24" xlink:href="#post70_1"/>
      <use id="33VVK4" x="40488.13" y="24243.63" xlink:href="#post70_1"/>
      <use id="33VWG1" x="40929.95" y="26801.73" xlink:href="#post70_1"/>
      <use id="33VWH1" x="40957.69" y="25786.88" xlink:href="#post70_1"/>
      <use id="33VWH2" x="40943.8" y="26294.77" xlink:href="#post70_1"/>
      <use id="33VWH3" x="41466.04" y="25801.28" xlink:href="#post70_1"/>
      <use id="33VWH4" x="41451.19" y="26309.11" xlink:href="#post70_1"/>
      <use id="33VWJ1" x="40985.63" y="24768.11" xlink:href="#post70_1"/>
      <use id="33VWJ2" x="40971.64" y="25278" xlink:href="#post70_1"/>
      <use id="33VWK1" x="41013.79" y="23745.04" xlink:href="#post70_1"/>
      <use id="33VWK2" x="40999.69" y="24257.14" xlink:href="#post70_1"/>
      <use id="33VWK3" x="41526.43" y="23759.76" xlink:href="#post70_1"/>
      <use id="33VWK4" x="41511.17" y="24271.78" xlink:href="#post70_1"/>
      <use id="33WWP4" x="41636.47" y="20139.76" xlink:href="#post70_1"/>
      <use id="34SDJ3" x="45006.79" y="49699.54" xlink:href="#post70_1"/>
      <use id="34SDJ4" x="45033.06" y="50202.32" xlink:href="#post70_1"/>
      <use id="34SDK2" x="44478.65" y="49223.31" xlink:href="#post70_1"/>
      <use id="34SDK4" x="44980.54" y="49197.36" xlink:href="#post70_1"/>
      <use id="34SEJ1" x="45509.27" y="49672.97" xlink:href="#post70_1"/>
      <use id="34SEJ2" x="45536.16" y="50175.72" xlink:href="#post70_1"/>
      <use id="34SEJ3" x="46011.7" y="49645.79" xlink:href="#post70_1"/>
      <use id="34SEJ4" x="46039.21" y="50148.49" xlink:href="#post70_1"/>
      <use id="34SEK2" x="45482.41" y="49170.82" xlink:href="#post70_1"/>
      <use id="34SEK4" x="45984.25" y="49143.7" xlink:href="#post70_1"/>
      <use id="34SFJ2" x="46542.19" y="50120.61" xlink:href="#post70_1"/>
      <use id="34SFJ3" x="47016.3" y="49589.59" xlink:href="#post70_1"/>
      <use id="34SFK2" x="46486.01" y="49116" xlink:href="#post70_1"/>
      <use id="34SGK2" x="47520.97" y="49057" xlink:href="#post70_1"/>
      <use id="34TBN3" x="42832.55" y="45797.02" xlink:href="#post70_1"/>
      <use id="34TBN4" x="42848.22" y="46295.93" xlink:href="#post70_1"/>
      <use id="34TBP3" x="42801.09" y="44800.36" xlink:href="#post70_1"/>
      <use id="34TBP4" x="42816.85" y="45298.5" xlink:href="#post70_1"/>
      <use id="34TBQ4" x="42785.3" y="44302.53" xlink:href="#post70_1"/>
      <use id="34TCM4" x="43876.17" y="47245.65" xlink:href="#post70_1"/>
      <use id="34TCN1" x="43301.88" y="45773.68" xlink:href="#post70_1"/>
      <use id="34TCN2" x="43326.82" y="46272.23" xlink:href="#post70_1"/>
      <use id="34TCN3" x="43800.27" y="45748.5" xlink:href="#post70_1"/>
      <use id="34TCN4" x="43825.62" y="46247.12" xlink:href="#post70_1"/>
      <use id="34TCP1" x="43251.76" y="44777.72" xlink:href="#post70_1"/>
      <use id="34TCP2" x="43276.86" y="45275.52" xlink:href="#post70_1"/>
      <use id="34TCP3" x="43749.42" y="44752.42" xlink:href="#post70_1"/>
      <use id="34TCP4" x="43774.87" y="45250.28" xlink:href="#post70_1"/>
      <use id="34TCQ2" x="43226.58" y="44280.28" xlink:href="#post70_1"/>
      <use id="34TCS2" x="43125.02" y="42293.3" xlink:href="#post70_1"/>
      <use id="34TCS4" x="43621.34" y="42267.63" xlink:href="#post70_1"/>
      <use id="34TDK1" x="44452.99" y="48721.71" xlink:href="#post70_1"/>
      <use id="34TDK3" x="44954.31" y="48695.76" xlink:href="#post70_1"/>
      <use id="34TDL1" x="44401.63" y="47720.17" xlink:href="#post70_1"/>
      <use id="34TDL3" x="44901.88" y="47694.23" xlink:href="#post70_1"/>
      <use id="34TDL4" x="44928.09" y="48194.73" xlink:href="#post70_1"/>
      <use id="34TDM1" x="44350.21" y="46720.65" xlink:href="#post70_1"/>
      <use id="34TDM3" x="44849.51" y="46694.7" xlink:href="#post70_1"/>
      <use id="34TDM4" x="44875.69" y="47194.23" xlink:href="#post70_1"/>
      <use id="34TDN1" x="44298.71" y="45722.93" xlink:href="#post70_1"/>
      <use id="34TDN2" x="44324.47" y="46221.58" xlink:href="#post70_1"/>
      <use id="34TDN3" x="44797.18" y="45696.97" xlink:href="#post70_1"/>
      <use id="34TDN4" x="44823.35" y="46195.62" xlink:href="#pre70_1"/>
      <use id="34TDP1" x="44247.14" y="44726.78" xlink:href="#post70_1"/>
      <use id="34TDP2" x="44272.94" y="45224.67" xlink:href="#post70_1"/>
      <use id="34TDP3" x="44744.87" y="44700.79" xlink:href="#post70_1"/>
      <use id="34TDP4" x="44771.03" y="45198.7" xlink:href="#post70_1"/>
      <use id="34TDQ3" x="44692.58" y="43705.96" xlink:href="#post70_1"/>
      <use id="34TEK1" x="45455.61" y="48669.26" xlink:href="#post70_1"/>
      <use id="34TEK3" x="45956.87" y="48642.2" xlink:href="#post70_1"/>
      <use id="34TEL1" x="45402.13" y="47667.78" xlink:href="#post70_1"/>
      <use id="34TEL2" x="45428.85" y="48168.26" xlink:href="#post70_1"/>
      <use id="34TEL4" x="45929.56" y="48141.25" xlink:href="#post70_1"/>
      <use id="34TEM1" x="45348.81" y="46668.3" xlink:href="#post70_1"/>
      <use id="34TEM2" x="45375.45" y="47167.81" xlink:href="#post70_1"/>
      <use id="34TEM3" x="45848.07" y="46641.46" xlink:href="#post70_1"/>
      <use id="34TEM4" x="45875.16" y="47140.91" xlink:href="#post70_1"/>
      <use id="34TEN1" x="45295.64" y="45670.62" xlink:href="#post70_1"/>
      <use id="34TEN2" x="45322.2" y="46169.25" xlink:href="#post70_1"/>
      <use id="34TEN3" x="45794.07" y="45643.87" xlink:href="#post70_1"/>
      <use id="34TEN4" x="45821.03" y="46142.45" xlink:href="#post70_1"/>
      <use id="34TEP1" x="45242.61" y="44674.48" xlink:href="#post70_1"/>
      <use id="34TEP2" x="45269.1" y="45172.37" xlink:href="#post70_1"/>
      <use id="34TEP3" x="45740.31" y="44647.83" xlink:href="#post70_1"/>
      <use id="34TEP4" x="45767.15" y="45145.67" xlink:href="#post70_1"/>
      <use id="34TEQ1" x="45189.7" y="43679.68" xlink:href="#post70_1"/>
      <use id="34TEQ4" x="45713.52" y="44150.32" xlink:href="#post70_1"/>
      <use id="34TER1" x="45136.92" y="42685.98" xlink:href="#pre70_1"/>
      <use id="34TER2" x="45163.29" y="43182.7" xlink:href="#post70_1"/>
      <use id="34TER3" x="45633.52" y="42659.5" xlink:href="#post70_1"/>
      <use id="34TET3" x="45527.6" y="40674.65" xlink:href="#post70_1"/>
      <use id="34TET4" x="45554.01" y="41170.63" xlink:href="#pre70_1"/>
      <use id="34TFK1" x="46458.06" y="48614.59" xlink:href="#post70_1"/>
      <use id="34TFL1" x="46402.47" y="47613.37" xlink:href="#post70_1"/>
      <use id="34TFL2" x="46430.22" y="48113.72" xlink:href="#post70_1"/>
      <use id="34TFL3" x="46902.5" y="47585.43" xlink:href="#post70_1"/>
      <use id="34TFL4" x="46930.76" y="48085.66" xlink:href="#post70_1"/>
      <use id="34TFM1" x="46347.25" y="46614.17" xlink:href="#post70_1"/>
      <use id="34TFM2" x="46374.82" y="47113.54" xlink:href="#post70_1"/>
      <use id="34TFM3" x="46846.36" y="46586.44" xlink:href="#post70_1"/>
      <use id="34TFM4" x="46874.37" y="47085.7" xlink:href="#post70_1"/>
      <use id="34TFN1" x="46292.42" y="45616.74" xlink:href="#post70_1"/>
      <use id="34TFN2" x="46319.8" y="46115.24" xlink:href="#post70_1"/>
      <use id="34TFN3" x="46790.69" y="45589.22" xlink:href="#post70_1"/>
      <use id="34TFN4" x="46818.47" y="46087.62" xlink:href="#post70_1"/>
      <use id="34TFP1" x="46237.95" y="44620.85" xlink:href="#post70_1"/>
      <use id="34TFP2" x="46265.15" y="45118.62" xlink:href="#post70_1"/>
      <use id="34TFP4" x="46763.04" y="45091.2" xlink:href="#post70_1"/>
      <use id="34TFQ1" x="46183.83" y="43626.28" xlink:href="#pre70_1"/>
      <use id="34TFQ2" x="46210.85" y="44123.41" xlink:href="#post70_1"/>
      <use id="34TFQ3" x="46680.78" y="43599.17" xlink:href="#post70_1"/>
      <use id="34TFS4" x="46599.56" y="42109.59" xlink:href="#post70_1"/>
      <use id="34TFT4" x="46545.97" y="41117.52" xlink:href="#post70_1"/>
      <use id="34TGK1" x="47483.39" y="48556.33" xlink:href="#post70_1"/>
      <use id="34TGL1" x="47408.52" y="47556.63" xlink:href="#post70_1"/>
      <use id="34TGL2" x="47445.91" y="48056.22" xlink:href="#post70_1"/>
      <use id="34TGM1" x="47334.02" y="46558.91" xlink:href="#post70_1"/>
      <use id="34TGM2" x="47371.23" y="47057.54" xlink:href="#post70_1"/>
      <use id="34TGN1" x="47259.87" y="45562.94" xlink:href="#post70_1"/>
      <use id="34TGN2" x="47296.9" y="46060.72" xlink:href="#post70_1"/>
      <use id="34TGQ1" x="47112.55" y="43575.39" xlink:href="#post70_1"/>
      <use id="34TGQ2" x="47149.26" y="44071.8" xlink:href="#post70_1"/>
      <use id="34TGR2" x="47075.92" y="43079.25" xlink:href="#post70_1"/>
      <use id="34TGT1" x="47020.5" y="40594.77" xlink:href="#pre70_1"/>
      <use id="34UCA1" x="42823.03" y="37834.88" xlink:href="#post70_1"/>
      <use id="34UCA4" x="43413.05" y="38300.56" xlink:href="#post70_1"/>
      <use id="34UCB4" x="43360.23" y="37308.97" xlink:href="#post70_1"/>
      <use id="34UCD1" x="42723.08" y="34855.01" xlink:href="#post70_1"/>
      <use id="34UCD3" x="43226.64" y="34827.56" xlink:href="#post70_1"/>
      <use id="34UCE4" x="43199.64" y="34330.61" xlink:href="#post70_1"/>
      <use id="34UCU3" x="43491.7" y="39787.71" xlink:href="#post70_1"/>
      <use id="34UCU4" x="43517.76" y="40283.48" xlink:href="#post70_1"/>
      <use id="34UCV1" x="42943.68" y="38822.54" xlink:href="#post70_1"/>
      <use id="34UCV2" x="42969.89" y="39318.15" xlink:href="#post70_1"/>
      <use id="34UCV3" x="43439.34" y="38796.28" xlink:href="#post70_1"/>
      <use id="34UCV4" x="43465.56" y="39291.98" xlink:href="#post70_1"/>
      <use id="34UDA2" x="43908.83" y="38274.25" xlink:href="#post70_1"/>
      <use id="34UDA3" x="44378.4" y="37752.13" xlink:href="#post70_1"/>
      <use id="34UDA4" x="44404.65" y="38247.99" xlink:href="#post70_1"/>
      <use id="34UDE3" x="44167.54" y="33779.73" xlink:href="#post70_1"/>
      <use id="34UDE4" x="44194" y="34277.11" xlink:href="#post70_1"/>
      <use id="34UDF2" x="43643.15" y="33308.7" xlink:href="#post70_1"/>
      <use id="34UDF3" x="44114.51" y="32783.88" xlink:href="#post70_1"/>
      <use id="34UDF4" x="44141.04" y="33281.99" xlink:href="#post70_1"/>
      <use id="34UDU1" x="43987.47" y="39761.58" xlink:href="#post70_1"/>
      <use id="34UDU2" x="44013.6" y="40257.41" xlink:href="#post70_1"/>
      <use id="34UDU3" x="44483.3" y="39735.41" xlink:href="#post70_1"/>
      <use id="34UDU4" x="44509.48" y="40231.27" xlink:href="#post70_1"/>
      <use id="34UDV1" x="43935.09" y="38770.04" xlink:href="#post70_1"/>
      <use id="34UDV2" x="43961.3" y="39265.8" xlink:href="#post70_1"/>
      <use id="34UDV3" x="44430.88" y="38743.81" xlink:href="#post70_1"/>
      <use id="34UDV4" x="44457.1" y="39239.61" xlink:href="#post70_1"/>
      <use id="34UEA1" x="44874.31" y="37725.91" xlink:href="#post70_1"/>
      <use id="34UEA2" x="44900.49" y="38221.78" xlink:href="#post70_1"/>
      <use id="34UEA3" x="45370.2" y="37699.78" xlink:href="#post70_1"/>
      <use id="34UEA4" x="45396.32" y="38195.6" xlink:href="#post70_1"/>
      <use id="34UEB4" x="45344.12" y="37203.85" xlink:href="#post70_1"/>
      <use id="34UEC3" x="45266.14" y="35715.29" xlink:href="#post70_1"/>
      <use id="34UED3" x="45214.34" y="34721.92" xlink:href="#post70_1"/>
      <use id="34UEE1" x="44665.11" y="33753.42" xlink:href="#post70_1"/>
      <use id="34UEE2" x="44691.24" y="34250.82" xlink:href="#post70_1"/>
      <use id="34UEE3" x="45162.68" y="33727.45" xlink:href="#post70_1"/>
      <use id="34UEE4" x="45188.5" y="34224.84" xlink:href="#post70_1"/>
      <use id="34UEF1" x="44612.83" y="32757.54" xlink:href="#post70_1"/>
      <use id="34UEF2" x="44638.97" y="33255.66" xlink:href="#post70_1"/>
      <use id="34UEF3" x="45111.16" y="32731.61" xlink:href="#post70_1"/>
      <use id="34UEF4" x="45136.9" y="33229.72" xlink:href="#post70_1"/>
      <use id="34UEG1" x="44560.54" y="31760.01" xlink:href="#post70_1"/>
      <use id="34UEG2" x="44586.69" y="32259" xlink:href="#post70_1"/>
      <use id="34UEG3" x="45059.76" y="31734.11" xlink:href="#post70_1"/>
      <use id="34UEG4" x="45085.44" y="32233.07" xlink:href="#post70_1"/>
      <use id="34UEU1" x="44979.13" y="39709.2" xlink:href="#post70_1"/>
      <use id="34UEV1" x="44926.69" y="38717.59" xlink:href="#post70_1"/>
      <use id="34UEV2" x="44952.9" y="39213.39" xlink:href="#post70_1"/>
      <use id="34UEV3" x="45422.48" y="38691.39" xlink:href="#post70_1"/>
      <use id="34UEV4" x="45448.7" y="39187.16" xlink:href="#post70_1"/>
      <use id="34UFA1" x="45866.05" y="37673.72" xlink:href="#post70_1"/>
      <use id="34UFA2" x="45892.11" y="38169.49" xlink:href="#post70_1"/>
      <use id="34UFA3" x="46429.73" y="37644.19" xlink:href="#post70_1"/>
      <use id="34UFB2" x="45840.07" y="37177.85" xlink:href="#post70_1"/>
      <use id="34UFB3" x="46357.97" y="36653.6" xlink:href="#post70_1"/>
      <use id="34UFB4" x="46393.82" y="37148.95" xlink:href="#post70_1"/>
      <use id="34UFC1" x="45762.57" y="35689.46" xlink:href="#post70_1"/>
      <use id="34UFC2" x="45788.34" y="36185.75" xlink:href="#post70_1"/>
      <use id="34UFC3" x="46286.37" y="35662.42" xlink:href="#post70_1"/>
      <use id="34UFC4" x="46322.15" y="36158.11" xlink:href="#post70_1"/>
      <use id="34UFD1" x="45711.26" y="34696.2" xlink:href="#post70_1"/>
      <use id="34UFD2" x="45736.88" y="35192.95" xlink:href="#post70_1"/>
      <use id="34UFD3" x="46214.91" y="34670.39" xlink:href="#post70_1"/>
      <use id="34UFD4" x="46250.62" y="35166.54" xlink:href="#post70_1"/>
      <use id="34UFE1" x="45660.22" y="33701.83" xlink:href="#post70_1"/>
      <use id="34UFE2" x="45685.7" y="34199.17" xlink:href="#post70_1"/>
      <use id="34UFE3" x="46143.56" y="33677.26" xlink:href="#post70_1"/>
      <use id="34UFE4" x="46179.21" y="34173.99" xlink:href="#post70_1"/>
      <use id="34UFF1" x="45609.46" y="32706.08" xlink:href="#post70_1"/>
      <use id="34UFF2" x="45634.81" y="33204.15" xlink:href="#post70_1"/>
      <use id="34UFF3" x="46072.32" y="32682.74" xlink:href="#post70_1"/>
      <use id="34UFF4" x="46107.93" y="33180.2" xlink:href="#post70_1"/>
      <use id="34UFG1" x="45558.96" y="31708.68" xlink:href="#post70_1"/>
      <use id="34UFG2" x="45584.17" y="32207.6" xlink:href="#post70_1"/>
      <use id="34UFG3" x="46001.18" y="31686.56" xlink:href="#post70_1"/>
      <use id="34UFG4" x="46036.74" y="32184.87" xlink:href="#post70_1"/>
      <use id="34UFU2" x="45997.08" y="40152.4" xlink:href="#post70_1"/>
      <use id="34UFU4" x="46492.82" y="40125.96" xlink:href="#post70_1"/>
      <use id="34UFV1" x="45918.24" y="38665.22" xlink:href="#post70_1"/>
      <use id="34UFV2" x="45944.44" y="39160.92" xlink:href="#post70_1"/>
      <use id="34VEH1" x="44508.22" y="30760.55" xlink:href="#post70_1"/>
      <use id="34VEH2" x="44534.38" y="31260.54" xlink:href="#post70_1"/>
      <use id="34VEH3" x="45008.49" y="30734.66" xlink:href="#post70_1"/>
      <use id="34VEH4" x="45034.11" y="31234.64" xlink:href="#post70_1"/>
      <use id="34VEJ1" x="44455.85" y="29758.85" xlink:href="#post70_1"/>
      <use id="34VEJ2" x="44482.04" y="30260" xlink:href="#post70_1"/>
      <use id="34VEJ3" x="44957.32" y="29732.97" xlink:href="#post70_1"/>
      <use id="34VEJ4" x="44982.89" y="30234.11" xlink:href="#post70_1"/>
      <use id="34VEK3" x="44906.25" y="28728.73" xlink:href="#post70_1"/>
      <use id="34VEK4" x="44931.77" y="29231.19" xlink:href="#post70_1"/>
      <use id="34VEL4" x="44880.75" y="28225.56" xlink:href="#post70_1"/>
      <use id="34VEM3" x="44804.39" y="26711.3" xlink:href="#post70_1"/>
      <use id="34VEN1" x="44245.7" y="25723.31" xlink:href="#post70_1"/>
      <use id="34VEN2" x="44272.05" y="26230.71" xlink:href="#post70_1"/>
      <use id="34VEN3" x="44753.59" y="25697.43" xlink:href="#post70_1"/>
      <use id="34VEN4" x="44778.98" y="26204.84" xlink:href="#post70_1"/>
      <use id="34VEP1" x="44192.92" y="24705.53" xlink:href="#post70_1"/>
      <use id="34VEP2" x="44219.32" y="25214.93" xlink:href="#post70_1"/>
      <use id="34VEP3" x="44702.86" y="24679.64" xlink:href="#post70_1"/>
      <use id="34VEP4" x="44728.22" y="25189.06" xlink:href="#post70_1"/>
      <use id="34VEQ1" x="44140.01" y="23683.44" xlink:href="#post70_1"/>
      <use id="34VEQ2" x="44166.48" y="24195.05" xlink:href="#post70_1"/>
      <use id="34VEQ3" x="44652.21" y="23657.54" xlink:href="#post70_1"/>
      <use id="34VEQ4" x="44677.52" y="24169.16" xlink:href="#post70_1"/>
      <use id="34VFH1" x="45508.73" y="30709.33" xlink:href="#post70_1"/>
      <use id="34VFH2" x="45533.81" y="31209.27" xlink:href="#post70_1"/>
      <use id="34VFH3" x="45930.1" y="30688.42" xlink:href="#post70_1"/>
      <use id="34VFJ1" x="45458.76" y="29707.73" xlink:href="#post70_1"/>
      <use id="34VFJ2" x="45483.71" y="30208.83" xlink:href="#post70_1"/>
      <use id="34VFJ3" x="46008.73" y="29680.78" xlink:href="#post70_1"/>
      <use id="34VFJ4" x="46055.07" y="30180.7" xlink:href="#post70_1"/>
      <use id="34VFK3" x="45915.86" y="28678.96" xlink:href="#post70_1"/>
      <use id="34VFL1" x="45359.59" y="27696.56" xlink:href="#post70_1"/>
      <use id="34VFL2" x="45384.29" y="28200.45" xlink:href="#post70_1"/>
      <use id="34VFL3" x="45822.72" y="27674.25" xlink:href="#post70_1"/>
      <use id="34VFL4" x="45869.32" y="28176.99" xlink:href="#post70_1"/>
      <use id="34VFM1" x="45310.4" y="26686.34" xlink:href="#post70_1"/>
      <use id="34VFM2" x="45334.97" y="27191.87" xlink:href="#post70_1"/>
      <use id="34VFN1" x="45321.53" y="25669.67" xlink:href="#post70_1"/>
      <use id="34VFP1" x="45249.62" y="24653.08" xlink:href="#post70_1"/>
      <use id="34VFP2" x="45285.59" y="25161.88" xlink:href="#post70_1"/>
      <use id="34VFQ1" x="45177.58" y="23632.19" xlink:href="#post70_1"/>
      <use id="34VFQ2" x="45213.61" y="24143.2" xlink:href="#post70_1"/>
      <use id="34VFR1" x="45105.4" y="22606.58" xlink:href="#post70_1"/>
      <use id="34VFR2" x="45141.52" y="23120" xlink:href="#post70_1"/>
      <use id="34WCT3" x="42480.31" y="20670.63" xlink:href="#post70_1"/>
      <use id="34WDA1" x="42758.01" y="17494.09" xlink:href="#post70_1"/>
      <use id="34WDB3" x="43230.06" y="16399.24" xlink:href="#post70_1"/>
      <use id="34WDV3" x="43346.14" y="18521.25" xlink:href="#post70_1"/>
      <use id="34WEB1" x="43764.6" y="16370.98" xlink:href="#post70_1"/>
      <use id="35TKE3" x="48029.06" y="48505.75" xlink:href="#post70_1"/>
      <use id="35TKF3" x="47918.88" y="47509.32" xlink:href="#post70_1"/>
      <use id="35TKF4" x="47973.97" y="48007.27" xlink:href="#post70_1"/>
      <use id="35TKG3" x="47808.7" y="46514.91" xlink:href="#post70_1"/>
      <use id="35TKG4" x="47863.79" y="47011.88" xlink:href="#post70_1"/>
      <use id="35TKH3" x="47698.5" y="45522.28" xlink:href="#post70_1"/>
      <use id="35TKH4" x="47753.61" y="46018.39" xlink:href="#post70_1"/>
      <use id="35TKK4" x="47533.11" y="44036.22" xlink:href="#post70_1"/>
      <use id="35TKL3" x="47367.5" y="42552.93" xlink:href="#post70_1"/>
      <use id="35TKL4" x="47422.74" y="43047.1" xlink:href="#post70_1"/>
      <use id="35TLF1" x="48421.57" y="47444.61" xlink:href="#post70_1"/>
      <use id="35TLF3" x="48918.22" y="47380.15" xlink:href="#post70_1"/>
      <use id="35TLG1" x="48293.12" y="46452.33" xlink:href="#post70_1"/>
      <use id="35TLG2" x="48357.36" y="46948.22" xlink:href="#post70_1"/>
      <use id="35TLG4" x="48853.51" y="46883.76" xlink:href="#post70_1"/>
      <use id="35TLH1" x="48164.51" y="45461.86" xlink:href="#post70_1"/>
      <use id="35TLH2" x="48228.83" y="45956.88" xlink:href="#post70_1"/>
      <use id="35TLH3" x="48659.35" y="45397.31" xlink:href="#post70_1"/>
      <use id="35TLH4" x="48724.08" y="45892.36" xlink:href="#post70_1"/>
      <use id="35TLJ2" x="48100.14" y="44967.24" xlink:href="#post70_1"/>
      <use id="35TLJ4" x="48594.59" y="44902.67" xlink:href="#post70_1"/>
      <use id="35TLK3" x="48400.19" y="43420.81" xlink:href="#post70_1"/>
      <use id="35TLL2" x="47842.13" y="42992.22" xlink:href="#pre70_1"/>
      <use id="35TLL3" x="48270.41" y="42434.39" xlink:href="#post70_1"/>
      <use id="35TLL4" x="48335.32" y="42927.47" xlink:href="#post70_1"/>
      <use id="35TLM1" x="47647.92" y="41513.8" xlink:href="#post70_1"/>
      <use id="35TLM2" x="47712.73" y="42006.39" xlink:href="#post70_1"/>
      <use id="35TLM3" x="48140.47" y="41448.87" xlink:href="#pre70_1"/>
      <use id="35TLM4" x="48205.47" y="41941.53" xlink:href="#post70_1"/>
      <use id="35TLN1" x="47518.06" y="40529.11" xlink:href="#post70_1"/>
      <use id="35TLN3" x="48010.32" y="40464.04" xlink:href="#post70_1"/>
      <use id="35TLN4" x="48075.43" y="40956.38" xlink:href="#post70_1"/>
      <use id="35TMF1" x="49414.88" y="47315.2" xlink:href="#post70_1"/>
      <use id="35TMF2" x="49480.1" y="47812.1" xlink:href="#post70_1"/>
      <use id="35TMF4" x="49977.25" y="47746.6" xlink:href="#post70_1"/>
      <use id="35TMG2" x="49349.68" y="46818.81" xlink:href="#post70_1"/>
      <use id="35TMJ1" x="49023.94" y="44343.42" xlink:href="#post70_1"/>
      <use id="35TMJ2" x="49089.07" y="44837.71" xlink:href="#post70_1"/>
      <use id="35TMJ3" x="49518.06" y="44278.13" xlink:href="#post70_1"/>
      <use id="35TMJ4" x="49583.54" y="44772.4" xlink:href="#post70_1"/>
      <use id="35TMK4" x="49452.61" y="43784.18" xlink:href="#pre70_1"/>
      <use id="35TML1" x="48763.4" y="42369.35" xlink:href="#post70_1"/>
      <use id="35TML2" x="48828.55" y="42862.46" xlink:href="#post70_1"/>
      <use id="35TML4" x="49321.79" y="42797.19" xlink:href="#pre70_1"/>
      <use id="35TMM1" x="48633.06" y="41383.77" xlink:href="#post70_1"/>
      <use id="35TMM2" x="48698.25" y="41876.46" xlink:href="#post70_1"/>
      <use id="35TMM3" x="49125.68" y="41318.49" xlink:href="#post70_1"/>
      <use id="35TMM4" x="49191.04" y="41811.19" xlink:href="#post70_1"/>
      <use id="35TMN1" x="48502.64" y="40398.85" xlink:href="#pre70_1"/>
      <use id="35TMN3" x="48994.98" y="40333.55" xlink:href="#post70_1"/>
      <use id="35TNF2" x="50474.34" y="47680.57" xlink:href="#pre70_1"/>
      <use id="35TNG1" x="50275.83" y="46191.66" xlink:href="#post70_1"/>
      <use id="35TNG4" x="50837.94" y="46621.12" xlink:href="#post70_1"/>
      <use id="35TNH1" x="50143.86" y="45201.31" xlink:href="#post70_1"/>
      <use id="35TNH2" x="50209.81" y="45696.28" xlink:href="#post70_1"/>
      <use id="35TNH3" x="50638.61" y="45135.2" xlink:href="#post70_1"/>
      <use id="35TNH4" x="50704.95" y="45630.09" xlink:href="#post70_1"/>
      <use id="35TNJ3" x="50506.18" y="44146.54" xlink:href="#pre70_1"/>
      <use id="35TNL4" x="50308.18" y="42665.92" xlink:href="#pre70_1"/>
      <use id="35TNM3" x="50110.87" y="41187.47" xlink:href="#pre70_1"/>
      <use id="35TNN2" x="49552.8" y="40760.54" xlink:href="#pre70_1"/>
      <use id="35TPJ1" x="51000.13" y="44080.25" xlink:href="#pre70_1"/>
      <use id="35TPK1" x="50867.45" y="43093.09" xlink:href="#pre70_1"/>
      <use id="35TPK3" x="51360.7" y="43026.73" xlink:href="#pre70_1"/>
      <use id="35TPL4" x="51294.28" y="42533.68" xlink:href="#pre70_1"/>
      <use id="35TQL2" x="51713.45" y="42477.17" xlink:href="#pre70_1"/>
      <use id="35ULA1" x="46498.07" y="32643.27" xlink:href="#post70_1"/>
      <use id="35ULA2" x="46554.51" y="33138.8" xlink:href="#post70_1"/>
      <use id="35ULA3" x="46957.33" y="32581.13" xlink:href="#post70_1"/>
      <use id="35ULA4" x="47023.97" y="33075.37" xlink:href="#post70_1"/>
      <use id="35ULB1" x="46384.87" y="31650.99" xlink:href="#post70_1"/>
      <use id="35ULB2" x="46441.52" y="32147.34" xlink:href="#post70_1"/>
      <use id="35ULB3" x="46823.62" y="31591.44" xlink:href="#post70_1"/>
      <use id="35ULB4" x="46890.55" y="32086.49" xlink:href="#post70_1"/>
      <use id="35ULV1" x="46610.87" y="33633.94" xlink:href="#post70_1"/>
      <use id="35ULV3" x="47090.48" y="33569.23" xlink:href="#post70_1"/>
      <use id="35UMA1" x="47451.83" y="32514.62" xlink:href="#post70_1"/>
      <use id="35UMA2" x="47518.09" y="33008.97" xlink:href="#post70_1"/>
      <use id="35UMB1" x="47318.98" y="31524.67" xlink:href="#post70_1"/>
      <use id="35UMB2" x="47385.47" y="32019.85" xlink:href="#post70_1"/>
      <use id="35UMB3" x="47814.46" y="31458.36" xlink:href="#post70_1"/>
      <use id="35UMB4" x="47880.49" y="31953.65" xlink:href="#post70_1"/>
      <use id="35UMP4" x="48929.64" y="39841.26" xlink:href="#pre70_1"/>
      <use id="35VLC1" x="46271.25" y="30656.79" xlink:href="#post70_1"/>
      <use id="35VLC3" x="46689.29" y="30599.89" xlink:href="#post70_1"/>
      <use id="35VLC4" x="46756.54" y="31095.91" xlink:href="#post70_1"/>
      <use id="35VLD3" x="46554.28" y="29606.17" xlink:href="#post70_1"/>
      <use id="35VLD4" x="46621.87" y="30103.32" xlink:href="#post70_1"/>
      <use id="35VLE3" x="46418.56" y="28610" xlink:href="#post70_1"/>
      <use id="35VLE4" x="46486.52" y="29108.42" xlink:href="#post70_1"/>
      <use id="35VLF3" x="46282.05" y="27611.04" xlink:href="#post70_1"/>
      <use id="35VLF4" x="46350.41" y="28110.89" xlink:href="#post70_1"/>
      <use id="35VLG3" x="46144.7" y="26608.99" xlink:href="#post70_1"/>
      <use id="35VLH3" x="45946.86" y="25611.7" xlink:href="#post70_1"/>
      <use id="35VLJ3" x="45830.67" y="24599.22" xlink:href="#post70_1"/>
      <use id="35VLJ4" x="45888.85" y="25105.96" xlink:href="#post70_1"/>
      <use id="35VLK4" x="45772.33" y="24091.4" xlink:href="#post70_1"/>
      <use id="35VLL4" x="45655.11" y="23072.39" xlink:href="#post70_1"/>
      <use id="35VMC1" x="47185.66" y="30532.83" xlink:href="#post70_1"/>
      <use id="35VMC2" x="47252.38" y="31028.99" xlink:href="#post70_1"/>
      <use id="35VMC3" x="47682.16" y="30466.31" xlink:href="#post70_1"/>
      <use id="35VMC4" x="47748.36" y="30962.59" xlink:href="#post70_1"/>
      <use id="35VMD1" x="47051.82" y="29538.8" xlink:href="#post70_1"/>
      <use id="35VMD2" x="47118.81" y="30036.1" xlink:href="#post70_1"/>
      <use id="35VMD3" x="47549.5" y="29472.06" xlink:href="#post70_1"/>
      <use id="35VMD4" x="47615.88" y="29969.48" xlink:href="#post70_1"/>
      <use id="35VME1" x="46917.4" y="28542.29" xlink:href="#post70_1"/>
      <use id="35VME2" x="46984.69" y="29040.88" xlink:href="#post70_1"/>
      <use id="35VME3" x="47416.41" y="28475.29" xlink:href="#post70_1"/>
      <use id="35VME4" x="47483.01" y="28974.01" xlink:href="#post70_1"/>
      <use id="35VMF1" x="46782.37" y="27542.98" xlink:href="#post70_1"/>
      <use id="35VMF2" x="46849.97" y="28043" xlink:href="#post70_1"/>
      <use id="35VMF3" x="47282.87" y="27475.69" xlink:href="#post70_1"/>
      <use id="35VMF4" x="47349.7" y="27975.87" xlink:href="#post70_1"/>
      <use id="35VMG2" x="46714.61" y="27042.17" xlink:href="#post70_1"/>
      <use id="35VMG4" x="47215.91" y="26974.72" xlink:href="#post70_1"/>
      <use id="35VMH1" x="46510.23" y="25534.58" xlink:href="#post70_1"/>
      <use id="35VMH2" x="46578.55" y="26038.02" xlink:href="#post70_1"/>
      <use id="35VMH3" x="47014.22" y="25466.65" xlink:href="#post70_1"/>
      <use id="35VMH4" x="47081.59" y="25970.25" xlink:href="#post70_1"/>
      <use id="35VMJ1" x="46372.99" y="24524.81" xlink:href="#post70_1"/>
      <use id="35VMJ3" x="46879.01" y="24456.52" xlink:href="#post70_1"/>
      <use id="35VMJ4" x="46946.69" y="24962.09" xlink:href="#post70_1"/>
      <use id="35VMK1" x="46234.9" y="23510.82" xlink:href="#post70_1"/>
      <use id="35VMK2" x="46304.06" y="24018.37" xlink:href="#post70_1"/>
      <use id="35VMK3" x="46743.13" y="23442.12" xlink:href="#post70_1"/>
      <use id="35VMK4" x="46811.15" y="23949.88" xlink:href="#post70_1"/>
      <use id="35VML1" x="46095.87" y="22492.2" xlink:href="#post70_1"/>
      <use id="35VML2" x="46165.51" y="23002.11" xlink:href="#post70_1"/>
      <use id="35VML3" x="46606.53" y="22423.07" xlink:href="#post70_1"/>
      <use id="35VML4" x="46674.92" y="22933.21" xlink:href="#post70_1"/>
      <use id="35VNC1" x="48178.76" y="30400.35" xlink:href="#post70_1"/>
      <use id="35VNC2" x="48244.42" y="30896.7" xlink:href="#post70_1"/>
      <use id="35VNC3" x="48675.41" y="30334.95" xlink:href="#post70_1"/>
      <use id="35VNC4" x="48740.53" y="30831.32" xlink:href="#post70_1"/>
      <use id="35VND1" x="48047.27" y="29405.94" xlink:href="#post70_1"/>
      <use id="35VND2" x="48113.05" y="29903.44" xlink:href="#post70_1"/>
      <use id="35VNE1" x="47915.53" y="28408.99" xlink:href="#post70_1"/>
      <use id="35VNE2" x="47981.44" y="28907.8" xlink:href="#post70_1"/>
      <use id="35VNF1" x="47783.49" y="27409.19" xlink:href="#post70_1"/>
      <use id="35VNF2" x="47849.55" y="27909.47" xlink:href="#post70_1"/>
      <use id="35VNF3" x="48284.2" y="27343.49" xlink:href="#post70_1"/>
      <use id="35VNH1" x="47518.36" y="25399.69" xlink:href="#post70_1"/>
      <use id="35VNH2" x="47584.79" y="25903.41" xlink:href="#post70_1"/>
      <use id="35VNH3" x="48022.61" y="25333.7" xlink:href="#post70_1"/>
      <use id="35VNJ1" x="47385.19" y="24389.28" xlink:href="#post70_1"/>
      <use id="35VNJ2" x="47451.83" y="24894.99" xlink:href="#post70_1"/>
      <use id="35VNJ3" x="47891.48" y="24323.11" xlink:href="#post70_1"/>
      <use id="35VNJ4" x="47957.08" y="24828.93" xlink:href="#post70_1"/>
      <use id="35VNK1" x="47251.54" y="23374.59" xlink:href="#post70_1"/>
      <use id="35VNK2" x="47318.43" y="23882.5" xlink:href="#post70_1"/>
      <use id="35VNK3" x="47760.08" y="23308.23" xlink:href="#post70_1"/>
      <use id="35VNK4" x="47825.82" y="23816.24" xlink:href="#post70_1"/>
      <use id="35VNL1" x="47117.38" y="22355.22" xlink:href="#post70_1"/>
      <use id="35VNL3" x="47628.37" y="22288.64" xlink:href="#post70_1"/>
      <use id="35VNL4" x="47694.26" y="22799.04" xlink:href="#post70_1"/>
      <use id="35VPJ1" x="48434.42" y="24253.36" xlink:href="#post70_1"/>
      <use id="35VPJ2" x="48510.55" y="24757.72" xlink:href="#post70_1"/>
      <use id="35VPK1" x="48281.8" y="23241.37" xlink:href="#post70_1"/>
      <use id="35VPK2" x="48358.17" y="23747.93" xlink:href="#post70_1"/>
      <use id="35VPL1" x="48128.67" y="22224.7" xlink:href="#post70_1"/>
      <use id="35VPL2" x="48205.31" y="22733.64" xlink:href="#post70_1"/>
      <use id="35WLM3" x="45477.83" y="21534.61" xlink:href="#post70_1"/>
      <use id="35WMM4" x="46537.94" y="21911.67" xlink:href="#post70_1"/>
      <use id="35WMN1" x="45814.73" y="20439.38" xlink:href="#post70_1"/>
      <use id="35WMN2" x="45885.43" y="20954.67" xlink:href="#post70_1"/>
      <use id="35WMP3" x="46191.74" y="19333.62" xlink:href="#post70_1"/>
      <use id="35WMP4" x="46261.44" y="19852.24" xlink:href="#post70_1"/>
      <use id="35WMQ1" x="45528.91" y="18362.66" xlink:href="#post70_1"/>
      <use id="35WMQ3" x="46051.57" y="18291.43" xlink:href="#post70_1"/>
      <use id="35WMQ4" x="46121.79" y="18813.37" xlink:href="#post70_1"/>
      <use id="35WMR1" x="45383.99" y="17314.04" xlink:href="#post70_1"/>
      <use id="35WMR2" x="45456.62" y="17839.27" xlink:href="#post70_1"/>
      <use id="35WMS2" x="45310.99" y="16786.93" xlink:href="#post70_1"/>
      <use id="35WMS4" x="45839.26" y="16714.72" xlink:href="#post70_1"/>
      <use id="35WMT4" x="45696.22" y="15653.74" xlink:href="#post70_1"/>
      <use id="35WNM1" x="46982.65" y="21330.74" xlink:href="#post70_1"/>
      <use id="35WNM2" x="47050.09" y="21843.65" xlink:href="#post70_1"/>
      <use id="35WNM3" x="47496.31" y="21263.92" xlink:href="#post70_1"/>
      <use id="35WNM4" x="47562.39" y="21776.94" xlink:href="#post70_1"/>
      <use id="35WNN2" x="46915.05" y="20816.44" xlink:href="#post70_1"/>
      <use id="35WNN3" x="47363.87" y="20233.61" xlink:href="#post70_1"/>
      <use id="35WNN4" x="47430.14" y="20749.49" xlink:href="#post70_1"/>
      <use id="35WNP2" x="46779.37" y="19783.44" xlink:href="#post70_1"/>
      <use id="35WNP3" x="47230.99" y="19197.24" xlink:href="#post70_1"/>
      <use id="35WNP4" x="47297.48" y="19716.22" xlink:href="#post70_1"/>
      <use id="35WNQ1" x="46574.51" y="18221.97" xlink:href="#post70_1"/>
      <use id="35WNQ2" x="46642.99" y="18744.14" xlink:href="#post70_1"/>
      <use id="35WNQ3" x="47097.65" y="18154.29" xlink:href="#post70_1"/>
      <use id="35WNQ4" x="47164.38" y="18676.62" xlink:href="#post70_1"/>
      <use id="35WNR1" x="46436.95" y="17172.23" xlink:href="#post70_1"/>
      <use id="35WNR2" x="46505.83" y="17698.03" xlink:href="#post70_1"/>
      <use id="35WNR3" x="46963.8" y="17104.2" xlink:href="#post70_1"/>
      <use id="35WNR4" x="47030.79" y="17630.18" xlink:href="#post70_1"/>
      <use id="35WNS1" x="46298.52" y="16114.78" xlink:href="#post70_1"/>
      <use id="35WNS2" x="46367.85" y="16644.51" xlink:href="#post70_1"/>
      <use id="35WNS4" x="46896.66" y="16576.31" xlink:href="#post70_1"/>
      <use id="35WNT2" x="46228.96" y="15582.98" xlink:href="#post70_1"/>
      <use id="35WPM2" x="48051.91" y="21714.48" xlink:href="#post70_1"/>
      <use id="35WPN1" x="47820.7" y="20175.56" xlink:href="#post70_1"/>
      <use id="35WPN2" x="47897.94" y="20689.95" xlink:href="#post70_1"/>
      <use id="35WPP1" x="47665.74" y="19142.16" xlink:href="#post70_1"/>
      <use id="35WPP2" x="47743.31" y="19659.65" xlink:href="#post70_1"/>
      <use id="35WPQ1" x="47660.8" y="18083.44" xlink:href="#post70_1"/>
      <use id="35WPR2" x="47570.45" y="17562.37" xlink:href="#post70_1"/>
      <use id="36VUP3" x="49009.39" y="24153.67" xlink:href="#post70_1"/>
      <use id="36VUQ3" x="48812.42" y="23149.37" xlink:href="#post70_1"/>
      <use id="36VUQ4" x="48911.04" y="23652.07" xlink:href="#post70_1"/>
      <use id="36VUR4" x="48713.53" y="22645.53" xlink:href="#post70_1"/>
      <use id="36VVQ1" x="49326.2" y="23036.69" xlink:href="#post70_1"/>
      <use id="36WUS4" x="48514.88" y="21634.21" xlink:href="#post70_1"/>
    </g>
    <defs>
      <circle id="post70_1" r="250" fill="#dc5107"/>
      <circle id="pre70_1" r="250" fill="darkgrey"/>
      <circle id="post70_2" r="250" stroke-width="40" fill="white" fill-opacity="0.1" stroke="red"/>
      <circle id="pre70_2" r="250" stroke-width="40" fill="white" fill-opacity="0.1" stroke="pink"/>
    </defs>
  </g>
</svg>