<?xml version="1.0" encoding="UTF-8" standalone="yes"?>
<svg id="map2svg" xml:space="preserve" x="0" y="0" width="100%" viewBox="0 0 71000 59000" onload="setup(evt);" xmlns="http://www.w3.org/2000/svg" xmlns:xlink="http://www.w3.org/1999/xlink">
  
  <g id="map-matrix" transform="matrix(1 0 0 1 0 0)">
    <g id="datapoints" style="pointer-events:all" >
      <use id="32TPS3" x="37465.26" y="41648.28" xlink:href="#post70_1"/>
      <use id="32TPS4" x="37413.49" y="42142.41" xlink:href="#post70_1"/>
      <use id="33TUK3" x="38984.63" y="43721.35" xlink:href="#post70_1"/>
      <use id="33TUL3" x="39012.15" y="42726.81" xlink:href="#post70_1"/>
      <use id="33TUL4" x="38998.43" y="43223.96" xlink:href="#post70_1"/>
      <use id="33TUM1" x="38542.73" y="41719.52" xlink:href="#post70_1"/>
      <use id="33TUM3" x="39039.35" y="41733.14" xlink:href="#post70_1"/>
      <use id="33TUM4" x="39025.79" y="42229.87" xlink:href="#post70_1"/>
      <use id="33TUN2" x="38556.36" y="41223.04" xlink:href="#post70_1"/>
      <use id="33TUN4" x="39052.84" y="41236.55" xlink:href="#post70_1"/>
      <use id="33TVK1" x="39482.2" y="43735.05" xlink:href="#pre70_1"/>
      <use id="33TVK3" x="39979.82" y="43748.48" xlink:href="#post70_1"/>
      <use id="33TVK4" x="39966.52" y="44246.25" xlink:href="#pre70_1"/>
      <use id="33TVL1" x="39509.22" y="42740.38" xlink:href="#post70_1"/>
      <use id="33TVL2" x="39495.74" y="43237.59" xlink:href="#post70_1"/>
      <use id="33TVL3" x="40006.35" y="42753.73" xlink:href="#post70_1"/>
      <use id="33TVL4" x="39993.1" y="43250.98" xlink:href="#post70_1"/>
      <use id="33TVM1" x="39536.05" y="41746.59" xlink:href="#post70_1"/>
      <use id="33TVM2" x="39522.66" y="42243.39" xlink:href="#post70_1"/>
      <use id="33TVM3" x="40032.8" y="41759.86" xlink:href="#post70_1"/>
      <use id="33TVM4" x="40019.58" y="42256.7" xlink:href="#post70_1"/>
      <use id="33TVN2" x="39549.39" y="41249.94" xlink:href="#post70_1"/>
      <use id="33TVN4" x="40046" y="41263.19" xlink:href="#post70_1"/>
      <use id="33TWH3" x="40924.46" y="45767.5" xlink:href="#post70_1"/>
      <use id="33TWJ1" x="40451.47" y="44757.49" xlink:href="#post70_1"/>
      <use id="33TWJ3" x="40949.71" y="44770.33" xlink:href="#post70_1"/>
      <use id="33TWK1" x="40477.47" y="43761.63" xlink:href="#post70_1"/>
      <use id="33TWK2" x="40464.47" y="44259.41" xlink:href="#post70_1"/>
      <use id="33TWK3" x="40975.1" y="43774.49" xlink:href="#post70_1"/>
      <use id="33TWK4" x="40962.39" y="44272.25" xlink:href="#post70_1"/>
      <use id="33TWL1" x="40503.5" y="42766.87" xlink:href="#post70_1"/>
      <use id="33TWL2" x="40490.47" y="43264.12" xlink:href="#post70_1"/>
      <use id="33TWL3" x="41000.63" y="42779.78" xlink:href="#post70_1"/>
      <use id="33TWL4" x="40987.85" y="43277.01" xlink:href="#pre70_1"/>
      <use id="33TWM1" x="40529.56" y="41772.98" xlink:href="#post70_1"/>
      <use id="33TWM2" x="40516.52" y="42269.83" xlink:href="#post70_1"/>
      <use id="33TWM3" x="41026.32" y="41785.95" xlink:href="#post70_1"/>
      <use id="33TWM4" x="41013.45" y="42282.77" xlink:href="#post70_1"/>
      <use id="33TWN2" x="40542.61" y="41276.31" xlink:href="#post70_1"/>
      <use id="33TWN3" x="41052.16" y="40792.77" xlink:href="#post70_1"/>
      <use id="33TWN4" x="41039.22" y="41289.29" xlink:href="#post70_1"/>
      <use id="33TXH1" x="41423.4" y="45779.89" xlink:href="#post70_1"/>
      <use id="33TXH3" x="41922.29" y="45791.9" xlink:href="#post70_1"/>
      <use id="33TXH4" x="41910.53" y="46290.94" xlink:href="#pre70_1"/>
      <use id="33TXJ1" x="41447.93" y="44782.81" xlink:href="#post70_1"/>
      <use id="33TXJ2" x="41435.64" y="45281.18" xlink:href="#post70_1"/>
      <use id="33TXJ3" x="41946.09" y="44794.97" xlink:href="#post70_1"/>
      <use id="33TXJ4" x="41934.14" y="45293.25" xlink:href="#post70_1"/>
      <use id="33TXK4" x="41958.12" y="44297.03" xlink:href="#post70_1"/>
      <use id="33TXL1" x="41497.74" y="42792.47" xlink:href="#pre70_1"/>
      <use id="33TXL2" x="41485.19" y="43289.65" xlink:href="#post70_1"/>
      <use id="33TXL3" x="41994.77" y="42804.94" xlink:href="#pre70_1"/>
      <use id="33TXL4" x="41982.46" y="43302.04" xlink:href="#pre70_1"/>
      <use id="33TXM1" x="41523.03" y="41798.75" xlink:href="#post70_1"/>
      <use id="33TXM2" x="41510.35" y="42295.51" xlink:href="#pre70_1"/>
      <use id="33TXM3" x="42019.68" y="41811.38" xlink:href="#post70_1"/>
      <use id="33TXM4" x="42007.18" y="42308.06" xlink:href="#post70_1"/>
      <use id="33TXN1" x="41548.6" y="40805.68" xlink:href="#post70_1"/>
      <use id="33TXN2" x="41535.78" y="41302.15" xlink:href="#post70_1"/>
      <use id="33TXN3" x="42044.98" y="40818.48" xlink:href="#post70_1"/>
      <use id="33TXN4" x="42032.28" y="41314.86" xlink:href="#post70_1"/>
      <use id="33TYH1" x="42392.07" y="45802.84" xlink:href="#post70_1"/>
      <use id="33TYH2" x="42389.59" y="46301.99" xlink:href="#pre70_1"/>
      <use id="33TYJ1" x="42397.2" y="44805.69" xlink:href="#post70_1"/>
      <use id="33TYJ2" x="42394.6" y="45304.08" xlink:href="#post70_1"/>
      <use id="33TYK1" x="42402.53" y="43809.86" xlink:href="#post70_1"/>
      <use id="33TYK2" x="42399.84" y="44307.62" xlink:href="#post70_1"/>
      <use id="33TYL2" x="42405.29" y="43312.38" xlink:href="#post70_1"/>
      <use id="33TYM1" x="42559.82" y="41824.94" xlink:href="#post70_1"/>
      <use id="33TYM2" x="42566.38" y="42321.96" xlink:href="#post70_1"/>
      <use id="33TYN1" x="42546.69" y="40831.31" xlink:href="#post70_1"/>
      <use id="33TYN2" x="42553.25" y="41328.06" xlink:href="#post70_1"/>
      <use id="33UUR3" x="39145.1" y="37762.48" xlink:href="#post70_1"/>
      <use id="33UUR4" x="39132.15" y="38258.76" xlink:href="#post70_1"/>
      <use id="33UVP1" x="39589.13" y="39760.67" xlink:href="#post70_1"/>
      <use id="33UVP2" x="39575.93" y="40257.01" xlink:href="#post70_1"/>
      <use id="33UVP4" x="40072.32" y="40270.2" xlink:href="#post70_1"/>
      <use id="33UVQ3" x="40111.7" y="38781.18" xlink:href="#post70_1"/>
      <use id="33UVQ4" x="40098.6" y="39277.5" xlink:href="#post70_1"/>
      <use id="33UVR1" x="39641.47" y="37775.43" xlink:href="#post70_1"/>
      <use id="33UVR2" x="39628.45" y="38271.78" xlink:href="#post70_1"/>
      <use id="33UVR3" x="40137.88" y="37788.46" xlink:href="#post70_1"/>
      <use id="33UVR4" x="40124.8" y="38284.85" xlink:href="#post70_1"/>
      <use id="33UVS2" x="39654.44" y="37278.99" xlink:href="#post70_1"/>
      <use id="33UVS4" x="40150.95" y="37292" xlink:href="#post70_1"/>
      <use id="33UVV3" x="40242.1" y="33811.83" xlink:href="#pre70_1"/>
      <use id="33UWP1" x="40581.82" y="39786.94" xlink:href="#post70_1"/>
      <use id="33UWP2" x="40568.74" y="40283.31" xlink:href="#post70_1"/>
      <use id="33UWP3" x="41078.16" y="39800" xlink:href="#post70_1"/>
      <use id="33UWP4" x="41065.14" y="40296.35" xlink:href="#post70_1"/>
      <use id="33UWQ1" x="40608.04" y="38794.29" xlink:href="#post70_1"/>
      <use id="33UWQ2" x="40594.92" y="39290.61" xlink:href="#post70_1"/>
      <use id="33UWQ3" x="41104.35" y="38807.42" xlink:href="#post70_1"/>
      <use id="33UWQ4" x="41091.23" y="39303.7" xlink:href="#post70_1"/>
      <use id="33UWR1" x="40634.31" y="37801.58" xlink:href="#post70_1"/>
      <use id="33UWR2" x="40621.16" y="38297.96" xlink:href="#post70_1"/>
      <use id="33UWR3" x="41130.72" y="37814.78" xlink:href="#post70_1"/>
      <use id="33UWR4" x="41117.5" y="38311.11" xlink:href="#post70_1"/>
      <use id="33UWS2" x="40647.47" y="37305.12" xlink:href="#pre70_1"/>
      <use id="33UWS4" x="41143.97" y="37318.34" xlink:href="#pre70_1"/>
      <use id="33UWT3" x="41184.05" y="35828.28" xlink:href="#pre70_1"/>
      <use id="33UWV1" x="40740.19" y="33824.99" xlink:href="#pre70_1"/>
      <use id="33UWV3" x="41238.26" y="33838.48" xlink:href="#pre70_1"/>
      <use id="33UWV4" x="41224.62" y="34336.36" xlink:href="#post70_1"/>
      <use id="33UXA1" x="41764.48" y="32855.68" xlink:href="#post70_1"/>
      <use id="33UXA2" x="41750.32" y="33354.19" xlink:href="#pre70_1"/>
      <use id="33UXA4" x="42223.86" y="33367.77" xlink:href="#pre70_1"/>
      <use id="33UXP1" x="41574.46" y="39813.03" xlink:href="#post70_1"/>
      <use id="33UXP2" x="41561.49" y="40309.32" xlink:href="#post70_1"/>
      <use id="33UXP3" x="42070.68" y="39826.01" xlink:href="#pre70_1"/>
      <use id="33UXP4" x="42057.78" y="40322.2" xlink:href="#post70_1"/>
      <use id="33UXQ1" x="41600.61" y="38820.57" xlink:href="#post70_1"/>
      <use id="33UXQ2" x="41587.5" y="39316.79" xlink:href="#post70_1"/>
      <use id="33UXQ3" x="42096.8" y="38833.72" xlink:href="#post70_1"/>
      <use id="33UXQ4" x="42083.69" y="39329.85" xlink:href="#pre70_1"/>
      <use id="33UXR2" x="41613.8" y="38324.32" xlink:href="#pre70_1"/>
      <use id="33UXR3" x="42191.32" y="37843.23" xlink:href="#pre70_1"/>
      <use id="33UXR4" x="42110.02" y="38337.58" xlink:href="#pre70_1"/>
      <use id="33UXS1" x="41653.86" y="36835.21" xlink:href="#pre70_1"/>
      <use id="33UXS3" x="42198.19" y="36850.07" xlink:href="#pre70_1"/>
      <use id="33UXS4" x="42194.72" y="37346.7" xlink:href="#pre70_1"/>
      <use id="33UXT3" x="42205.27" y="35856.33" xlink:href="#pre70_1"/>
      <use id="33UXU2" x="41694.66" y="35344.83" xlink:href="#pre70_1"/>
      <use id="33UXU3" x="42212.55" y="34861.76" xlink:href="#post70_1"/>
      <use id="33UXU4" x="42208.88" y="35359.17" xlink:href="#pre70_1"/>
      <use id="33UXV2" x="41722.3" y="34350.13" xlink:href="#pre70_1"/>
      <use id="33UXV3" x="42220.03" y="33866.09" xlink:href="#pre70_1"/>
      <use id="33UYP1" x="42533.58" y="39838.07" xlink:href="#post70_1"/>
      <use id="33UYP2" x="42540.13" y="40334.66" xlink:href="#pre70_1"/>
      <use id="34SDH4" x="45085.66" y="51209.87" xlink:href="#post70_1"/>
      <use id="34SDJ1" x="44504.29" y="49725.49" xlink:href="#post70_1"/>
      <use id="34SDJ3" x="45006.79" y="49699.54" xlink:href="#post70_1"/>
      <use id="34SDJ4" x="45033.06" y="50202.32" xlink:href="#post70_1"/>
      <use id="34SDK4" x="44980.54" y="49197.36" xlink:href="#post70_1"/>
      <use id="34SEG1" x="45617.14" y="51687.96" xlink:href="#pre70_1"/>
      <use id="34SEG4" x="46150.07" y="52165.94" xlink:href="#post70_1"/>
      <use id="34SEH1" x="45563.1" y="50679.13" xlink:href="#post70_1"/>
      <use id="34SEH3" x="46066.81" y="50651.83" xlink:href="#post70_1"/>
      <use id="34SEH4" x="46094.49" y="51155.83" xlink:href="#post70_1"/>
      <use id="34SEJ1" x="45509.27" y="49672.97" xlink:href="#post70_1"/>
      <use id="34SEJ3" x="46011.7" y="49645.79" xlink:href="#post70_1"/>
      <use id="34SEJ4" x="46039.21" y="50148.49" xlink:href="#pre70_1"/>
      <use id="34SEK2" x="45482.41" y="49170.82" xlink:href="#post70_1"/>
      <use id="34SFF4" x="47220.49" y="53121.36" xlink:href="#post70_1"/>
      <use id="34SFG1" x="46627.26" y="51632.37" xlink:href="#pre70_1"/>
      <use id="34SFG3" x="47132.16" y="51603.5" xlink:href="#post70_1"/>
      <use id="34SFG4" x="47161.47" y="52108.7" xlink:href="#pre70_1"/>
      <use id="34SFH1" x="46570.45" y="50623.86" xlink:href="#post70_1"/>
      <use id="34SFH3" x="47073.97" y="50595.22" xlink:href="#post70_1"/>
      <use id="34SFJ2" x="46542.19" y="50120.61" xlink:href="#post70_1"/>
      <use id="34SFJ4" x="47045.07" y="50092.09" xlink:href="#post70_1"/>
      <use id="34SFK2" x="46486.01" y="49116" xlink:href="#post70_1"/>
      <use id="34SGE2" x="47788.77" y="54106.89" xlink:href="#pre70_1"/>
      <use id="34SGE4" x="48270.39" y="54077.35" xlink:href="#post70_1"/>
      <use id="34SGG1" x="47710.36" y="51569.54" xlink:href="#post70_1"/>
      <use id="34SGH1" x="47634.3" y="50562.57" xlink:href="#post70_1"/>
      <use id="34SGH2" x="47672.28" y="51065.71" xlink:href="#post70_1"/>
      <use id="34SGJ2" x="47596.42" y="50060.08" xlink:href="#pre70_1"/>
      <use id="34TBN3" x="42832.55" y="45797.02" xlink:href="#post70_1"/>
      <use id="34TBN4" x="42848.22" y="46295.93" xlink:href="#post70_1"/>
      <use id="34TBP3" x="42801.09" y="44800.36" xlink:href="#post70_1"/>
      <use id="34TBP4" x="42816.85" y="45298.5" xlink:href="#post70_1"/>
      <use id="34TBQ3" x="42769.46" y="43805.01" xlink:href="#post70_1"/>
      <use id="34TBQ4" x="42785.3" y="44302.53" xlink:href="#post70_1"/>
      <use id="34TBR3" x="42737.62" y="42810.79" xlink:href="#post70_1"/>
      <use id="34TBR4" x="42753.56" y="43307.78" xlink:href="#post70_1"/>
      <use id="34TCK3" x="43951.68" y="48747.1" xlink:href="#post70_1"/>
      <use id="34TCL3" x="43901.39" y="47745.61" xlink:href="#post70_1"/>
      <use id="34TCL4" x="43926.55" y="48246.09" xlink:href="#post70_1"/>
      <use id="34TCM1" x="43351.68" y="46771.21" xlink:href="#post70_1"/>
      <use id="34TCM3" x="43850.92" y="46746.16" xlink:href="#post70_1"/>
      <use id="34TCM4" x="43876.17" y="47245.65" xlink:href="#post70_1"/>
      <use id="34TCN1" x="43301.88" y="45773.68" xlink:href="#post70_1"/>
      <use id="34TCN2" x="43326.82" y="46272.23" xlink:href="#post70_1"/>
      <use id="34TCN3" x="43800.27" y="45748.5" xlink:href="#post70_1"/>
      <use id="34TCN4" x="43825.62" y="46247.12" xlink:href="#pre70_1"/>
      <use id="34TCP2" x="43276.86" y="45275.52" xlink:href="#post70_1"/>
      <use id="34TCP3" x="43749.42" y="44752.42" xlink:href="#post70_1"/>
      <use id="34TCP4" x="43774.87" y="45250.28" xlink:href="#post70_1"/>
      <use id="34TCQ1" x="43201.33" y="43783.14" xlink:href="#post70_1"/>
      <use id="34TCQ2" x="43226.58" y="44280.28" xlink:href="#post70_1"/>
      <use id="34TCQ3" x="43698.37" y="43757.69" xlink:href="#post70_1"/>
      <use id="34TCQ4" x="43723.92" y="44254.9" xlink:href="#post70_1"/>
      <use id="34TCR1" x="43150.54" y="42789.68" xlink:href="#post70_1"/>
      <use id="34TCR2" x="43175.98" y="43286.28" xlink:href="#post70_1"/>
      <use id="34TCR3" x="43647.07" y="42764.09" xlink:href="#post70_1"/>
      <use id="34TCR4" x="43672.75" y="43260.76" xlink:href="#post70_1"/>
      <use id="34TCS1" x="43099.41" y="41797.12" xlink:href="#post70_1"/>
      <use id="34TCS2" x="43125.02" y="42293.3" xlink:href="#post70_1"/>
      <use id="34TCS3" x="43595.54" y="41771.38" xlink:href="#post70_1"/>
      <use id="34TCS4" x="43621.34" y="42267.63" xlink:href="#post70_1"/>
      <use id="34TCT1" x="43047.89" y="40805.23" xlink:href="#post70_1"/>
      <use id="34TCT2" x="43073.7" y="41301.11" xlink:href="#post70_1"/>
      <use id="34TCT3" x="43543.76" y="40779.33" xlink:href="#post70_1"/>
      <use id="34TCT4" x="43569.69" y="41275.29" xlink:href="#post70_1"/>
      <use id="34TDK1" x="44452.99" y="48721.71" xlink:href="#post70_1"/>
      <use id="34TDK3" x="44954.31" y="48695.76" xlink:href="#post70_1"/>
      <use id="34TDL2" x="44427.32" y="48220.68" xlink:href="#pre70_1"/>
      <use id="34TDL3" x="44901.88" y="47694.23" xlink:href="#pre70_1"/>
      <use id="34TDL4" x="44928.09" y="48194.73" xlink:href="#post70_1"/>
      <use id="34TDM4" x="44875.69" y="47194.23" xlink:href="#post70_1"/>
      <use id="34TDN1" x="44298.71" y="45722.93" xlink:href="#pre70_1"/>
      <use id="34TDN2" x="44324.47" y="46221.58" xlink:href="#pre70_1"/>
      <use id="34TDP1" x="44247.14" y="44726.78" xlink:href="#post70_1"/>
      <use id="34TDP4" x="44771.03" y="45198.7" xlink:href="#post70_1"/>
      <use id="34TDQ1" x="44195.46" y="43731.96" xlink:href="#pre70_1"/>
      <use id="34TDQ2" x="44221.31" y="44229.21" xlink:href="#post70_1"/>
      <use id="34TDQ3" x="44692.58" y="43705.96" xlink:href="#post70_1"/>
      <use id="34TDQ4" x="44718.72" y="44203.22" xlink:href="#post70_1"/>
      <use id="34TDR1" x="44143.67" y="42738.27" xlink:href="#post70_1"/>
      <use id="34TDR2" x="44169.58" y="43234.99" xlink:href="#post70_1"/>
      <use id="34TDR3" x="44640.29" y="42712.23" xlink:href="#pre70_1"/>
      <use id="34TDS1" x="44091.75" y="41745.47" xlink:href="#post70_1"/>
      <use id="34TDS2" x="44117.73" y="42241.77" xlink:href="#post70_1"/>
      <use id="34TDS3" x="44587.99" y="41719.39" xlink:href="#post70_1"/>
      <use id="34TDS4" x="44614.14" y="42215.71" xlink:href="#post70_1"/>
      <use id="34TDT1" x="44039.69" y="40753.31" xlink:href="#post70_1"/>
      <use id="34TDT2" x="44065.74" y="41249.32" xlink:href="#post70_1"/>
      <use id="34TDT3" x="44535.66" y="40727.19" xlink:href="#post70_1"/>
      <use id="34TDT4" x="44561.83" y="41223.23" xlink:href="#post70_1"/>
      <use id="34TEK1" x="45455.61" y="48669.26" xlink:href="#post70_1"/>
      <use id="34TEL1" x="45402.13" y="47667.78" xlink:href="#post70_1"/>
      <use id="34TEL2" x="45428.85" y="48168.26" xlink:href="#post70_1"/>
      <use id="34TEL3" x="45902.33" y="47640.83" xlink:href="#pre70_1"/>
      <use id="34TEL4" x="45929.56" y="48141.25" xlink:href="#post70_1"/>
      <use id="34TEM1" x="45348.81" y="46668.3" xlink:href="#post70_1"/>
      <use id="34TEM4" x="45875.16" y="47140.91" xlink:href="#post70_1"/>
      <use id="34TEN1" x="45295.64" y="45670.62" xlink:href="#pre70_1"/>
      <use id="34TEN3" x="45794.07" y="45643.87" xlink:href="#post70_1"/>
      <use id="34TEN4" x="45821.03" y="46142.45" xlink:href="#pre70_1"/>
      <use id="34TEP3" x="45740.31" y="44647.83" xlink:href="#post70_1"/>
      <use id="34TEQ1" x="45189.7" y="43679.68" xlink:href="#pre70_1"/>
      <use id="34TEQ4" x="45713.52" y="44150.32" xlink:href="#post70_1"/>
      <use id="34TER2" x="45163.29" y="43182.7" xlink:href="#post70_1"/>
      <use id="34TES1" x="45084.23" y="41693.15" xlink:href="#post70_1"/>
      <use id="34TET1" x="45031.65" y="40700.97" xlink:href="#post70_1"/>
      <use id="34TET2" x="45057.92" y="41197" xlink:href="#post70_1"/>
      <use id="34TET3" x="45527.6" y="40674.65" xlink:href="#post70_1"/>
      <use id="34TFK1" x="46458.06" y="48614.59" xlink:href="#post70_1"/>
      <use id="34TFK3" x="46959.15" y="48586.41" xlink:href="#post70_1"/>
      <use id="34TFL1" x="46402.47" y="47613.37" xlink:href="#post70_1"/>
      <use id="34TFL3" x="46902.5" y="47585.43" xlink:href="#post70_1"/>
      <use id="34TFL4" x="46930.76" y="48085.66" xlink:href="#post70_1"/>
      <use id="34TFM2" x="46374.82" y="47113.54" xlink:href="#post70_1"/>
      <use id="34TFM3" x="46846.36" y="46586.44" xlink:href="#post70_1"/>
      <use id="34TFM4" x="46874.37" y="47085.7" xlink:href="#post70_1"/>
      <use id="34TFN1" x="46292.42" y="45616.74" xlink:href="#pre70_1"/>
      <use id="34TFN2" x="46319.8" y="46115.24" xlink:href="#pre70_1"/>
      <use id="34TFN3" x="46790.69" y="45589.22" xlink:href="#pre70_1"/>
      <use id="34TFN4" x="46818.47" y="46087.62" xlink:href="#post70_1"/>
      <use id="34TFP1" x="46237.95" y="44620.85" xlink:href="#post70_1"/>
      <use id="34TFP2" x="46265.15" y="45118.62" xlink:href="#pre70_1"/>
      <use id="34TFP3" x="46735.51" y="44593.53" xlink:href="#pre70_1"/>
      <use id="34TFP4" x="46763.04" y="45091.2" xlink:href="#pre70_1"/>
      <use id="34TFR1" x="46130.06" y="42632.81" xlink:href="#post70_1"/>
      <use id="34TFR3" x="46626.52" y="42605.9" xlink:href="#post70_1"/>
      <use id="34TFR4" x="46653.6" y="43102.41" xlink:href="#pre70_1"/>
      <use id="34TFS1" x="46076.63" y="41640.2" xlink:href="#post70_1"/>
      <use id="34TFS2" x="46103.3" y="42136.41" xlink:href="#post70_1"/>
      <use id="34TFS3" x="46572.71" y="41613.48" xlink:href="#post70_1"/>
      <use id="34TFS4" x="46599.56" y="42109.59" xlink:href="#post70_1"/>
      <use id="34TFT1" x="46023.51" y="40648.22" xlink:href="#post70_1"/>
      <use id="34TFT2" x="46050.02" y="41144.15" xlink:href="#post70_1"/>
      <use id="34TFT3" x="46519.35" y="40621.69" xlink:href="#post70_1"/>
      <use id="34TFT4" x="46545.97" y="41117.52" xlink:href="#post70_1"/>
      <use id="34TGK1" x="47483.39" y="48556.33" xlink:href="#post70_1"/>
      <use id="34TGL1" x="47408.52" y="47556.63" xlink:href="#pre70_1"/>
      <use id="34TGL2" x="47445.91" y="48056.22" xlink:href="#post70_1"/>
      <use id="34TGM1" x="47334.02" y="46558.91" xlink:href="#pre70_1"/>
      <use id="34TGN1" x="47259.87" y="45562.94" xlink:href="#post70_1"/>
      <use id="34TGN2" x="47296.9" y="46060.72" xlink:href="#post70_1"/>
      <use id="34TGP1" x="47186.05" y="44568.52" xlink:href="#post70_1"/>
      <use id="34TGQ2" x="47149.26" y="44071.8" xlink:href="#post70_1"/>
      <use id="34TGS1" x="47112.23" y="41584.24" xlink:href="#post70_1"/>
      <use id="34TGS2" x="47158.11" y="42079.19" xlink:href="#post70_1"/>
      <use id="34TGT1" x="47020.5" y="40594.77" xlink:href="#post70_1"/>
      <use id="34TGT2" x="47066.36" y="41089.44" xlink:href="#post70_1"/>
      <use id="34UCA1" x="42823.03" y="37834.88" xlink:href="#pre70_1"/>
      <use id="34UCA2" x="42917.35" y="38326.91" xlink:href="#pre70_1"/>
      <use id="34UCC3" x="43280.34" y="35820.7" xlink:href="#pre70_1"/>
      <use id="34UCC4" x="43307.06" y="36316.94" xlink:href="#pre70_1"/>
      <use id="34UCD1" x="42723.08" y="34855.01" xlink:href="#post70_1"/>
      <use id="34UCD3" x="43226.64" y="34827.56" xlink:href="#post70_1"/>
      <use id="34UCE2" x="42706.23" y="34357.62" xlink:href="#pre70_1"/>
      <use id="34UCE3" x="43172.54" y="33833.35" xlink:href="#post70_1"/>
      <use id="34UCF1" x="42655.27" y="32863.4" xlink:href="#pre70_1"/>
      <use id="34UCF2" x="42672.32" y="33361.84" xlink:href="#post70_1"/>
      <use id="34UCF4" x="43145.33" y="33335.77" xlink:href="#pre70_1"/>
      <use id="34UCU1" x="42995.99" y="39813.79" xlink:href="#post70_1"/>
      <use id="34UCU2" x="43021.99" y="40309.47" xlink:href="#post70_1"/>
      <use id="34UCU3" x="43491.7" y="39787.71" xlink:href="#post70_1"/>
      <use id="34UCU4" x="43517.76" y="40283.48" xlink:href="#post70_1"/>
      <use id="34UCV1" x="42943.68" y="38822.54" xlink:href="#pre70_1"/>
      <use id="34UCV2" x="42969.89" y="39318.15" xlink:href="#pre70_1"/>
      <use id="34UCV3" x="43439.34" y="38796.28" xlink:href="#pre70_1"/>
      <use id="34UCV4" x="43465.56" y="39291.98" xlink:href="#pre70_1"/>
      <use id="34UDA2" x="43908.83" y="38274.25" xlink:href="#pre70_1"/>
      <use id="34UDB4" x="44352.13" y="37256.19" xlink:href="#pre70_1"/>
      <use id="34UDC2" x="43803.27" y="36290.36" xlink:href="#post70_1"/>
      <use id="34UDE2" x="43696.78" y="34303.71" xlink:href="#pre70_1"/>
      <use id="34UDF1" x="43616.22" y="32810.64" xlink:href="#post70_1"/>
      <use id="34UDF2" x="43643.15" y="33308.7" xlink:href="#post70_1"/>
      <use id="34UDF3" x="44114.51" y="32783.88" xlink:href="#post70_1"/>
      <use id="34UDF4" x="44141.04" y="33281.99" xlink:href="#post70_1"/>
      <use id="34UDG4" x="44087.94" y="32285.36" xlink:href="#post70_1"/>
      <use id="34UDU1" x="43987.47" y="39761.58" xlink:href="#pre70_1"/>
      <use id="34UDU2" x="44013.6" y="40257.41" xlink:href="#post70_1"/>
      <use id="34UDU3" x="44483.3" y="39735.41" xlink:href="#post70_1"/>
      <use id="34UDU4" x="44509.48" y="40231.27" xlink:href="#post70_1"/>
      <use id="34UDV1" x="43935.09" y="38770.04" xlink:href="#post70_1"/>
      <use id="34UDV2" x="43961.3" y="39265.8" xlink:href="#pre70_1"/>
      <use id="34UDV3" x="44430.88" y="38743.81" xlink:href="#pre70_1"/>
      <use id="34UDV4" x="44457.1" y="39239.61" xlink:href="#pre70_1"/>
      <use id="34UEA2" x="44900.49" y="38221.78" xlink:href="#post70_1"/>
      <use id="34UEA3" x="45370.2" y="37699.78" xlink:href="#post70_1"/>
      <use id="34UEB3" x="45318.09" y="36707.82" xlink:href="#pre70_1"/>
      <use id="34UEB4" x="45344.12" y="37203.85" xlink:href="#pre70_1"/>
      <use id="34UEC1" x="44769.66" y="35741.34" xlink:href="#post70_1"/>
      <use id="34UEC2" x="44795.81" y="36237.7" xlink:href="#post70_1"/>
      <use id="34UED4" x="45240.22" y="35218.73" xlink:href="#post70_1"/>
      <use id="34UEE1" x="44665.11" y="33753.42" xlink:href="#pre70_1"/>
      <use id="34UEE2" x="44691.24" y="34250.82" xlink:href="#pre70_1"/>
      <use id="34UEE4" x="45188.5" y="34224.84" xlink:href="#pre70_1"/>
      <use id="34UEF1" x="44612.83" y="32757.54" xlink:href="#post70_1"/>
      <use id="34UEF2" x="44638.97" y="33255.66" xlink:href="#post70_1"/>
      <use id="34UEF3" x="45111.16" y="32731.61" xlink:href="#post70_1"/>
      <use id="34UEF4" x="45136.9" y="33229.72" xlink:href="#post70_1"/>
      <use id="34UEG1" x="44560.54" y="31760.01" xlink:href="#post70_1"/>
      <use id="34UEG2" x="44586.69" y="32259" xlink:href="#post70_1"/>
      <use id="34UEG3" x="45059.76" y="31734.11" xlink:href="#post70_1"/>
      <use id="34UEG4" x="45085.44" y="32233.07" xlink:href="#post70_1"/>
      <use id="34UEU1" x="44979.13" y="39709.2" xlink:href="#post70_1"/>
      <use id="34UEU2" x="45005.38" y="40205.05" xlink:href="#post70_1"/>
      <use id="34UEU3" x="45474.95" y="39682.94" xlink:href="#post70_1"/>
      <use id="34UEU4" x="45501.25" y="40178.76" xlink:href="#post70_1"/>
      <use id="34UEV1" x="44926.69" y="38717.59" xlink:href="#pre70_1"/>
      <use id="34UEV2" x="44952.9" y="39213.39" xlink:href="#post70_1"/>
      <use id="34UEV3" x="45422.48" y="38691.39" xlink:href="#post70_1"/>
      <use id="34UEV4" x="45448.7" y="39187.16" xlink:href="#post70_1"/>
      <use id="34UFA2" x="45892.11" y="38169.49" xlink:href="#pre70_1"/>
      <use id="34UFB2" x="45840.07" y="37177.85" xlink:href="#post70_1"/>
      <use id="34UFB3" x="46357.97" y="36653.6" xlink:href="#post70_1"/>
      <use id="34UFB4" x="46393.82" y="37148.95" xlink:href="#pre70_1"/>
      <use id="34UFC1" x="45762.57" y="35689.46" xlink:href="#pre70_1"/>
      <use id="34UFC4" x="46322.15" y="36158.11" xlink:href="#post70_1"/>
      <use id="34UFD2" x="45736.88" y="35192.95" xlink:href="#post70_1"/>
      <use id="34UFD3" x="46214.91" y="34670.39" xlink:href="#post70_1"/>
      <use id="34UFD4" x="46250.62" y="35166.54" xlink:href="#post70_1"/>
      <use id="34UFF1" x="45609.46" y="32706.08" xlink:href="#post70_1"/>
      <use id="34UFF2" x="45634.81" y="33204.15" xlink:href="#post70_1"/>
      <use id="34UFF3" x="46072.32" y="32682.74" xlink:href="#post70_1"/>
      <use id="34UFF4" x="46107.93" y="33180.2" xlink:href="#post70_1"/>
      <use id="34UFG1" x="45558.96" y="31708.68" xlink:href="#post70_1"/>
      <use id="34UFG2" x="45584.17" y="32207.6" xlink:href="#post70_1"/>
      <use id="34UFG3" x="46001.18" y="31686.56" xlink:href="#post70_1"/>
      <use id="34UFG4" x="46036.74" y="32184.87" xlink:href="#post70_1"/>
      <use id="34UFU2" x="45997.08" y="40152.4" xlink:href="#post70_1"/>
      <use id="34UFU4" x="46492.82" y="40125.96" xlink:href="#post70_1"/>
      <use id="34UFV1" x="45918.24" y="38665.22" xlink:href="#pre70_1"/>
      <use id="34UFV2" x="45944.44" y="39160.92" xlink:href="#pre70_1"/>
      <use id="34UGU2" x="46974.65" y="40100.2" xlink:href="#post70_1"/>
      <use id="34VEH1" x="44508.22" y="30760.55" xlink:href="#post70_1"/>
      <use id="34VEH2" x="44534.38" y="31260.54" xlink:href="#post70_1"/>
      <use id="34VEH3" x="45008.49" y="30734.66" xlink:href="#post70_1"/>
      <use id="34VEH4" x="45034.11" y="31234.64" xlink:href="#post70_1"/>
      <use id="34VEJ2" x="44482.04" y="30260" xlink:href="#post70_1"/>
      <use id="34VEJ3" x="44957.32" y="29732.97" xlink:href="#post70_1"/>
      <use id="34VEJ4" x="44982.89" y="30234.11" xlink:href="#post70_1"/>
      <use id="34VFH1" x="45508.73" y="30709.33" xlink:href="#post70_1"/>
      <use id="34VFH2" x="45533.81" y="31209.27" xlink:href="#post70_1"/>
      <use id="34VFH3" x="45930.1" y="30688.42" xlink:href="#post70_1"/>
      <use id="34VFH4" x="45965.62" y="31187.75" xlink:href="#post70_1"/>
      <use id="34VFJ1" x="45458.76" y="29707.73" xlink:href="#post70_1"/>
      <use id="34VFJ2" x="45483.71" y="30208.83" xlink:href="#post70_1"/>
      <use id="34VFJ4" x="46055.07" y="30180.7" xlink:href="#post70_1"/>
      <use id="34VFK4" x="45962.32" y="29180.2" xlink:href="#post70_1"/>
      <use id="35SKB3" x="48359.86" y="51509.33" xlink:href="#pre70_1"/>
      <use id="35SKB4" x="48496.16" y="52002.09" xlink:href="#pre70_1"/>
      <use id="35SKD4" x="48194.38" y="50004.65" xlink:href="#pre70_1"/>
      <use id="35SKV4" x="48749.23" y="54017.85" xlink:href="#post70_1"/>
      <use id="35SLA3" x="49565.72" y="52376.67" xlink:href="#pre70_1"/>
      <use id="35SLB1" x="48934.45" y="51436.42" xlink:href="#post70_1"/>
      <use id="35SLB4" x="49500.87" y="51873.95" xlink:href="#pre70_1"/>
      <use id="35SLE4" x="49112.32" y="48872.53" xlink:href="#post70_1"/>
      <use id="35SLU3" x="49825.46" y="54395.66" xlink:href="#pre70_1"/>
      <use id="35SLV2" x="49254.85" y="53954.17" xlink:href="#post70_1"/>
      <use id="35SLV4" x="49760.46" y="53889.63" xlink:href="#post70_1"/>
      <use id="35SMB3" x="50439.18" y="51240.93" xlink:href="#post70_1"/>
      <use id="35SMC1" x="49806.7" y="50305.12" xlink:href="#post70_1"/>
      <use id="35SMD2" x="49741.31" y="49805.29" xlink:href="#post70_1"/>
      <use id="35SMD4" x="50240.79" y="49739.59" xlink:href="#post70_1"/>
      <use id="35SME2" x="49610.63" y="48807.52" xlink:href="#post70_1"/>
      <use id="35SMU1" x="50331.9" y="54330.19" xlink:href="#post70_1"/>
      <use id="35SNA1" x="51074.79" y="52178.58" xlink:href="#post70_1"/>
      <use id="35SNA4" x="51645.65" y="52614.14" xlink:href="#post70_1"/>
      <use id="35SPA2" x="52149.12" y="52545.64" xlink:href="#pre70_1"/>
      <use id="35TKF4" x="47973.97" y="48007.27" xlink:href="#post70_1"/>
      <use id="35TKG3" x="47808.7" y="46514.91" xlink:href="#pre70_1"/>
      <use id="35TKG4" x="47863.79" y="47011.88" xlink:href="#post70_1"/>
      <use id="35TKH3" x="47698.5" y="45522.28" xlink:href="#post70_1"/>
      <use id="35TKH4" x="47753.61" y="46018.39" xlink:href="#pre70_1"/>
      <use id="35TKJ3" x="47588.26" y="44531.23" xlink:href="#post70_1"/>
      <use id="35TKL3" x="47367.5" y="42552.93" xlink:href="#pre70_1"/>
      <use id="35TLE3" x="49047.62" y="48374.52" xlink:href="#post70_1"/>
      <use id="35TLF1" x="48421.57" y="47444.61" xlink:href="#post70_1"/>
      <use id="35TLF2" x="48485.74" y="47941.51" xlink:href="#post70_1"/>
      <use id="35TLF4" x="48982.92" y="47877.08" xlink:href="#pre70_1"/>
      <use id="35TLG3" x="48788.81" y="46387.83" xlink:href="#post70_1"/>
      <use id="35TLG4" x="48853.51" y="46883.76" xlink:href="#pre70_1"/>
      <use id="35TLH1" x="48164.51" y="45461.86" xlink:href="#post70_1"/>
      <use id="35TLH2" x="48228.83" y="45956.88" xlink:href="#post70_1"/>
      <use id="35TLH3" x="48659.35" y="45397.31" xlink:href="#pre70_1"/>
      <use id="35TLH4" x="48724.08" y="45892.36" xlink:href="#pre70_1"/>
      <use id="35TLJ2" x="48100.14" y="44967.24" xlink:href="#pre70_1"/>
      <use id="35TLL1" x="47777.46" y="42499.2" xlink:href="#post70_1"/>
      <use id="35TLL2" x="47842.13" y="42992.22" xlink:href="#post70_1"/>
      <use id="35TLL3" x="48270.41" y="42434.39" xlink:href="#post70_1"/>
      <use id="35TLL4" x="48335.32" y="42927.47" xlink:href="#pre70_1"/>
      <use id="35TLM1" x="47647.92" y="41513.8" xlink:href="#post70_1"/>
      <use id="35TLM2" x="47712.73" y="42006.39" xlink:href="#post70_1"/>
      <use id="35TLN1" x="47518.06" y="40529.11" xlink:href="#post70_1"/>
      <use id="35TLN2" x="47583.04" y="41021.38" xlink:href="#post70_1"/>
      <use id="35TME3" x="50043.04" y="48243.98" xlink:href="#post70_1"/>
      <use id="35TMF1" x="49414.88" y="47315.2" xlink:href="#post70_1"/>
      <use id="35TMF2" x="49480.1" y="47812.1" xlink:href="#post70_1"/>
      <use id="35TMF3" x="49911.51" y="47249.74" xlink:href="#post70_1"/>
      <use id="35TMF4" x="49977.25" y="47746.6" xlink:href="#post70_1"/>
      <use id="35TMG2" x="49349.68" y="46818.81" xlink:href="#pre70_1"/>
      <use id="35TMG3" x="49780.19" y="46257.5" xlink:href="#post70_1"/>
      <use id="35TMG4" x="49845.82" y="46753.39" xlink:href="#post70_1"/>
      <use id="35TMH2" x="49219.35" y="45827.42" xlink:href="#post70_1"/>
      <use id="35TMH4" x="49714.6" y="45762.06" xlink:href="#post70_1"/>
      <use id="35TMJ1" x="49023.94" y="44343.42" xlink:href="#pre70_1"/>
      <use id="35TMJ2" x="49089.07" y="44837.71" xlink:href="#post70_1"/>
      <use id="35TMJ4" x="49583.54" y="44772.4" xlink:href="#post70_1"/>
      <use id="35TMK2" x="48958.81" y="43849.47" xlink:href="#post70_1"/>
      <use id="35TML2" x="48828.55" y="42862.46" xlink:href="#post70_1"/>
      <use id="35TML4" x="49321.79" y="42797.19" xlink:href="#post70_1"/>
      <use id="35TMM1" x="48633.06" y="41383.77" xlink:href="#pre70_1"/>
      <use id="35TMN1" x="48502.64" y="40398.85" xlink:href="#post70_1"/>
      <use id="35TMN2" x="48567.86" y="40891.24" xlink:href="#pre70_1"/>
      <use id="35TMN4" x="49060.34" y="40825.96" xlink:href="#post70_1"/>
      <use id="35TNG1" x="50275.83" y="46191.66" xlink:href="#pre70_1"/>
      <use id="35TNG2" x="50341.93" y="46687.49" xlink:href="#post70_1"/>
      <use id="35TNG3" x="50771.4" y="46125.38" xlink:href="#post70_1"/>
      <use id="35TNG4" x="50837.94" y="46621.12" xlink:href="#post70_1"/>
      <use id="35TNH1" x="50143.86" y="45201.31" xlink:href="#post70_1"/>
      <use id="35TNH2" x="50209.81" y="45696.28" xlink:href="#post70_1"/>
      <use id="35TNH3" x="50638.61" y="45135.2" xlink:href="#post70_1"/>
      <use id="35TNJ1" x="50012.15" y="44212.5" xlink:href="#pre70_1"/>
      <use id="35TNJ2" x="50077.97" y="44706.73" xlink:href="#post70_1"/>
      <use id="35TNJ4" x="50572.34" y="44640.69" xlink:href="#post70_1"/>
      <use id="35TNK1" x="49880.67" y="43225" xlink:href="#post70_1"/>
      <use id="35TNK2" x="49946.39" y="43718.6" xlink:href="#post70_1"/>
      <use id="35TNL1" x="49749.4" y="42238.6" xlink:href="#pre70_1"/>
      <use id="35TNL3" x="50242.34" y="42172.9" xlink:href="#post70_1"/>
      <use id="35TNM1" x="49618.29" y="41253.06" xlink:href="#post70_1"/>
      <use id="35TNM2" x="49683.82" y="41745.73" xlink:href="#pre70_1"/>
      <use id="35TNM4" x="50176.57" y="41680.1" xlink:href="#pre70_1"/>
      <use id="35TPF1" x="51400.99" y="47050.37" xlink:href="#pre70_1"/>
      <use id="35TPF3" x="51897.24" y="46982.93" xlink:href="#pre70_1"/>
      <use id="35TPJ1" x="51000.13" y="44080.25" xlink:href="#pre70_1"/>
      <use id="35TPJ2" x="51066.63" y="44574.31" xlink:href="#post70_1"/>
      <use id="35TPK1" x="50867.45" y="43093.09" xlink:href="#post70_1"/>
      <use id="35TQK1" x="51789.23" y="42968.85" xlink:href="#post70_1"/>
      <use id="35TQL2" x="51713.45" y="42477.17" xlink:href="#post70_1"/>
      <use id="35ULA1" x="46498.07" y="32643.27" xlink:href="#post70_1"/>
      <use id="35ULA2" x="46554.51" y="33138.8" xlink:href="#post70_1"/>
      <use id="35ULA3" x="46957.33" y="32581.13" xlink:href="#post70_1"/>
      <use id="35ULA4" x="47023.97" y="33075.37" xlink:href="#post70_1"/>
      <use id="35ULB1" x="46384.87" y="31650.99" xlink:href="#post70_1"/>
      <use id="35ULB2" x="46441.52" y="32147.34" xlink:href="#post70_1"/>
      <use id="35ULB3" x="46823.62" y="31591.44" xlink:href="#post70_1"/>
      <use id="35ULB4" x="46890.55" y="32086.49" xlink:href="#post70_1"/>
      <use id="35ULV1" x="46610.87" y="33633.94" xlink:href="#post70_1"/>
      <use id="35ULV3" x="47090.48" y="33569.23" xlink:href="#post70_1"/>
      <use id="35UMA1" x="47451.83" y="32514.62" xlink:href="#post70_1"/>
      <use id="35UMB1" x="47318.98" y="31524.67" xlink:href="#post70_1"/>
      <use id="35UMB2" x="47385.47" y="32019.85" xlink:href="#post70_1"/>
      <use id="35UMB3" x="47814.46" y="31458.36" xlink:href="#post70_1"/>
      <use id="35UMB4" x="47880.49" y="31953.65" xlink:href="#post70_1"/>
      <use id="35UMP4" x="48929.64" y="39841.26" xlink:href="#pre70_1"/>
      <use id="35UNB1" x="48310.03" y="31392.54" xlink:href="#post70_1"/>
      <use id="35VLC1" x="46271.25" y="30656.79" xlink:href="#post70_1"/>
      <use id="35VLC2" x="46328.13" y="31154.14" xlink:href="#post70_1"/>
      <use id="35VLC3" x="46689.29" y="30599.89" xlink:href="#post70_1"/>
      <use id="35VLC4" x="46756.54" y="31095.91" xlink:href="#post70_1"/>
      <use id="35VLD3" x="46554.28" y="29606.17" xlink:href="#post70_1"/>
      <use id="35VLD4" x="46621.87" y="30103.32" xlink:href="#post70_1"/>
      <use id="35VLE3" x="46418.56" y="28610" xlink:href="#post70_1"/>
      <use id="35VLE4" x="46486.52" y="29108.42" xlink:href="#post70_1"/>
      <use id="35VMC1" x="47185.66" y="30532.83" xlink:href="#post70_1"/>
      <use id="35VMC2" x="47252.38" y="31028.99" xlink:href="#post70_1"/>
      <use id="35VMC3" x="47682.16" y="30466.31" xlink:href="#post70_1"/>
      <use id="35VMC4" x="47748.36" y="30962.59" xlink:href="#post70_1"/>
      <use id="35VMD1" x="47051.82" y="29538.8" xlink:href="#post70_1"/>
      <use id="35VMD2" x="47118.81" y="30036.1" xlink:href="#post70_1"/>
      <use id="35VMD3" x="47549.5" y="29472.06" xlink:href="#post70_1"/>
      <use id="35VMD4" x="47615.88" y="29969.48" xlink:href="#post70_1"/>
      <use id="35VME4" x="47483.01" y="28974.01" xlink:href="#pre70_1"/>
      <use id="35VNC1" x="48178.76" y="30400.35" xlink:href="#post70_1"/>
      <use id="35VNC2" x="48244.42" y="30896.7" xlink:href="#post70_1"/>
      <use id="35VNC3" x="48675.41" y="30334.95" xlink:href="#post70_1"/>
      <use id="35VNC4" x="48740.53" y="30831.32" xlink:href="#post70_1"/>
      <use id="35VND1" x="48047.27" y="29405.94" xlink:href="#pre70_1"/>
      <use id="35VND2" x="48113.05" y="29903.44" xlink:href="#post70_1"/>
      <use id="35VNE2" x="47981.44" y="28907.8" xlink:href="#pre70_1"/>
    </g>
    <defs>
      <circle id="post70_1" r="250" fill="#dc5107"/>
      <circle id="pre70_1" r="250" fill="darkgrey"/>
      <circle id="post70_2" r="250" stroke-width="40" fill="white" fill-opacity="0.1" stroke="red"/>
      <circle id="pre70_2" r="250" stroke-width="40" fill="white" fill-opacity="0.1" stroke="pink"/>
    </defs>
  </g>
</svg>