<?xml version="1.0" encoding="UTF-8" standalone="yes"?>
<svg id="map2svg" xml:space="preserve" x="0" y="0" width="100%" viewBox="0 0 71000 59000" onload="setup(evt);" xmlns="http://www.w3.org/2000/svg" xmlns:xlink="http://www.w3.org/1999/xlink">
  
  <g id="map-matrix" transform="matrix(1 0 0 1 0 0)">
    <g id="datapoints" style="pointer-events:all" >
      <use id="29SMD4" x="19343.76" y="46343.96" xlink:href="#post70_1"/>
      <use id="29SNA3" x="19446.94" y="49064.26" xlink:href="#post70_1"/>
      <use id="29SNB1" x="19309.31" y="47939.91" xlink:href="#post70_1"/>
      <use id="29SNB2" x="19139.25" y="48416.71" xlink:href="#post70_1"/>
      <use id="29SNB3" x="19785.88" y="48109.52" xlink:href="#post70_1"/>
      <use id="29SNB4" x="19616.52" y="48586.53" xlink:href="#post70_1"/>
      <use id="29SNC1" x="19648.75" y="46988.37" xlink:href="#post70_1"/>
      <use id="29SNC2" x="19479.15" y="47463.82" xlink:href="#post70_1"/>
      <use id="29SNC3" x="20123.98" y="47157.56" xlink:href="#post70_1"/>
      <use id="29SNC4" x="19955.03" y="47633.2" xlink:href="#post70_1"/>
      <use id="29SND4" x="20292.76" y="46682.56" xlink:href="#post70_1"/>
      <use id="29SPB1" x="20262.64" y="48278.43" xlink:href="#post70_1"/>
      <use id="29SPB2" x="20094" y="48755.64" xlink:href="#post70_1"/>
      <use id="29SPB3" x="20739.58" y="48446.63" xlink:href="#post70_1"/>
      <use id="29SPB4" x="20571.67" y="48924.01" xlink:href="#post70_1"/>
      <use id="29SPC1" x="20599.4" y="47326.11" xlink:href="#post70_1"/>
      <use id="29SPC2" x="20431.11" y="47801.93" xlink:href="#post70_1"/>
      <use id="29SPC4" x="20907.35" y="47969.97" xlink:href="#post70_1"/>
      <use id="29SPD1" x="20935.52" y="46376.4" xlink:href="#post70_1"/>
      <use id="29SPD2" x="20767.54" y="46850.93" xlink:href="#post70_1"/>
      <use id="29SPD4" x="21242.46" y="47018.68" xlink:href="#post70_1"/>
      <use id="29SPE2" x="21103.37" y="45902.45" xlink:href="#post70_1"/>
      <use id="29SPE4" x="21577.08" y="46069.94" xlink:href="#post70_1"/>
      <use id="29SQA1" x="20882.17" y="49569.91" xlink:href="#post70_1"/>
      <use id="29SQB1" x="21286.1" y="48638.42" xlink:href="#post70_1"/>
      <use id="29SQB2" x="21049.5" y="49091.64" xlink:href="#post70_1"/>
      <use id="29SQC1" x="21604.5" y="47680.09" xlink:href="#post70_1"/>
      <use id="29SQC2" x="21445.39" y="48158.92" xlink:href="#post70_1"/>
      <use id="29SQD2" x="21763.47" y="47201.91" xlink:href="#post70_1"/>
      <use id="29TNF3" x="21134.15" y="44316.3" xlink:href="#post70_1"/>
      <use id="29TNG1" x="20998.79" y="43205.51" xlink:href="#post70_1"/>
      <use id="29TNG2" x="20830.61" y="43676.61" xlink:href="#post70_1"/>
      <use id="29TNG3" x="21469.74" y="43373.4" xlink:href="#post70_1"/>
      <use id="29TNG4" x="21302" y="43844.63" xlink:href="#post70_1"/>
      <use id="29TNH3" x="21804.87" y="42432.25" xlink:href="#post70_1"/>
      <use id="29TPE1" x="21271.07" y="45429.09" xlink:href="#post70_1"/>
      <use id="29TPE3" x="21744.22" y="45596.47" xlink:href="#post70_1"/>
      <use id="29TPF1" x="21606.14" y="44483.98" xlink:href="#post70_1"/>
      <use id="29TPF2" x="21438.67" y="44956.28" xlink:href="#post70_1"/>
      <use id="29TPF3" x="22078.23" y="44651.15" xlink:href="#post70_1"/>
      <use id="29TPF4" x="21911.27" y="45123.54" xlink:href="#post70_1"/>
      <use id="29TPG1" x="21940.79" y="43540.86" xlink:href="#post70_1"/>
      <use id="29TPG2" x="21773.52" y="44012.19" xlink:href="#post70_1"/>
      <use id="29TPG3" x="22411.93" y="43707.88" xlink:href="#post70_1"/>
      <use id="29TPG4" x="22245.12" y="44179.27" xlink:href="#post70_1"/>
      <use id="29TPH2" x="22107.99" y="43069.98" xlink:href="#post70_1"/>
      <use id="29TPH3" x="22745.4" y="42766.41" xlink:href="#post70_1"/>
      <use id="29TPH4" x="22578.69" y="43236.93" xlink:href="#post70_1"/>
      <use id="29TPJ2" x="22442.16" y="42129.46" xlink:href="#post70_1"/>
      <use id="29TQF2" x="22397.88" y="45295.18" xlink:href="#post70_1"/>
      <use id="29TQG1" x="22872.45" y="43870.66" xlink:href="#post70_1"/>
      <use id="29TQG2" x="22714.36" y="44345.03" xlink:href="#post70_1"/>
      <use id="29TQH1" x="23188.37" y="42923.22" xlink:href="#post70_1"/>
      <use id="29TQH2" x="23030.44" y="43396.73" xlink:href="#post70_1"/>
      <use id="29TQJ2" x="23346.22" y="42450.09" xlink:href="#post70_1"/>
      <use id="29VPC3" x="27701.5" y="28687.65" xlink:href="#post70_1"/>
      <use id="29VPD3" x="28162.88" y="27788.4" xlink:href="#post70_1"/>
      <use id="29VPD4" x="28012.72" y="28267.49" xlink:href="#post70_1"/>
      <use id="30STE3" x="21436.33" y="50807.53" xlink:href="#post70_1"/>
      <use id="30STF3" x="21708.52" y="49828.91" xlink:href="#post70_1"/>
      <use id="30STF4" x="21572.58" y="50317.84" xlink:href="#post70_1"/>
      <use id="30STG3" x="21908.53" y="48833.51" xlink:href="#post70_1"/>
      <use id="30STH3" x="22194.09" y="47864.89" xlink:href="#post70_1"/>
      <use id="30STH4" x="22051.43" y="48348.86" xlink:href="#post70_1"/>
      <use id="30STJ3" x="22478.69" y="46898.75" xlink:href="#post70_1"/>
      <use id="30STJ4" x="22336.5" y="47381.52" xlink:href="#post70_1"/>
      <use id="30SUF1" x="22197.25" y="49964.31" xlink:href="#post70_1"/>
      <use id="30SUF3" x="22686.29" y="50098.99" xlink:href="#post70_1"/>
      <use id="30SUG2" x="22332.14" y="49475.79" xlink:href="#post70_1"/>
      <use id="30SUG4" x="22820.46" y="49610.19" xlink:href="#post70_1"/>
      <use id="30SUH1" x="22735.11" y="48014.32" xlink:href="#post70_1"/>
      <use id="30SUH2" x="22601.06" y="48500.82" xlink:href="#post70_1"/>
      <use id="30SUH3" x="23221.43" y="48147.92" xlink:href="#post70_1"/>
      <use id="30SUH4" x="23088.02" y="48634.68" xlink:href="#post70_1"/>
      <use id="30SUJ1" x="23002.39" y="47043.15" xlink:href="#post70_1"/>
      <use id="30SUJ4" x="23354.59" y="47661.79" xlink:href="#post70_1"/>
      <use id="30SVF1" x="23175.6" y="50232.93" xlink:href="#post70_1"/>
      <use id="30SVF3" x="23665.14" y="50366.13" xlink:href="#post70_1"/>
      <use id="30SVG3" x="23930.36" y="49388.28" xlink:href="#post70_1"/>
      <use id="30SVG4" x="23797.86" y="49876.85" xlink:href="#post70_1"/>
      <use id="30SVH2" x="23575.24" y="48767.88" xlink:href="#post70_1"/>
      <use id="30SVH3" x="24194.78" y="48413.23" xlink:href="#post70_1"/>
      <use id="30SVH4" x="24062.66" y="48900.42" xlink:href="#post70_1"/>
      <use id="30SVJ1" x="23972.87" y="47308.79" xlink:href="#post70_1"/>
      <use id="30SWF1" x="24154.92" y="50498.58" xlink:href="#post70_1"/>
      <use id="30SWG1" x="24418.68" y="49520.34" xlink:href="#post70_1"/>
      <use id="30SWG2" x="24286.89" y="50009.1" xlink:href="#post70_1"/>
      <use id="30SWG3" x="24907.17" y="49651.69" xlink:href="#post70_1"/>
      <use id="30SWH1" x="24681.74" y="48544.92" xlink:href="#post70_1"/>
      <use id="30SWH2" x="24550.3" y="49032.29" xlink:href="#post70_1"/>
      <use id="30SWJ2" x="24813.03" y="48058.19" xlink:href="#post70_1"/>
      <use id="30SXG3" x="25884.57" y="49912.26" xlink:href="#post70_1"/>
      <use id="30SXH3" x="26143.5" y="48936.06" xlink:href="#post70_1"/>
      <use id="30SXH4" x="26014.09" y="49423.81" xlink:href="#post70_1"/>
      <use id="30SXJ1" x="25916.03" y="47833.01" xlink:href="#post70_1"/>
      <use id="30SXJ3" x="26402.12" y="47962.55" xlink:href="#post70_1"/>
      <use id="30SXJ4" x="26272.85" y="48448.99" xlink:href="#post70_1"/>
      <use id="30SXK2" x="26045.84" y="47347.27" xlink:href="#post70_1"/>
      <use id="30SXK4" x="26531.33" y="47476.74" xlink:href="#post70_1"/>
      <use id="30SYH1" x="26686.1" y="49079.67" xlink:href="#post70_1"/>
      <use id="30SYJ1" x="26927.23" y="48101.78" xlink:href="#post70_1"/>
      <use id="30SYJ2" x="26806.72" y="48590.4" xlink:href="#post70_1"/>
      <use id="30SYK2" x="27047.64" y="47613.77" xlink:href="#post70_1"/>
      <use id="30TTN3" x="23608.73" y="43054.97" xlink:href="#post70_1"/>
      <use id="30TUK3" x="23752.7" y="46206.9" xlink:href="#post70_1"/>
      <use id="30TUM4" x="24148.9" y="44756.7" xlink:href="#post70_1"/>
      <use id="30TUN1" x="24061.95" y="43179.06" xlink:href="#post70_1"/>
      <use id="30TUN2" x="23930.27" y="43660.56" xlink:href="#post70_1"/>
      <use id="30TUN3" x="24543.37" y="43310.46" xlink:href="#post70_1"/>
      <use id="30TUN4" x="24412.06" y="43792.14" xlink:href="#post70_1"/>
      <use id="30TUP2" x="24193.44" y="42697.91" xlink:href="#post70_1"/>
      <use id="30TUP4" x="24674.51" y="42829.14" xlink:href="#post70_1"/>
      <use id="30TVK1" x="24236.95" y="46339.02" xlink:href="#post70_1"/>
      <use id="30TVK3" x="24721.4" y="46470.6" xlink:href="#post70_1"/>
      <use id="30TVL1" x="24500.29" y="45371.35" xlink:href="#post70_1"/>
      <use id="30TVL2" x="24368.71" y="45854.93" xlink:href="#post70_1"/>
      <use id="30TVL3" x="24983.72" y="45502.61" xlink:href="#post70_1"/>
      <use id="30TVL4" x="24852.63" y="45986.35" xlink:href="#post70_1"/>
      <use id="30TVM1" x="24762.94" y="44405.59" xlink:href="#post70_1"/>
      <use id="30TVM2" x="24631.7" y="44888.25" xlink:href="#post70_1"/>
      <use id="30TVM3" x="25245.46" y="44536.54" xlink:href="#post70_1"/>
      <use id="30TVN1" x="25024.95" y="43441.51" xlink:href="#post70_1"/>
      <use id="30TVN2" x="24894.03" y="43923.35" xlink:href="#post70_1"/>
      <use id="30TVN3" x="25506.69" y="43572.19" xlink:href="#post70_1"/>
      <use id="30TVN4" x="25376.14" y="44054.16" xlink:href="#post70_1"/>
      <use id="30TWL1" x="25467.29" y="45633.38" xlink:href="#post70_1"/>
      <use id="30TWL2" x="25336.7" y="46117.26" xlink:href="#post70_1"/>
      <use id="30TWL4" x="25820.9" y="46247.65" xlink:href="#post70_1"/>
      <use id="30TWM1" x="25728.12" y="44667.07" xlink:href="#post70_1"/>
      <use id="30TWM2" x="25597.76" y="45149.99" xlink:href="#post70_1"/>
      <use id="30TWM3" x="26210.88" y="44797.16" xlink:href="#post70_1"/>
      <use id="30TWM4" x="26080.97" y="45280.18" xlink:href="#post70_1"/>
      <use id="30TWN1" x="25988.53" y="43702.5" xlink:href="#post70_1"/>
      <use id="30TWN2" x="25858.37" y="44184.57" xlink:href="#post70_1"/>
      <use id="30TWN3" x="26470.47" y="43832.42" xlink:href="#post70_1"/>
      <use id="30TWN4" x="26340.71" y="44314.58" xlink:href="#post70_1"/>
      <use id="30TXK1" x="26175.55" y="46862.12" xlink:href="#post70_1"/>
      <use id="30TXK3" x="26660.47" y="46991.52" xlink:href="#post70_1"/>
      <use id="30TXL1" x="26434.76" y="45893.45" xlink:href="#post70_1"/>
      <use id="30TXL2" x="26305.19" y="46377.52" xlink:href="#post70_1"/>
      <use id="30TXL3" x="26918.6" y="46022.73" xlink:href="#post70_1"/>
      <use id="30TXL4" x="26789.56" y="46506.86" xlink:href="#post70_1"/>
      <use id="30TXM2" x="26564.27" y="45409.89" xlink:href="#post70_1"/>
      <use id="30TXM3" x="27176.59" y="45056" xlink:href="#post70_1"/>
      <use id="30TXM4" x="27047.62" y="45539.12" xlink:href="#post70_1"/>
      <use id="30TXN1" x="26952.46" y="43961.96" xlink:href="#post70_1"/>
      <use id="30TXN2" x="26823.11" y="44444.17" xlink:href="#post70_1"/>
      <use id="30TXN3" x="27434.5" y="44091.1" xlink:href="#post70_1"/>
      <use id="30TXN4" x="27305.55" y="44573.34" xlink:href="#post70_1"/>
      <use id="30TXP2" x="27081.79" y="43480.14" xlink:href="#post70_1"/>
      <use id="30TYK1" x="27167.97" y="47126.32" xlink:href="#post70_1"/>
      <use id="30TYL2" x="27288.22" y="46639.43" xlink:href="#post70_1"/>
      <use id="30TYM1" x="27648.55" y="45181.83" xlink:href="#post70_1"/>
      <use id="30TYM2" x="27528.5" y="45667.22" xlink:href="#post70_1"/>
      <use id="30TYN1" x="27888.49" y="44212.35" xlink:href="#post70_1"/>
      <use id="30UUG1" x="27749.61" y="29751.16" xlink:href="#post70_1"/>
      <use id="30VUH1" x="28028.44" y="28790.12" xlink:href="#post70_1"/>
      <use id="30VUH2" x="27888.98" y="29270.9" xlink:href="#post70_1"/>
      <use id="30VUH3" x="28436.05" y="28898.94" xlink:href="#post70_1"/>
      <use id="30VUH4" x="28306.68" y="29382.5" xlink:href="#post70_1"/>
      <use id="30VUJ3" x="28694.97" y="27930.1" xlink:href="#post70_1"/>
      <use id="30VUJ4" x="28565.48" y="28414.82" xlink:href="#post70_1"/>
      <use id="30VUK3" x="28954.16" y="26958.71" xlink:href="#post70_1"/>
      <use id="30VUK4" x="28824.53" y="27444.74" xlink:href="#post70_1"/>
      <use id="30VVH1" x="28919.85" y="29028.62" xlink:href="#post70_1"/>
      <use id="30VVH2" x="28789.94" y="29512.1" xlink:href="#post70_1"/>
      <use id="30VVH3" x="29403.57" y="29158.85" xlink:href="#post70_1"/>
      <use id="30VVJ1" x="29179.97" y="28059.93" xlink:href="#post70_1"/>
      <use id="30VVJ2" x="29049.86" y="28544.57" xlink:href="#post70_1"/>
      <use id="30VVJ3" x="29664.85" y="28190.41" xlink:href="#post70_1"/>
      <use id="30VVJ4" x="29534.14" y="28674.92" xlink:href="#post70_1"/>
      <use id="30VVK1" x="29440.5" y="27088.74" xlink:href="#post70_1"/>
      <use id="30VVK2" x="29310.18" y="27574.67" xlink:href="#post70_1"/>
      <use id="30VVK3" x="29926.71" y="27219.49" xlink:href="#post70_1"/>
      <use id="30VVK4" x="29795.7" y="27705.28" xlink:href="#post70_1"/>
      <use id="30VWH1" x="29887.16" y="29289.62" xlink:href="#post70_1"/>
      <use id="30VWJ1" x="30149.58" y="28321.5" xlink:href="#post70_1"/>
      <use id="30VWJ2" x="30018.29" y="28805.85" xlink:href="#post70_1"/>
      <use id="31SBE4" x="27599.05" y="47739.67" xlink:href="#post70_1"/>
      <use id="31TBE3" x="27702.22" y="47248.31" xlink:href="#post70_1"/>
      <use id="31TBF4" x="27805.23" y="46757.49" xlink:href="#post70_1"/>
      <use id="31TBH3" x="28317.95" y="44310.42" xlink:href="#post70_1"/>
      <use id="31TBH4" x="28215.7" y="44798.99" xlink:href="#post70_1"/>
      <use id="31TCF1" x="28405.9" y="46362.35" xlink:href="#post70_1"/>
      <use id="31TCG1" x="28593.1" y="45379.46" xlink:href="#post70_1"/>
      <use id="31TCG2" x="28499.59" y="45870.67" xlink:href="#post70_1"/>
      <use id="31TCG3" x="29084.2" y="45472.66" xlink:href="#post70_1"/>
      <use id="31TCG4" x="28991.12" y="45964.05" xlink:href="#post70_1"/>
      <use id="31TCH1" x="28779.58" y="44398.24" xlink:href="#post70_1"/>
      <use id="31TCH2" x="28686.42" y="44888.65" xlink:href="#post70_1"/>
      <use id="31TCH3" x="29269.89" y="44491.13" xlink:href="#post70_1"/>
      <use id="31TCH4" x="29177.11" y="44981.69" xlink:href="#post70_1"/>
      <use id="31TCM3" x="30007.41" y="40577.63" xlink:href="#post70_1"/>
      <use id="31TCN4" x="30099.1" y="40089.4" xlink:href="#post70_1"/>
      <use id="31TDG1" x="29575.45" y="45565.44" xlink:href="#post70_1"/>
      <use id="31TDG2" x="29482.82" y="46056.97" xlink:href="#post70_1"/>
      <use id="31TDG3" x="30066.82" y="45657.79" xlink:href="#post70_1"/>
      <use id="31TDG4" x="29974.64" y="46149.44" xlink:href="#post70_1"/>
      <use id="31TDH4" x="30158.91" y="45166.58" xlink:href="#post70_1"/>
      <use id="31TDM1" x="30495.76" y="40669.29" xlink:href="#post70_1"/>
      <use id="31TDM3" x="30984.19" y="40760.79" xlink:href="#post70_1"/>
      <use id="31TDN2" x="30587.31" y="40180.97" xlink:href="#post70_1"/>
      <use id="31TDN3" x="31166.96" y="39784.18" xlink:href="#post70_1"/>
      <use id="31TDN4" x="31075.6" y="40272.42" xlink:href="#post70_1"/>
      <use id="31TEM1" x="31472.66" y="40852.14" xlink:href="#post70_1"/>
      <use id="31TEM3" x="31961.15" y="40943.34" xlink:href="#post70_1"/>
      <use id="31TEN1" x="31655.18" y="39875.48" xlink:href="#post70_1"/>
      <use id="31TEN2" x="31563.92" y="40363.75" xlink:href="#post70_1"/>
      <use id="31TEN3" x="32143.39" y="39966.68" xlink:href="#post70_1"/>
      <use id="31TEN4" x="32052.26" y="40454.94" xlink:href="#post70_1"/>
      <use id="31TFL3" x="32756.66" y="42102.39" xlink:href="#post70_1"/>
      <use id="31TFM1" x="32449.62" y="41034.36" xlink:href="#post70_1"/>
      <use id="31TFM2" x="32358.7" y="41522.89" xlink:href="#post70_1"/>
      <use id="31TFM3" x="32938.05" y="41125.2" xlink:href="#post70_1"/>
      <use id="31TFM4" x="32847.32" y="41613.69" xlink:href="#post70_1"/>
      <use id="31TFN1" x="32631.58" y="40057.77" xlink:href="#post70_1"/>
      <use id="31TFN2" x="32540.57" y="40545.99" xlink:href="#post70_1"/>
      <use id="31TFN3" x="33119.72" y="40148.74" xlink:href="#post70_1"/>
      <use id="31TFN4" x="33028.84" y="40636.9" xlink:href="#post70_1"/>
      <use id="31TGL1" x="33163.21" y="42177.69" xlink:href="#post70_1"/>
      <use id="31TGM1" x="33469.28" y="41223.83" xlink:href="#post70_1"/>
      <use id="31TGM2" x="33397.33" y="41715.66" xlink:href="#post70_1"/>
      <use id="31TGN1" x="33613.12" y="40240.58" xlink:href="#post70_1"/>
      <use id="31TGN2" x="33541.21" y="40732.14" xlink:href="#post70_1"/>
      <use id="31UDP3" x="31349.61" y="38807.95" xlink:href="#post70_1"/>
      <use id="31UDP4" x="31258.3" y="39296.03" xlink:href="#post70_1"/>
      <use id="31UDQ3" x="31532.16" y="37831.89" xlink:href="#post70_1"/>
      <use id="31UDQ4" x="31440.9" y="38319.92" xlink:href="#post70_1"/>
      <use id="31UDR4" x="31623.42" y="37343.84" xlink:href="#post70_1"/>
      <use id="31UEP1" x="31837.68" y="38899.23" xlink:href="#post70_1"/>
      <use id="31UEP2" x="31746.43" y="39387.32" xlink:href="#post70_1"/>
      <use id="31UEP3" x="32325.74" y="38990.46" xlink:href="#post70_1"/>
      <use id="31UEP4" x="32234.55" y="39478.53" xlink:href="#post70_1"/>
      <use id="31UEQ1" x="32020.21" y="37923.16" xlink:href="#post70_1"/>
      <use id="31UEQ2" x="31928.93" y="38411.19" xlink:href="#post70_1"/>
      <use id="31UEQ3" x="32508.23" y="38014.44" xlink:href="#post70_1"/>
      <use id="31UEQ4" x="32416.96" y="38502.44" xlink:href="#post70_1"/>
      <use id="31UER3" x="32690.91" y="37038.4" xlink:href="#post70_1"/>
      <use id="31UER4" x="32599.54" y="37526.43" xlink:href="#post70_1"/>
      <use id="31UFP1" x="32813.76" y="39081.64" xlink:href="#post70_1"/>
      <use id="31UFP2" x="32722.64" y="39569.66" xlink:href="#post70_1"/>
      <use id="31UFP3" x="33301.71" y="39172.76" xlink:href="#post70_1"/>
      <use id="31UFP4" x="33210.67" y="39660.7" xlink:href="#post70_1"/>
      <use id="31UFQ1" x="32996.2" y="38105.74" xlink:href="#post70_1"/>
      <use id="31UFQ2" x="32904.94" y="38593.67" xlink:href="#post70_1"/>
      <use id="31UFQ3" x="33484.09" y="38197.03" xlink:href="#post70_1"/>
      <use id="31UFQ4" x="33392.85" y="38684.87" xlink:href="#post70_1"/>
      <use id="31UFR1" x="33178.96" y="37129.83" xlink:href="#post70_1"/>
      <use id="31UFR2" x="33087.54" y="37617.79" xlink:href="#post70_1"/>
      <use id="31UFR3" x="33733.73" y="37233.86" xlink:href="#post70_1"/>
      <use id="31UFR4" x="33575.45" y="37709.18" xlink:href="#post70_1"/>
      <use id="31UGP1" x="33756.9" y="39257.72" xlink:href="#post70_1"/>
      <use id="31UGP2" x="33685.02" y="39749.12" xlink:href="#post70_1"/>
      <use id="32SMJ4" x="34589.53" y="49886.54" xlink:href="#post70_1"/>
      <use id="32SMK4" x="34696.26" y="48885.88" xlink:href="#post70_1"/>
      <use id="32TLR4" x="34341.69" y="42817.29" xlink:href="#post70_1"/>
      <use id="32TLS1" x="34006.5" y="41281.51" xlink:href="#post70_1"/>
      <use id="32TLT1" x="34112.15" y="40293.92" xlink:href="#post70_1"/>
      <use id="32TLT2" x="34059.38" y="40787.66" xlink:href="#post70_1"/>
      <use id="32TLT3" x="34605.89" y="40346.6" xlink:href="#post70_1"/>
      <use id="32TLT4" x="34553.24" y="40840.43" xlink:href="#post70_1"/>
      <use id="32TML4" x="34802.69" y="47887.54" xlink:href="#post70_1"/>
      <use id="32TMT1" x="35099.72" y="40399.17" xlink:href="#post70_1"/>
      <use id="32TMT3" x="35593.59" y="40451.64" xlink:href="#post70_1"/>
      <use id="32TNL2" x="35301.35" y="47940.42" xlink:href="#post70_1"/>
      <use id="32TNT1" x="36087.5" y="40504.02" xlink:href="#post70_1"/>
      <use id="32TNT3" x="36581.4" y="40556.29" xlink:href="#post70_1"/>
      <use id="32TPM3" x="36950.71" y="46602.12" xlink:href="#post70_1"/>
      <use id="32TPN1" x="36556.75" y="45557.15" xlink:href="#post70_1"/>
      <use id="32TPN3" x="37053.12" y="45608.6" xlink:href="#post70_1"/>
      <use id="32TPN4" x="37001.89" y="46105.15" xlink:href="#post70_1"/>
      <use id="32TPR3" x="37361.79" y="42636.75" xlink:href="#post70_1"/>
      <use id="32TPS4" x="37413.49" y="42142.41" xlink:href="#post70_1"/>
      <use id="32TQM1" x="37436.61" y="46651.89" xlink:href="#post70_1"/>
      <use id="32TQN2" x="37478.57" y="46154.08" xlink:href="#post70_1"/>
      <use id="32TQS2" x="37969.84" y="42200.53" xlink:href="#post70_1"/>
      <use id="32ULA1" x="34358.85" y="37325.31" xlink:href="#post70_1"/>
      <use id="32ULA2" x="34374.34" y="37826.06" xlink:href="#post70_1"/>
      <use id="32ULA3" x="34920.18" y="37384.55" xlink:href="#post70_1"/>
      <use id="32ULA4" x="34867.99" y="37878.26" xlink:href="#post70_1"/>
      <use id="32ULB2" x="34420.85" y="36832.66" xlink:href="#post70_1"/>
      <use id="32ULU1" x="34217.36" y="39306.71" xlink:href="#post70_1"/>
      <use id="32ULU2" x="34164.81" y="39800.28" xlink:href="#post70_1"/>
      <use id="32ULU3" x="34710.97" y="39359.19" xlink:href="#post70_1"/>
      <use id="32ULU4" x="34658.47" y="39852.86" xlink:href="#post70_1"/>
      <use id="32ULV1" x="34322.13" y="38319.63" xlink:href="#post70_1"/>
      <use id="32ULV2" x="34269.8" y="38813.16" xlink:href="#post70_1"/>
      <use id="32ULV3" x="34815.72" y="38371.92" xlink:href="#post70_1"/>
      <use id="32ULV4" x="34763.39" y="38865.55" xlink:href="#post70_1"/>
      <use id="32UMA1" x="35413.96" y="37436.76" xlink:href="#post70_1"/>
      <use id="32UMA2" x="35361.71" y="37930.51" xlink:href="#post70_1"/>
      <use id="32UMA3" x="35907.79" y="37489.04" xlink:href="#post70_1"/>
      <use id="32UMA4" x="35855.46" y="37982.83" xlink:href="#post70_1"/>
      <use id="32UMU1" x="35204.66" y="39411.62" xlink:href="#post70_1"/>
      <use id="32UMU2" x="35152.21" y="39905.36" xlink:href="#post70_1"/>
      <use id="32UMU3" x="35698.4" y="39464.02" xlink:href="#post70_1"/>
      <use id="32UMU4" x="35646.01" y="39957.8" xlink:href="#post70_1"/>
      <use id="32UMV1" x="35309.4" y="38424.23" xlink:href="#post70_1"/>
      <use id="32UMV2" x="35257.05" y="38917.92" xlink:href="#post70_1"/>
      <use id="32UMV4" x="35750.77" y="38970.3" xlink:href="#post70_1"/>
      <use id="32UNA2" x="36349.23" y="38035.19" xlink:href="#post70_1"/>
      <use id="32UNB1" x="36506.48" y="36553.57" xlink:href="#post70_1"/>
      <use id="32UNB3" x="37000.5" y="36606.1" xlink:href="#post70_1"/>
      <use id="32UNC2" x="36558.95" y="36059.46" xlink:href="#post70_1"/>
      <use id="32UNC4" x="37053.13" y="36112.04" xlink:href="#post70_1"/>
      <use id="32UNU1" x="36192.16" y="39516.38" xlink:href="#post70_1"/>
      <use id="32UNU2" x="36139.83" y="40010.17" xlink:href="#post70_1"/>
      <use id="32UNU3" x="36685.9" y="39568.69" xlink:href="#post70_1"/>
      <use id="32UNU4" x="36633.64" y="40062.45" xlink:href="#post70_1"/>
      <use id="32UNV1" x="36296.86" y="38528.93" xlink:href="#post70_1"/>
      <use id="32UNV2" x="36244.49" y="39022.65" xlink:href="#post70_1"/>
      <use id="32UPA1" x="37389.18" y="37646.37" xlink:href="#post70_1"/>
      <use id="32UPA2" x="37336.67" y="38140.04" xlink:href="#post70_1"/>
      <use id="32UPB1" x="37494.46" y="36658.77" xlink:href="#post70_1"/>
      <use id="32UPB2" x="37441.77" y="37152.62" xlink:href="#post70_1"/>
      <use id="32UPB3" x="38035.91" y="36716.66" xlink:href="#post70_1"/>
      <use id="32UPB4" x="37993.15" y="37211.46" xlink:href="#post70_1"/>
      <use id="32UPC2" x="37547.24" y="36164.78" xlink:href="#post70_1"/>
      <use id="32UPC4" x="38078.73" y="36221.72" xlink:href="#post70_1"/>
      <use id="33SVB1" x="39258.37" y="51751.17" xlink:href="#post70_1"/>
      <use id="33SVB2" x="39243.9" y="52257.14" xlink:href="#post70_1"/>
      <use id="33SVB4" x="39750.28" y="52271.28" xlink:href="#post70_1"/>
      <use id="33SWA1" x="40243.7" y="52791.45" xlink:href="#post70_1"/>
      <use id="33SWC2" x="40282.7" y="51273.3" xlink:href="#post70_1"/>
      <use id="33SWC4" x="40787.66" y="51285.93" xlink:href="#post70_1"/>
      <use id="33SWD3" x="40824.65" y="49774.09" xlink:href="#post70_1"/>
      <use id="33SWE4" x="40837.03" y="49271.4" xlink:href="#post70_1"/>
      <use id="33SXD1" x="41327.63" y="49786.15" xlink:href="#post70_1"/>
      <use id="33SXD2" x="41315.91" y="50289.4" xlink:href="#post70_1"/>
      <use id="33SXE2" x="41339.41" y="49283.49" xlink:href="#post70_1"/>
      <use id="33TTG3" x="37912.29" y="46683.34" xlink:href="#post70_1"/>
      <use id="33TTH4" x="37936.24" y="46184.35" xlink:href="#post70_1"/>
      <use id="33TUG1" x="38400.51" y="46697.98" xlink:href="#post70_1"/>
      <use id="33TUG2" x="38385.69" y="47197.8" xlink:href="#post70_1"/>
      <use id="33TUG3" x="38900.17" y="46712.52" xlink:href="#post70_1"/>
      <use id="33TUG4" x="38885.81" y="47212.44" xlink:href="#post70_1"/>
      <use id="33TUH1" x="38429.82" y="45699.63" xlink:href="#post70_1"/>
      <use id="33TUH2" x="38415.22" y="46198.6" xlink:href="#post70_1"/>
      <use id="33TUH3" x="38928.64" y="45713.99" xlink:href="#post70_1"/>
      <use id="33TUH4" x="38914.44" y="46213.04" xlink:href="#post70_1"/>
      <use id="33TUK3" x="38984.63" y="43721.35" xlink:href="#post70_1"/>
      <use id="33TUL3" x="39012.15" y="42726.81" xlink:href="#post70_1"/>
      <use id="33TUL4" x="38998.43" y="43223.96" xlink:href="#post70_1"/>
      <use id="33TUM2" x="38528.99" y="42216.17" xlink:href="#post70_1"/>
      <use id="33TUM4" x="39025.79" y="42229.87" xlink:href="#post70_1"/>
      <use id="33TVF1" x="39372.06" y="47727.07" xlink:href="#post70_1"/>
      <use id="33TVG1" x="39399.91" y="46726.62" xlink:href="#post70_1"/>
      <use id="33TVG2" x="39386.01" y="47226.61" xlink:href="#post70_1"/>
      <use id="33TVG4" x="39886.26" y="47240.3" xlink:href="#post70_1"/>
      <use id="33TVK1" x="39482.2" y="43735.05" xlink:href="#post70_1"/>
      <use id="33TVK3" x="39979.82" y="43748.48" xlink:href="#post70_1"/>
      <use id="33TVL1" x="39509.22" y="42740.38" xlink:href="#post70_1"/>
      <use id="33TVL2" x="39495.74" y="43237.59" xlink:href="#post70_1"/>
      <use id="33TVL3" x="40006.35" y="42753.73" xlink:href="#post70_1"/>
      <use id="33TVL4" x="39993.1" y="43250.98" xlink:href="#post70_1"/>
      <use id="33TVM2" x="39522.66" y="42243.39" xlink:href="#post70_1"/>
      <use id="33TVM3" x="40032.8" y="41759.86" xlink:href="#post70_1"/>
      <use id="33TVM4" x="40019.58" y="42256.7" xlink:href="#post70_1"/>
      <use id="33TWE3" x="40849.44" y="48769.3" xlink:href="#post70_1"/>
      <use id="33TWF3" x="40874.33" y="47766.75" xlink:href="#post70_1"/>
      <use id="33TWG2" x="40386.54" y="47253.52" xlink:href="#post70_1"/>
      <use id="33TWG4" x="40886.81" y="47266.26" xlink:href="#post70_1"/>
      <use id="33TWJ3" x="40949.71" y="44770.33" xlink:href="#post70_1"/>
      <use id="33TWL1" x="40503.5" y="42766.87" xlink:href="#post70_1"/>
      <use id="33TWL2" x="40490.47" y="43264.12" xlink:href="#post70_1"/>
      <use id="33TWL3" x="41000.63" y="42779.78" xlink:href="#post70_1"/>
      <use id="33TWL4" x="40987.85" y="43277.01" xlink:href="#post70_1"/>
      <use id="33TWM2" x="40516.52" y="42269.83" xlink:href="#pre70_1"/>
      <use id="33TWM3" x="41026.32" y="41785.95" xlink:href="#post70_1"/>
      <use id="33TWM4" x="41013.45" y="42282.77" xlink:href="#pre70_1"/>
      <use id="33TXE1" x="41351.24" y="48781.44" xlink:href="#post70_1"/>
      <use id="33TXF2" x="41363.13" y="48279.95" xlink:href="#post70_1"/>
      <use id="33TXF3" x="41875.75" y="47790.7" xlink:href="#post70_1"/>
      <use id="33TXH3" x="41922.29" y="45791.9" xlink:href="#post70_1"/>
      <use id="33TXL1" x="41497.74" y="42792.47" xlink:href="#pre70_1"/>
      <use id="33TXL2" x="41485.19" y="43289.65" xlink:href="#pre70_1"/>
      <use id="33TXL3" x="41994.77" y="42804.94" xlink:href="#post70_1"/>
      <use id="33TXL4" x="41982.46" y="43302.04" xlink:href="#pre70_1"/>
      <use id="33TXM1" x="41523.03" y="41798.75" xlink:href="#post70_1"/>
      <use id="33TXM2" x="41510.35" y="42295.51" xlink:href="#post70_1"/>
      <use id="33TXM3" x="42019.68" y="41811.38" xlink:href="#post70_1"/>
      <use id="33TXM4" x="42007.18" y="42308.06" xlink:href="#post70_1"/>
      <use id="33TXN2" x="41535.78" y="41302.15" xlink:href="#post70_1"/>
      <use id="33TXN3" x="42044.98" y="40818.48" xlink:href="#post70_1"/>
      <use id="33TXN4" x="42032.28" y="41314.86" xlink:href="#post70_1"/>
      <use id="33TYL1" x="42408.11" y="42815.15" xlink:href="#post70_1"/>
      <use id="33TYM1" x="42559.82" y="41824.94" xlink:href="#post70_1"/>
      <use id="33TYM2" x="42566.38" y="42321.96" xlink:href="#post70_1"/>
      <use id="33TYN1" x="42546.69" y="40831.31" xlink:href="#post70_1"/>
      <use id="33TYN2" x="42553.25" y="41328.06" xlink:href="#post70_1"/>
      <use id="33UUP3" x="39092.84" y="39747.48" xlink:href="#post70_1"/>
      <use id="33UUQ2" x="38609.83" y="39238.08" xlink:href="#post70_1"/>
      <use id="33UUQ4" x="39106.02" y="39251.23" xlink:href="#post70_1"/>
      <use id="33UUS2" x="38603.66" y="37251.83" xlink:href="#post70_1"/>
      <use id="33UVP3" x="40085.47" y="39773.83" xlink:href="#post70_1"/>
      <use id="33UWP1" x="40581.82" y="39786.94" xlink:href="#post70_1"/>
      <use id="33UWP4" x="41065.14" y="40296.35" xlink:href="#post70_1"/>
      <use id="33UXP1" x="41574.46" y="39813.03" xlink:href="#post70_1"/>
      <use id="33UXP3" x="42070.68" y="39826.01" xlink:href="#post70_1"/>
      <use id="33UXP4" x="42057.78" y="40322.2" xlink:href="#post70_1"/>
      <use id="33UYP1" x="42533.58" y="39838.07" xlink:href="#post70_1"/>
      <use id="33UYP2" x="42540.13" y="40334.66" xlink:href="#post70_1"/>
      <use id="34SDJ3" x="45006.79" y="49699.54" xlink:href="#post70_1"/>
      <use id="34SDK4" x="44980.54" y="49197.36" xlink:href="#post70_1"/>
      <use id="34SEH1" x="45563.1" y="50679.13" xlink:href="#post70_1"/>
      <use id="34SEH3" x="46066.81" y="50651.83" xlink:href="#post70_1"/>
      <use id="34SEJ1" x="45509.27" y="49672.97" xlink:href="#post70_1"/>
      <use id="34SEJ2" x="45536.16" y="50175.72" xlink:href="#post70_1"/>
      <use id="34SEJ3" x="46011.7" y="49645.79" xlink:href="#post70_1"/>
      <use id="34SEJ4" x="46039.21" y="50148.49" xlink:href="#post70_1"/>
      <use id="34SEK2" x="45482.41" y="49170.82" xlink:href="#post70_1"/>
      <use id="34SEK4" x="45984.25" y="49143.7" xlink:href="#post70_1"/>
      <use id="34SFH1" x="46570.45" y="50623.86" xlink:href="#post70_1"/>
      <use id="34SFH2" x="46598.8" y="51127.77" xlink:href="#post70_1"/>
      <use id="34SFJ2" x="46542.19" y="50120.61" xlink:href="#post70_1"/>
      <use id="34SFJ3" x="47016.3" y="49589.59" xlink:href="#post70_1"/>
      <use id="34SFJ4" x="47045.07" y="50092.09" xlink:href="#post70_1"/>
      <use id="34SFK2" x="46486.01" y="49116" xlink:href="#post70_1"/>
      <use id="34SGE4" x="48270.39" y="54077.35" xlink:href="#pre70_1"/>
      <use id="34TBN4" x="42848.22" y="46295.93" xlink:href="#post70_1"/>
      <use id="34TBQ4" x="42785.3" y="44302.53" xlink:href="#pre70_1"/>
      <use id="34TBR3" x="42737.62" y="42810.79" xlink:href="#post70_1"/>
      <use id="34TBR4" x="42753.56" y="43307.78" xlink:href="#pre70_1"/>
      <use id="34TCN4" x="43825.62" y="46247.12" xlink:href="#post70_1"/>
      <use id="34TCP3" x="43749.42" y="44752.42" xlink:href="#post70_1"/>
      <use id="34TCP4" x="43774.87" y="45250.28" xlink:href="#post70_1"/>
      <use id="34TCQ3" x="43698.37" y="43757.69" xlink:href="#post70_1"/>
      <use id="34TCR1" x="43150.54" y="42789.68" xlink:href="#post70_1"/>
      <use id="34TCR2" x="43175.98" y="43286.28" xlink:href="#post70_1"/>
      <use id="34TCR4" x="43672.75" y="43260.76" xlink:href="#post70_1"/>
      <use id="34TCS1" x="43099.41" y="41797.12" xlink:href="#post70_1"/>
      <use id="34TCS2" x="43125.02" y="42293.3" xlink:href="#post70_1"/>
      <use id="34TCS3" x="43595.54" y="41771.38" xlink:href="#post70_1"/>
      <use id="34TCS4" x="43621.34" y="42267.63" xlink:href="#post70_1"/>
      <use id="34TCT1" x="43047.89" y="40805.23" xlink:href="#post70_1"/>
      <use id="34TCT2" x="43073.7" y="41301.11" xlink:href="#post70_1"/>
      <use id="34TCT3" x="43543.76" y="40779.33" xlink:href="#post70_1"/>
      <use id="34TCT4" x="43569.69" y="41275.29" xlink:href="#post70_1"/>
      <use id="34TDK3" x="44954.31" y="48695.76" xlink:href="#post70_1"/>
      <use id="34TDL1" x="44401.63" y="47720.17" xlink:href="#post70_1"/>
      <use id="34TDM1" x="44350.21" y="46720.65" xlink:href="#post70_1"/>
      <use id="34TDM3" x="44849.51" y="46694.7" xlink:href="#post70_1"/>
      <use id="34TDN1" x="44298.71" y="45722.93" xlink:href="#post70_1"/>
      <use id="34TDN2" x="44324.47" y="46221.58" xlink:href="#post70_1"/>
      <use id="34TDN3" x="44797.18" y="45696.97" xlink:href="#post70_1"/>
      <use id="34TDN4" x="44823.35" y="46195.62" xlink:href="#post70_1"/>
      <use id="34TDP1" x="44247.14" y="44726.78" xlink:href="#post70_1"/>
      <use id="34TDP2" x="44272.94" y="45224.67" xlink:href="#post70_1"/>
      <use id="34TDP3" x="44744.87" y="44700.79" xlink:href="#post70_1"/>
      <use id="34TDP4" x="44771.03" y="45198.7" xlink:href="#post70_1"/>
      <use id="34TDQ1" x="44195.46" y="43731.96" xlink:href="#post70_1"/>
      <use id="34TDQ2" x="44221.31" y="44229.21" xlink:href="#post70_1"/>
      <use id="34TDQ3" x="44692.58" y="43705.96" xlink:href="#post70_1"/>
      <use id="34TDQ4" x="44718.72" y="44203.22" xlink:href="#post70_1"/>
      <use id="34TDR2" x="44169.58" y="43234.99" xlink:href="#post70_1"/>
      <use id="34TDS1" x="44091.75" y="41745.47" xlink:href="#post70_1"/>
      <use id="34TDS2" x="44117.73" y="42241.77" xlink:href="#post70_1"/>
      <use id="34TDS3" x="44587.99" y="41719.39" xlink:href="#post70_1"/>
      <use id="34TDS4" x="44614.14" y="42215.71" xlink:href="#post70_1"/>
      <use id="34TDT1" x="44039.69" y="40753.31" xlink:href="#post70_1"/>
      <use id="34TDT2" x="44065.74" y="41249.32" xlink:href="#post70_1"/>
      <use id="34TDT3" x="44535.66" y="40727.19" xlink:href="#post70_1"/>
      <use id="34TDT4" x="44561.83" y="41223.23" xlink:href="#post70_1"/>
      <use id="34TEK1" x="45455.61" y="48669.26" xlink:href="#post70_1"/>
      <use id="34TEK3" x="45956.87" y="48642.2" xlink:href="#post70_1"/>
      <use id="34TEL2" x="45428.85" y="48168.26" xlink:href="#post70_1"/>
      <use id="34TEL4" x="45929.56" y="48141.25" xlink:href="#post70_1"/>
      <use id="34TEM1" x="45348.81" y="46668.3" xlink:href="#post70_1"/>
      <use id="34TEM2" x="45375.45" y="47167.81" xlink:href="#post70_1"/>
      <use id="34TEM4" x="45875.16" y="47140.91" xlink:href="#post70_1"/>
      <use id="34TEN1" x="45295.64" y="45670.62" xlink:href="#post70_1"/>
      <use id="34TEN2" x="45322.2" y="46169.25" xlink:href="#post70_1"/>
      <use id="34TEN3" x="45794.07" y="45643.87" xlink:href="#post70_1"/>
      <use id="34TEN4" x="45821.03" y="46142.45" xlink:href="#post70_1"/>
      <use id="34TEP1" x="45242.61" y="44674.48" xlink:href="#post70_1"/>
      <use id="34TEP2" x="45269.1" y="45172.37" xlink:href="#post70_1"/>
      <use id="34TEP3" x="45740.31" y="44647.83" xlink:href="#post70_1"/>
      <use id="34TEP4" x="45767.15" y="45145.67" xlink:href="#post70_1"/>
      <use id="34TEQ1" x="45189.7" y="43679.68" xlink:href="#post70_1"/>
      <use id="34TEQ2" x="45216.14" y="44176.92" xlink:href="#post70_1"/>
      <use id="34TEQ3" x="45686.8" y="43653.11" xlink:href="#pre70_1"/>
      <use id="34TEQ4" x="45713.52" y="44150.32" xlink:href="#post70_1"/>
      <use id="34TER1" x="45136.92" y="42685.98" xlink:href="#pre70_1"/>
      <use id="34TER2" x="45163.29" y="43182.7" xlink:href="#post70_1"/>
      <use id="34TES1" x="45084.23" y="41693.15" xlink:href="#post70_1"/>
      <use id="34TES2" x="45110.56" y="42189.46" xlink:href="#post70_1"/>
      <use id="34TES3" x="45580.46" y="41666.76" xlink:href="#pre70_1"/>
      <use id="34TET1" x="45031.65" y="40700.97" xlink:href="#post70_1"/>
      <use id="34TET2" x="45057.92" y="41197" xlink:href="#post70_1"/>
      <use id="34TET3" x="45527.6" y="40674.65" xlink:href="#post70_1"/>
      <use id="34TET4" x="45554.01" y="41170.63" xlink:href="#post70_1"/>
      <use id="34TFK1" x="46458.06" y="48614.59" xlink:href="#post70_1"/>
      <use id="34TFL2" x="46430.22" y="48113.72" xlink:href="#post70_1"/>
      <use id="34TFL3" x="46902.5" y="47585.43" xlink:href="#post70_1"/>
      <use id="34TFL4" x="46930.76" y="48085.66" xlink:href="#post70_1"/>
      <use id="34TFM1" x="46347.25" y="46614.17" xlink:href="#post70_1"/>
      <use id="34TFM3" x="46846.36" y="46586.44" xlink:href="#post70_1"/>
      <use id="34TFM4" x="46874.37" y="47085.7" xlink:href="#post70_1"/>
      <use id="34TFN1" x="46292.42" y="45616.74" xlink:href="#post70_1"/>
      <use id="34TFN2" x="46319.8" y="46115.24" xlink:href="#post70_1"/>
      <use id="34TFN3" x="46790.69" y="45589.22" xlink:href="#post70_1"/>
      <use id="34TFN4" x="46818.47" y="46087.62" xlink:href="#post70_1"/>
      <use id="34TFP1" x="46237.95" y="44620.85" xlink:href="#post70_1"/>
      <use id="34TFP2" x="46265.15" y="45118.62" xlink:href="#post70_1"/>
      <use id="34TFP3" x="46735.51" y="44593.53" xlink:href="#post70_1"/>
      <use id="34TFP4" x="46763.04" y="45091.2" xlink:href="#post70_1"/>
      <use id="34TFQ1" x="46183.83" y="43626.28" xlink:href="#pre70_1"/>
      <use id="34TFQ2" x="46210.85" y="44123.41" xlink:href="#post70_1"/>
      <use id="34TFS1" x="46076.63" y="41640.2" xlink:href="#pre70_1"/>
      <use id="34TFS2" x="46103.3" y="42136.41" xlink:href="#post70_1"/>
      <use id="34TFT1" x="46023.51" y="40648.22" xlink:href="#post70_1"/>
      <use id="34TGK1" x="47483.39" y="48556.33" xlink:href="#post70_1"/>
      <use id="34TGL1" x="47408.52" y="47556.63" xlink:href="#post70_1"/>
      <use id="34TGL2" x="47445.91" y="48056.22" xlink:href="#post70_1"/>
      <use id="34TGM1" x="47334.02" y="46558.91" xlink:href="#post70_1"/>
      <use id="34TGM2" x="47371.23" y="47057.54" xlink:href="#post70_1"/>
      <use id="34TGN1" x="47259.87" y="45562.94" xlink:href="#post70_1"/>
      <use id="34TGN2" x="47296.9" y="46060.72" xlink:href="#post70_1"/>
      <use id="34TGP1" x="47186.05" y="44568.52" xlink:href="#post70_1"/>
      <use id="34TGP2" x="47222.91" y="45065.55" xlink:href="#post70_1"/>
      <use id="34TGQ2" x="47149.26" y="44071.8" xlink:href="#post70_1"/>
      <use id="34UCU1" x="42995.99" y="39813.79" xlink:href="#post70_1"/>
      <use id="34UCU2" x="43021.99" y="40309.47" xlink:href="#post70_1"/>
      <use id="34UCU3" x="43491.7" y="39787.71" xlink:href="#post70_1"/>
      <use id="34UCU4" x="43517.76" y="40283.48" xlink:href="#post70_1"/>
      <use id="34UCV1" x="42943.68" y="38822.54" xlink:href="#post70_1"/>
      <use id="34UCV2" x="42969.89" y="39318.15" xlink:href="#post70_1"/>
      <use id="34UCV3" x="43439.34" y="38796.28" xlink:href="#post70_1"/>
      <use id="34UCV4" x="43465.56" y="39291.98" xlink:href="#post70_1"/>
      <use id="34UDA2" x="43908.83" y="38274.25" xlink:href="#post70_1"/>
      <use id="34UDA4" x="44404.65" y="38247.99" xlink:href="#post70_1"/>
      <use id="34UDU1" x="43987.47" y="39761.58" xlink:href="#post70_1"/>
      <use id="34UDU2" x="44013.6" y="40257.41" xlink:href="#post70_1"/>
      <use id="34UDU3" x="44483.3" y="39735.41" xlink:href="#post70_1"/>
      <use id="34UDU4" x="44509.48" y="40231.27" xlink:href="#post70_1"/>
      <use id="34UDV1" x="43935.09" y="38770.04" xlink:href="#post70_1"/>
      <use id="34UDV2" x="43961.3" y="39265.8" xlink:href="#post70_1"/>
      <use id="34UDV3" x="44430.88" y="38743.81" xlink:href="#post70_1"/>
      <use id="34UDV4" x="44457.1" y="39239.61" xlink:href="#post70_1"/>
      <use id="34UEA2" x="44900.49" y="38221.78" xlink:href="#post70_1"/>
      <use id="34UEA4" x="45396.32" y="38195.6" xlink:href="#post70_1"/>
      <use id="34UEU1" x="44979.13" y="39709.2" xlink:href="#post70_1"/>
      <use id="34UEU2" x="45005.38" y="40205.05" xlink:href="#post70_1"/>
      <use id="34UEU3" x="45474.95" y="39682.94" xlink:href="#post70_1"/>
      <use id="34UEU4" x="45501.25" y="40178.76" xlink:href="#post70_1"/>
      <use id="34UEV1" x="44926.69" y="38717.59" xlink:href="#post70_1"/>
      <use id="34UEV2" x="44952.9" y="39213.39" xlink:href="#post70_1"/>
      <use id="34UEV3" x="45422.48" y="38691.39" xlink:href="#post70_1"/>
      <use id="34UEV4" x="45448.7" y="39187.16" xlink:href="#post70_1"/>
      <use id="34UFA1" x="45866.05" y="37673.72" xlink:href="#pre70_1"/>
      <use id="34UFA2" x="45892.11" y="38169.49" xlink:href="#post70_1"/>
      <use id="34UFU2" x="45997.08" y="40152.4" xlink:href="#post70_1"/>
      <use id="34UFU4" x="46492.82" y="40125.96" xlink:href="#post70_1"/>
      <use id="34UFV1" x="45918.24" y="38665.22" xlink:href="#post70_1"/>
      <use id="34UFV2" x="45944.44" y="39160.92" xlink:href="#post70_1"/>
      <use id="35SLU1" x="49318.97" y="54460.23" xlink:href="#post70_1"/>
      <use id="35SLU3" x="49825.46" y="54395.66" xlink:href="#post70_1"/>
      <use id="35TKE3" x="48029.06" y="48505.75" xlink:href="#post70_1"/>
      <use id="35TKF3" x="47918.88" y="47509.32" xlink:href="#post70_1"/>
      <use id="35TKG3" x="47808.7" y="46514.91" xlink:href="#post70_1"/>
      <use id="35TKG4" x="47863.79" y="47011.88" xlink:href="#post70_1"/>
      <use id="35TKH3" x="47698.5" y="45522.28" xlink:href="#post70_1"/>
      <use id="35TKH4" x="47753.61" y="46018.39" xlink:href="#post70_1"/>
      <use id="35TKJ3" x="47588.26" y="44531.23" xlink:href="#pre70_1"/>
      <use id="35TKJ4" x="47643.39" y="45026.57" xlink:href="#post70_1"/>
      <use id="35TKK4" x="47533.11" y="44036.22" xlink:href="#post70_1"/>
      <use id="35TLF1" x="48421.57" y="47444.61" xlink:href="#post70_1"/>
      <use id="35TLF2" x="48485.74" y="47941.51" xlink:href="#post70_1"/>
      <use id="35TLF3" x="48918.22" y="47380.15" xlink:href="#post70_1"/>
      <use id="35TLG1" x="48293.12" y="46452.33" xlink:href="#post70_1"/>
      <use id="35TLG2" x="48357.36" y="46948.22" xlink:href="#post70_1"/>
      <use id="35TLG3" x="48788.81" y="46387.83" xlink:href="#post70_1"/>
      <use id="35TLG4" x="48853.51" y="46883.76" xlink:href="#post70_1"/>
      <use id="35TLH1" x="48164.51" y="45461.86" xlink:href="#post70_1"/>
      <use id="35TLH2" x="48228.83" y="45956.88" xlink:href="#post70_1"/>
      <use id="35TLH3" x="48659.35" y="45397.31" xlink:href="#post70_1"/>
      <use id="35TLH4" x="48724.08" y="45892.36" xlink:href="#post70_1"/>
      <use id="35TLJ1" x="48035.72" y="44473" xlink:href="#post70_1"/>
      <use id="35TLJ2" x="48100.14" y="44967.24" xlink:href="#post70_1"/>
      <use id="35TLJ4" x="48594.59" y="44902.67" xlink:href="#post70_1"/>
      <use id="35TLK1" x="47906.72" y="43485.52" xlink:href="#pre70_1"/>
      <use id="35TLK3" x="48400.19" y="43420.81" xlink:href="#pre70_1"/>
      <use id="35TLK4" x="48465.02" y="43914.44" xlink:href="#post70_1"/>
      <use id="35TLL2" x="47842.13" y="42992.22" xlink:href="#pre70_1"/>
      <use id="35TLL4" x="48335.32" y="42927.47" xlink:href="#post70_1"/>
      <use id="35TLN3" x="48010.32" y="40464.04" xlink:href="#post70_1"/>
      <use id="35TMF1" x="49414.88" y="47315.2" xlink:href="#post70_1"/>
      <use id="35TMF2" x="49480.1" y="47812.1" xlink:href="#post70_1"/>
      <use id="35TMF3" x="49911.51" y="47249.74" xlink:href="#post70_1"/>
      <use id="35TMF4" x="49977.25" y="47746.6" xlink:href="#post70_1"/>
      <use id="35TMG1" x="49284.51" y="46322.89" xlink:href="#post70_1"/>
      <use id="35TMG2" x="49349.68" y="46818.81" xlink:href="#post70_1"/>
      <use id="35TMG3" x="49780.19" y="46257.5" xlink:href="#post70_1"/>
      <use id="35TMG4" x="49845.82" y="46753.39" xlink:href="#post70_1"/>
      <use id="35TMH1" x="49154.2" y="45332.37" xlink:href="#post70_1"/>
      <use id="35TMH2" x="49219.35" y="45827.42" xlink:href="#post70_1"/>
      <use id="35TMH3" x="49649.05" y="45267.04" xlink:href="#post70_1"/>
      <use id="35TMH4" x="49714.6" y="45762.06" xlink:href="#post70_1"/>
      <use id="35TMJ1" x="49023.94" y="44343.42" xlink:href="#post70_1"/>
      <use id="35TMJ2" x="49089.07" y="44837.71" xlink:href="#post70_1"/>
      <use id="35TMJ3" x="49518.06" y="44278.13" xlink:href="#post70_1"/>
      <use id="35TMJ4" x="49583.54" y="44772.4" xlink:href="#post70_1"/>
      <use id="35TMK1" x="48893.69" y="43355.82" xlink:href="#post70_1"/>
      <use id="35TMK2" x="48958.81" y="43849.47" xlink:href="#post70_1"/>
      <use id="35TMK4" x="49452.61" y="43784.18" xlink:href="#pre70_1"/>
      <use id="35TML2" x="48828.55" y="42862.46" xlink:href="#pre70_1"/>
      <use id="35TML4" x="49321.79" y="42797.19" xlink:href="#pre70_1"/>
      <use id="35TMM1" x="48633.06" y="41383.77" xlink:href="#pre70_1"/>
      <use id="35TMM4" x="49191.04" y="41811.19" xlink:href="#pre70_1"/>
      <use id="35TMN2" x="48567.86" y="40891.24" xlink:href="#post70_1"/>
      <use id="35TNF1" x="50408.09" y="47183.78" xlink:href="#post70_1"/>
      <use id="35TNG1" x="50275.83" y="46191.66" xlink:href="#post70_1"/>
      <use id="35TNG2" x="50341.93" y="46687.49" xlink:href="#post70_1"/>
      <use id="35TNG3" x="50771.4" y="46125.38" xlink:href="#post70_1"/>
      <use id="35TNG4" x="50837.94" y="46621.12" xlink:href="#post70_1"/>
      <use id="35TNH1" x="50143.86" y="45201.31" xlink:href="#post70_1"/>
      <use id="35TNH2" x="50209.81" y="45696.28" xlink:href="#post70_1"/>
      <use id="35TNH3" x="50638.61" y="45135.2" xlink:href="#post70_1"/>
      <use id="35TNH4" x="50704.95" y="45630.09" xlink:href="#post70_1"/>
      <use id="35TNJ1" x="50012.15" y="44212.5" xlink:href="#post70_1"/>
      <use id="35TNJ2" x="50077.97" y="44706.73" xlink:href="#post70_1"/>
      <use id="35TNJ3" x="50506.18" y="44146.54" xlink:href="#post70_1"/>
      <use id="35TNJ4" x="50572.34" y="44640.69" xlink:href="#post70_1"/>
      <use id="35TNK2" x="49946.39" y="43718.6" xlink:href="#pre70_1"/>
      <use id="35TNL4" x="50308.18" y="42665.92" xlink:href="#pre70_1"/>
      <use id="35TNM3" x="50110.87" y="41187.47" xlink:href="#pre70_1"/>
      <use id="35TNN2" x="49552.8" y="40760.54" xlink:href="#pre70_1"/>
      <use id="35TPF1" x="51400.99" y="47050.37" xlink:href="#pre70_1"/>
      <use id="35TPJ2" x="51066.63" y="44574.31" xlink:href="#post70_1"/>
      <use id="35TPK1" x="50867.45" y="43093.09" xlink:href="#pre70_1"/>
      <use id="35TPK2" x="50933.73" y="43586.52" xlink:href="#pre70_1"/>
      <use id="35TPK3" x="51360.7" y="43026.73" xlink:href="#pre70_1"/>
      <use id="35TPL2" x="50801.28" y="42599.92" xlink:href="#post70_1"/>
      <use id="35TPL4" x="51294.28" y="42533.68" xlink:href="#post70_1"/>
    </g>
    <defs>
      <circle id="post70_1" r="250" fill="#dc5107"/>
      <circle id="pre70_1" r="250" fill="darkgrey"/>
      <circle id="post70_2" r="250" stroke-width="40" fill="white" fill-opacity="0.1" stroke="red"/>
      <circle id="pre70_2" r="250" stroke-width="40" fill="white" fill-opacity="0.1" stroke="pink"/>
    </defs>
  </g>
</svg>