<?xml version="1.0" encoding="UTF-8" standalone="yes"?>
<svg id="map2svg" xml:space="preserve" x="0" y="0" width="100%" viewBox="0 0 71000 59000" onload="setup(evt);" xmlns="http://www.w3.org/2000/svg" xmlns:xlink="http://www.w3.org/1999/xlink">
  
  <g id="map-matrix" transform="matrix(1 0 0 1 0 0)">
    <g id="datapoints" style="pointer-events:all" >
      <use id="29SMC3" x="19173.74" y="46818.55" xlink:href="#post70_1"/>
      <use id="29SMD3" x="19513.54" y="45869.98" xlink:href="#post70_1"/>
      <use id="29SMD4" x="19343.76" y="46343.96" xlink:href="#post70_1"/>
      <use id="29SNA1" x="18968.95" y="48894.21" xlink:href="#post70_1"/>
      <use id="29SNA3" x="19446.94" y="49064.26" xlink:href="#post70_1"/>
      <use id="29SNB1" x="19309.31" y="47939.91" xlink:href="#post70_1"/>
      <use id="29SNB2" x="19139.25" y="48416.71" xlink:href="#post70_1"/>
      <use id="29SNB3" x="19785.88" y="48109.52" xlink:href="#post70_1"/>
      <use id="29SNB4" x="19616.52" y="48586.53" xlink:href="#post70_1"/>
      <use id="29SNC1" x="19648.75" y="46988.37" xlink:href="#post70_1"/>
      <use id="29SNC2" x="19479.15" y="47463.82" xlink:href="#post70_1"/>
      <use id="29SNC3" x="20123.98" y="47157.56" xlink:href="#post70_1"/>
      <use id="29SNC4" x="19955.03" y="47633.2" xlink:href="#post70_1"/>
      <use id="29SND1" x="19987.35" y="46039.37" xlink:href="#post70_1"/>
      <use id="29SND2" x="19818.16" y="46513.56" xlink:href="#post70_1"/>
      <use id="29SND3" x="20461.35" y="46208.18" xlink:href="#post70_1"/>
      <use id="29SND4" x="20292.76" y="46682.56" xlink:href="#post70_1"/>
      <use id="29SNE2" x="20156.35" y="45565.75" xlink:href="#post70_1"/>
      <use id="29SNE4" x="20629.78" y="45734.39" xlink:href="#post70_1"/>
      <use id="29SPB1" x="20262.64" y="48278.43" xlink:href="#post70_1"/>
      <use id="29SPB2" x="20094" y="48755.64" xlink:href="#post70_1"/>
      <use id="29SPB3" x="20739.58" y="48446.63" xlink:href="#post70_1"/>
      <use id="29SPB4" x="20571.67" y="48924.01" xlink:href="#post70_1"/>
      <use id="29SPC1" x="20599.4" y="47326.11" xlink:href="#post70_1"/>
      <use id="29SPC2" x="20431.11" y="47801.93" xlink:href="#post70_1"/>
      <use id="29SPC4" x="20907.35" y="47969.97" xlink:href="#post70_1"/>
      <use id="29SPD1" x="20935.52" y="46376.4" xlink:href="#post70_1"/>
      <use id="29SPD2" x="20767.54" y="46850.93" xlink:href="#post70_1"/>
      <use id="29SPD3" x="21409.84" y="46544" xlink:href="#post70_1"/>
      <use id="29SPD4" x="21242.46" y="47018.68" xlink:href="#post70_1"/>
      <use id="29SPE2" x="21103.37" y="45902.45" xlink:href="#post70_1"/>
      <use id="29SPE4" x="21577.08" y="46069.94" xlink:href="#post70_1"/>
      <use id="29SQA1" x="20882.17" y="49569.91" xlink:href="#post70_1"/>
      <use id="29SQA2" x="20714.71" y="50048.96" xlink:href="#post70_1"/>
      <use id="29SQB1" x="21286.1" y="48638.42" xlink:href="#post70_1"/>
      <use id="29SQB2" x="21049.5" y="49091.64" xlink:href="#post70_1"/>
      <use id="29SQD2" x="21763.47" y="47201.91" xlink:href="#post70_1"/>
      <use id="29TMH3" x="20864.71" y="42096.55" xlink:href="#post70_1"/>
      <use id="29TMH4" x="20696.42" y="42566.67" xlink:href="#post70_1"/>
      <use id="29TNE1" x="20325.17" y="45092.69" xlink:href="#post70_1"/>
      <use id="29TNE3" x="20798.05" y="45261.17" xlink:href="#post70_1"/>
      <use id="29TNF1" x="20662.29" y="44148.15" xlink:href="#post70_1"/>
      <use id="29TNF2" x="20493.81" y="44620.17" xlink:href="#post70_1"/>
      <use id="29TNF3" x="21134.15" y="44316.3" xlink:href="#post70_1"/>
      <use id="29TNF4" x="20966.17" y="44788.48" xlink:href="#post70_1"/>
      <use id="29TNG1" x="20998.79" y="43205.51" xlink:href="#post70_1"/>
      <use id="29TNG2" x="20830.61" y="43676.61" xlink:href="#post70_1"/>
      <use id="29TNG3" x="21469.74" y="43373.4" xlink:href="#post70_1"/>
      <use id="29TNG4" x="21302" y="43844.63" xlink:href="#post70_1"/>
      <use id="29TNH1" x="21334.73" y="42264.58" xlink:href="#post70_1"/>
      <use id="29TNH2" x="21166.82" y="42734.84" xlink:href="#post70_1"/>
      <use id="29TNH3" x="21804.87" y="42432.25" xlink:href="#post70_1"/>
      <use id="29TNH4" x="21637.35" y="42902.62" xlink:href="#post70_1"/>
      <use id="29TNJ4" x="21972.29" y="41962.25" xlink:href="#post70_1"/>
      <use id="29TPE1" x="21271.07" y="45429.09" xlink:href="#post70_1"/>
      <use id="29TPE3" x="21744.22" y="45596.47" xlink:href="#post70_1"/>
      <use id="29TPF1" x="21606.14" y="44483.98" xlink:href="#post70_1"/>
      <use id="29TPF2" x="21438.67" y="44956.28" xlink:href="#post70_1"/>
      <use id="29TPF3" x="22078.23" y="44651.15" xlink:href="#post70_1"/>
      <use id="29TPF4" x="21911.27" y="45123.54" xlink:href="#post70_1"/>
      <use id="29TPG1" x="21940.79" y="43540.86" xlink:href="#post70_1"/>
      <use id="29TPG2" x="21773.52" y="44012.19" xlink:href="#post70_1"/>
      <use id="29TPG3" x="22411.93" y="43707.88" xlink:href="#post70_1"/>
      <use id="29TPG4" x="22245.12" y="44179.27" xlink:href="#post70_1"/>
      <use id="29TPH1" x="22275.1" y="42599.52" xlink:href="#post70_1"/>
      <use id="29TPH2" x="22107.99" y="43069.98" xlink:href="#post70_1"/>
      <use id="29TPH3" x="22745.4" y="42766.41" xlink:href="#post70_1"/>
      <use id="29TPH4" x="22578.69" y="43236.93" xlink:href="#post70_1"/>
      <use id="29TPJ2" x="22442.16" y="42129.46" xlink:href="#post70_1"/>
      <use id="29TPJ4" x="22912.07" y="42296.29" xlink:href="#post70_1"/>
      <use id="29TQF1" x="22556.17" y="44819.85" xlink:href="#post70_1"/>
      <use id="29TQG2" x="22714.36" y="44345.03" xlink:href="#post70_1"/>
      <use id="29TQH1" x="23188.37" y="42923.22" xlink:href="#post70_1"/>
      <use id="29TQH2" x="23030.44" y="43396.73" xlink:href="#post70_1"/>
      <use id="29TQJ2" x="23346.22" y="42450.09" xlink:href="#post70_1"/>
      <use id="30STE3" x="21436.33" y="50807.53" xlink:href="#post70_1"/>
      <use id="30STF3" x="21708.52" y="49828.91" xlink:href="#post70_1"/>
      <use id="30STF4" x="21572.58" y="50317.84" xlink:href="#post70_1"/>
      <use id="30STG3" x="21908.53" y="48833.51" xlink:href="#post70_1"/>
      <use id="30STG4" x="21844.11" y="49340.7" xlink:href="#post70_1"/>
      <use id="30STJ4" x="22336.5" y="47381.52" xlink:href="#post70_1"/>
      <use id="30SUF1" x="22197.25" y="49964.31" xlink:href="#post70_1"/>
      <use id="30SUF2" x="22062.06" y="50453.56" xlink:href="#post70_1"/>
      <use id="30SUF3" x="22686.29" y="50098.99" xlink:href="#post70_1"/>
      <use id="30SUG1" x="22466.75" y="48987.97" xlink:href="#post70_1"/>
      <use id="30SUG2" x="22332.14" y="49475.79" xlink:href="#post70_1"/>
      <use id="30SUG3" x="22954.37" y="49122.09" xlink:href="#post70_1"/>
      <use id="30SUG4" x="22820.46" y="49610.19" xlink:href="#post70_1"/>
      <use id="30SUH1" x="22735.11" y="48014.32" xlink:href="#post70_1"/>
      <use id="30SUH2" x="22601.06" y="48500.82" xlink:href="#post70_1"/>
      <use id="30SUH3" x="23221.43" y="48147.92" xlink:href="#post70_1"/>
      <use id="30SUH4" x="23088.02" y="48634.68" xlink:href="#post70_1"/>
      <use id="30SUJ3" x="23487.52" y="47176.26" xlink:href="#post70_1"/>
      <use id="30SUJ4" x="23354.59" y="47661.79" xlink:href="#post70_1"/>
      <use id="30SUK2" x="23135.65" y="46558.44" xlink:href="#post70_1"/>
      <use id="30SUK4" x="23620.22" y="46691.3" xlink:href="#post70_1"/>
      <use id="30SVF1" x="23175.6" y="50232.93" xlink:href="#post70_1"/>
      <use id="30SVF3" x="23665.14" y="50366.13" xlink:href="#post70_1"/>
      <use id="30SVG3" x="23930.36" y="49388.28" xlink:href="#post70_1"/>
      <use id="30SVG4" x="23797.86" y="49876.85" xlink:href="#post70_1"/>
      <use id="30SVH1" x="23707.99" y="48280.89" xlink:href="#post70_1"/>
      <use id="30SVH2" x="23575.24" y="48767.88" xlink:href="#post70_1"/>
      <use id="30SVH3" x="24194.78" y="48413.23" xlink:href="#post70_1"/>
      <use id="30SVH4" x="24062.66" y="48900.42" xlink:href="#post70_1"/>
      <use id="30SVJ2" x="23840.54" y="47794.54" xlink:href="#post70_1"/>
      <use id="30SVK2" x="24105.01" y="46823.62" xlink:href="#post70_1"/>
      <use id="30SVK4" x="24590" y="46955.38" xlink:href="#post70_1"/>
      <use id="30SWF1" x="24154.92" y="50498.58" xlink:href="#post70_1"/>
      <use id="30SWF3" x="24644.87" y="50630.27" xlink:href="#post70_1"/>
      <use id="30SWG1" x="24418.68" y="49520.34" xlink:href="#post70_1"/>
      <use id="30SWG2" x="24286.89" y="50009.1" xlink:href="#post70_1"/>
      <use id="30SWG3" x="24907.17" y="49651.69" xlink:href="#post70_1"/>
      <use id="30SWG4" x="24776.1" y="50140.61" xlink:href="#post70_1"/>
      <use id="30SWH1" x="24681.74" y="48544.92" xlink:href="#post70_1"/>
      <use id="30SWH2" x="24550.3" y="49032.29" xlink:href="#post70_1"/>
      <use id="30SWH3" x="25168.87" y="48675.96" xlink:href="#post70_1"/>
      <use id="30SWJ2" x="24813.03" y="48058.19" xlink:href="#post70_1"/>
      <use id="30SXG3" x="25884.57" y="49912.26" xlink:href="#post70_1"/>
      <use id="30SXH3" x="26143.5" y="48936.06" xlink:href="#post70_1"/>
      <use id="30SXH4" x="26014.09" y="49423.81" xlink:href="#post70_1"/>
      <use id="30SXJ1" x="25916.03" y="47833.01" xlink:href="#post70_1"/>
      <use id="30SXJ3" x="26402.12" y="47962.55" xlink:href="#post70_1"/>
      <use id="30SXJ4" x="26272.85" y="48448.99" xlink:href="#post70_1"/>
      <use id="30SXK2" x="26045.84" y="47347.27" xlink:href="#post70_1"/>
      <use id="30SXK4" x="26531.33" y="47476.74" xlink:href="#post70_1"/>
      <use id="30SYH1" x="26686.1" y="49079.67" xlink:href="#post70_1"/>
      <use id="30SYH2" x="26565.39" y="49569.58" xlink:href="#post70_1"/>
      <use id="30SYJ1" x="26927.23" y="48101.78" xlink:href="#post70_1"/>
      <use id="30SYJ2" x="26806.72" y="48590.4" xlink:href="#post70_1"/>
      <use id="30SYK2" x="27047.64" y="47613.77" xlink:href="#post70_1"/>
      <use id="30TTL3" x="23045.26" y="44973.14" xlink:href="#post70_1"/>
      <use id="30TTL4" x="22903.92" y="45453.78" xlink:href="#post70_1"/>
      <use id="30TTN3" x="23608.73" y="43054.97" xlink:href="#post70_1"/>
      <use id="30TTP4" x="23749.17" y="42576.39" xlink:href="#post70_1"/>
      <use id="30TUK3" x="23752.7" y="46206.9" xlink:href="#post70_1"/>
      <use id="30TUL4" x="23884.97" y="45723.02" xlink:href="#post70_1"/>
      <use id="30TUN1" x="24061.95" y="43179.06" xlink:href="#post70_1"/>
      <use id="30TUN2" x="23930.27" y="43660.56" xlink:href="#post70_1"/>
      <use id="30TUN3" x="24543.37" y="43310.46" xlink:href="#post70_1"/>
      <use id="30TUN4" x="24412.06" y="43792.14" xlink:href="#post70_1"/>
      <use id="30TUP2" x="24193.44" y="42697.91" xlink:href="#post70_1"/>
      <use id="30TUP4" x="24674.51" y="42829.14" xlink:href="#post70_1"/>
      <use id="30TVK1" x="24236.95" y="46339.02" xlink:href="#post70_1"/>
      <use id="30TVK3" x="24721.4" y="46470.6" xlink:href="#post70_1"/>
      <use id="30TVL1" x="24500.29" y="45371.35" xlink:href="#post70_1"/>
      <use id="30TVL2" x="24368.71" y="45854.93" xlink:href="#post70_1"/>
      <use id="30TVL3" x="24983.72" y="45502.61" xlink:href="#post70_1"/>
      <use id="30TVL4" x="24852.63" y="45986.35" xlink:href="#post70_1"/>
      <use id="30TVM1" x="24762.94" y="44405.59" xlink:href="#post70_1"/>
      <use id="30TVM3" x="25245.46" y="44536.54" xlink:href="#post70_1"/>
      <use id="30TVN2" x="24894.03" y="43923.35" xlink:href="#post70_1"/>
      <use id="30TVN3" x="25506.69" y="43572.19" xlink:href="#post70_1"/>
      <use id="30TVN4" x="25376.14" y="44054.16" xlink:href="#post70_1"/>
      <use id="30TVP4" x="25637.13" y="43090.59" xlink:href="#post70_1"/>
      <use id="30TWL1" x="25467.29" y="45633.38" xlink:href="#post70_1"/>
      <use id="30TWL2" x="25336.7" y="46117.26" xlink:href="#post70_1"/>
      <use id="30TWL4" x="25820.9" y="46247.65" xlink:href="#post70_1"/>
      <use id="30TWM1" x="25728.12" y="44667.07" xlink:href="#post70_1"/>
      <use id="30TWM2" x="25597.76" y="45149.99" xlink:href="#post70_1"/>
      <use id="30TWM3" x="26210.88" y="44797.16" xlink:href="#post70_1"/>
      <use id="30TWM4" x="26080.97" y="45280.18" xlink:href="#post70_1"/>
      <use id="30TWN1" x="25988.53" y="43702.5" xlink:href="#post70_1"/>
      <use id="30TWN2" x="25858.37" y="44184.57" xlink:href="#post70_1"/>
      <use id="30TWN3" x="26470.47" y="43832.42" xlink:href="#post70_1"/>
      <use id="30TWN4" x="26340.71" y="44314.58" xlink:href="#post70_1"/>
      <use id="30TWP2" x="26118.6" y="43220.8" xlink:href="#post70_1"/>
      <use id="30TWT4" x="27636.48" y="39507.16" xlink:href="#post70_1"/>
      <use id="30TXK1" x="26175.55" y="46862.12" xlink:href="#post70_1"/>
      <use id="30TXL1" x="26434.76" y="45893.45" xlink:href="#post70_1"/>
      <use id="30TXL3" x="26918.6" y="46022.73" xlink:href="#post70_1"/>
      <use id="30TXM1" x="26693.71" y="44926.8" xlink:href="#post70_1"/>
      <use id="30TXM2" x="26564.27" y="45409.89" xlink:href="#post70_1"/>
      <use id="30TXM3" x="27176.59" y="45056" xlink:href="#post70_1"/>
      <use id="30TXM4" x="27047.62" y="45539.12" xlink:href="#post70_1"/>
      <use id="30TXN1" x="26952.46" y="43961.96" xlink:href="#post70_1"/>
      <use id="30TXN2" x="26823.11" y="44444.17" xlink:href="#post70_1"/>
      <use id="30TXN3" x="27434.5" y="44091.1" xlink:href="#post70_1"/>
      <use id="30TXN4" x="27305.55" y="44573.34" xlink:href="#post70_1"/>
      <use id="30TXP2" x="27081.79" y="43480.14" xlink:href="#post70_1"/>
      <use id="30TXP4" x="27563.43" y="43609.26" xlink:href="#post70_1"/>
      <use id="30TXQ1" x="27469.62" y="42036.79" xlink:href="#post70_1"/>
      <use id="30TXQ2" x="27340.36" y="42517.58" xlink:href="#post70_1"/>
      <use id="30TXQ3" x="27950.27" y="42165.91" xlink:href="#post70_1"/>
      <use id="30TXQ4" x="27821.31" y="42646.7" xlink:href="#post70_1"/>
      <use id="30TXR2" x="27598.89" y="41556.29" xlink:href="#post70_1"/>
      <use id="30TXR3" x="28208.27" y="41205.2" xlink:href="#post70_1"/>
      <use id="30TXR4" x="28079.26" y="41685.42" xlink:href="#post70_1"/>
      <use id="30TXS1" x="27986.73" y="40116.22" xlink:href="#post70_1"/>
      <use id="30TXS2" x="27857.43" y="40596.02" xlink:href="#post70_1"/>
      <use id="30TXS3" x="28466.44" y="40245.44" xlink:href="#post70_1"/>
      <use id="30TXS4" x="28337.33" y="40725.21" xlink:href="#post70_1"/>
      <use id="30TXT1" x="28245.42" y="39157.09" xlink:href="#post70_1"/>
      <use id="30TXT2" x="28116.05" y="39636.58" xlink:href="#post70_1"/>
      <use id="30TXT3" x="28724.83" y="39286.41" xlink:href="#post70_1"/>
      <use id="30TXT4" x="28595.6" y="39765.85" xlink:href="#post70_1"/>
      <use id="30TYK1" x="27167.97" y="47126.32" xlink:href="#post70_1"/>
      <use id="30TYL1" x="27408.39" y="46153.07" xlink:href="#post70_1"/>
      <use id="30TYL2" x="27288.22" y="46639.43" xlink:href="#post70_1"/>
      <use id="30TYM1" x="27648.55" y="45181.83" xlink:href="#post70_1"/>
      <use id="30TYM2" x="27528.5" y="45667.22" xlink:href="#post70_1"/>
      <use id="30TYN1" x="27888.49" y="44212.35" xlink:href="#post70_1"/>
      <use id="30TYP1" x="28128.27" y="43244.45" xlink:href="#post70_1"/>
      <use id="30TYQ1" x="28367.95" y="42277.87" xlink:href="#post70_1"/>
      <use id="30TYQ2" x="28248.12" y="42761" xlink:href="#post70_1"/>
      <use id="30TYR2" x="28487.77" y="41795.03" xlink:href="#post70_1"/>
      <use id="30TYS2" x="28877.54" y="40870.39" xlink:href="#post70_1"/>
      <use id="30TYT1" x="29209.41" y="39417.02" xlink:href="#post70_1"/>
      <use id="30TYT2" x="29098.82" y="39901.35" xlink:href="#post70_1"/>
      <use id="31SBE4" x="27599.05" y="47739.67" xlink:href="#post70_1"/>
      <use id="31SCD2" x="27934.51" y="48828.42" xlink:href="#post70_1"/>
      <use id="31SCD4" x="28429.25" y="48922.9" xlink:href="#post70_1"/>
      <use id="31SDD1" x="29017.65" y="48522.07" xlink:href="#post70_1"/>
      <use id="31SDD3" x="29512.13" y="48615.17" xlink:href="#post70_1"/>
      <use id="31SDD4" x="29419.27" y="49110" xlink:href="#post70_1"/>
      <use id="31SDE4" x="29604.87" y="48120.93" xlink:href="#post70_1"/>
      <use id="31SED1" x="30006.73" y="48707.67" xlink:href="#post70_1"/>
      <use id="31SED2" x="29914.49" y="49202.61" xlink:href="#post70_1"/>
      <use id="31SEE2" x="30098.88" y="48213.31" xlink:href="#post70_1"/>
      <use id="31TBE3" x="27702.22" y="47248.31" xlink:href="#post70_1"/>
      <use id="31TBF3" x="27908.08" y="46267.17" xlink:href="#post70_1"/>
      <use id="31TBF4" x="27805.23" y="46757.49" xlink:href="#post70_1"/>
      <use id="31TBG3" x="28113.3" y="45287.95" xlink:href="#post70_1"/>
      <use id="31TBG4" x="28010.77" y="45777.34" xlink:href="#post70_1"/>
      <use id="31TBH3" x="28317.95" y="44310.42" xlink:href="#post70_1"/>
      <use id="31TBJ3" x="28522.07" y="43334.37" xlink:href="#post70_1"/>
      <use id="31TBJ4" x="28420.08" y="43822.22" xlink:href="#post70_1"/>
      <use id="31TBK3" x="28725.69" y="42359.56" xlink:href="#post70_1"/>
      <use id="31TBL3" x="28928.86" y="41385.8" xlink:href="#post70_1"/>
      <use id="31TBL4" x="28827.33" y="41872.57" xlink:href="#post70_1"/>
      <use id="31TCF1" x="28405.9" y="46362.35" xlink:href="#post70_1"/>
      <use id="31TCF2" x="28312.02" y="46854.5" xlink:href="#post70_1"/>
      <use id="31TCF3" x="28897.9" y="46455.89" xlink:href="#post70_1"/>
      <use id="31TCG1" x="28593.1" y="45379.46" xlink:href="#post70_1"/>
      <use id="31TCG2" x="28499.59" y="45870.67" xlink:href="#post70_1"/>
      <use id="31TCG3" x="29084.2" y="45472.66" xlink:href="#post70_1"/>
      <use id="31TCG4" x="28991.12" y="45964.05" xlink:href="#post70_1"/>
      <use id="31TCH1" x="28779.58" y="44398.24" xlink:href="#post70_1"/>
      <use id="31TCH2" x="28686.42" y="44888.65" xlink:href="#post70_1"/>
      <use id="31TCH4" x="29177.11" y="44981.69" xlink:href="#post70_1"/>
      <use id="31TCJ1" x="28965.39" y="43418.49" xlink:href="#post70_1"/>
      <use id="31TCJ2" x="28872.57" y="43908.2" xlink:href="#post70_1"/>
      <use id="31TCJ3" x="29455.02" y="43511.08" xlink:href="#post70_1"/>
      <use id="31TCK1" x="29150.57" y="42439.99" xlink:href="#post70_1"/>
      <use id="31TCK3" x="29639.63" y="42532.3" xlink:href="#post70_1"/>
      <use id="31TCK4" x="29547.39" y="43021.55" xlink:href="#post70_1"/>
      <use id="31TCL1" x="29335.14" y="41462.51" xlink:href="#post70_1"/>
      <use id="31TCL2" x="29242.93" y="41951.13" xlink:href="#post70_1"/>
      <use id="31TCL4" x="29731.74" y="42043.31" xlink:href="#post70_1"/>
      <use id="31TCM1" x="29519.16" y="40485.82" xlink:href="#post70_1"/>
      <use id="31TCM2" x="29427.22" y="40974.08" xlink:href="#post70_1"/>
      <use id="31TCM3" x="30007.41" y="40577.63" xlink:href="#post70_1"/>
      <use id="31TCN1" x="29702.66" y="39509.7" xlink:href="#post70_1"/>
      <use id="31TCN2" x="29610.97" y="39997.7" xlink:href="#post70_1"/>
      <use id="31TCN3" x="30190.68" y="39601.28" xlink:href="#post70_1"/>
      <use id="31TDF1" x="29390.07" y="46548.96" xlink:href="#post70_1"/>
      <use id="31TDG1" x="29575.45" y="45565.44" xlink:href="#post70_1"/>
      <use id="31TDG2" x="29482.82" y="46056.97" xlink:href="#post70_1"/>
      <use id="31TDG3" x="30066.82" y="45657.79" xlink:href="#post70_1"/>
      <use id="31TDG4" x="29974.64" y="46149.44" xlink:href="#post70_1"/>
      <use id="31TDH2" x="29667.95" y="45074.34" xlink:href="#post70_1"/>
      <use id="31TDH3" x="30250.9" y="44675.79" xlink:href="#post70_1"/>
      <use id="31TDH4" x="30158.91" y="45166.58" xlink:href="#post70_1"/>
      <use id="31TDJ1" x="29944.78" y="43603.36" xlink:href="#post70_1"/>
      <use id="31TDJ2" x="29852.62" y="44093.33" xlink:href="#post70_1"/>
      <use id="31TDJ3" x="30434.63" y="43695.31" xlink:href="#post70_1"/>
      <use id="31TDJ4" x="30342.81" y="44185.38" xlink:href="#post70_1"/>
      <use id="31TDK1" x="30128.8" y="42624.35" xlink:href="#post70_1"/>
      <use id="31TDK2" x="30036.84" y="43113.7" xlink:href="#post70_1"/>
      <use id="31TDK3" x="30618.07" y="42716.13" xlink:href="#post70_1"/>
      <use id="31TDL2" x="30220.67" y="42135.26" xlink:href="#post70_1"/>
      <use id="31TDL4" x="30709.69" y="42226.96" xlink:href="#post70_1"/>
      <use id="31TDM1" x="30495.76" y="40669.29" xlink:href="#post70_1"/>
      <use id="31TDM4" x="30892.74" y="41249.32" xlink:href="#post70_1"/>
      <use id="31TDN1" x="30678.79" y="39692.77" xlink:href="#post70_1"/>
      <use id="31TDN2" x="30587.31" y="40180.97" xlink:href="#post70_1"/>
      <use id="31TEG1" x="30558.3" y="45749.7" xlink:href="#post70_1"/>
      <use id="31TEG2" x="30466.57" y="46241.43" xlink:href="#post70_1"/>
      <use id="31TEJ1" x="30924.57" y="43786.93" xlink:href="#post70_1"/>
      <use id="31TEJ2" x="30833.08" y="44277.06" xlink:href="#post70_1"/>
      <use id="31TEJ3" x="31414.55" y="43878.23" xlink:href="#post70_1"/>
      <use id="31TEJ4" x="31323.41" y="44368.39" xlink:href="#post70_1"/>
      <use id="31TEK2" x="31016.01" y="43297.14" xlink:href="#post70_1"/>
      <use id="31TEK3" x="31596.77" y="42898.88" xlink:href="#post70_1"/>
      <use id="31TEK4" x="31505.67" y="43388.4" xlink:href="#post70_1"/>
      <use id="31TEL3" x="31778.95" y="41920.66" xlink:href="#post70_1"/>
      <use id="31TEL4" x="31687.86" y="42409.64" xlink:href="#post70_1"/>
      <use id="31TEM1" x="31472.66" y="40852.14" xlink:href="#post70_1"/>
      <use id="31TEM2" x="31381.38" y="41340.7" xlink:href="#post70_1"/>
      <use id="31TFJ1" x="31904.56" y="43969.18" xlink:href="#post70_1"/>
      <use id="31TFJ2" x="31813.77" y="44459.36" xlink:href="#post70_1"/>
      <use id="31TFJ3" x="32394.55" y="44059.8" xlink:href="#post70_1"/>
      <use id="31TFK1" x="32086.15" y="42989.84" xlink:href="#post70_1"/>
      <use id="31TFK2" x="31995.34" y="43479.35" xlink:href="#post70_1"/>
      <use id="31TFK4" x="32485.01" y="43570" xlink:href="#post70_1"/>
      <use id="31TFL1" x="32267.82" y="42011.64" xlink:href="#post70_1"/>
      <use id="31TFL2" x="32176.97" y="42500.61" xlink:href="#post70_1"/>
      <use id="31TFM2" x="32358.7" y="41522.89" xlink:href="#post70_1"/>
    </g>
    <defs>
      <circle id="post70_1" r="250" fill="#dc5107"/>
      <circle id="pre70_1" r="250" fill="darkgrey"/>
      <circle id="post70_2" r="250" stroke-width="40" fill="white" fill-opacity="0.1" stroke="red"/>
      <circle id="pre70_2" r="250" stroke-width="40" fill="white" fill-opacity="0.1" stroke="pink"/>
    </defs>
  </g>
</svg>