<?xml version="1.0" encoding="UTF-8" standalone="yes"?>
<svg id="map2svg" xml:space="preserve" x="0" y="0" width="100%" viewBox="0 0 71000 59000" onload="setup(evt);" xmlns="http://www.w3.org/2000/svg" xmlns:xlink="http://www.w3.org/1999/xlink">
  
  <g id="map-matrix" transform="matrix(1 0 0 1 0 0)">
    <g id="datapoints" style="pointer-events:all" >
      <use id="29SNB1" x="19309.31" y="47939.91" xlink:href="#post70_1"/>
      <use id="29SNB3" x="19785.88" y="48109.52" xlink:href="#post70_1"/>
      <use id="29SNC4" x="19955.03" y="47633.2" xlink:href="#post70_1"/>
      <use id="29SND1" x="19987.35" y="46039.37" xlink:href="#post70_1"/>
      <use id="29SND2" x="19818.16" y="46513.56" xlink:href="#post70_1"/>
      <use id="29SPB1" x="20262.64" y="48278.43" xlink:href="#post70_1"/>
      <use id="29SPB3" x="20739.58" y="48446.63" xlink:href="#post70_1"/>
      <use id="29SPB4" x="20571.67" y="48924.01" xlink:href="#post70_1"/>
      <use id="29SPC2" x="20431.11" y="47801.93" xlink:href="#post70_1"/>
      <use id="29SPD1" x="20935.52" y="46376.4" xlink:href="#post70_1"/>
      <use id="29SPD2" x="20767.54" y="46850.93" xlink:href="#post70_1"/>
      <use id="29SPD3" x="21409.84" y="46544" xlink:href="#post70_1"/>
      <use id="29SPD4" x="21242.46" y="47018.68" xlink:href="#post70_1"/>
      <use id="29SQA1" x="20882.17" y="49569.91" xlink:href="#post70_1"/>
      <use id="29SQA2" x="20714.71" y="50048.96" xlink:href="#post70_1"/>
      <use id="29SQB1" x="21286.1" y="48638.42" xlink:href="#post70_1"/>
      <use id="29SQB2" x="21049.5" y="49091.64" xlink:href="#post70_1"/>
      <use id="29SQC1" x="21604.5" y="47680.09" xlink:href="#post70_1"/>
      <use id="29SQD1" x="21922.27" y="46724.36" xlink:href="#post70_1"/>
      <use id="29SQD2" x="21763.47" y="47201.91" xlink:href="#post70_1"/>
      <use id="29SQE2" x="22080.94" y="46247.41" xlink:href="#post70_1"/>
      <use id="29TMH4" x="20696.42" y="42566.67" xlink:href="#post70_1"/>
      <use id="29TNG1" x="20998.79" y="43205.51" xlink:href="#post70_1"/>
      <use id="29TNG3" x="21469.74" y="43373.4" xlink:href="#post70_1"/>
      <use id="29TNH1" x="21334.73" y="42264.58" xlink:href="#post70_1"/>
      <use id="29TNH2" x="21166.82" y="42734.84" xlink:href="#post70_1"/>
      <use id="29TNH3" x="21804.87" y="42432.25" xlink:href="#post70_1"/>
      <use id="29TNH4" x="21637.35" y="42902.62" xlink:href="#post70_1"/>
      <use id="29TNJ4" x="21972.29" y="41962.25" xlink:href="#post70_1"/>
      <use id="29TPG1" x="21940.79" y="43540.86" xlink:href="#post70_1"/>
      <use id="29TPG3" x="22411.93" y="43707.88" xlink:href="#post70_1"/>
      <use id="29TPH1" x="22275.1" y="42599.52" xlink:href="#post70_1"/>
      <use id="29TPH2" x="22107.99" y="43069.98" xlink:href="#post70_1"/>
      <use id="29TPH3" x="22745.4" y="42766.41" xlink:href="#post70_1"/>
      <use id="29TPH4" x="22578.69" y="43236.93" xlink:href="#post70_1"/>
      <use id="29TPJ2" x="22442.16" y="42129.46" xlink:href="#post70_1"/>
      <use id="29TPJ4" x="22912.07" y="42296.29" xlink:href="#post70_1"/>
      <use id="29TQE1" x="22239.47" y="45771.01" xlink:href="#post70_1"/>
      <use id="29TQG1" x="22872.45" y="43870.66" xlink:href="#post70_1"/>
      <use id="29TQG2" x="22714.36" y="44345.03" xlink:href="#post70_1"/>
      <use id="29TQH2" x="23030.44" y="43396.73" xlink:href="#post70_1"/>
      <use id="30STE3" x="21436.33" y="50807.53" xlink:href="#post70_1"/>
      <use id="30STF3" x="21708.52" y="49828.91" xlink:href="#post70_1"/>
      <use id="30STF4" x="21572.58" y="50317.84" xlink:href="#post70_1"/>
      <use id="30STG3" x="21908.53" y="48833.51" xlink:href="#post70_1"/>
      <use id="30STG4" x="21844.11" y="49340.7" xlink:href="#post70_1"/>
      <use id="30STH3" x="22194.09" y="47864.89" xlink:href="#post70_1"/>
      <use id="30STH4" x="22051.43" y="48348.86" xlink:href="#post70_1"/>
      <use id="30STJ3" x="22478.69" y="46898.75" xlink:href="#post70_1"/>
      <use id="30STJ4" x="22336.5" y="47381.52" xlink:href="#post70_1"/>
      <use id="30SUF1" x="22197.25" y="49964.31" xlink:href="#post70_1"/>
      <use id="30SUF2" x="22062.06" y="50453.56" xlink:href="#post70_1"/>
      <use id="30SUF3" x="22686.29" y="50098.99" xlink:href="#post70_1"/>
      <use id="30SUG1" x="22466.75" y="48987.97" xlink:href="#post70_1"/>
      <use id="30SUG2" x="22332.14" y="49475.79" xlink:href="#post70_1"/>
      <use id="30SUG3" x="22954.37" y="49122.09" xlink:href="#post70_1"/>
      <use id="30SUG4" x="22820.46" y="49610.19" xlink:href="#post70_1"/>
      <use id="30SUH1" x="22735.11" y="48014.32" xlink:href="#post70_1"/>
      <use id="30SUH2" x="22601.06" y="48500.82" xlink:href="#post70_1"/>
      <use id="30SUH3" x="23221.43" y="48147.92" xlink:href="#post70_1"/>
      <use id="30SUH4" x="23088.02" y="48634.68" xlink:href="#post70_1"/>
      <use id="30SUJ1" x="23002.39" y="47043.15" xlink:href="#post70_1"/>
      <use id="30SUJ2" x="22868.88" y="47528.45" xlink:href="#post70_1"/>
      <use id="30SUJ3" x="23487.52" y="47176.26" xlink:href="#post70_1"/>
      <use id="30SUJ4" x="23354.59" y="47661.79" xlink:href="#post70_1"/>
      <use id="30SUK2" x="23135.65" y="46558.44" xlink:href="#post70_1"/>
      <use id="30SUK4" x="23620.22" y="46691.3" xlink:href="#post70_1"/>
      <use id="30SVF1" x="23175.6" y="50232.93" xlink:href="#post70_1"/>
      <use id="30SVF3" x="23665.14" y="50366.13" xlink:href="#post70_1"/>
      <use id="30SVG1" x="23442.25" y="49255.53" xlink:href="#post70_1"/>
      <use id="30SVG2" x="23309.04" y="49743.87" xlink:href="#post70_1"/>
      <use id="30SVG3" x="23930.36" y="49388.28" xlink:href="#post70_1"/>
      <use id="30SVG4" x="23797.86" y="49876.85" xlink:href="#post70_1"/>
      <use id="30SVH1" x="23707.99" y="48280.89" xlink:href="#post70_1"/>
      <use id="30SVH2" x="23575.24" y="48767.88" xlink:href="#post70_1"/>
      <use id="30SVH3" x="24194.78" y="48413.23" xlink:href="#post70_1"/>
      <use id="30SVH4" x="24062.66" y="48900.42" xlink:href="#post70_1"/>
      <use id="30SVJ1" x="23972.87" y="47308.79" xlink:href="#post70_1"/>
      <use id="30SVJ2" x="23840.54" y="47794.54" xlink:href="#post70_1"/>
      <use id="30SVJ3" x="24458.43" y="47440.74" xlink:href="#post70_1"/>
      <use id="30SVJ4" x="24326.69" y="47926.67" xlink:href="#post70_1"/>
      <use id="30SVK2" x="24105.01" y="46823.62" xlink:href="#post70_1"/>
      <use id="30SVK4" x="24590" y="46955.38" xlink:href="#post70_1"/>
      <use id="30SWF1" x="24154.92" y="50498.58" xlink:href="#post70_1"/>
      <use id="30SWF3" x="24644.87" y="50630.27" xlink:href="#post70_1"/>
      <use id="30SWG1" x="24418.68" y="49520.34" xlink:href="#post70_1"/>
      <use id="30SWG2" x="24286.89" y="50009.1" xlink:href="#post70_1"/>
      <use id="30SWG3" x="24907.17" y="49651.69" xlink:href="#post70_1"/>
      <use id="30SWG4" x="24776.1" y="50140.61" xlink:href="#post70_1"/>
      <use id="30SWH1" x="24681.74" y="48544.92" xlink:href="#post70_1"/>
      <use id="30SWH2" x="24550.3" y="49032.29" xlink:href="#post70_1"/>
      <use id="30SWH3" x="25168.87" y="48675.96" xlink:href="#post70_1"/>
      <use id="30SWJ1" x="24944.16" y="47572.09" xlink:href="#post70_1"/>
      <use id="30SWJ2" x="24813.03" y="48058.19" xlink:href="#post70_1"/>
      <use id="30SWJ3" x="25430.04" y="47702.85" xlink:href="#post70_1"/>
      <use id="30SWJ4" x="25299.52" y="48189.09" xlink:href="#post70_1"/>
      <use id="30SXG2" x="25265.47" y="50271.4" xlink:href="#post70_1"/>
      <use id="30SXG3" x="25884.57" y="49912.26" xlink:href="#post70_1"/>
      <use id="30SXH1" x="25656.14" y="48806.35" xlink:href="#post70_1"/>
      <use id="30SXH4" x="26014.09" y="49423.81" xlink:href="#post70_1"/>
      <use id="30SXJ1" x="25916.03" y="47833.01" xlink:href="#post70_1"/>
      <use id="30SXJ3" x="26402.12" y="47962.55" xlink:href="#post70_1"/>
      <use id="30SXJ4" x="26272.85" y="48448.99" xlink:href="#post70_1"/>
      <use id="30SXK2" x="26045.84" y="47347.27" xlink:href="#post70_1"/>
      <use id="30SYH2" x="26565.39" y="49569.58" xlink:href="#post70_1"/>
      <use id="30SYK2" x="27047.64" y="47613.77" xlink:href="#post70_1"/>
      <use id="30TTL3" x="23045.26" y="44973.14" xlink:href="#post70_1"/>
      <use id="30TTL4" x="22903.92" y="45453.78" xlink:href="#post70_1"/>
      <use id="30TTM3" x="23327.34" y="44013.24" xlink:href="#post70_1"/>
      <use id="30TTM4" x="23186.39" y="44492.98" xlink:href="#post70_1"/>
      <use id="30TTN4" x="23468.12" y="43533.92" xlink:href="#post70_1"/>
      <use id="30TUK3" x="23752.7" y="46206.9" xlink:href="#post70_1"/>
      <use id="30TUL1" x="23533.98" y="45107.43" xlink:href="#post70_1"/>
      <use id="30TUL3" x="24017.04" y="45239.62" xlink:href="#post70_1"/>
      <use id="30TUL4" x="23884.97" y="45723.02" xlink:href="#post70_1"/>
      <use id="30TUM1" x="23798.39" y="44142.43" xlink:href="#post70_1"/>
      <use id="30TUM2" x="23666.29" y="44624.71" xlink:href="#post70_1"/>
      <use id="30TUM3" x="24280.57" y="44274.22" xlink:href="#post70_1"/>
      <use id="30TUM4" x="24148.9" y="44756.7" xlink:href="#post70_1"/>
      <use id="30TUN2" x="23930.27" y="43660.56" xlink:href="#post70_1"/>
      <use id="30TUN4" x="24412.06" y="43792.14" xlink:href="#post70_1"/>
      <use id="30TVK1" x="24236.95" y="46339.02" xlink:href="#post70_1"/>
      <use id="30TVK3" x="24721.4" y="46470.6" xlink:href="#post70_1"/>
      <use id="30TVL1" x="24500.29" y="45371.35" xlink:href="#post70_1"/>
      <use id="30TVL2" x="24368.71" y="45854.93" xlink:href="#post70_1"/>
      <use id="30TVL3" x="24983.72" y="45502.61" xlink:href="#post70_1"/>
      <use id="30TVL4" x="24852.63" y="45986.35" xlink:href="#post70_1"/>
      <use id="30TVM1" x="24762.94" y="44405.59" xlink:href="#post70_1"/>
      <use id="30TVM2" x="24631.7" y="44888.25" xlink:href="#post70_1"/>
      <use id="30TVM3" x="25245.46" y="44536.54" xlink:href="#post70_1"/>
      <use id="30TVM4" x="25114.66" y="45019.35" xlink:href="#post70_1"/>
      <use id="30TVN2" x="24894.03" y="43923.35" xlink:href="#post70_1"/>
      <use id="30TVN4" x="25376.14" y="44054.16" xlink:href="#post70_1"/>
      <use id="30TWK1" x="25205.99" y="46601.65" xlink:href="#post70_1"/>
      <use id="30TWL1" x="25467.29" y="45633.38" xlink:href="#post70_1"/>
      <use id="30TWL2" x="25336.7" y="46117.26" xlink:href="#post70_1"/>
      <use id="30TWL4" x="25820.9" y="46247.65" xlink:href="#post70_1"/>
      <use id="30TWM1" x="25728.12" y="44667.07" xlink:href="#post70_1"/>
      <use id="30TWM2" x="25597.76" y="45149.99" xlink:href="#post70_1"/>
      <use id="30TWM3" x="26210.88" y="44797.16" xlink:href="#post70_1"/>
      <use id="30TWM4" x="26080.97" y="45280.18" xlink:href="#post70_1"/>
      <use id="30TWN2" x="25858.37" y="44184.57" xlink:href="#post70_1"/>
      <use id="30TWN4" x="26340.71" y="44314.58" xlink:href="#post70_1"/>
      <use id="30TXK1" x="26175.55" y="46862.12" xlink:href="#post70_1"/>
      <use id="30TXK3" x="26660.47" y="46991.52" xlink:href="#post70_1"/>
      <use id="30TXL1" x="26434.76" y="45893.45" xlink:href="#post70_1"/>
      <use id="30TXL3" x="26918.6" y="46022.73" xlink:href="#post70_1"/>
      <use id="30TXL4" x="26789.56" y="46506.86" xlink:href="#post70_1"/>
      <use id="30TXM1" x="26693.71" y="44926.8" xlink:href="#post70_1"/>
      <use id="30TXM2" x="26564.27" y="45409.89" xlink:href="#post70_1"/>
      <use id="30TXM3" x="27176.59" y="45056" xlink:href="#post70_1"/>
      <use id="30TXM4" x="27047.62" y="45539.12" xlink:href="#post70_1"/>
      <use id="30TXN2" x="26823.11" y="44444.17" xlink:href="#post70_1"/>
      <use id="30TYK1" x="27167.97" y="47126.32" xlink:href="#post70_1"/>
      <use id="30TYL1" x="27408.39" y="46153.07" xlink:href="#post70_1"/>
      <use id="30TYL2" x="27288.22" y="46639.43" xlink:href="#post70_1"/>
      <use id="30TYM1" x="27648.55" y="45181.83" xlink:href="#post70_1"/>
      <use id="30TYM2" x="27528.5" y="45667.22" xlink:href="#post70_1"/>
      <use id="31SDD3" x="29512.13" y="48615.17" xlink:href="#post70_1"/>
      <use id="31SDE4" x="29604.87" y="48120.93" xlink:href="#post70_1"/>
      <use id="31SED1" x="30006.73" y="48707.67" xlink:href="#post70_1"/>
      <use id="31SED2" x="29914.49" y="49202.61" xlink:href="#post70_1"/>
      <use id="31SEE2" x="30098.88" y="48213.31" xlink:href="#post70_1"/>
      <use id="31TBE3" x="27702.22" y="47248.31" xlink:href="#post70_1"/>
      <use id="31TBF3" x="27908.08" y="46267.17" xlink:href="#post70_1"/>
      <use id="31TBF4" x="27805.23" y="46757.49" xlink:href="#post70_1"/>
      <use id="31TBG3" x="28113.3" y="45287.95" xlink:href="#post70_1"/>
      <use id="31TBG4" x="28010.77" y="45777.34" xlink:href="#post70_1"/>
      <use id="31TCF2" x="28312.02" y="46854.5" xlink:href="#post70_1"/>
    </g>
    <defs>
      <circle id="post70_1" r="250" fill="#dc5107"/>
      <circle id="pre70_1" r="250" fill="darkgrey"/>
      <circle id="post70_2" r="250" stroke-width="40" fill="white" fill-opacity="0.1" stroke="red"/>
      <circle id="pre70_2" r="250" stroke-width="40" fill="white" fill-opacity="0.1" stroke="pink"/>
    </defs>
  </g>
</svg>