<?xml version="1.0" encoding="UTF-8" standalone="yes"?>
<svg id="map2svg" xml:space="preserve" x="0" y="0" width="100%" viewBox="0 0 71000 59000" onload="setup(evt);" xmlns="http://www.w3.org/2000/svg" xmlns:xlink="http://www.w3.org/1999/xlink">
  
  <g id="map-matrix" transform="matrix(1 0 0 1 0 0)">
    <g id="datapoints" style="pointer-events:all" onmouseover="currentcoord(evt)" onmouseout="hideutm(evt)">
      <use id="31UDQ3" x="31532.16" y="37831.89" xlink:href="#post70_1"/>
      <use id="31UEQ1" x="32020.21" y="37923.16" xlink:href="#post70_1"/>
      <use id="31UEQ2" x="31928.93" y="38411.19" xlink:href="#post70_1"/>
      <use id="31UEQ3" x="32508.23" y="38014.44" xlink:href="#post70_1"/>
      <use id="31UEQ4" x="32416.96" y="38502.44" xlink:href="#post70_1"/>
      <use id="31UER2" x="32111.49" y="37435.12" xlink:href="#post70_1"/>
      <use id="31UER4" x="32599.54" y="37526.43" xlink:href="#post70_1"/>
      <use id="31UFQ2" x="32904.94" y="38593.67" xlink:href="#post70_1"/>
      <use id="31UFR1" x="33178.96" y="37129.83" xlink:href="#post70_1"/>
      <use id="31UFR4" x="33575.45" y="37709.18" xlink:href="#post70_1"/>
      <use id="31UFS1" x="33362.08" y="36153.66" xlink:href="#post70_1"/>
      <use id="31UFS3" x="33897.24" y="36254.23" xlink:href="#post70_1"/>
      <use id="31UFS4" x="33815.45" y="36744.09" xlink:href="#post70_1"/>
      <use id="31UFT1" x="33545.62" y="35176.99" xlink:href="#post70_1"/>
      <use id="31UFT2" x="33453.79" y="35665.4" xlink:href="#post70_1"/>
      <use id="31UFT3" x="34061.05" y="35274.06" xlink:href="#post70_1"/>
      <use id="31UFT4" x="33979.11" y="35764.23" xlink:href="#post70_1"/>
      <use id="31UFU2" x="33637.56" y="34688.39" xlink:href="#post70_1"/>
      <use id="31UFU3" x="34225.19" y="34293.1" xlink:href="#post70_1"/>
      <use id="31UFU4" x="34143.08" y="34783.7" xlink:href="#post70_1"/>
      <use id="32TLS3" x="34500.48" y="41334.39" xlink:href="#post70_1"/>
      <use id="32TLT3" x="34605.89" y="40346.6" xlink:href="#post70_1"/>
      <use id="32TLT4" x="34553.24" y="40840.43" xlink:href="#post70_1"/>
      <use id="32TMS1" x="34994.55" y="41387.11" xlink:href="#post70_1"/>
      <use id="32TMT1" x="35099.72" y="40399.17" xlink:href="#post70_1"/>
      <use id="32TMT2" x="35047.16" y="40893.07" xlink:href="#post70_1"/>
      <use id="32TMT3" x="35593.59" y="40451.64" xlink:href="#post70_1"/>
      <use id="32TMT4" x="35541.16" y="40945.59" xlink:href="#post70_1"/>
      <use id="32TNT1" x="36087.5" y="40504.02" xlink:href="#post70_1"/>
      <use id="32TNT2" x="36035.18" y="40997.97" xlink:href="#post70_1"/>
      <use id="32TNT3" x="36581.4" y="40556.29" xlink:href="#post70_1"/>
      <use id="32TNT4" x="36529.2" y="41050.23" xlink:href="#post70_1"/>
      <use id="32TPT3" x="37569.08" y="40660.5" xlink:href="#post70_1"/>
      <use id="32ULA1" x="34358.85" y="37325.31" xlink:href="#post70_1"/>
      <use id="32ULA2" x="34374.34" y="37826.06" xlink:href="#post70_1"/>
      <use id="32ULA3" x="34920.18" y="37384.55" xlink:href="#post70_1"/>
      <use id="32ULA4" x="34867.99" y="37878.26" xlink:href="#post70_1"/>
      <use id="32ULB1" x="34482.82" y="36339.89" xlink:href="#post70_1"/>
      <use id="32ULB2" x="34420.85" y="36832.66" xlink:href="#post70_1"/>
      <use id="32ULB3" x="35024.36" y="36396.83" xlink:href="#post70_1"/>
      <use id="32ULB4" x="34972.31" y="36890.75" xlink:href="#post70_1"/>
      <use id="32ULC1" x="34606.64" y="35353.88" xlink:href="#post70_1"/>
      <use id="32ULC2" x="34544.75" y="35846.98" xlink:href="#post70_1"/>
      <use id="32ULC3" x="35128.28" y="35408.52" xlink:href="#post70_1"/>
      <use id="32ULC4" x="35076.35" y="35902.77" xlink:href="#post70_1"/>
      <use id="32ULD1" x="34730.39" y="34367" xlink:href="#post70_1"/>
      <use id="32ULD2" x="34668.52" y="34860.57" xlink:href="#post70_1"/>
      <use id="32ULD3" x="35231.97" y="34419.36" xlink:href="#post70_1"/>
      <use id="32ULD4" x="35180.16" y="34914.07" xlink:href="#post70_1"/>
      <use id="32ULE2" x="34792.24" y="33873.18" xlink:href="#post70_1"/>
      <use id="32ULU4" x="34658.47" y="39852.86" xlink:href="#post70_1"/>
      <use id="32ULV3" x="34815.72" y="38371.92" xlink:href="#post70_1"/>
      <use id="32ULV4" x="34763.39" y="38865.55" xlink:href="#post70_1"/>
      <use id="32UMA1" x="35413.96" y="37436.76" xlink:href="#post70_1"/>
      <use id="32UMA2" x="35361.71" y="37930.51" xlink:href="#post70_1"/>
      <use id="32UMA3" x="35907.79" y="37489.04" xlink:href="#post70_1"/>
      <use id="32UMA4" x="35855.46" y="37982.83" xlink:href="#post70_1"/>
      <use id="32UMB1" x="35518.38" y="36448.93" xlink:href="#post70_1"/>
      <use id="32UMB2" x="35466.19" y="36942.9" xlink:href="#post70_1"/>
      <use id="32UMB3" x="36012.43" y="36501.18" xlink:href="#post70_1"/>
      <use id="32UMB4" x="35960.11" y="36995.17" xlink:href="#post70_1"/>
      <use id="32UMC1" x="35622.66" y="35460.53" xlink:href="#post70_1"/>
      <use id="32UMC2" x="35570.54" y="35954.82" xlink:href="#post70_1"/>
      <use id="32UMC3" x="36117.07" y="35512.76" xlink:href="#post70_1"/>
      <use id="32UMC4" x="36064.75" y="36007.05" xlink:href="#post70_1"/>
      <use id="32UMD1" x="35726.84" y="34471.29" xlink:href="#post70_1"/>
      <use id="32UMD2" x="35674.77" y="34966.03" xlink:href="#post70_1"/>
      <use id="32UMD4" x="36169.4" y="35018.25" xlink:href="#post70_1"/>
      <use id="32UME3" x="36326.44" y="33533.13" xlink:href="#post70_1"/>
      <use id="32UME4" x="36274.08" y="34028.46" xlink:href="#post70_1"/>
      <use id="32UMU1" x="35204.66" y="39411.62" xlink:href="#post70_1"/>
      <use id="32UMU2" x="35152.21" y="39905.36" xlink:href="#post70_1"/>
      <use id="32UMU3" x="35698.4" y="39464.02" xlink:href="#post70_1"/>
      <use id="32UMU4" x="35646.01" y="39957.8" xlink:href="#post70_1"/>
      <use id="32UMV1" x="35309.4" y="38424.23" xlink:href="#post70_1"/>
      <use id="32UMV2" x="35257.05" y="38917.92" xlink:href="#post70_1"/>
      <use id="32UMV3" x="35803.12" y="38476.57" xlink:href="#post70_1"/>
      <use id="32UMV4" x="35750.77" y="38970.3" xlink:href="#post70_1"/>
      <use id="32UNA1" x="36401.62" y="37541.4" xlink:href="#post70_1"/>
      <use id="32UNA2" x="36349.23" y="38035.19" xlink:href="#post70_1"/>
      <use id="32UNA3" x="36895.43" y="37593.85" xlink:href="#post70_1"/>
      <use id="32UNA4" x="36842.97" y="38087.59" xlink:href="#post70_1"/>
      <use id="32UNB1" x="36506.48" y="36553.57" xlink:href="#post70_1"/>
      <use id="32UNB2" x="36454.04" y="37047.54" xlink:href="#post70_1"/>
      <use id="32UNB3" x="37000.5" y="36606.1" xlink:href="#post70_1"/>
      <use id="32UNB4" x="36947.93" y="37100.03" xlink:href="#post70_1"/>
      <use id="32UNC2" x="36558.95" y="36059.46" xlink:href="#post70_1"/>
      <use id="32UNC4" x="37053.13" y="36112.04" xlink:href="#post70_1"/>
      <use id="32UND3" x="37211.44" y="34628.71" xlink:href="#post70_1"/>
      <use id="32UND4" x="37158.59" y="35123.38" xlink:href="#post70_1"/>
      <use id="32UNE1" x="36821.93" y="33585.67" xlink:href="#post70_1"/>
      <use id="32UNE3" x="37317.36" y="33638.55" xlink:href="#post70_1"/>
      <use id="32UNE4" x="37264.36" y="34133.78" xlink:href="#post70_1"/>
      <use id="32UNF1" x="36927.46" y="32594.02" xlink:href="#post70_1"/>
      <use id="32UNF2" x="36874.66" y="33090.03" xlink:href="#post70_1"/>
      <use id="32UNF3" x="37423.64" y="32647.05" xlink:href="#post70_1"/>
      <use id="32UNF4" x="37370.45" y="33142.99" xlink:href="#post70_1"/>
      <use id="32UNU1" x="36192.16" y="39516.38" xlink:href="#post70_1"/>
      <use id="32UNU2" x="36139.83" y="40010.17" xlink:href="#post70_1"/>
      <use id="32UNU3" x="36685.9" y="39568.69" xlink:href="#post70_1"/>
      <use id="32UNU4" x="36633.64" y="40062.45" xlink:href="#post70_1"/>
      <use id="32UNV1" x="36296.86" y="38528.93" xlink:href="#post70_1"/>
      <use id="32UNV2" x="36244.49" y="39022.65" xlink:href="#post70_1"/>
      <use id="32UNV3" x="36790.57" y="38581.3" xlink:href="#post70_1"/>
      <use id="32UNV4" x="36738.22" y="39074.98" xlink:href="#post70_1"/>
      <use id="32UPA1" x="37389.18" y="37646.37" xlink:href="#post70_1"/>
      <use id="32UPA2" x="37336.67" y="38140.04" xlink:href="#post70_1"/>
      <use id="32UPB1" x="37494.46" y="36658.77" xlink:href="#post70_1"/>
      <use id="32UPB2" x="37441.77" y="37152.62" xlink:href="#post70_1"/>
      <use id="32UPB3" x="38035.91" y="36716.66" xlink:href="#post70_1"/>
      <use id="32UPB4" x="37993.15" y="37211.46" xlink:href="#post70_1"/>
      <use id="32UPC1" x="37600.12" y="35670.64" xlink:href="#post70_1"/>
      <use id="32UPC2" x="37547.24" y="36164.78" xlink:href="#post70_1"/>
      <use id="32UPC3" x="38121.62" y="35726.6" xlink:href="#post70_1"/>
      <use id="32UPC4" x="38078.73" y="36221.72" xlink:href="#post70_1"/>
      <use id="32UPD2" x="37653.1" y="35176.3" xlink:href="#post70_1"/>
      <use id="32UPD3" x="38207.6" y="34735.73" xlink:href="#post70_1"/>
      <use id="32UPD4" x="38164.57" y="35231.29" xlink:href="#post70_1"/>
      <use id="32UPE1" x="37812.71" y="33691.76" xlink:href="#post70_1"/>
      <use id="32UPE2" x="37759.39" y="34186.9" xlink:href="#post70_1"/>
      <use id="32UPE4" x="38250.68" y="34239.91" xlink:href="#post70_1"/>
      <use id="32UPF2" x="37866.15" y="33196.31" xlink:href="#post70_1"/>
      <use id="32UPV2" x="37231.89" y="39127.31" xlink:href="#post70_1"/>
      <use id="33TUM3" x="39039.35" y="41733.14" xlink:href="#post70_1"/>
      <use id="33TUN1" x="38569.89" y="40726.68" xlink:href="#post70_1"/>
      <use id="33TUN4" x="39052.84" y="41236.55" xlink:href="#post70_1"/>
      <use id="33TVM3" x="40032.8" y="41759.86" xlink:href="#post70_1"/>
      <use id="33TWM1" x="40529.56" y="41772.98" xlink:href="#post70_1"/>
      <use id="33TWN1" x="40555.67" y="40779.76" xlink:href="#post70_1"/>
      <use id="33UUA2" x="38784.64" y="33276.91" xlink:href="#post70_1"/>
      <use id="33UUA4" x="39258.23" y="33288.36" xlink:href="#post70_1"/>
      <use id="33UUP2" x="38583.31" y="40230.42" xlink:href="#post70_1"/>
      <use id="33UUP3" x="39092.84" y="39747.48" xlink:href="#post70_1"/>
      <use id="33UUP4" x="39079.58" y="40243.75" xlink:href="#post70_1"/>
      <use id="33UUQ1" x="38622.93" y="38741.95" xlink:href="#post70_1"/>
      <use id="33UUQ4" x="39106.02" y="39251.23" xlink:href="#post70_1"/>
      <use id="33UUR2" x="38635.92" y="38245.8" xlink:href="#post70_1"/>
      <use id="33UUS1" x="38626.42" y="36755.71" xlink:href="#post70_1"/>
      <use id="33UUS2" x="38603.66" y="37251.83" xlink:href="#post70_1"/>
      <use id="33UUS3" x="39170.77" y="36769.61" xlink:href="#post70_1"/>
      <use id="33UUT1" x="38671.82" y="35762.99" xlink:href="#post70_1"/>
      <use id="33UUT2" x="38649.14" y="36259.44" xlink:href="#post70_1"/>
      <use id="33UUT3" x="39196.15" y="35776.17" xlink:href="#post70_1"/>
      <use id="33UUT4" x="39183.5" y="36272.98" xlink:href="#post70_1"/>
      <use id="33UUU1" x="38717.06" y="34769.41" xlink:href="#post70_1"/>
      <use id="33UUU2" x="38694.46" y="35266.33" xlink:href="#post70_1"/>
      <use id="33UUU3" x="39221.21" y="34781.91" xlink:href="#post70_1"/>
      <use id="33UUU4" x="39208.72" y="35279.16" xlink:href="#post70_1"/>
      <use id="33UUV4" x="39233.63" y="34284.38" xlink:href="#post70_1"/>
      <use id="33UVP1" x="39589.13" y="39760.67" xlink:href="#post70_1"/>
      <use id="33UVP2" x="39575.93" y="40257.01" xlink:href="#post70_1"/>
      <use id="33UVP3" x="40085.47" y="39773.83" xlink:href="#post70_1"/>
      <use id="33UVP4" x="40072.32" y="40270.2" xlink:href="#post70_1"/>
      <use id="33UVS1" x="39667.37" y="36782.44" xlink:href="#post70_1"/>
      <use id="33UVS3" x="40164" y="36795.42" xlink:href="#post70_1"/>
      <use id="33UVT1" x="39693.09" y="35788.89" xlink:href="#post70_1"/>
      <use id="33UVT3" x="40190.08" y="35801.82" xlink:href="#post70_1"/>
      <use id="33UVT4" x="40177.05" y="36298.7" xlink:href="#post70_1"/>
      <use id="33UVU1" x="39718.64" y="34794.5" xlink:href="#post70_1"/>
      <use id="33UVU2" x="39705.89" y="35291.81" xlink:href="#post70_1"/>
      <use id="33UVU4" x="40203.1" y="35304.72" xlink:href="#post70_1"/>
      <use id="33UVV4" x="40229.11" y="34309.75" xlink:href="#post70_1"/>
      <use id="33UWP4" x="41065.14" y="40296.35" xlink:href="#post70_1"/>
      <use id="33UXP1" x="41574.46" y="39813.03" xlink:href="#post70_1"/>
      <use id="33UXP2" x="41561.49" y="40309.32" xlink:href="#post70_1"/>
    </g>
    <defs>
      <circle id="post70_1" r="250" fill="#dc5107"/>
      <circle id="pre70_1" r="250" fill="darkgrey"/>
      <circle id="post70_2" r="250" stroke-width="40" fill="white" fill-opacity="0.1" stroke="red"/>
      <circle id="pre70_2" r="250" stroke-width="40" fill="white" fill-opacity="0.1" stroke="pink"/>
    </defs>
  </g>
</svg>