<?xml version="1.0" encoding="UTF-8" standalone="yes"?>
<svg id="map2svg" xml:space="preserve" x="0" y="0" width="100%" viewBox="0 0 71000 59000" onload="setup(evt);" xmlns="http://www.w3.org/2000/svg" xmlns:xlink="http://www.w3.org/1999/xlink">
  
  <g id="map-matrix" transform="matrix(1 0 0 1 0 0)">
    <g id="datapoints" style="pointer-events:all" onmouseover="currentcoord(evt)" onmouseout="hideutm(evt)">
      <use id="31TDK3" x="30618.07" y="42716.13" xlink:href="#post70_1"/>
      <use id="31TDL4" x="30709.69" y="42226.96" xlink:href="#post70_1"/>
      <use id="31TFJ3" x="32394.55" y="44059.8" xlink:href="#post70_1"/>
      <use id="31TFK3" x="32575.51" y="43080.51" xlink:href="#post70_1"/>
      <use id="31TFK4" x="32485.01" y="43570" xlink:href="#post70_1"/>
      <use id="31TFL3" x="32756.66" y="42102.39" xlink:href="#post70_1"/>
      <use id="31TFL4" x="32666.06" y="42591.31" xlink:href="#post70_1"/>
      <use id="31TFM3" x="32938.05" y="41125.2" xlink:href="#post70_1"/>
      <use id="31TFM4" x="32847.32" y="41613.69" xlink:href="#post70_1"/>
      <use id="31TGJ1" x="32838.32" y="44141.58" xlink:href="#post70_1"/>
      <use id="31TGK1" x="33000.74" y="43159.06" xlink:href="#post70_1"/>
      <use id="31TGK2" x="32919.52" y="43650.16" xlink:href="#post70_1"/>
      <use id="31TGL1" x="33163.21" y="42177.69" xlink:href="#post70_1"/>
      <use id="31TGL2" x="33081.97" y="42668.25" xlink:href="#post70_1"/>
      <use id="31TGM1" x="33469.28" y="41223.83" xlink:href="#post70_1"/>
      <use id="31TGM2" x="33397.33" y="41715.66" xlink:href="#post70_1"/>
      <use id="31TGN2" x="33541.21" y="40732.14" xlink:href="#post70_1"/>
      <use id="32TKP3" x="33237.99" y="44200.04" xlink:href="#post70_1"/>
      <use id="32TKP4" x="33174.94" y="44694.44" xlink:href="#post70_1"/>
      <use id="32TKQ3" x="33363.83" y="43212.18" xlink:href="#post70_1"/>
      <use id="32TKQ4" x="33300.96" y="43705.96" xlink:href="#post70_1"/>
      <use id="32TKR3" x="33489.28" y="42225.39" xlink:href="#post70_1"/>
      <use id="32TKR4" x="33426.6" y="42718.67" xlink:href="#post70_1"/>
      <use id="32TLP1" x="33686.59" y="44248.81" xlink:href="#post70_1"/>
      <use id="32TLP3" x="34182.01" y="44302.36" xlink:href="#post70_1"/>
      <use id="32TLQ1" x="33793.74" y="43258.73" xlink:href="#post70_1"/>
      <use id="32TLQ2" x="33740.22" y="43753.63" xlink:href="#post70_1"/>
      <use id="32TLQ3" x="34288.56" y="43312.03" xlink:href="#post70_1"/>
      <use id="32TLQ4" x="34235.34" y="43807.05" xlink:href="#post70_1"/>
      <use id="32TLR1" x="33900.36" y="42269.7" xlink:href="#post70_1"/>
      <use id="32TLR2" x="33847.11" y="42764.09" xlink:href="#post70_1"/>
      <use id="32TLR3" x="34394.71" y="42322.79" xlink:href="#post70_1"/>
      <use id="32TLR4" x="34341.69" y="42817.29" xlink:href="#post70_1"/>
      <use id="32TLS1" x="34006.5" y="41281.51" xlink:href="#post70_1"/>
      <use id="32TLS2" x="33953.49" y="41775.51" xlink:href="#post70_1"/>
      <use id="32TLS3" x="34500.48" y="41334.39" xlink:href="#post70_1"/>
      <use id="32TLS4" x="34447.65" y="41828.49" xlink:href="#post70_1"/>
      <use id="32TLT2" x="34059.38" y="40787.66" xlink:href="#post70_1"/>
      <use id="32TLT3" x="34605.89" y="40346.6" xlink:href="#post70_1"/>
      <use id="32TLT4" x="34553.24" y="40840.43" xlink:href="#post70_1"/>
      <use id="32TMR1" x="34889.15" y="42375.67" xlink:href="#post70_1"/>
      <use id="32TMR3" x="35383.66" y="42428.32" xlink:href="#post70_1"/>
      <use id="32TMS1" x="34994.55" y="41387.11" xlink:href="#post70_1"/>
      <use id="32TMS2" x="34941.89" y="41881.29" xlink:href="#post70_1"/>
      <use id="32TMS3" x="35488.69" y="41439.66" xlink:href="#post70_1"/>
      <use id="32TMS4" x="35436.2" y="41933.89" xlink:href="#post70_1"/>
      <use id="32TMT1" x="35099.72" y="40399.17" xlink:href="#post70_1"/>
      <use id="32TMT2" x="35047.16" y="40893.07" xlink:href="#post70_1"/>
      <use id="32TMT3" x="35593.59" y="40451.64" xlink:href="#post70_1"/>
      <use id="32TMT4" x="35541.16" y="40945.59" xlink:href="#post70_1"/>
      <use id="32TNR1" x="35878.21" y="42480.76" xlink:href="#post70_1"/>
      <use id="32TNR3" x="36372.77" y="42532.99" xlink:href="#post70_1"/>
      <use id="32TNS1" x="35982.86" y="41492.06" xlink:href="#post70_1"/>
      <use id="32TNS2" x="35930.54" y="41986.31" xlink:href="#post70_1"/>
      <use id="32TNS3" x="36477.03" y="41544.31" xlink:href="#post70_1"/>
      <use id="32TNS4" x="36424.89" y="42038.55" xlink:href="#post70_1"/>
      <use id="32TNT1" x="36087.5" y="40504.02" xlink:href="#post70_1"/>
      <use id="32TNT2" x="36035.18" y="40997.97" xlink:href="#post70_1"/>
      <use id="32TNT3" x="36581.4" y="40556.29" xlink:href="#post70_1"/>
      <use id="32TNT4" x="36529.2" y="41050.23" xlink:href="#post70_1"/>
      <use id="32TPR1" x="36867.3" y="42584.98" xlink:href="#post70_1"/>
      <use id="32TPR3" x="37361.79" y="42636.75" xlink:href="#post70_1"/>
      <use id="32TPS1" x="36971.18" y="41596.38" xlink:href="#post70_1"/>
      <use id="32TPS2" x="36919.21" y="42090.58" xlink:href="#post70_1"/>
      <use id="32TPS3" x="37465.26" y="41648.28" xlink:href="#post70_1"/>
      <use id="32TPS4" x="37413.49" y="42142.41" xlink:href="#post70_1"/>
      <use id="32TPT1" x="37075.27" y="40608.45" xlink:href="#post70_1"/>
      <use id="32TPT2" x="37023.19" y="41102.34" xlink:href="#post70_1"/>
      <use id="32TPT3" x="37569.08" y="40660.5" xlink:href="#post70_1"/>
      <use id="32TPT4" x="37517.12" y="41154.32" xlink:href="#post70_1"/>
      <use id="32TQS1" x="38002.63" y="41704.55" xlink:href="#post70_1"/>
      <use id="32TQS2" x="37969.84" y="42200.53" xlink:href="#post70_1"/>
      <use id="32TQT1" x="38068.2" y="40713" xlink:href="#post70_1"/>
      <use id="32TQT2" x="38035.42" y="41208.71" xlink:href="#post70_1"/>
      <use id="32ULU2" x="34164.81" y="39800.28" xlink:href="#post70_1"/>
      <use id="32ULU4" x="34658.47" y="39852.86" xlink:href="#post70_1"/>
      <use id="32UMU1" x="35204.66" y="39411.62" xlink:href="#post70_1"/>
      <use id="32UMU2" x="35152.21" y="39905.36" xlink:href="#post70_1"/>
      <use id="32UMU3" x="35698.4" y="39464.02" xlink:href="#post70_1"/>
      <use id="32UMU4" x="35646.01" y="39957.8" xlink:href="#post70_1"/>
      <use id="32UNU1" x="36192.16" y="39516.38" xlink:href="#post70_1"/>
      <use id="32UNU2" x="36139.83" y="40010.17" xlink:href="#post70_1"/>
      <use id="33TUL3" x="39012.15" y="42726.81" xlink:href="#post70_1"/>
      <use id="33TUM1" x="38542.73" y="41719.52" xlink:href="#post70_1"/>
      <use id="33TUM2" x="38528.99" y="42216.17" xlink:href="#post70_1"/>
      <use id="33TUM3" x="39039.35" y="41733.14" xlink:href="#post70_1"/>
      <use id="33TUM4" x="39025.79" y="42229.87" xlink:href="#post70_1"/>
      <use id="33TUN1" x="38569.89" y="40726.68" xlink:href="#post70_1"/>
      <use id="33TUN2" x="38556.36" y="41223.04" xlink:href="#post70_1"/>
      <use id="33TUN3" x="39066.25" y="40740.1" xlink:href="#post70_1"/>
      <use id="33TUN4" x="39052.84" y="41236.55" xlink:href="#post70_1"/>
      <use id="33TVK3" x="39979.82" y="43748.48" xlink:href="#post70_1"/>
      <use id="33TVL1" x="39509.22" y="42740.38" xlink:href="#post70_1"/>
      <use id="33TVL3" x="40006.35" y="42753.73" xlink:href="#post70_1"/>
      <use id="33TVL4" x="39993.1" y="43250.98" xlink:href="#post70_1"/>
      <use id="33TVM1" x="39536.05" y="41746.59" xlink:href="#post70_1"/>
      <use id="33TVM2" x="39522.66" y="42243.39" xlink:href="#post70_1"/>
      <use id="33TVM3" x="40032.8" y="41759.86" xlink:href="#post70_1"/>
      <use id="33TVM4" x="40019.58" y="42256.7" xlink:href="#post70_1"/>
      <use id="33TVN1" x="39562.68" y="40753.42" xlink:href="#post70_1"/>
      <use id="33TVN2" x="39549.39" y="41249.94" xlink:href="#post70_1"/>
      <use id="33TVN3" x="40059.16" y="40766.64" xlink:href="#post70_1"/>
      <use id="33TVN4" x="40046" y="41263.19" xlink:href="#post70_1"/>
      <use id="33TWK1" x="40477.47" y="43761.63" xlink:href="#pre70_1"/>
      <use id="33TWK2" x="40464.47" y="44259.41" xlink:href="#pre70_1"/>
      <use id="33TWK3" x="40975.1" y="43774.49" xlink:href="#post70_1"/>
      <use id="33TWK4" x="40962.39" y="44272.25" xlink:href="#pre70_1"/>
      <use id="33TWL1" x="40503.5" y="42766.87" xlink:href="#post70_1"/>
      <use id="33TWL2" x="40490.47" y="43264.12" xlink:href="#post70_1"/>
      <use id="33TWM1" x="40529.56" y="41772.98" xlink:href="#post70_1"/>
      <use id="33TWM2" x="40516.52" y="42269.83" xlink:href="#post70_1"/>
      <use id="33TWM4" x="41013.45" y="42282.77" xlink:href="#post70_1"/>
      <use id="33TWN1" x="40555.67" y="40779.76" xlink:href="#post70_1"/>
      <use id="33TWN2" x="40542.61" y="41276.31" xlink:href="#post70_1"/>
      <use id="33TWN3" x="41052.16" y="40792.77" xlink:href="#post70_1"/>
      <use id="33TXH3" x="41922.29" y="45791.9" xlink:href="#post70_1"/>
      <use id="33TXJ1" x="41447.93" y="44782.81" xlink:href="#post70_1"/>
      <use id="33TXJ2" x="41435.64" y="45281.18" xlink:href="#post70_1"/>
      <use id="33TXJ3" x="41946.09" y="44794.97" xlink:href="#post70_1"/>
      <use id="33TXJ4" x="41934.14" y="45293.25" xlink:href="#post70_1"/>
      <use id="33TXK2" x="41460.28" y="44284.79" xlink:href="#post70_1"/>
      <use id="33TYH1" x="42392.07" y="45802.84" xlink:href="#post70_1"/>
      <use id="33TYJ2" x="42394.6" y="45304.08" xlink:href="#post70_1"/>
      <use id="33UUP2" x="38583.31" y="40230.42" xlink:href="#post70_1"/>
      <use id="33UVP2" x="39575.93" y="40257.01" xlink:href="#post70_1"/>
      <use id="33UVP4" x="40072.32" y="40270.2" xlink:href="#post70_1"/>
      <use id="33UVS2" x="39654.44" y="37278.99" xlink:href="#post70_1"/>
      <use id="33UVS4" x="40150.95" y="37292" xlink:href="#post70_1"/>
      <use id="33UWP2" x="40568.74" y="40283.31" xlink:href="#post70_1"/>
      <use id="33UWP4" x="41065.14" y="40296.35" xlink:href="#post70_1"/>
      <use id="33UXR1" x="41627.07" y="37828.04" xlink:href="#post70_1"/>
      <use id="33UXR2" x="41613.8" y="38324.32" xlink:href="#post70_1"/>
      <use id="33UXR3" x="42191.32" y="37843.23" xlink:href="#post70_1"/>
      <use id="33UXR4" x="42110.02" y="38337.58" xlink:href="#post70_1"/>
      <use id="34SDK2" x="44478.65" y="49223.31" xlink:href="#pre70_1"/>
      <use id="34SDK4" x="44980.54" y="49197.36" xlink:href="#post70_1"/>
      <use id="34SEJ1" x="45509.27" y="49672.97" xlink:href="#post70_1"/>
      <use id="34SEJ4" x="46039.21" y="50148.49" xlink:href="#post70_1"/>
      <use id="34SEK2" x="45482.41" y="49170.82" xlink:href="#post70_1"/>
      <use id="34SFH1" x="46570.45" y="50623.86" xlink:href="#post70_1"/>
      <use id="34SFJ2" x="46542.19" y="50120.61" xlink:href="#post70_1"/>
      <use id="34SFK2" x="46486.01" y="49116" xlink:href="#post70_1"/>
      <use id="34TBN3" x="42832.55" y="45797.02" xlink:href="#post70_1"/>
      <use id="34TBN4" x="42848.22" y="46295.93" xlink:href="#post70_1"/>
      <use id="34TBP4" x="42816.85" y="45298.5" xlink:href="#post70_1"/>
      <use id="34TCK3" x="43951.68" y="48747.1" xlink:href="#pre70_1"/>
      <use id="34TCN1" x="43301.88" y="45773.68" xlink:href="#post70_1"/>
      <use id="34TCN2" x="43326.82" y="46272.23" xlink:href="#post70_1"/>
      <use id="34TCN3" x="43800.27" y="45748.5" xlink:href="#post70_1"/>
      <use id="34TCN4" x="43825.62" y="46247.12" xlink:href="#post70_1"/>
      <use id="34TCP1" x="43251.76" y="44777.72" xlink:href="#post70_1"/>
      <use id="34TCP2" x="43276.86" y="45275.52" xlink:href="#post70_1"/>
      <use id="34TCP3" x="43749.42" y="44752.42" xlink:href="#post70_1"/>
      <use id="34TCP4" x="43774.87" y="45250.28" xlink:href="#post70_1"/>
      <use id="34TDK1" x="44452.99" y="48721.71" xlink:href="#pre70_1"/>
      <use id="34TDK3" x="44954.31" y="48695.76" xlink:href="#post70_1"/>
      <use id="34TDL1" x="44401.63" y="47720.17" xlink:href="#pre70_1"/>
      <use id="34TDL2" x="44427.32" y="48220.68" xlink:href="#pre70_1"/>
      <use id="34TDL3" x="44901.88" y="47694.23" xlink:href="#post70_1"/>
      <use id="34TDL4" x="44928.09" y="48194.73" xlink:href="#post70_1"/>
      <use id="34TDM1" x="44350.21" y="46720.65" xlink:href="#post70_1"/>
      <use id="34TDM2" x="44375.93" y="47220.18" xlink:href="#pre70_1"/>
      <use id="34TDM3" x="44849.51" y="46694.7" xlink:href="#post70_1"/>
      <use id="34TDM4" x="44875.69" y="47194.23" xlink:href="#post70_1"/>
      <use id="34TDN1" x="44298.71" y="45722.93" xlink:href="#post70_1"/>
      <use id="34TDN2" x="44324.47" y="46221.58" xlink:href="#post70_1"/>
      <use id="34TEL2" x="45428.85" y="48168.26" xlink:href="#post70_1"/>
      <use id="34TEM1" x="45348.81" y="46668.3" xlink:href="#post70_1"/>
      <use id="34TEM2" x="45375.45" y="47167.81" xlink:href="#post70_1"/>
      <use id="34TEP3" x="45740.31" y="44647.83" xlink:href="#post70_1"/>
      <use id="34TFQ2" x="46210.85" y="44123.41" xlink:href="#post70_1"/>
      <use id="34TFR1" x="46130.06" y="42632.81" xlink:href="#pre70_1"/>
      <use id="34TFR3" x="46626.52" y="42605.9" xlink:href="#post70_1"/>
      <use id="34TFS3" x="46572.71" y="41613.48" xlink:href="#pre70_1"/>
      <use id="34TGM1" x="47334.02" y="46558.91" xlink:href="#post70_1"/>
      <use id="34TGM2" x="47371.23" y="47057.54" xlink:href="#post70_1"/>
      <use id="34TGN2" x="47296.9" y="46060.72" xlink:href="#post70_1"/>
      <use id="34TGR2" x="47075.92" y="43079.25" xlink:href="#post70_1"/>
      <use id="34UCV3" x="43439.34" y="38796.28" xlink:href="#post70_1"/>
      <use id="34UCV4" x="43465.56" y="39291.98" xlink:href="#post70_1"/>
      <use id="34UDU1" x="43987.47" y="39761.58" xlink:href="#post70_1"/>
      <use id="34UDV1" x="43935.09" y="38770.04" xlink:href="#post70_1"/>
      <use id="34UDV2" x="43961.3" y="39265.8" xlink:href="#post70_1"/>
      <use id="34UDV4" x="44457.1" y="39239.61" xlink:href="#post70_1"/>
      <use id="35TKF3" x="47918.88" y="47509.32" xlink:href="#post70_1"/>
      <use id="35TKG3" x="47808.7" y="46514.91" xlink:href="#post70_1"/>
      <use id="35TKG4" x="47863.79" y="47011.88" xlink:href="#post70_1"/>
      <use id="35TLG1" x="48293.12" y="46452.33" xlink:href="#post70_1"/>
      <use id="35TLH1" x="48164.51" y="45461.86" xlink:href="#post70_1"/>
      <use id="35TLH2" x="48228.83" y="45956.88" xlink:href="#post70_1"/>
      <use id="35TLH3" x="48659.35" y="45397.31" xlink:href="#post70_1"/>
      <use id="35TLH4" x="48724.08" y="45892.36" xlink:href="#post70_1"/>
      <use id="35TLL1" x="47777.46" y="42499.2" xlink:href="#post70_1"/>
      <use id="35TLL2" x="47842.13" y="42992.22" xlink:href="#post70_1"/>
      <use id="35TLL3" x="48270.41" y="42434.39" xlink:href="#pre70_1"/>
      <use id="35TLL4" x="48335.32" y="42927.47" xlink:href="#post70_1"/>
      <use id="35TLN1" x="47518.06" y="40529.11" xlink:href="#post70_1"/>
      <use id="35TLN3" x="48010.32" y="40464.04" xlink:href="#post70_1"/>
      <use id="35TML1" x="48763.4" y="42369.35" xlink:href="#post70_1"/>
      <use id="35TMM1" x="48633.06" y="41383.77" xlink:href="#post70_1"/>
    </g>
    <defs>
      <circle id="post70_1" r="250" fill="#dc5107"/>
      <circle id="pre70_1" r="250" fill="darkgrey"/>
      <circle id="post70_2" r="250" stroke-width="40" fill="white" fill-opacity="0.1" stroke="red"/>
      <circle id="pre70_2" r="250" stroke-width="40" fill="white" fill-opacity="0.1" stroke="pink"/>
    </defs>
  </g>
</svg>