<?xml version="1.0" encoding="UTF-8" standalone="yes"?>
<svg id="map2svg" xml:space="preserve" x="0" y="0" width="100%" viewBox="0 0 71000 59000" onload="setup(evt);" 
  xmlns="http://www.w3.org/2000/svg" 
  xmlns:xlink="http://www.w3.org/1999/xlink">

  <g id="map-matrix" transform="matrix(1 0 0 1 0 0)">
    <g id="datapoints" style="pointer-events:all">
      <use id="33TWN3" x="41052.16" y="40792.77" xlink:href="#post70_1"/>
      <use id="33TXN1" x="41548.6" y="40805.68" xlink:href="#post70_1"/>
      <use id="33TXN3" x="42044.98" y="40818.48" xlink:href="#post70_1"/>
      <use id="33TXN4" x="42032.28" y="41314.86" xlink:href="#post70_1"/>
      <use id="33TYM1" x="42559.82" y="41824.94" xlink:href="#post70_1"/>
      <use id="33TYN1" x="42546.69" y="40831.31" xlink:href="#post70_1"/>
      <use id="33TYN2" x="42553.25" y="41328.06" xlink:href="#pre70_1"/>
      <use id="33UUR1" x="38580.84" y="37747.85" xlink:href="#post70_1"/>
      <use id="33UUR3" x="39145.1" y="37762.48" xlink:href="#post70_1"/>
      <use id="33UUR4" x="39132.15" y="38258.76" xlink:href="#post70_1"/>
      <use id="33UVQ1" x="39615.39" y="38768.09" xlink:href="#post70_1"/>
      <use id="33UVR1" x="39641.47" y="37775.43" xlink:href="#post70_1"/>
      <use id="33UVR2" x="39628.45" y="38271.78" xlink:href="#post70_1"/>
      <use id="33UVR3" x="40137.88" y="37788.46" xlink:href="#post70_1"/>
      <use id="33UVR4" x="40124.8" y="38284.85" xlink:href="#post70_1"/>
      <use id="33UVS2" x="39654.44" y="37278.99" xlink:href="#post70_1"/>
      <use id="33UVS4" x="40150.95" y="37292" xlink:href="#post70_1"/>
      <use id="33UWP1" x="40581.82" y="39786.94" xlink:href="#post70_1"/>
      <use id="33UWP3" x="41078.16" y="39800" xlink:href="#post70_1"/>
      <use id="33UWP4" x="41065.14" y="40296.35" xlink:href="#post70_1"/>
      <use id="33UWQ2" x="40594.92" y="39290.61" xlink:href="#post70_1"/>
      <use id="33UWQ3" x="41104.35" y="38807.42" xlink:href="#post70_1"/>
      <use id="33UWQ4" x="41091.23" y="39303.7" xlink:href="#post70_1"/>
      <use id="33UWR1" x="40634.31" y="37801.58" xlink:href="#post70_1"/>
      <use id="33UWR2" x="40621.16" y="38297.96" xlink:href="#post70_1"/>
      <use id="33UWR3" x="41130.72" y="37814.78" xlink:href="#post70_1"/>
      <use id="33UXP1" x="41574.46" y="39813.03" xlink:href="#post70_1"/>
      <use id="33UXP2" x="41561.49" y="40309.32" xlink:href="#post70_1"/>
      <use id="33UXP3" x="42070.68" y="39826.01" xlink:href="#post70_1"/>
      <use id="33UXP4" x="42057.78" y="40322.2" xlink:href="#post70_1"/>
      <use id="33UXQ1" x="41600.61" y="38820.57" xlink:href="#post70_1"/>
      <use id="33UXQ2" x="41587.5" y="39316.79" xlink:href="#post70_1"/>
      <use id="33UXQ3" x="42096.8" y="38833.72" xlink:href="#post70_1"/>
      <use id="33UXQ4" x="42083.69" y="39329.85" xlink:href="#post70_1"/>
      <use id="33UXR2" x="41613.8" y="38324.32" xlink:href="#post70_1"/>
      <use id="33UYP1" x="42533.58" y="39838.07" xlink:href="#post70_1"/>
      <use id="33UYP2" x="42540.13" y="40334.66" xlink:href="#post70_1"/>
      <use id="34TCQ3" x="43698.37" y="43757.69" xlink:href="#post70_1"/>
      <use id="34TCR1" x="43150.54" y="42789.68" xlink:href="#post70_1"/>
      <use id="34TCR3" x="43647.07" y="42764.09" xlink:href="#post70_1"/>
      <use id="34TCR4" x="43672.75" y="43260.76" xlink:href="#post70_1"/>
      <use id="34TCS1" x="43099.41" y="41797.12" xlink:href="#pre70_1"/>
      <use id="34TCS2" x="43125.02" y="42293.3" xlink:href="#pre70_1"/>
      <use id="34TCS3" x="43595.54" y="41771.38" xlink:href="#post70_1"/>
      <use id="34TCS4" x="43621.34" y="42267.63" xlink:href="#post70_1"/>
      <use id="34TCT1" x="43047.89" y="40805.23" xlink:href="#post70_1"/>
      <use id="34TCT2" x="43073.7" y="41301.11" xlink:href="#pre70_1"/>
      <use id="34TCT3" x="43543.76" y="40779.33" xlink:href="#pre70_1"/>
      <use id="34TCT4" x="43569.69" y="41275.29" xlink:href="#pre70_1"/>
      <use id="34TDQ1" x="44195.46" y="43731.96" xlink:href="#post70_1"/>
      <use id="34TDQ3" x="44692.58" y="43705.96" xlink:href="#post70_1"/>
      <use id="34TDR1" x="44143.67" y="42738.27" xlink:href="#post70_1"/>
      <use id="34TDR2" x="44169.58" y="43234.99" xlink:href="#post70_1"/>
      <use id="34TDR3" x="44640.29" y="42712.23" xlink:href="#post70_1"/>
      <use id="34TDR4" x="44666.44" y="43208.97" xlink:href="#post70_1"/>
      <use id="34TDS2" x="44117.73" y="42241.77" xlink:href="#post70_1"/>
      <use id="34TDT2" x="44065.74" y="41249.32" xlink:href="#post70_1"/>
      <use id="34TDT3" x="44535.66" y="40727.19" xlink:href="#post70_1"/>
      <use id="34TDT4" x="44561.83" y="41223.23" xlink:href="#pre70_1"/>
      <use id="34TEK3" x="45956.87" y="48642.2" xlink:href="#pre70_1"/>
      <use id="34TEL4" x="45929.56" y="48141.25" xlink:href="#post70_1"/>
      <use id="34TEM2" x="45375.45" y="47167.81" xlink:href="#post70_1"/>
      <use id="34TEN4" x="45821.03" y="46142.45" xlink:href="#post70_1"/>
      <use id="34TEQ1" x="45189.7" y="43679.68" xlink:href="#post70_1"/>
      <use id="34TER1" x="45136.92" y="42685.98" xlink:href="#pre70_1"/>
      <use id="34TER3" x="45633.52" y="42659.5" xlink:href="#pre70_1"/>
      <use id="34TES1" x="45084.23" y="41693.15" xlink:href="#pre70_1"/>
      <use id="34TET1" x="45031.65" y="40700.97" xlink:href="#post70_1"/>
      <use id="34TET2" x="45057.92" y="41197" xlink:href="#pre70_1"/>
      <use id="34TET3" x="45527.6" y="40674.65" xlink:href="#pre70_1"/>
      <use id="34TET4" x="45554.01" y="41170.63" xlink:href="#pre70_1"/>
      <use id="34TFK1" x="46458.06" y="48614.59" xlink:href="#pre70_1"/>
      <use id="34TFL1" x="46402.47" y="47613.37" xlink:href="#post70_1"/>
      <use id="34TFL2" x="46430.22" y="48113.72" xlink:href="#post70_1"/>
      <use id="34TFL3" x="46902.5" y="47585.43" xlink:href="#pre70_1"/>
      <use id="34TFL4" x="46930.76" y="48085.66" xlink:href="#post70_1"/>
      <use id="34TFM1" x="46347.25" y="46614.17" xlink:href="#post70_1"/>
      <use id="34TFM3" x="46846.36" y="46586.44" xlink:href="#post70_1"/>
      <use id="34TFN1" x="46292.42" y="45616.74" xlink:href="#post70_1"/>
      <use id="34TFN2" x="46319.8" y="46115.24" xlink:href="#post70_1"/>
      <use id="34TFN3" x="46790.69" y="45589.22" xlink:href="#post70_1"/>
      <use id="34TFN4" x="46818.47" y="46087.62" xlink:href="#pre70_1"/>
      <use id="34TFP1" x="46237.95" y="44620.85" xlink:href="#pre70_1"/>
      <use id="34TFP3" x="46735.51" y="44593.53" xlink:href="#post70_1"/>
      <use id="34TFP4" x="46763.04" y="45091.2" xlink:href="#pre70_1"/>
      <use id="34TFQ4" x="46708.09" y="44096.21" xlink:href="#pre70_1"/>
      <use id="34TFT1" x="46023.51" y="40648.22" xlink:href="#post70_1"/>
      <use id="34TGL1" x="47408.52" y="47556.63" xlink:href="#pre70_1"/>
      <use id="34TGM1" x="47334.02" y="46558.91" xlink:href="#pre70_1"/>
      <use id="34TGN1" x="47259.87" y="45562.94" xlink:href="#post70_1"/>
      <use id="34TGN2" x="47296.9" y="46060.72" xlink:href="#post70_1"/>
      <use id="34TGP1" x="47186.05" y="44568.52" xlink:href="#post70_1"/>
      <use id="34TGP2" x="47222.91" y="45065.55" xlink:href="#pre70_1"/>
      <use id="34TGQ2" x="47149.26" y="44071.8" xlink:href="#post70_1"/>
      <use id="34TGS1" x="47112.23" y="41584.24" xlink:href="#pre70_1"/>
      <use id="34UCU1" x="42995.99" y="39813.79" xlink:href="#post70_1"/>
      <use id="34UCU2" x="43021.99" y="40309.47" xlink:href="#post70_1"/>
      <use id="34UCU3" x="43491.7" y="39787.71" xlink:href="#post70_1"/>
      <use id="34UCU4" x="43517.76" y="40283.48" xlink:href="#post70_1"/>
      <use id="34UCV2" x="42969.89" y="39318.15" xlink:href="#post70_1"/>
      <use id="34UDU1" x="43987.47" y="39761.58" xlink:href="#post70_1"/>
      <use id="34UDU2" x="44013.6" y="40257.41" xlink:href="#post70_1"/>
      <use id="34UDU3" x="44483.3" y="39735.41" xlink:href="#post70_1"/>
      <use id="34UDU4" x="44509.48" y="40231.27" xlink:href="#post70_1"/>
      <use id="34UDV2" x="43961.3" y="39265.8" xlink:href="#post70_1"/>
      <use id="34UDV3" x="44430.88" y="38743.81" xlink:href="#post70_1"/>
      <use id="34UDV4" x="44457.1" y="39239.61" xlink:href="#post70_1"/>
      <use id="34UEU1" x="44979.13" y="39709.2" xlink:href="#post70_1"/>
      <use id="34UEU2" x="45005.38" y="40205.05" xlink:href="#post70_1"/>
      <use id="34UEU3" x="45474.95" y="39682.94" xlink:href="#post70_1"/>
      <use id="34UEV2" x="44952.9" y="39213.39" xlink:href="#post70_1"/>
      <use id="34UFU4" x="46492.82" y="40125.96" xlink:href="#post70_1"/>
      <use id="35TKG3" x="47808.7" y="46514.91" xlink:href="#post70_1"/>
      <use id="35TKH3" x="47698.5" y="45522.28" xlink:href="#post70_1"/>
      <use id="35TKH4" x="47753.61" y="46018.39" xlink:href="#post70_1"/>
      <use id="35TKJ3" x="47588.26" y="44531.23" xlink:href="#pre70_1"/>
      <use id="35TKJ4" x="47643.39" y="45026.57" xlink:href="#pre70_1"/>
      <use id="35TKK4" x="47533.11" y="44036.22" xlink:href="#pre70_1"/>
      <use id="35TLF2" x="48485.74" y="47941.51" xlink:href="#post70_1"/>
      <use id="35TLG1" x="48293.12" y="46452.33" xlink:href="#pre70_1"/>
      <use id="35TLG2" x="48357.36" y="46948.22" xlink:href="#pre70_1"/>
      <use id="35TLG3" x="48788.81" y="46387.83" xlink:href="#pre70_1"/>
      <use id="35TLG4" x="48853.51" y="46883.76" xlink:href="#pre70_1"/>
      <use id="35TLH1" x="48164.51" y="45461.86" xlink:href="#post70_1"/>
      <use id="35TLH2" x="48228.83" y="45956.88" xlink:href="#post70_1"/>
      <use id="35TLH3" x="48659.35" y="45397.31" xlink:href="#pre70_1"/>
      <use id="35TLH4" x="48724.08" y="45892.36" xlink:href="#pre70_1"/>
      <use id="35TLJ1" x="48035.72" y="44473" xlink:href="#post70_1"/>
      <use id="35TLJ2" x="48100.14" y="44967.24" xlink:href="#post70_1"/>
      <use id="35TLJ4" x="48594.59" y="44902.67" xlink:href="#pre70_1"/>
      <use id="35TME3" x="50043.04" y="48243.98" xlink:href="#post70_1"/>
      <use id="35TMF2" x="49480.1" y="47812.1" xlink:href="#post70_1"/>
      <use id="35TMF3" x="49911.51" y="47249.74" xlink:href="#post70_1"/>
      <use id="35TMF4" x="49977.25" y="47746.6" xlink:href="#post70_1"/>
      <use id="35TMG1" x="49284.51" y="46322.89" xlink:href="#pre70_1"/>
      <use id="35TMG2" x="49349.68" y="46818.81" xlink:href="#post70_1"/>
      <use id="35TMG3" x="49780.19" y="46257.5" xlink:href="#post70_1"/>
      <use id="35TMG4" x="49845.82" y="46753.39" xlink:href="#post70_1"/>
      <use id="35TMH1" x="49154.2" y="45332.37" xlink:href="#pre70_1"/>
      <use id="35TMH2" x="49219.35" y="45827.42" xlink:href="#pre70_1"/>
      <use id="35TMH3" x="49649.05" y="45267.04" xlink:href="#pre70_1"/>
      <use id="35TMH4" x="49714.6" y="45762.06" xlink:href="#post70_1"/>
      <use id="35TMJ1" x="49023.94" y="44343.42" xlink:href="#pre70_1"/>
      <use id="35TMJ2" x="49089.07" y="44837.71" xlink:href="#pre70_1"/>
      <use id="35TMJ3" x="49518.06" y="44278.13" xlink:href="#pre70_1"/>
      <use id="35TMJ4" x="49583.54" y="44772.4" xlink:href="#post70_1"/>
      <use id="35TMK1" x="48893.69" y="43355.82" xlink:href="#pre70_1"/>
      <use id="35TMK2" x="48958.81" y="43849.47" xlink:href="#pre70_1"/>
      <use id="35TMK3" x="49387.19" y="43290.55" xlink:href="#post70_1"/>
      <use id="35TMK4" x="49452.61" y="43784.18" xlink:href="#post70_1"/>
      <use id="35TML4" x="49321.79" y="42797.19" xlink:href="#pre70_1"/>
      <use id="35TMN4" x="49060.34" y="40825.96" xlink:href="#post70_1"/>
      <use id="35TNF1" x="50408.09" y="47183.78" xlink:href="#post70_1"/>
      <use id="35TNF2" x="50474.34" y="47680.57" xlink:href="#pre70_1"/>
      <use id="35TNF3" x="50904.59" y="47117.32" xlink:href="#post70_1"/>
      <use id="35TNG1" x="50275.83" y="46191.66" xlink:href="#post70_1"/>
      <use id="35TNG2" x="50341.93" y="46687.49" xlink:href="#post70_1"/>
      <use id="35TNG3" x="50771.4" y="46125.38" xlink:href="#pre70_1"/>
      <use id="35TNH1" x="50143.86" y="45201.31" xlink:href="#post70_1"/>
      <use id="35TNH2" x="50209.81" y="45696.28" xlink:href="#pre70_1"/>
      <use id="35TNH3" x="50638.61" y="45135.2" xlink:href="#pre70_1"/>
      <use id="35TNJ1" x="50012.15" y="44212.5" xlink:href="#pre70_1"/>
      <use id="35TNJ2" x="50077.97" y="44706.73" xlink:href="#pre70_1"/>
      <use id="35TNJ3" x="50506.18" y="44146.54" xlink:href="#pre70_1"/>
      <use id="35TNJ4" x="50572.34" y="44640.69" xlink:href="#post70_1"/>
      <use id="35TNK2" x="49946.39" y="43718.6" xlink:href="#pre70_1"/>
      <use id="35TNK3" x="50374.1" y="43159.18" xlink:href="#post70_1"/>
      <use id="35TNM3" x="50110.87" y="41187.47" xlink:href="#pre70_1"/>
      <use id="35TNN1" x="49487.34" y="40268.15" xlink:href="#pre70_1"/>
      <use id="35TNN2" x="49552.8" y="40760.54" xlink:href="#post70_1"/>
      <use id="35TPF1" x="51400.99" y="47050.37" xlink:href="#post70_1"/>
      <use id="35TPF2" x="51468.25" y="47546.95" xlink:href="#pre70_1"/>
      <use id="35TPF3" x="51897.24" y="46982.93" xlink:href="#pre70_1"/>
      <use id="35TPJ1" x="51000.13" y="44080.25" xlink:href="#post70_1"/>
      <use id="35TPJ2" x="51066.63" y="44574.31" xlink:href="#post70_1"/>
      <use id="35TPK1" x="50867.45" y="43093.09" xlink:href="#post70_1"/>
      <use id="35TPK2" x="50933.73" y="43586.52" xlink:href="#post70_1"/>
      <use id="35TPL2" x="50801.28" y="42599.92" xlink:href="#post70_1"/>
      <use id="35UMP4" x="48929.64" y="39841.26" xlink:href="#post70_1"/>
    </g>
    <defs>
      <circle id="post70_1" r="250" fill="#dc5107"/>
      <circle id="pre70_1" r="250" fill="darkgrey"/>
      <circle id="post70_2" r="250" stroke-width="40" fill="white" fill-opacity="0.1" stroke="red"/>
      <circle id="pre70_2" r="250" stroke-width="40" fill="white" fill-opacity="0.1" stroke="pink"/>
    </defs>
  </g>
</svg>