<?xml version="1.0" encoding="UTF-8" standalone="yes"?>
<svg id="map2svg" xml:space="preserve" x="0" y="0" width="100%" viewBox="0 0 71000 59000" onload="setup(evt);" xmlns="http://www.w3.org/2000/svg" xmlns:xlink="http://www.w3.org/1999/xlink">
  
  <g id="map-matrix" transform="matrix(1 0 0 1 0 0)">
    <g id="datapoints" style="pointer-events:all" onmouseover="currentcoord(evt)" onmouseout="hideutm(evt)">
      <use id="29TPH3" x="22745.4" y="42766.41" xlink:href="#post70_1"/>
      <use id="29TPH4" x="22578.69" y="43236.93" xlink:href="#post70_1"/>
      <use id="29TQH1" x="23188.37" y="42923.22" xlink:href="#post70_1"/>
      <use id="29TQH2" x="23030.44" y="43396.73" xlink:href="#post70_1"/>
      <use id="29TQJ2" x="23346.22" y="42450.09" xlink:href="#post70_1"/>
      <use id="30TTN3" x="23608.73" y="43054.97" xlink:href="#post70_1"/>
      <use id="30TTP4" x="23749.17" y="42576.39" xlink:href="#post70_1"/>
      <use id="30TUN1" x="24061.95" y="43179.06" xlink:href="#post70_1"/>
      <use id="30TUN2" x="23930.27" y="43660.56" xlink:href="#post70_1"/>
      <use id="30TUN3" x="24543.37" y="43310.46" xlink:href="#post70_1"/>
      <use id="30TXN3" x="27434.5" y="44091.1" xlink:href="#post70_1"/>
      <use id="30TYN1" x="27888.49" y="44212.35" xlink:href="#post70_1"/>
      <use id="30TYN2" x="27768.54" y="44696.88" xlink:href="#post70_1"/>
      <use id="32TPR1" x="36867.3" y="42584.98" xlink:href="#post70_1"/>
      <use id="32TPS1" x="36971.18" y="41596.38" xlink:href="#post70_1"/>
      <use id="32TPS2" x="36919.21" y="42090.58" xlink:href="#post70_1"/>
      <use id="32TPS4" x="37413.49" y="42142.41" xlink:href="#post70_1"/>
      <use id="32TPT4" x="37517.12" y="41154.32" xlink:href="#post70_1"/>
      <use id="32TQS1" x="38002.63" y="41704.55" xlink:href="#post70_1"/>
      <use id="32TQT2" x="38035.42" y="41208.71" xlink:href="#post70_1"/>
      <use id="32VNN3" x="38180.58" y="25644.59" xlink:href="#post70_1"/>
      <use id="32VNP4" x="38235.75" y="25138.58" xlink:href="#post70_1"/>
      <use id="32VNQ2" x="37837.91" y="24068.38" xlink:href="#post70_1"/>
      <use id="32VNQ3" x="38402.37" y="23614.26" xlink:href="#post70_1"/>
      <use id="32VNR4" x="38458.3" y="23103.89" xlink:href="#post70_1"/>
      <use id="32VPL3" x="38924.36" y="27765.35" xlink:href="#post70_1"/>
      <use id="32VPM1" x="38574.36" y="26708.97" xlink:href="#post70_1"/>
      <use id="32VPN2" x="38701.28" y="26212.91" xlink:href="#post70_1"/>
      <use id="32VPP1" x="38835.19" y="24691.6" xlink:href="#post70_1"/>
      <use id="32VPP2" x="38790.42" y="25199.7" xlink:href="#post70_1"/>
      <use id="32VPR1" x="39015.73" y="22647.99" xlink:href="#post70_1"/>
      <use id="32VPR2" x="38970.38" y="23160.67" xlink:href="#post70_1"/>
      <use id="32WPS2" x="39061.27" y="22134.04" xlink:href="#post70_1"/>
      <use id="33TUG3" x="38900.17" y="46712.52" xlink:href="#post70_1"/>
      <use id="33TUG4" x="38885.81" y="47212.44" xlink:href="#post70_1"/>
      <use id="33TUH4" x="38914.44" y="46213.04" xlink:href="#post70_1"/>
      <use id="33TUL1" x="38515.15" y="42713.02" xlink:href="#post70_1"/>
      <use id="33TUM1" x="38542.73" y="41719.52" xlink:href="#post70_1"/>
      <use id="33TUM3" x="39039.35" y="41733.14" xlink:href="#post70_1"/>
      <use id="33TUM4" x="39025.79" y="42229.87" xlink:href="#post70_1"/>
      <use id="33TUN4" x="39052.84" y="41236.55" xlink:href="#post70_1"/>
      <use id="33TVG1" x="39399.91" y="46726.62" xlink:href="#post70_1"/>
      <use id="33TVG2" x="39386.01" y="47226.61" xlink:href="#post70_1"/>
      <use id="33TVK3" x="39979.82" y="43748.48" xlink:href="#post70_1"/>
      <use id="33TVL1" x="39509.22" y="42740.38" xlink:href="#post70_1"/>
      <use id="33TVL3" x="40006.35" y="42753.73" xlink:href="#post70_1"/>
      <use id="33TVL4" x="39993.1" y="43250.98" xlink:href="#post70_1"/>
      <use id="33TVM1" x="39536.05" y="41746.59" xlink:href="#post70_1"/>
      <use id="33TVM2" x="39522.66" y="42243.39" xlink:href="#post70_1"/>
      <use id="33TVM3" x="40032.8" y="41759.86" xlink:href="#post70_1"/>
      <use id="33TVM4" x="40019.58" y="42256.7" xlink:href="#post70_1"/>
      <use id="33TVN1" x="39562.68" y="40753.42" xlink:href="#post70_1"/>
      <use id="33TVN2" x="39549.39" y="41249.94" xlink:href="#post70_1"/>
      <use id="33TVN3" x="40059.16" y="40766.64" xlink:href="#post70_1"/>
      <use id="33TVN4" x="40046" y="41263.19" xlink:href="#post70_1"/>
      <use id="33TWK1" x="40477.47" y="43761.63" xlink:href="#post70_1"/>
      <use id="33TWK2" x="40464.47" y="44259.41" xlink:href="#post70_1"/>
      <use id="33TWK3" x="40975.1" y="43774.49" xlink:href="#post70_1"/>
      <use id="33TWK4" x="40962.39" y="44272.25" xlink:href="#post70_1"/>
      <use id="33TWL1" x="40503.5" y="42766.87" xlink:href="#post70_1"/>
      <use id="33TWL2" x="40490.47" y="43264.12" xlink:href="#post70_1"/>
      <use id="33TWM1" x="40529.56" y="41772.98" xlink:href="#post70_1"/>
      <use id="33TWN1" x="40555.67" y="40779.76" xlink:href="#post70_1"/>
      <use id="33TWN2" x="40542.61" y="41276.31" xlink:href="#post70_1"/>
      <use id="33TXJ1" x="41447.93" y="44782.81" xlink:href="#post70_1"/>
      <use id="33TXJ2" x="41435.64" y="45281.18" xlink:href="#pre70_1"/>
      <use id="33TXJ3" x="41946.09" y="44794.97" xlink:href="#post70_1"/>
      <use id="33TXJ4" x="41934.14" y="45293.25" xlink:href="#post70_1"/>
      <use id="33TXK2" x="41460.28" y="44284.79" xlink:href="#post70_1"/>
      <use id="33TYJ1" x="42397.2" y="44805.69" xlink:href="#post70_1"/>
      <use id="33TYJ2" x="42394.6" y="45304.08" xlink:href="#post70_1"/>
      <use id="33UVP2" x="39575.93" y="40257.01" xlink:href="#post70_1"/>
      <use id="33UVP4" x="40072.32" y="40270.2" xlink:href="#post70_1"/>
      <use id="33UWP2" x="40568.74" y="40283.31" xlink:href="#post70_1"/>
      <use id="33UWP4" x="41065.14" y="40296.35" xlink:href="#post70_1"/>
      <use id="33UYP1" x="42533.58" y="39838.07" xlink:href="#post70_1"/>
      <use id="33VUG3" x="39410.41" y="26764.25" xlink:href="#post70_1"/>
      <use id="33VUG4" x="39399.2" y="27270.26" xlink:href="#post70_1"/>
      <use id="33VUH3" x="39372.43" y="25748.24" xlink:href="#post70_1"/>
      <use id="33VUH4" x="39349.9" y="26255.8" xlink:href="#post70_1"/>
      <use id="33VUJ3" x="39417.47" y="24730.11" xlink:href="#post70_1"/>
      <use id="33VUJ4" x="39394.95" y="25239.68" xlink:href="#post70_1"/>
      <use id="33VUK3" x="39462.53" y="23707.66" xlink:href="#post70_1"/>
      <use id="33VUK4" x="39440" y="24219.45" xlink:href="#post70_1"/>
      <use id="33VUL4" x="39485.05" y="23194.7" xlink:href="#post70_1"/>
      <use id="33VVG1" x="39916.89" y="26775.85" xlink:href="#post70_1"/>
      <use id="33VVG2" x="39904.82" y="27281.94" xlink:href="#post70_1"/>
      <use id="33VVG3" x="40423.42" y="26788.35" xlink:href="#post70_1"/>
      <use id="33VVG4" x="40410.48" y="27294.45" xlink:href="#post70_1"/>
      <use id="33VVH1" x="39940.9" y="25760.99" xlink:href="#post70_1"/>
      <use id="33VVH2" x="39928.92" y="26268.9" xlink:href="#post70_1"/>
      <use id="33VVH3" x="40449.3" y="25773.44" xlink:href="#post70_1"/>
      <use id="33VVH4" x="40436.36" y="26281.36" xlink:href="#post70_1"/>
      <use id="33VVJ1" x="39964.74" y="24742.22" xlink:href="#post70_1"/>
      <use id="33VVJ2" x="39952.84" y="25252.12" xlink:href="#post70_1"/>
      <use id="33VVJ3" x="40475.19" y="24754.63" xlink:href="#post70_1"/>
      <use id="33VVJ4" x="40462.24" y="25264.55" xlink:href="#post70_1"/>
      <use id="33VVK1" x="39988.38" y="23719.13" xlink:href="#post70_1"/>
      <use id="33VVK2" x="39976.58" y="24231.24" xlink:href="#post70_1"/>
      <use id="33VVK3" x="40501.09" y="23731.5" xlink:href="#post70_1"/>
      <use id="33VVK4" x="40488.13" y="24243.63" xlink:href="#post70_1"/>
      <use id="33VVL1" x="40011.85" y="22691.34" xlink:href="#post70_1"/>
      <use id="33VVL2" x="40000.14" y="23205.85" xlink:href="#post70_1"/>
      <use id="33VVL3" x="40527.01" y="22703.66" xlink:href="#post70_1"/>
      <use id="33VVL4" x="40514.05" y="23218.19" xlink:href="#post70_1"/>
      <use id="33VWG1" x="40929.95" y="26801.73" xlink:href="#post70_1"/>
      <use id="33VWH1" x="40957.69" y="25786.88" xlink:href="#post70_1"/>
      <use id="33VWH2" x="40943.8" y="26294.77" xlink:href="#post70_1"/>
      <use id="33VWH3" x="41466.04" y="25801.28" xlink:href="#post70_1"/>
      <use id="33VWH4" x="41451.19" y="26309.11" xlink:href="#post70_1"/>
      <use id="33VWJ1" x="40985.63" y="24768.11" xlink:href="#post70_1"/>
      <use id="33VWJ2" x="40971.64" y="25278" xlink:href="#post70_1"/>
      <use id="33VWJ3" x="41496.03" y="24782.67" xlink:href="#post70_1"/>
      <use id="33VWJ4" x="41480.98" y="25292.49" xlink:href="#post70_1"/>
      <use id="33VWK1" x="41013.79" y="23745.04" xlink:href="#post70_1"/>
      <use id="33VWK2" x="40999.69" y="24257.14" xlink:href="#post70_1"/>
      <use id="33VWK3" x="41526.43" y="23759.76" xlink:href="#post70_1"/>
      <use id="33VWK4" x="41511.17" y="24271.78" xlink:href="#post70_1"/>
      <use id="33VWL1" x="41042.17" y="22717.27" xlink:href="#post70_1"/>
      <use id="33VWL2" x="41027.95" y="23231.77" xlink:href="#post70_1"/>
      <use id="33VWL3" x="41557.27" y="22732.16" xlink:href="#post70_1"/>
      <use id="33VWL4" x="41541.79" y="23246.57" xlink:href="#post70_1"/>
      <use id="33VXK1" x="42052.16" y="23776.07" xlink:href="#post70_1"/>
      <use id="33VXL2" x="42056.75" y="23262.64" xlink:href="#post70_1"/>
      <use id="33WVM3" x="40552.96" y="21670.69" xlink:href="#post70_1"/>
      <use id="33WVM4" x="40539.98" y="22187.85" xlink:href="#post70_1"/>
      <use id="33WVN1" x="40058.18" y="20619.87" xlink:href="#post70_1"/>
      <use id="33WVN3" x="40578.94" y="20632.11" xlink:href="#post70_1"/>
      <use id="33WVN4" x="40565.95" y="21152.13" xlink:href="#post70_1"/>
      <use id="33WVP2" x="40069.63" y="20098.37" xlink:href="#post70_1"/>
      <use id="33WVP4" x="40591.94" y="20110.58" xlink:href="#post70_1"/>
      <use id="33WWM1" x="41070.8" y="21684.37" xlink:href="#post70_1"/>
      <use id="33WWM2" x="41056.45" y="22201.49" xlink:href="#post70_1"/>
      <use id="33WWM3" x="41588.57" y="21699.45" xlink:href="#post70_1"/>
      <use id="33WWM4" x="41572.85" y="22216.47" xlink:href="#post70_1"/>
      <use id="33WWN1" x="41099.69" y="20645.87" xlink:href="#post70_1"/>
      <use id="33WWN2" x="41085.21" y="21165.85" xlink:href="#post70_1"/>
      <use id="33WWN3" x="41620.37" y="20661.14" xlink:href="#post70_1"/>
      <use id="33WWN4" x="41604.4" y="21181.02" xlink:href="#post70_1"/>
      <use id="33WWP2" x="41114.24" y="20124.38" xlink:href="#post70_1"/>
      <use id="33WWP4" x="41636.47" y="20139.76" xlink:href="#post70_1"/>
      <use id="33WWQ3" x="41685.62" y="18565.86" xlink:href="#post70_1"/>
      <use id="33WXM1" x="42070.88" y="21714.74" xlink:href="#post70_1"/>
      <use id="33WXM2" x="42066.1" y="22232.03" xlink:href="#post70_1"/>
      <use id="33WXN1" x="42080.64" y="20675.91" xlink:href="#post70_1"/>
      <use id="33WXN2" x="42075.73" y="21196.05" xlink:href="#post70_1"/>
      <use id="33WXP1" x="42090.7" y="19631.01" xlink:href="#post70_1"/>
      <use id="33WXP2" x="42085.63" y="20154.25" xlink:href="#post70_1"/>
      <use id="33WXQ1" x="42252.89" y="18584.77" xlink:href="#post70_1"/>
      <use id="33WXQ2" x="42259.85" y="19111.77" xlink:href="#post70_1"/>
      <use id="33WXR2" x="42245.91" y="18055.97" xlink:href="#post70_1"/>
      <use id="34SDK4" x="44980.54" y="49197.36" xlink:href="#post70_1"/>
      <use id="34SEJ1" x="45509.27" y="49672.97" xlink:href="#post70_1"/>
      <use id="34SEJ3" x="46011.7" y="49645.79" xlink:href="#post70_1"/>
      <use id="34SEK2" x="45482.41" y="49170.82" xlink:href="#post70_1"/>
      <use id="34SEK4" x="45984.25" y="49143.7" xlink:href="#post70_1"/>
      <use id="34TBP3" x="42801.09" y="44800.36" xlink:href="#post70_1"/>
      <use id="34TBP4" x="42816.85" y="45298.5" xlink:href="#post70_1"/>
      <use id="34TCM1" x="43351.68" y="46771.21" xlink:href="#post70_1"/>
      <use id="34TCN1" x="43301.88" y="45773.68" xlink:href="#post70_1"/>
      <use id="34TCN2" x="43326.82" y="46272.23" xlink:href="#post70_1"/>
      <use id="34TCN3" x="43800.27" y="45748.5" xlink:href="#post70_1"/>
      <use id="34TCN4" x="43825.62" y="46247.12" xlink:href="#post70_1"/>
      <use id="34TCP1" x="43251.76" y="44777.72" xlink:href="#post70_1"/>
      <use id="34TCP2" x="43276.86" y="45275.52" xlink:href="#post70_1"/>
      <use id="34TCP3" x="43749.42" y="44752.42" xlink:href="#post70_1"/>
      <use id="34TCP4" x="43774.87" y="45250.28" xlink:href="#pre70_1"/>
      <use id="34TCQ4" x="43723.92" y="44254.9" xlink:href="#post70_1"/>
      <use id="34TDK3" x="44954.31" y="48695.76" xlink:href="#post70_1"/>
      <use id="34TDL1" x="44401.63" y="47720.17" xlink:href="#post70_1"/>
      <use id="34TDL2" x="44427.32" y="48220.68" xlink:href="#pre70_1"/>
      <use id="34TDL3" x="44901.88" y="47694.23" xlink:href="#post70_1"/>
      <use id="34TDL4" x="44928.09" y="48194.73" xlink:href="#post70_1"/>
      <use id="34TDM1" x="44350.21" y="46720.65" xlink:href="#post70_1"/>
      <use id="34TDM2" x="44375.93" y="47220.18" xlink:href="#pre70_1"/>
      <use id="34TDM3" x="44849.51" y="46694.7" xlink:href="#post70_1"/>
      <use id="34TDM4" x="44875.69" y="47194.23" xlink:href="#post70_1"/>
      <use id="34TDN2" x="44324.47" y="46221.58" xlink:href="#post70_1"/>
      <use id="34TDP2" x="44272.94" y="45224.67" xlink:href="#pre70_1"/>
      <use id="34TDP4" x="44771.03" y="45198.7" xlink:href="#post70_1"/>
      <use id="34TEK1" x="45455.61" y="48669.26" xlink:href="#post70_1"/>
      <use id="34TEL1" x="45402.13" y="47667.78" xlink:href="#post70_1"/>
      <use id="34TEL2" x="45428.85" y="48168.26" xlink:href="#post70_1"/>
      <use id="34TEL4" x="45929.56" y="48141.25" xlink:href="#post70_1"/>
      <use id="34TEM1" x="45348.81" y="46668.3" xlink:href="#post70_1"/>
      <use id="34TEM2" x="45375.45" y="47167.81" xlink:href="#post70_1"/>
      <use id="34TEP3" x="45740.31" y="44647.83" xlink:href="#post70_1"/>
      <use id="34TEQ3" x="45686.8" y="43653.11" xlink:href="#pre70_1"/>
      <use id="34TEQ4" x="45713.52" y="44150.32" xlink:href="#post70_1"/>
      <use id="34TER4" x="45660.13" y="43156.18" xlink:href="#pre70_1"/>
      <use id="34TFM1" x="46347.25" y="46614.17" xlink:href="#post70_1"/>
      <use id="34TFM3" x="46846.36" y="46586.44" xlink:href="#post70_1"/>
      <use id="34TFN1" x="46292.42" y="45616.74" xlink:href="#post70_1"/>
      <use id="34TFN2" x="46319.8" y="46115.24" xlink:href="#post70_1"/>
      <use id="34TFN3" x="46790.69" y="45589.22" xlink:href="#post70_1"/>
      <use id="34TFN4" x="46818.47" y="46087.62" xlink:href="#post70_1"/>
      <use id="34TFP2" x="46265.15" y="45118.62" xlink:href="#post70_1"/>
      <use id="34TFQ1" x="46183.83" y="43626.28" xlink:href="#pre70_1"/>
      <use id="34TFQ2" x="46210.85" y="44123.41" xlink:href="#post70_1"/>
      <use id="34TFQ3" x="46680.78" y="43599.17" xlink:href="#pre70_1"/>
      <use id="34TFR1" x="46130.06" y="42632.81" xlink:href="#pre70_1"/>
      <use id="34TFR2" x="46156.9" y="43129.42" xlink:href="#pre70_1"/>
      <use id="34TFR3" x="46626.52" y="42605.9" xlink:href="#pre70_1"/>
      <use id="34TFR4" x="46653.6" y="43102.41" xlink:href="#post70_1"/>
      <use id="34TFS1" x="46076.63" y="41640.2" xlink:href="#post70_1"/>
      <use id="34TFS3" x="46572.71" y="41613.48" xlink:href="#post70_1"/>
      <use id="34TFT2" x="46050.02" y="41144.15" xlink:href="#pre70_1"/>
      <use id="34TGL1" x="47408.52" y="47556.63" xlink:href="#post70_1"/>
      <use id="34TGM1" x="47334.02" y="46558.91" xlink:href="#post70_1"/>
      <use id="34TGM2" x="47371.23" y="47057.54" xlink:href="#post70_1"/>
      <use id="34TGN2" x="47296.9" y="46060.72" xlink:href="#post70_1"/>
      <use id="34TGQ1" x="47112.55" y="43575.39" xlink:href="#pre70_1"/>
      <use id="34TGR2" x="47075.92" y="43079.25" xlink:href="#pre70_1"/>
      <use id="34TGT1" x="47020.5" y="40594.77" xlink:href="#post70_1"/>
      <use id="34UCA2" x="42917.35" y="38326.91" xlink:href="#post70_1"/>
      <use id="34UCA4" x="43413.05" y="38300.56" xlink:href="#post70_1"/>
      <use id="34UCU1" x="42995.99" y="39813.79" xlink:href="#post70_1"/>
      <use id="34UCU3" x="43491.7" y="39787.71" xlink:href="#post70_1"/>
      <use id="34UCV1" x="42943.68" y="38822.54" xlink:href="#post70_1"/>
      <use id="34UCV2" x="42969.89" y="39318.15" xlink:href="#post70_1"/>
      <use id="34UCV3" x="43439.34" y="38796.28" xlink:href="#post70_1"/>
      <use id="34UCV4" x="43465.56" y="39291.98" xlink:href="#post70_1"/>
      <use id="34UDA2" x="43908.83" y="38274.25" xlink:href="#post70_1"/>
      <use id="34UDA3" x="44378.4" y="37752.13" xlink:href="#post70_1"/>
      <use id="34UDA4" x="44404.65" y="38247.99" xlink:href="#post70_1"/>
      <use id="34UDU1" x="43987.47" y="39761.58" xlink:href="#post70_1"/>
      <use id="34UDU3" x="44483.3" y="39735.41" xlink:href="#post70_1"/>
      <use id="34UDV1" x="43935.09" y="38770.04" xlink:href="#post70_1"/>
      <use id="34UDV2" x="43961.3" y="39265.8" xlink:href="#post70_1"/>
      <use id="34UDV3" x="44430.88" y="38743.81" xlink:href="#post70_1"/>
      <use id="34UDV4" x="44457.1" y="39239.61" xlink:href="#post70_1"/>
      <use id="34UEA4" x="45396.32" y="38195.6" xlink:href="#post70_1"/>
      <use id="34UEV1" x="44926.69" y="38717.59" xlink:href="#post70_1"/>
      <use id="34UEV2" x="44952.9" y="39213.39" xlink:href="#post70_1"/>
      <use id="34UEV3" x="45422.48" y="38691.39" xlink:href="#post70_1"/>
      <use id="34UEV4" x="45448.7" y="39187.16" xlink:href="#post70_1"/>
      <use id="34UFA2" x="45892.11" y="38169.49" xlink:href="#post70_1"/>
      <use id="34UFU4" x="46492.82" y="40125.96" xlink:href="#post70_1"/>
      <use id="34UFV1" x="45918.24" y="38665.22" xlink:href="#post70_1"/>
      <use id="34UFV2" x="45944.44" y="39160.92" xlink:href="#post70_1"/>
      <use id="34VDR1" x="43057.81" y="22712.34" xlink:href="#post70_1"/>
      <use id="34VDR3" x="43572.33" y="22683.86" xlink:href="#post70_1"/>
      <use id="34VEK3" x="44906.25" y="28728.73" xlink:href="#post70_1"/>
      <use id="34VEL4" x="44880.75" y="28225.56" xlink:href="#post70_1"/>
      <use id="34VEN3" x="44753.59" y="25697.43" xlink:href="#post70_1"/>
      <use id="34VEP1" x="44192.92" y="24705.53" xlink:href="#post70_1"/>
      <use id="34VEP2" x="44219.32" y="25214.93" xlink:href="#post70_1"/>
      <use id="34VEP3" x="44702.86" y="24679.64" xlink:href="#post70_1"/>
      <use id="34VEP4" x="44728.22" y="25189.06" xlink:href="#post70_1"/>
      <use id="34VEQ1" x="44140.01" y="23683.44" xlink:href="#post70_1"/>
      <use id="34VEQ2" x="44166.48" y="24195.05" xlink:href="#post70_1"/>
      <use id="34VEQ3" x="44652.21" y="23657.54" xlink:href="#post70_1"/>
      <use id="34VEQ4" x="44677.52" y="24169.16" xlink:href="#post70_1"/>
      <use id="34VER4" x="44626.9" y="23144.74" xlink:href="#post70_1"/>
      <use id="34VFK3" x="45915.86" y="28678.96" xlink:href="#post70_1"/>
      <use id="34VFL1" x="45359.59" y="27696.56" xlink:href="#post70_1"/>
      <use id="34VFL2" x="45384.29" y="28200.45" xlink:href="#post70_1"/>
      <use id="34VFL3" x="45822.72" y="27674.25" xlink:href="#post70_1"/>
      <use id="34VFL4" x="45869.32" y="28176.99" xlink:href="#post70_1"/>
      <use id="34VFM1" x="45310.4" y="26686.34" xlink:href="#post70_1"/>
      <use id="34VFN1" x="45321.53" y="25669.67" xlink:href="#post70_1"/>
      <use id="34VFN2" x="45357.45" y="26176.46" xlink:href="#post70_1"/>
      <use id="34VFP1" x="45249.62" y="24653.08" xlink:href="#post70_1"/>
      <use id="34VFP2" x="45285.59" y="25161.88" xlink:href="#post70_1"/>
      <use id="34VFQ1" x="45177.58" y="23632.19" xlink:href="#post70_1"/>
      <use id="34VFQ2" x="45213.61" y="24143.2" xlink:href="#post70_1"/>
      <use id="34VFR1" x="45105.4" y="22606.58" xlink:href="#post70_1"/>
      <use id="34VFR2" x="45141.52" y="23120" xlink:href="#post70_1"/>
      <use id="34WCS3" x="42517.5" y="21708.84" xlink:href="#post70_1"/>
      <use id="34WCS4" x="42535.94" y="22225.83" xlink:href="#post70_1"/>
      <use id="34WCT3" x="42480.31" y="20670.63" xlink:href="#post70_1"/>
      <use id="34WCT4" x="42498.95" y="21190.46" xlink:href="#post70_1"/>
      <use id="34WCU3" x="42442.67" y="19626.36" xlink:href="#post70_1"/>
      <use id="34WCU4" x="42461.55" y="20149.29" xlink:href="#post70_1"/>
      <use id="34WDA1" x="42758.01" y="17494.09" xlink:href="#post70_1"/>
      <use id="34WDA2" x="42788.85" y="18023.42" xlink:href="#post70_1"/>
      <use id="34WDA3" x="43288.38" y="17464.11" xlink:href="#post70_1"/>
      <use id="34WDA4" x="43317.33" y="17993.62" xlink:href="#post70_1"/>
      <use id="34WDS1" x="42999.24" y="21680.82" xlink:href="#post70_1"/>
      <use id="34WDS2" x="43028.61" y="22197.24" xlink:href="#post70_1"/>
      <use id="34WDS3" x="43516.44" y="21652.07" xlink:href="#post70_1"/>
      <use id="34WDS4" x="43544.43" y="22168.63" xlink:href="#post70_1"/>
      <use id="34WDT1" x="42940.03" y="20643.71" xlink:href="#post70_1"/>
      <use id="34WDT2" x="42969.72" y="21162.99" xlink:href="#post70_1"/>
      <use id="34WDT3" x="43460.13" y="20614.7" xlink:href="#post70_1"/>
      <use id="34WDU1" x="42880.13" y="19600.58" xlink:href="#post70_1"/>
      <use id="34WDU2" x="42910.17" y="20122.94" xlink:href="#post70_1"/>
      <use id="34WDU3" x="43403.37" y="19571.27" xlink:href="#post70_1"/>
      <use id="34WDU4" x="43431.81" y="20093.77" xlink:href="#post70_1"/>
      <use id="34WDV1" x="42819.48" y="18550.89" xlink:href="#post70_1"/>
      <use id="34WDV2" x="42849.9" y="19076.59" xlink:href="#post70_1"/>
      <use id="34WDV3" x="43346.14" y="18521.25" xlink:href="#post70_1"/>
      <use id="34WDV4" x="43374.82" y="19047.12" xlink:href="#post70_1"/>
      <use id="34WEA1" x="43818.9" y="17436.06" xlink:href="#post70_1"/>
      <use id="34WEA2" x="43845.95" y="17965.67" xlink:href="#post70_1"/>
      <use id="34WEA3" x="44349.47" y="17409.95" xlink:href="#post70_1"/>
      <use id="34WEA4" x="44374.63" y="17939.58" xlink:href="#post70_1"/>
      <use id="34WEB1" x="43764.6" y="16370.98" xlink:href="#post70_1"/>
      <use id="34WEB2" x="43791.78" y="16904.53" xlink:href="#post70_1"/>
      <use id="34WEB4" x="44324.33" y="16878.4" xlink:href="#post70_1"/>
      <use id="34WEU1" x="43926.74" y="19543.6" xlink:href="#post70_1"/>
      <use id="34WEU2" x="43953.56" y="20066.18" xlink:href="#post70_1"/>
      <use id="34WEU3" x="44450.16" y="19517.57" xlink:href="#post70_1"/>
      <use id="34WEU4" x="44475.37" y="20040.19" xlink:href="#post70_1"/>
      <use id="34WEV1" x="43872.93" y="18493.4" xlink:href="#post70_1"/>
      <use id="34WEV2" x="43899.87" y="19019.36" xlink:href="#post70_1"/>
      <use id="34WEV3" x="44399.79" y="18467.34" xlink:href="#post70_1"/>
      <use id="34WEV4" x="44424.97" y="18993.31" xlink:href="#post70_1"/>
      <use id="34WFA1" x="44868.98" y="17386.25" xlink:href="#post70_1"/>
      <use id="34WFA2" x="44917.96" y="17914.7" xlink:href="#post70_1"/>
      <use id="34WFB2" x="44819.81" y="16855.89" xlink:href="#post70_1"/>
      <use id="34WFS2" x="45069.27" y="22091.89" xlink:href="#post70_1"/>
      <use id="34WFU1" x="44887.91" y="19497.07" xlink:href="#post70_1"/>
      <use id="34WFV1" x="44966.78" y="18441.28" xlink:href="#post70_1"/>
      <use id="34WFV2" x="45015.43" y="18966.07" xlink:href="#post70_1"/>
      <use id="35TKF3" x="47918.88" y="47509.32" xlink:href="#post70_1"/>
      <use id="35TKG4" x="47863.79" y="47011.88" xlink:href="#post70_1"/>
      <use id="35TKH3" x="47698.5" y="45522.28" xlink:href="#post70_1"/>
      <use id="35TKH4" x="47753.61" y="46018.39" xlink:href="#post70_1"/>
      <use id="35TKL3" x="47367.5" y="42552.93" xlink:href="#pre70_1"/>
      <use id="35TKL4" x="47422.74" y="43047.1" xlink:href="#post70_1"/>
      <use id="35TLF1" x="48421.57" y="47444.61" xlink:href="#post70_1"/>
      <use id="35TLF3" x="48918.22" y="47380.15" xlink:href="#post70_1"/>
      <use id="35TLG1" x="48293.12" y="46452.33" xlink:href="#post70_1"/>
      <use id="35TLG2" x="48357.36" y="46948.22" xlink:href="#post70_1"/>
      <use id="35TLG3" x="48788.81" y="46387.83" xlink:href="#post70_1"/>
      <use id="35TLH1" x="48164.51" y="45461.86" xlink:href="#post70_1"/>
      <use id="35TLH2" x="48228.83" y="45956.88" xlink:href="#post70_1"/>
      <use id="35TLH3" x="48659.35" y="45397.31" xlink:href="#post70_1"/>
      <use id="35TLH4" x="48724.08" y="45892.36" xlink:href="#post70_1"/>
      <use id="35TLL1" x="47777.46" y="42499.2" xlink:href="#post70_1"/>
      <use id="35TLL2" x="47842.13" y="42992.22" xlink:href="#post70_1"/>
      <use id="35TLL3" x="48270.41" y="42434.39" xlink:href="#pre70_1"/>
      <use id="35TLL4" x="48335.32" y="42927.47" xlink:href="#post70_1"/>
      <use id="35TLN1" x="47518.06" y="40529.11" xlink:href="#pre70_1"/>
      <use id="35TLN3" x="48010.32" y="40464.04" xlink:href="#post70_1"/>
      <use id="35TLN4" x="48075.43" y="40956.38" xlink:href="#post70_1"/>
      <use id="35TMG1" x="49284.51" y="46322.89" xlink:href="#post70_1"/>
      <use id="35TMH2" x="49219.35" y="45827.42" xlink:href="#post70_1"/>
      <use id="35TML1" x="48763.4" y="42369.35" xlink:href="#post70_1"/>
      <use id="35TML2" x="48828.55" y="42862.46" xlink:href="#pre70_1"/>
      <use id="35TML3" x="49256.4" y="42304.08" xlink:href="#post70_1"/>
      <use id="35TMM1" x="48633.06" y="41383.77" xlink:href="#pre70_1"/>
      <use id="35TMM2" x="48698.25" y="41876.46" xlink:href="#post70_1"/>
      <use id="35TMM3" x="49125.68" y="41318.49" xlink:href="#post70_1"/>
      <use id="35TMM4" x="49191.04" y="41811.19" xlink:href="#pre70_1"/>
      <use id="35TMN2" x="48567.86" y="40891.24" xlink:href="#pre70_1"/>
      <use id="35TNM3" x="50110.87" y="41187.47" xlink:href="#post70_1"/>
      <use id="35VLC3" x="46689.29" y="30599.89" xlink:href="#post70_1"/>
      <use id="35VLC4" x="46756.54" y="31095.91" xlink:href="#post70_1"/>
      <use id="35VLD3" x="46554.28" y="29606.17" xlink:href="#post70_1"/>
      <use id="35VLD4" x="46621.87" y="30103.32" xlink:href="#post70_1"/>
      <use id="35VLE3" x="46418.56" y="28610" xlink:href="#post70_1"/>
      <use id="35VLE4" x="46486.52" y="29108.42" xlink:href="#post70_1"/>
      <use id="35VLF3" x="46282.05" y="27611.04" xlink:href="#post70_1"/>
      <use id="35VLF4" x="46350.41" y="28110.89" xlink:href="#post70_1"/>
      <use id="35VLH3" x="45946.86" y="25611.7" xlink:href="#post70_1"/>
      <use id="35VLH4" x="46004.72" y="26116.46" xlink:href="#post70_1"/>
      <use id="35VLJ3" x="45830.67" y="24599.22" xlink:href="#post70_1"/>
      <use id="35VLJ4" x="45888.85" y="25105.96" xlink:href="#post70_1"/>
      <use id="35VLK3" x="45713.82" y="23582.48" xlink:href="#post70_1"/>
      <use id="35VLK4" x="45772.33" y="24091.4" xlink:href="#post70_1"/>
      <use id="35VLL3" x="45596.23" y="22561.08" xlink:href="#post70_1"/>
      <use id="35VLL4" x="45655.11" y="23072.39" xlink:href="#post70_1"/>
      <use id="35VMC1" x="47185.66" y="30532.83" xlink:href="#post70_1"/>
      <use id="35VMC2" x="47252.38" y="31028.99" xlink:href="#post70_1"/>
      <use id="35VMC3" x="47682.16" y="30466.31" xlink:href="#post70_1"/>
      <use id="35VMC4" x="47748.36" y="30962.59" xlink:href="#post70_1"/>
      <use id="35VMD1" x="47051.82" y="29538.8" xlink:href="#post70_1"/>
      <use id="35VMD2" x="47118.81" y="30036.1" xlink:href="#post70_1"/>
      <use id="35VMD3" x="47549.5" y="29472.06" xlink:href="#post70_1"/>
      <use id="35VMD4" x="47615.88" y="29969.48" xlink:href="#post70_1"/>
      <use id="35VME1" x="46917.4" y="28542.29" xlink:href="#post70_1"/>
      <use id="35VME2" x="46984.69" y="29040.88" xlink:href="#post70_1"/>
      <use id="35VME3" x="47416.41" y="28475.29" xlink:href="#post70_1"/>
      <use id="35VME4" x="47483.01" y="28974.01" xlink:href="#post70_1"/>
      <use id="35VMF1" x="46782.37" y="27542.98" xlink:href="#post70_1"/>
      <use id="35VMF2" x="46849.97" y="28043" xlink:href="#post70_1"/>
      <use id="35VMF3" x="47282.87" y="27475.69" xlink:href="#post70_1"/>
      <use id="35VMF4" x="47349.7" y="27975.87" xlink:href="#post70_1"/>
      <use id="35VMG2" x="46714.61" y="27042.17" xlink:href="#post70_1"/>
      <use id="35VMG4" x="47215.91" y="26974.72" xlink:href="#post70_1"/>
      <use id="35VMH1" x="46510.23" y="25534.58" xlink:href="#post70_1"/>
      <use id="35VMH2" x="46578.55" y="26038.02" xlink:href="#post70_1"/>
      <use id="35VMH3" x="47014.22" y="25466.65" xlink:href="#post70_1"/>
      <use id="35VMH4" x="47081.59" y="25970.25" xlink:href="#post70_1"/>
      <use id="35VMJ1" x="46372.99" y="24524.81" xlink:href="#post70_1"/>
      <use id="35VMJ2" x="46441.72" y="25030.21" xlink:href="#post70_1"/>
      <use id="35VMJ3" x="46879.01" y="24456.52" xlink:href="#post70_1"/>
      <use id="35VMJ4" x="46946.69" y="24962.09" xlink:href="#post70_1"/>
      <use id="35VMK1" x="46234.9" y="23510.82" xlink:href="#post70_1"/>
      <use id="35VMK2" x="46304.06" y="24018.37" xlink:href="#post70_1"/>
      <use id="35VMK3" x="46743.13" y="23442.12" xlink:href="#post70_1"/>
      <use id="35VMK4" x="46811.15" y="23949.88" xlink:href="#post70_1"/>
      <use id="35VML1" x="46095.87" y="22492.2" xlink:href="#post70_1"/>
      <use id="35VML2" x="46165.51" y="23002.11" xlink:href="#post70_1"/>
      <use id="35VML3" x="46606.53" y="22423.07" xlink:href="#post70_1"/>
      <use id="35VML4" x="46674.92" y="22933.21" xlink:href="#post70_1"/>
      <use id="35VNC1" x="48178.76" y="30400.35" xlink:href="#post70_1"/>
      <use id="35VND1" x="48047.27" y="29405.94" xlink:href="#post70_1"/>
      <use id="35VND2" x="48113.05" y="29903.44" xlink:href="#post70_1"/>
      <use id="35VNE1" x="47915.53" y="28408.99" xlink:href="#post70_1"/>
      <use id="35VNE2" x="47981.44" y="28907.8" xlink:href="#post70_1"/>
      <use id="35VNF1" x="47783.49" y="27409.19" xlink:href="#post70_1"/>
      <use id="35VNF2" x="47849.55" y="27909.47" xlink:href="#post70_1"/>
      <use id="35VNF3" x="48284.2" y="27343.49" xlink:href="#post70_1"/>
      <use id="35VNH1" x="47518.36" y="25399.69" xlink:href="#post70_1"/>
      <use id="35VNH2" x="47584.79" y="25903.41" xlink:href="#post70_1"/>
      <use id="35VNH3" x="48022.61" y="25333.7" xlink:href="#post70_1"/>
      <use id="35VNJ1" x="47385.19" y="24389.28" xlink:href="#post70_1"/>
      <use id="35VNJ2" x="47451.83" y="24894.99" xlink:href="#post70_1"/>
      <use id="35VNJ3" x="47891.48" y="24323.11" xlink:href="#post70_1"/>
      <use id="35VNJ4" x="47957.08" y="24828.93" xlink:href="#post70_1"/>
      <use id="35VNK1" x="47251.54" y="23374.59" xlink:href="#post70_1"/>
      <use id="35VNK2" x="47318.43" y="23882.5" xlink:href="#post70_1"/>
      <use id="35VNK3" x="47760.08" y="23308.23" xlink:href="#post70_1"/>
      <use id="35VNL1" x="47117.38" y="22355.22" xlink:href="#post70_1"/>
      <use id="35VNL2" x="47184.53" y="22865.51" xlink:href="#post70_1"/>
      <use id="35VNL3" x="47628.37" y="22288.64" xlink:href="#post70_1"/>
      <use id="35VNL4" x="47694.26" y="22799.04" xlink:href="#post70_1"/>
      <use id="35VPJ1" x="48434.42" y="24253.36" xlink:href="#post70_1"/>
      <use id="35VPJ2" x="48510.55" y="24757.72" xlink:href="#post70_1"/>
      <use id="35VPK1" x="48281.8" y="23241.37" xlink:href="#post70_1"/>
      <use id="35VPK2" x="48358.17" y="23747.93" xlink:href="#post70_1"/>
      <use id="35VPL1" x="48128.67" y="22224.7" xlink:href="#post70_1"/>
      <use id="35VPL2" x="48205.31" y="22733.64" xlink:href="#post70_1"/>
      <use id="35WLM3" x="45477.83" y="21534.61" xlink:href="#post70_1"/>
      <use id="35WLM4" x="45537.13" y="22048.51" xlink:href="#post70_1"/>
      <use id="35WLP3" x="45238.4" y="19464.58" xlink:href="#post70_1"/>
      <use id="35WLP4" x="45298.62" y="19984.38" xlink:href="#post70_1"/>
      <use id="35WMM2" x="46025.99" y="21981.02" xlink:href="#post70_1"/>
      <use id="35WMM3" x="46469.14" y="21398.95" xlink:href="#post70_1"/>
      <use id="35WMM4" x="46537.94" y="21911.67" xlink:href="#post70_1"/>
      <use id="35WMN1" x="45814.73" y="20439.38" xlink:href="#post70_1"/>
      <use id="35WMN3" x="46330.9" y="20369.29" xlink:href="#post70_1"/>
      <use id="35WMN4" x="46400.13" y="20884.84" xlink:href="#post70_1"/>
      <use id="35WMP1" x="45672.45" y="19404.26" xlink:href="#post70_1"/>
      <use id="35WMP2" x="45743.75" y="19922.6" xlink:href="#post70_1"/>
      <use id="35WMP3" x="46191.74" y="19333.62" xlink:href="#post70_1"/>
      <use id="35WMP4" x="46261.44" y="19852.24" xlink:href="#post70_1"/>
      <use id="35WMQ1" x="45528.91" y="18362.66" xlink:href="#post70_1"/>
      <use id="35WMQ2" x="45600.84" y="18884.3" xlink:href="#post70_1"/>
      <use id="35WMQ3" x="46051.57" y="18291.43" xlink:href="#post70_1"/>
      <use id="35WMQ4" x="46121.79" y="18813.37" xlink:href="#post70_1"/>
      <use id="35WMR1" x="45383.99" y="17314.04" xlink:href="#post70_1"/>
      <use id="35WMR2" x="45456.62" y="17839.27" xlink:href="#post70_1"/>
      <use id="35WMR3" x="45910.32" y="17242.18" xlink:href="#post70_1"/>
      <use id="35WMR4" x="45981.09" y="17767.73" xlink:href="#post70_1"/>
      <use id="35WMS1" x="45237.59" y="16257.82" xlink:href="#post70_1"/>
      <use id="35WMS2" x="45310.99" y="16786.93" xlink:href="#post70_1"/>
      <use id="35WMS3" x="45767.9" y="16185.27" xlink:href="#post70_1"/>
      <use id="35WMS4" x="45839.26" y="16714.72" xlink:href="#post70_1"/>
      <use id="35WMT4" x="45696.22" y="15653.74" xlink:href="#post70_1"/>
      <use id="35WNM1" x="46982.65" y="21330.74" xlink:href="#post70_1"/>
      <use id="35WNM2" x="47050.09" y="21843.65" xlink:href="#post70_1"/>
      <use id="35WNM3" x="47496.31" y="21263.92" xlink:href="#post70_1"/>
      <use id="35WNM4" x="47562.39" y="21776.94" xlink:href="#post70_1"/>
      <use id="35WNN1" x="46847.3" y="20300.69" xlink:href="#post70_1"/>
      <use id="35WNN2" x="46915.05" y="20816.44" xlink:href="#post70_1"/>
      <use id="35WNN3" x="47363.87" y="20233.61" xlink:href="#post70_1"/>
      <use id="35WNN4" x="47430.14" y="20749.49" xlink:href="#post70_1"/>
      <use id="35WNP1" x="46711.27" y="19264.61" xlink:href="#post70_1"/>
      <use id="35WNP2" x="46779.37" y="19783.44" xlink:href="#post70_1"/>
      <use id="35WNP3" x="47230.99" y="19197.24" xlink:href="#post70_1"/>
      <use id="35WNP4" x="47297.48" y="19716.22" xlink:href="#post70_1"/>
      <use id="35WNQ1" x="46574.51" y="18221.97" xlink:href="#post70_1"/>
      <use id="35WNQ2" x="46642.99" y="18744.14" xlink:href="#post70_1"/>
      <use id="35WNQ3" x="47097.65" y="18154.29" xlink:href="#post70_1"/>
      <use id="35WNQ4" x="47164.38" y="18676.62" xlink:href="#post70_1"/>
      <use id="35WNR1" x="46436.95" y="17172.23" xlink:href="#post70_1"/>
      <use id="35WNR2" x="46505.83" y="17698.03" xlink:href="#post70_1"/>
      <use id="35WNR3" x="46963.8" y="17104.2" xlink:href="#post70_1"/>
      <use id="35WNR4" x="47030.79" y="17630.18" xlink:href="#post70_1"/>
      <use id="35WNS1" x="46298.52" y="16114.78" xlink:href="#post70_1"/>
      <use id="35WNS2" x="46367.85" y="16644.51" xlink:href="#post70_1"/>
      <use id="35WNS3" x="46829.38" y="16046.39" xlink:href="#post70_1"/>
      <use id="35WNS4" x="46896.66" y="16576.31" xlink:href="#post70_1"/>
      <use id="35WNT2" x="46228.96" y="15582.98" xlink:href="#post70_1"/>
      <use id="35WNT4" x="46761.95" y="15514.38" xlink:href="#post70_1"/>
      <use id="35WPM1" x="47975" y="21202.91" xlink:href="#post70_1"/>
      <use id="35WPM2" x="48051.91" y="21714.48" xlink:href="#post70_1"/>
      <use id="35WPN1" x="47820.7" y="20175.56" xlink:href="#post70_1"/>
      <use id="35WPN2" x="47897.94" y="20689.95" xlink:href="#post70_1"/>
      <use id="35WPP1" x="47665.74" y="19142.16" xlink:href="#post70_1"/>
      <use id="35WPP2" x="47743.31" y="19659.65" xlink:href="#post70_1"/>
      <use id="35WPQ1" x="47660.8" y="18083.44" xlink:href="#post70_1"/>
      <use id="35WPR2" x="47570.45" y="17562.37" xlink:href="#post70_1"/>
      <use id="36VUP3" x="49009.39" y="24153.67" xlink:href="#post70_1"/>
      <use id="36VUQ3" x="48812.42" y="23149.37" xlink:href="#post70_1"/>
      <use id="36VUQ4" x="48911.04" y="23652.07" xlink:href="#post70_1"/>
      <use id="36VUR3" x="48614.36" y="22140.49" xlink:href="#post70_1"/>
      <use id="36VUR4" x="48713.53" y="22645.53" xlink:href="#post70_1"/>
      <use id="36VVQ1" x="49326.2" y="23036.69" xlink:href="#post70_1"/>
      <use id="36WUS3" x="48415.09" y="21126.61" xlink:href="#post70_1"/>
      <use id="36WUS4" x="48514.88" y="21634.21" xlink:href="#post70_1"/>
    </g>
    <defs>
      <circle id="post70_1" r="250" fill="#dc5107"/>
      <circle id="pre70_1" r="250" fill="darkgrey"/>
      <circle id="post70_2" r="250" stroke-width="40" fill="white" fill-opacity="0.1" stroke="red"/>
      <circle id="pre70_2" r="250" stroke-width="40" fill="white" fill-opacity="0.1" stroke="pink"/>
    </defs>
  </g>
</svg>